G04 #@! TF.GenerationSoftware,KiCad,Pcbnew,5.0.2-bee76a0~70~ubuntu16.04.1*
G04 #@! TF.CreationDate,2020-01-09T22:15:49-06:00*
G04 #@! TF.ProjectId,8-Bit-Computer-Clock-Module,382d4269-742d-4436-9f6d-70757465722d,rev?*
G04 #@! TF.SameCoordinates,Original*
G04 #@! TF.FileFunction,Soldermask,Top*
G04 #@! TF.FilePolarity,Negative*
%FSLAX46Y46*%
G04 Gerber Fmt 4.6, Leading zero omitted, Abs format (unit mm)*
G04 Created by KiCad (PCBNEW 5.0.2-bee76a0~70~ubuntu16.04.1) date jue 09 ene 2020 22:15:49 CST*
%MOMM*%
%LPD*%
G01*
G04 APERTURE LIST*
%ADD10C,0.100000*%
G04 APERTURE END LIST*
D10*
G36*
X112137000Y-122863917D02*
X112139402Y-122888303D01*
X112146515Y-122911752D01*
X112158066Y-122933363D01*
X112173612Y-122952305D01*
X112192554Y-122967851D01*
X112214165Y-122979402D01*
X112237614Y-122986515D01*
X112262000Y-122988917D01*
X112286386Y-122986515D01*
X112309835Y-122979402D01*
X112331446Y-122967851D01*
X112350388Y-122952305D01*
X112365928Y-122933370D01*
X112370928Y-122925887D01*
X112511887Y-122784928D01*
X112677638Y-122674177D01*
X112861810Y-122597890D01*
X113057327Y-122559000D01*
X113256673Y-122559000D01*
X113452190Y-122597890D01*
X113636362Y-122674177D01*
X113802113Y-122784928D01*
X113943072Y-122925887D01*
X114053823Y-123091638D01*
X114057520Y-123100564D01*
X114069066Y-123122164D01*
X114084612Y-123141106D01*
X114103554Y-123156652D01*
X114125165Y-123168203D01*
X114148614Y-123175316D01*
X114173000Y-123177718D01*
X114197386Y-123175316D01*
X114220836Y-123168203D01*
X114242446Y-123156652D01*
X114261388Y-123141106D01*
X114276934Y-123122164D01*
X114288480Y-123100564D01*
X114292177Y-123091638D01*
X114402928Y-122925887D01*
X114543887Y-122784928D01*
X114709638Y-122674177D01*
X114893810Y-122597890D01*
X115089327Y-122559000D01*
X115288673Y-122559000D01*
X115484190Y-122597890D01*
X115668362Y-122674177D01*
X115834113Y-122784928D01*
X115975072Y-122925887D01*
X116085823Y-123091638D01*
X116162110Y-123275810D01*
X116201000Y-123471327D01*
X116201000Y-123670673D01*
X116162110Y-123866190D01*
X116085823Y-124050362D01*
X115975072Y-124216113D01*
X115834113Y-124357072D01*
X115668362Y-124467823D01*
X115484190Y-124544110D01*
X115288673Y-124583000D01*
X115089327Y-124583000D01*
X114893810Y-124544110D01*
X114709638Y-124467823D01*
X114543887Y-124357072D01*
X114402928Y-124216113D01*
X114292177Y-124050362D01*
X114288480Y-124041436D01*
X114276934Y-124019836D01*
X114261388Y-124000894D01*
X114242446Y-123985348D01*
X114220835Y-123973797D01*
X114197386Y-123966684D01*
X114173000Y-123964282D01*
X114148614Y-123966684D01*
X114125164Y-123973797D01*
X114103554Y-123985348D01*
X114084612Y-124000894D01*
X114069066Y-124019836D01*
X114057520Y-124041436D01*
X114053823Y-124050362D01*
X113943072Y-124216113D01*
X113802113Y-124357072D01*
X113636362Y-124467823D01*
X113452190Y-124544110D01*
X113256673Y-124583000D01*
X113057327Y-124583000D01*
X112861810Y-124544110D01*
X112677638Y-124467823D01*
X112511887Y-124357072D01*
X112370928Y-124216113D01*
X112365928Y-124208630D01*
X112350388Y-124189694D01*
X112331445Y-124174149D01*
X112309834Y-124162598D01*
X112286385Y-124155485D01*
X112261999Y-124153083D01*
X112237613Y-124155485D01*
X112214164Y-124162598D01*
X112192553Y-124174150D01*
X112173611Y-124189695D01*
X112158066Y-124208638D01*
X112146515Y-124230249D01*
X112139402Y-124253698D01*
X112137000Y-124278083D01*
X112137000Y-124583000D01*
X110113000Y-124583000D01*
X110113000Y-122559000D01*
X112137000Y-122559000D01*
X112137000Y-122863917D01*
X112137000Y-122863917D01*
G37*
G36*
X142535190Y-120819890D02*
X142719362Y-120896177D01*
X142885113Y-121006928D01*
X143026072Y-121147887D01*
X143136823Y-121313638D01*
X143213110Y-121497810D01*
X143252000Y-121693327D01*
X143252000Y-121892673D01*
X143213110Y-122088190D01*
X143136823Y-122272362D01*
X143026072Y-122438113D01*
X142885113Y-122579072D01*
X142719362Y-122689823D01*
X142535190Y-122766110D01*
X142339673Y-122805000D01*
X142140327Y-122805000D01*
X141944810Y-122766110D01*
X141760638Y-122689823D01*
X141594887Y-122579072D01*
X141453928Y-122438113D01*
X141343177Y-122272362D01*
X141266890Y-122088190D01*
X141228000Y-121892673D01*
X141228000Y-121693327D01*
X141266890Y-121497810D01*
X141343177Y-121313638D01*
X141453928Y-121147887D01*
X141594887Y-121006928D01*
X141760638Y-120896177D01*
X141944810Y-120819890D01*
X142140327Y-120781000D01*
X142339673Y-120781000D01*
X142535190Y-120819890D01*
X142535190Y-120819890D01*
G37*
G36*
X137518690Y-120819890D02*
X137702862Y-120896177D01*
X137868613Y-121006928D01*
X138009572Y-121147887D01*
X138120323Y-121313638D01*
X138196610Y-121497810D01*
X138235500Y-121693327D01*
X138235500Y-121892673D01*
X138196610Y-122088190D01*
X138120323Y-122272362D01*
X138009572Y-122438113D01*
X137868613Y-122579072D01*
X137702862Y-122689823D01*
X137518690Y-122766110D01*
X137323173Y-122805000D01*
X137123827Y-122805000D01*
X136928310Y-122766110D01*
X136744138Y-122689823D01*
X136578387Y-122579072D01*
X136437428Y-122438113D01*
X136326677Y-122272362D01*
X136250390Y-122088190D01*
X136211500Y-121892673D01*
X136211500Y-121693327D01*
X136250390Y-121497810D01*
X136326677Y-121313638D01*
X136437428Y-121147887D01*
X136578387Y-121006928D01*
X136744138Y-120896177D01*
X136928310Y-120819890D01*
X137123827Y-120781000D01*
X137323173Y-120781000D01*
X137518690Y-120819890D01*
X137518690Y-120819890D01*
G37*
G36*
X121032707Y-118718596D02*
X121109836Y-118726193D01*
X121241787Y-118766220D01*
X121307763Y-118786233D01*
X121490172Y-118883733D01*
X121650054Y-119014946D01*
X121781267Y-119174828D01*
X121878767Y-119357237D01*
X121878767Y-119357238D01*
X121938807Y-119555164D01*
X121959080Y-119761000D01*
X121938807Y-119966836D01*
X121911609Y-120056497D01*
X121878767Y-120164763D01*
X121781267Y-120347172D01*
X121650054Y-120507054D01*
X121490172Y-120638267D01*
X121307763Y-120735767D01*
X121241787Y-120755780D01*
X121109836Y-120795807D01*
X121032707Y-120803403D01*
X120955580Y-120811000D01*
X120852420Y-120811000D01*
X120775293Y-120803403D01*
X120698164Y-120795807D01*
X120566213Y-120755780D01*
X120500237Y-120735767D01*
X120317828Y-120638267D01*
X120157946Y-120507054D01*
X120026733Y-120347172D01*
X119929233Y-120164763D01*
X119896391Y-120056497D01*
X119869193Y-119966836D01*
X119848920Y-119761000D01*
X119869193Y-119555164D01*
X119929233Y-119357238D01*
X119929233Y-119357237D01*
X120026733Y-119174828D01*
X120157946Y-119014946D01*
X120317828Y-118883733D01*
X120500237Y-118786233D01*
X120566213Y-118766220D01*
X120698164Y-118726193D01*
X120775293Y-118718596D01*
X120852420Y-118711000D01*
X120955580Y-118711000D01*
X121032707Y-118718596D01*
X121032707Y-118718596D01*
G37*
G36*
X128652707Y-118718596D02*
X128729836Y-118726193D01*
X128861787Y-118766220D01*
X128927763Y-118786233D01*
X129110172Y-118883733D01*
X129270054Y-119014946D01*
X129401267Y-119174828D01*
X129498767Y-119357237D01*
X129498767Y-119357238D01*
X129558807Y-119555164D01*
X129579080Y-119761000D01*
X129558807Y-119966836D01*
X129531609Y-120056497D01*
X129498767Y-120164763D01*
X129401267Y-120347172D01*
X129270054Y-120507054D01*
X129110172Y-120638267D01*
X128927763Y-120735767D01*
X128861787Y-120755780D01*
X128729836Y-120795807D01*
X128652707Y-120803403D01*
X128575580Y-120811000D01*
X128472420Y-120811000D01*
X128395293Y-120803403D01*
X128318164Y-120795807D01*
X128186213Y-120755780D01*
X128120237Y-120735767D01*
X127937828Y-120638267D01*
X127777946Y-120507054D01*
X127646733Y-120347172D01*
X127549233Y-120164763D01*
X127516391Y-120056497D01*
X127489193Y-119966836D01*
X127468920Y-119761000D01*
X127489193Y-119555164D01*
X127549233Y-119357238D01*
X127549233Y-119357237D01*
X127646733Y-119174828D01*
X127777946Y-119014946D01*
X127937828Y-118883733D01*
X128120237Y-118786233D01*
X128186213Y-118766220D01*
X128318164Y-118726193D01*
X128395293Y-118718596D01*
X128472420Y-118711000D01*
X128575580Y-118711000D01*
X128652707Y-118718596D01*
X128652707Y-118718596D01*
G37*
G36*
X110361888Y-118080470D02*
X110542274Y-118116350D01*
X110733362Y-118195502D01*
X110905336Y-118310411D01*
X111051589Y-118456664D01*
X111166498Y-118628638D01*
X111245650Y-118819726D01*
X111266445Y-118924274D01*
X111285837Y-119021762D01*
X111286000Y-119022584D01*
X111286000Y-119229416D01*
X111245650Y-119432274D01*
X111166498Y-119623362D01*
X111051589Y-119795336D01*
X110905336Y-119941589D01*
X110733362Y-120056498D01*
X110542274Y-120135650D01*
X110361888Y-120171530D01*
X110339417Y-120176000D01*
X110132583Y-120176000D01*
X110110112Y-120171530D01*
X109929726Y-120135650D01*
X109738638Y-120056498D01*
X109566664Y-119941589D01*
X109420411Y-119795336D01*
X109305502Y-119623362D01*
X109226350Y-119432274D01*
X109186000Y-119229416D01*
X109186000Y-119022584D01*
X109186164Y-119021762D01*
X109205555Y-118924274D01*
X109226350Y-118819726D01*
X109305502Y-118628638D01*
X109420411Y-118456664D01*
X109566664Y-118310411D01*
X109738638Y-118195502D01*
X109929726Y-118116350D01*
X110110112Y-118080470D01*
X110132583Y-118076000D01*
X110339417Y-118076000D01*
X110361888Y-118080470D01*
X110361888Y-118080470D01*
G37*
G36*
X95629888Y-117572470D02*
X95810274Y-117608350D01*
X96001362Y-117687502D01*
X96173336Y-117802411D01*
X96319589Y-117948664D01*
X96434498Y-118120638D01*
X96513650Y-118311726D01*
X96554000Y-118514584D01*
X96554000Y-118721416D01*
X96513650Y-118924274D01*
X96434498Y-119115362D01*
X96319589Y-119287336D01*
X96173336Y-119433589D01*
X96001362Y-119548498D01*
X95810274Y-119627650D01*
X95629888Y-119663530D01*
X95607417Y-119668000D01*
X95400583Y-119668000D01*
X95378112Y-119663530D01*
X95197726Y-119627650D01*
X95006638Y-119548498D01*
X94834664Y-119433589D01*
X94688411Y-119287336D01*
X94573502Y-119115362D01*
X94494350Y-118924274D01*
X94454000Y-118721416D01*
X94454000Y-118514584D01*
X94494350Y-118311726D01*
X94573502Y-118120638D01*
X94688411Y-117948664D01*
X94834664Y-117802411D01*
X95006638Y-117687502D01*
X95197726Y-117608350D01*
X95378112Y-117572470D01*
X95400583Y-117568000D01*
X95607417Y-117568000D01*
X95629888Y-117572470D01*
X95629888Y-117572470D01*
G37*
G36*
X91822707Y-117575596D02*
X91899836Y-117583193D01*
X92031787Y-117623220D01*
X92097763Y-117643233D01*
X92280172Y-117740733D01*
X92440054Y-117871946D01*
X92571267Y-118031828D01*
X92668767Y-118214237D01*
X92668767Y-118214238D01*
X92728807Y-118412164D01*
X92749080Y-118618000D01*
X92728807Y-118823836D01*
X92688780Y-118955787D01*
X92668767Y-119021763D01*
X92571267Y-119204172D01*
X92440054Y-119364054D01*
X92280172Y-119495267D01*
X92097763Y-119592767D01*
X92031787Y-119612780D01*
X91899836Y-119652807D01*
X91822707Y-119660403D01*
X91745580Y-119668000D01*
X91642420Y-119668000D01*
X91565293Y-119660403D01*
X91488164Y-119652807D01*
X91356213Y-119612780D01*
X91290237Y-119592767D01*
X91107828Y-119495267D01*
X90947946Y-119364054D01*
X90816733Y-119204172D01*
X90719233Y-119021763D01*
X90699220Y-118955787D01*
X90659193Y-118823836D01*
X90638920Y-118618000D01*
X90659193Y-118412164D01*
X90719233Y-118214238D01*
X90719233Y-118214237D01*
X90816733Y-118031828D01*
X90947946Y-117871946D01*
X91107828Y-117740733D01*
X91290237Y-117643233D01*
X91356213Y-117623220D01*
X91488164Y-117583193D01*
X91565293Y-117575596D01*
X91642420Y-117568000D01*
X91745580Y-117568000D01*
X91822707Y-117575596D01*
X91822707Y-117575596D01*
G37*
G36*
X99442707Y-117575596D02*
X99519836Y-117583193D01*
X99651787Y-117623220D01*
X99717763Y-117643233D01*
X99900172Y-117740733D01*
X100060054Y-117871946D01*
X100191267Y-118031828D01*
X100288767Y-118214237D01*
X100288767Y-118214238D01*
X100348807Y-118412164D01*
X100369080Y-118618000D01*
X100348807Y-118823836D01*
X100308780Y-118955787D01*
X100288767Y-119021763D01*
X100191267Y-119204172D01*
X100060054Y-119364054D01*
X99900172Y-119495267D01*
X99717763Y-119592767D01*
X99651787Y-119612780D01*
X99519836Y-119652807D01*
X99442707Y-119660403D01*
X99365580Y-119668000D01*
X99262420Y-119668000D01*
X99185293Y-119660403D01*
X99108164Y-119652807D01*
X98976213Y-119612780D01*
X98910237Y-119592767D01*
X98727828Y-119495267D01*
X98567946Y-119364054D01*
X98436733Y-119204172D01*
X98339233Y-119021763D01*
X98319220Y-118955787D01*
X98279193Y-118823836D01*
X98258920Y-118618000D01*
X98279193Y-118412164D01*
X98339233Y-118214238D01*
X98339233Y-118214237D01*
X98436733Y-118031828D01*
X98567946Y-117871946D01*
X98727828Y-117740733D01*
X98910237Y-117643233D01*
X98976213Y-117623220D01*
X99108164Y-117583193D01*
X99185293Y-117575596D01*
X99262420Y-117568000D01*
X99365580Y-117568000D01*
X99442707Y-117575596D01*
X99442707Y-117575596D01*
G37*
G36*
X107062707Y-117575596D02*
X107139836Y-117583193D01*
X107271787Y-117623220D01*
X107337763Y-117643233D01*
X107520172Y-117740733D01*
X107680054Y-117871946D01*
X107811267Y-118031828D01*
X107908767Y-118214237D01*
X107908767Y-118214238D01*
X107968807Y-118412164D01*
X107989080Y-118618000D01*
X107968807Y-118823836D01*
X107928780Y-118955787D01*
X107908767Y-119021763D01*
X107811267Y-119204172D01*
X107680054Y-119364054D01*
X107520172Y-119495267D01*
X107337763Y-119592767D01*
X107271787Y-119612780D01*
X107139836Y-119652807D01*
X107062707Y-119660403D01*
X106985580Y-119668000D01*
X106882420Y-119668000D01*
X106805293Y-119660403D01*
X106728164Y-119652807D01*
X106596213Y-119612780D01*
X106530237Y-119592767D01*
X106347828Y-119495267D01*
X106187946Y-119364054D01*
X106056733Y-119204172D01*
X105959233Y-119021763D01*
X105939220Y-118955787D01*
X105899193Y-118823836D01*
X105878920Y-118618000D01*
X105899193Y-118412164D01*
X105959233Y-118214238D01*
X105959233Y-118214237D01*
X106056733Y-118031828D01*
X106187946Y-117871946D01*
X106347828Y-117740733D01*
X106530237Y-117643233D01*
X106596213Y-117623220D01*
X106728164Y-117583193D01*
X106805293Y-117575596D01*
X106882420Y-117568000D01*
X106985580Y-117568000D01*
X107062707Y-117575596D01*
X107062707Y-117575596D01*
G37*
G36*
X128652707Y-116178596D02*
X128729836Y-116186193D01*
X128861787Y-116226220D01*
X128927763Y-116246233D01*
X129110172Y-116343733D01*
X129270054Y-116474946D01*
X129401267Y-116634828D01*
X129498767Y-116817237D01*
X129498767Y-116817238D01*
X129558807Y-117015164D01*
X129579080Y-117221000D01*
X129558807Y-117426836D01*
X129519475Y-117556497D01*
X129498767Y-117624763D01*
X129401267Y-117807172D01*
X129270054Y-117967054D01*
X129110172Y-118098267D01*
X128927763Y-118195767D01*
X128866874Y-118214237D01*
X128729836Y-118255807D01*
X128652707Y-118263403D01*
X128575580Y-118271000D01*
X128472420Y-118271000D01*
X128395293Y-118263403D01*
X128318164Y-118255807D01*
X128181126Y-118214237D01*
X128120237Y-118195767D01*
X127937828Y-118098267D01*
X127777946Y-117967054D01*
X127646733Y-117807172D01*
X127549233Y-117624763D01*
X127528525Y-117556497D01*
X127489193Y-117426836D01*
X127468920Y-117221000D01*
X127489193Y-117015164D01*
X127549233Y-116817238D01*
X127549233Y-116817237D01*
X127646733Y-116634828D01*
X127777946Y-116474946D01*
X127937828Y-116343733D01*
X128120237Y-116246233D01*
X128186213Y-116226220D01*
X128318164Y-116186193D01*
X128395293Y-116178596D01*
X128472420Y-116171000D01*
X128575580Y-116171000D01*
X128652707Y-116178596D01*
X128652707Y-116178596D01*
G37*
G36*
X121032707Y-116178596D02*
X121109836Y-116186193D01*
X121241787Y-116226220D01*
X121307763Y-116246233D01*
X121490172Y-116343733D01*
X121650054Y-116474946D01*
X121781267Y-116634828D01*
X121878767Y-116817237D01*
X121878767Y-116817238D01*
X121938807Y-117015164D01*
X121959080Y-117221000D01*
X121938807Y-117426836D01*
X121899475Y-117556497D01*
X121878767Y-117624763D01*
X121781267Y-117807172D01*
X121650054Y-117967054D01*
X121490172Y-118098267D01*
X121307763Y-118195767D01*
X121246874Y-118214237D01*
X121109836Y-118255807D01*
X121032707Y-118263403D01*
X120955580Y-118271000D01*
X120852420Y-118271000D01*
X120775293Y-118263403D01*
X120698164Y-118255807D01*
X120561126Y-118214237D01*
X120500237Y-118195767D01*
X120317828Y-118098267D01*
X120157946Y-117967054D01*
X120026733Y-117807172D01*
X119929233Y-117624763D01*
X119908525Y-117556497D01*
X119869193Y-117426836D01*
X119848920Y-117221000D01*
X119869193Y-117015164D01*
X119929233Y-116817238D01*
X119929233Y-116817237D01*
X120026733Y-116634828D01*
X120157946Y-116474946D01*
X120317828Y-116343733D01*
X120500237Y-116246233D01*
X120566213Y-116226220D01*
X120698164Y-116186193D01*
X120775293Y-116178596D01*
X120852420Y-116171000D01*
X120955580Y-116171000D01*
X121032707Y-116178596D01*
X121032707Y-116178596D01*
G37*
G36*
X110361888Y-115580470D02*
X110542274Y-115616350D01*
X110733362Y-115695502D01*
X110905336Y-115810411D01*
X111051589Y-115956664D01*
X111166498Y-116128638D01*
X111245650Y-116319726D01*
X111286000Y-116522584D01*
X111286000Y-116729416D01*
X111245650Y-116932274D01*
X111166498Y-117123362D01*
X111051589Y-117295336D01*
X110905336Y-117441589D01*
X110733362Y-117556498D01*
X110542274Y-117635650D01*
X110361888Y-117671530D01*
X110339417Y-117676000D01*
X110132583Y-117676000D01*
X110110112Y-117671530D01*
X109929726Y-117635650D01*
X109738638Y-117556498D01*
X109566664Y-117441589D01*
X109420411Y-117295336D01*
X109305502Y-117123362D01*
X109226350Y-116932274D01*
X109186000Y-116729416D01*
X109186000Y-116522584D01*
X109226350Y-116319726D01*
X109305502Y-116128638D01*
X109420411Y-115956664D01*
X109566664Y-115810411D01*
X109738638Y-115695502D01*
X109929726Y-115616350D01*
X110110112Y-115580470D01*
X110132583Y-115576000D01*
X110339417Y-115576000D01*
X110361888Y-115580470D01*
X110361888Y-115580470D01*
G37*
G36*
X107062707Y-115035596D02*
X107139836Y-115043193D01*
X107271787Y-115083220D01*
X107337763Y-115103233D01*
X107520172Y-115200733D01*
X107680054Y-115331946D01*
X107811267Y-115491828D01*
X107908767Y-115674237D01*
X107915218Y-115695503D01*
X107968807Y-115872164D01*
X107989080Y-116078000D01*
X107968807Y-116283836D01*
X107928780Y-116415787D01*
X107908767Y-116481763D01*
X107811267Y-116664172D01*
X107680054Y-116824054D01*
X107520172Y-116955267D01*
X107337763Y-117052767D01*
X107271787Y-117072780D01*
X107139836Y-117112807D01*
X107062707Y-117120404D01*
X106985580Y-117128000D01*
X106882420Y-117128000D01*
X106805293Y-117120404D01*
X106728164Y-117112807D01*
X106596213Y-117072780D01*
X106530237Y-117052767D01*
X106347828Y-116955267D01*
X106187946Y-116824054D01*
X106056733Y-116664172D01*
X105959233Y-116481763D01*
X105939220Y-116415787D01*
X105899193Y-116283836D01*
X105878920Y-116078000D01*
X105899193Y-115872164D01*
X105952782Y-115695503D01*
X105959233Y-115674237D01*
X106056733Y-115491828D01*
X106187946Y-115331946D01*
X106347828Y-115200733D01*
X106530237Y-115103233D01*
X106596213Y-115083220D01*
X106728164Y-115043193D01*
X106805293Y-115035596D01*
X106882420Y-115028000D01*
X106985580Y-115028000D01*
X107062707Y-115035596D01*
X107062707Y-115035596D01*
G37*
G36*
X99442707Y-115035596D02*
X99519836Y-115043193D01*
X99651787Y-115083220D01*
X99717763Y-115103233D01*
X99900172Y-115200733D01*
X100060054Y-115331946D01*
X100191267Y-115491828D01*
X100288767Y-115674237D01*
X100295218Y-115695503D01*
X100348807Y-115872164D01*
X100369080Y-116078000D01*
X100348807Y-116283836D01*
X100308780Y-116415787D01*
X100288767Y-116481763D01*
X100191267Y-116664172D01*
X100060054Y-116824054D01*
X99900172Y-116955267D01*
X99717763Y-117052767D01*
X99651787Y-117072780D01*
X99519836Y-117112807D01*
X99442707Y-117120404D01*
X99365580Y-117128000D01*
X99262420Y-117128000D01*
X99185293Y-117120404D01*
X99108164Y-117112807D01*
X98976213Y-117072780D01*
X98910237Y-117052767D01*
X98727828Y-116955267D01*
X98567946Y-116824054D01*
X98436733Y-116664172D01*
X98339233Y-116481763D01*
X98319220Y-116415787D01*
X98279193Y-116283836D01*
X98258920Y-116078000D01*
X98279193Y-115872164D01*
X98332782Y-115695503D01*
X98339233Y-115674237D01*
X98436733Y-115491828D01*
X98567946Y-115331946D01*
X98727828Y-115200733D01*
X98910237Y-115103233D01*
X98976213Y-115083220D01*
X99108164Y-115043193D01*
X99185293Y-115035596D01*
X99262420Y-115028000D01*
X99365580Y-115028000D01*
X99442707Y-115035596D01*
X99442707Y-115035596D01*
G37*
G36*
X147445888Y-113762470D02*
X147626274Y-113798350D01*
X147817362Y-113877502D01*
X147989336Y-113992411D01*
X148135589Y-114138664D01*
X148250498Y-114310638D01*
X148329650Y-114501726D01*
X148370000Y-114704584D01*
X148370000Y-114911416D01*
X148329650Y-115114274D01*
X148250498Y-115305362D01*
X148135589Y-115477336D01*
X147989336Y-115623589D01*
X147817362Y-115738498D01*
X147626274Y-115817650D01*
X147445888Y-115853530D01*
X147423417Y-115858000D01*
X147216583Y-115858000D01*
X147194112Y-115853530D01*
X147013726Y-115817650D01*
X146822638Y-115738498D01*
X146650664Y-115623589D01*
X146504411Y-115477336D01*
X146389502Y-115305362D01*
X146310350Y-115114274D01*
X146270000Y-114911416D01*
X146270000Y-114704584D01*
X146310350Y-114501726D01*
X146389502Y-114310638D01*
X146504411Y-114138664D01*
X146650664Y-113992411D01*
X146822638Y-113877502D01*
X147013726Y-113798350D01*
X147194112Y-113762470D01*
X147216583Y-113758000D01*
X147423417Y-113758000D01*
X147445888Y-113762470D01*
X147445888Y-113762470D01*
G37*
G36*
X139828707Y-113765597D02*
X139905836Y-113773193D01*
X140002903Y-113802638D01*
X140103763Y-113833233D01*
X140286172Y-113930733D01*
X140446054Y-114061946D01*
X140577267Y-114221828D01*
X140674767Y-114404237D01*
X140674767Y-114404238D01*
X140734807Y-114602164D01*
X140755080Y-114808000D01*
X140734807Y-115013836D01*
X140703941Y-115115589D01*
X140674767Y-115211763D01*
X140577267Y-115394172D01*
X140446054Y-115554054D01*
X140286172Y-115685267D01*
X140103763Y-115782767D01*
X140037787Y-115802780D01*
X139905836Y-115842807D01*
X139828707Y-115850403D01*
X139751580Y-115858000D01*
X139648420Y-115858000D01*
X139571293Y-115850403D01*
X139494164Y-115842807D01*
X139362213Y-115802780D01*
X139296237Y-115782767D01*
X139113828Y-115685267D01*
X138953946Y-115554054D01*
X138822733Y-115394172D01*
X138725233Y-115211763D01*
X138696059Y-115115589D01*
X138665193Y-115013836D01*
X138644920Y-114808000D01*
X138665193Y-114602164D01*
X138725233Y-114404238D01*
X138725233Y-114404237D01*
X138822733Y-114221828D01*
X138953946Y-114061946D01*
X139113828Y-113930733D01*
X139296237Y-113833233D01*
X139397097Y-113802638D01*
X139494164Y-113773193D01*
X139571293Y-113765597D01*
X139648420Y-113758000D01*
X139751580Y-113758000D01*
X139828707Y-113765597D01*
X139828707Y-113765597D01*
G37*
G36*
X128652707Y-113638596D02*
X128729836Y-113646193D01*
X128861787Y-113686220D01*
X128927763Y-113706233D01*
X129110172Y-113803733D01*
X129270054Y-113934946D01*
X129401267Y-114094828D01*
X129498767Y-114277237D01*
X129498767Y-114277238D01*
X129558807Y-114475164D01*
X129579080Y-114681000D01*
X129558807Y-114886836D01*
X129551350Y-114911417D01*
X129498767Y-115084763D01*
X129401267Y-115267172D01*
X129270054Y-115427054D01*
X129110172Y-115558267D01*
X128927763Y-115655767D01*
X128866874Y-115674237D01*
X128729836Y-115715807D01*
X128652707Y-115723404D01*
X128575580Y-115731000D01*
X128472420Y-115731000D01*
X128395293Y-115723404D01*
X128318164Y-115715807D01*
X128181126Y-115674237D01*
X128120237Y-115655767D01*
X127937828Y-115558267D01*
X127777946Y-115427054D01*
X127646733Y-115267172D01*
X127549233Y-115084763D01*
X127496650Y-114911417D01*
X127489193Y-114886836D01*
X127468920Y-114681000D01*
X127489193Y-114475164D01*
X127549233Y-114277238D01*
X127549233Y-114277237D01*
X127646733Y-114094828D01*
X127777946Y-113934946D01*
X127937828Y-113803733D01*
X128120237Y-113706233D01*
X128186213Y-113686220D01*
X128318164Y-113646193D01*
X128395293Y-113638596D01*
X128472420Y-113631000D01*
X128575580Y-113631000D01*
X128652707Y-113638596D01*
X128652707Y-113638596D01*
G37*
G36*
X121032707Y-113638596D02*
X121109836Y-113646193D01*
X121241787Y-113686220D01*
X121307763Y-113706233D01*
X121490172Y-113803733D01*
X121650054Y-113934946D01*
X121781267Y-114094828D01*
X121878767Y-114277237D01*
X121878767Y-114277238D01*
X121938807Y-114475164D01*
X121959080Y-114681000D01*
X121938807Y-114886836D01*
X121931350Y-114911417D01*
X121878767Y-115084763D01*
X121781267Y-115267172D01*
X121650054Y-115427054D01*
X121490172Y-115558267D01*
X121307763Y-115655767D01*
X121246874Y-115674237D01*
X121109836Y-115715807D01*
X121032707Y-115723404D01*
X120955580Y-115731000D01*
X120852420Y-115731000D01*
X120775293Y-115723404D01*
X120698164Y-115715807D01*
X120561126Y-115674237D01*
X120500237Y-115655767D01*
X120317828Y-115558267D01*
X120157946Y-115427054D01*
X120026733Y-115267172D01*
X119929233Y-115084763D01*
X119876650Y-114911417D01*
X119869193Y-114886836D01*
X119848920Y-114681000D01*
X119869193Y-114475164D01*
X119929233Y-114277238D01*
X119929233Y-114277237D01*
X120026733Y-114094828D01*
X120157946Y-113934946D01*
X120317828Y-113803733D01*
X120500237Y-113706233D01*
X120566213Y-113686220D01*
X120698164Y-113646193D01*
X120775293Y-113638596D01*
X120852420Y-113631000D01*
X120955580Y-113631000D01*
X121032707Y-113638596D01*
X121032707Y-113638596D01*
G37*
G36*
X132078888Y-113254470D02*
X132259274Y-113290350D01*
X132450362Y-113369502D01*
X132622336Y-113484411D01*
X132768589Y-113630664D01*
X132883498Y-113802638D01*
X132962650Y-113993726D01*
X132991479Y-114138664D01*
X133003000Y-114196583D01*
X133003000Y-114403417D01*
X133000643Y-114415267D01*
X132962650Y-114606274D01*
X132883498Y-114797362D01*
X132768589Y-114969336D01*
X132622336Y-115115589D01*
X132450362Y-115230498D01*
X132259274Y-115309650D01*
X132078888Y-115345530D01*
X132056417Y-115350000D01*
X131849583Y-115350000D01*
X131827112Y-115345530D01*
X131646726Y-115309650D01*
X131455638Y-115230498D01*
X131283664Y-115115589D01*
X131137411Y-114969336D01*
X131022502Y-114797362D01*
X130943350Y-114606274D01*
X130905357Y-114415267D01*
X130903000Y-114403417D01*
X130903000Y-114196583D01*
X130914521Y-114138664D01*
X130943350Y-113993726D01*
X131022502Y-113802638D01*
X131137411Y-113630664D01*
X131283664Y-113484411D01*
X131455638Y-113369502D01*
X131646726Y-113290350D01*
X131827112Y-113254470D01*
X131849583Y-113250000D01*
X132056417Y-113250000D01*
X132078888Y-113254470D01*
X132078888Y-113254470D01*
G37*
G36*
X107062707Y-112495596D02*
X107139836Y-112503193D01*
X107263833Y-112540807D01*
X107337763Y-112563233D01*
X107520172Y-112660733D01*
X107680054Y-112791946D01*
X107811267Y-112951828D01*
X107908767Y-113134237D01*
X107908767Y-113134238D01*
X107968807Y-113332164D01*
X107989080Y-113538000D01*
X107968807Y-113743836D01*
X107941689Y-113833233D01*
X107908767Y-113941763D01*
X107811267Y-114124172D01*
X107680054Y-114284054D01*
X107520172Y-114415267D01*
X107337763Y-114512767D01*
X107271787Y-114532780D01*
X107139836Y-114572807D01*
X107062707Y-114580404D01*
X106985580Y-114588000D01*
X106882420Y-114588000D01*
X106805293Y-114580404D01*
X106728164Y-114572807D01*
X106596213Y-114532780D01*
X106530237Y-114512767D01*
X106347828Y-114415267D01*
X106187946Y-114284054D01*
X106056733Y-114124172D01*
X105959233Y-113941763D01*
X105926311Y-113833233D01*
X105899193Y-113743836D01*
X105878920Y-113538000D01*
X105899193Y-113332164D01*
X105959233Y-113134238D01*
X105959233Y-113134237D01*
X106056733Y-112951828D01*
X106187946Y-112791946D01*
X106347828Y-112660733D01*
X106530237Y-112563233D01*
X106604167Y-112540807D01*
X106728164Y-112503193D01*
X106805293Y-112495596D01*
X106882420Y-112488000D01*
X106985580Y-112488000D01*
X107062707Y-112495596D01*
X107062707Y-112495596D01*
G37*
G36*
X99442707Y-112495596D02*
X99519836Y-112503193D01*
X99643833Y-112540807D01*
X99717763Y-112563233D01*
X99900172Y-112660733D01*
X100060054Y-112791946D01*
X100191267Y-112951828D01*
X100288767Y-113134237D01*
X100288767Y-113134238D01*
X100348807Y-113332164D01*
X100369080Y-113538000D01*
X100348807Y-113743836D01*
X100321689Y-113833233D01*
X100288767Y-113941763D01*
X100191267Y-114124172D01*
X100060054Y-114284054D01*
X99900172Y-114415267D01*
X99717763Y-114512767D01*
X99651787Y-114532780D01*
X99519836Y-114572807D01*
X99442707Y-114580404D01*
X99365580Y-114588000D01*
X99262420Y-114588000D01*
X99185293Y-114580404D01*
X99108164Y-114572807D01*
X98976213Y-114532780D01*
X98910237Y-114512767D01*
X98727828Y-114415267D01*
X98567946Y-114284054D01*
X98436733Y-114124172D01*
X98339233Y-113941763D01*
X98306311Y-113833233D01*
X98279193Y-113743836D01*
X98258920Y-113538000D01*
X98279193Y-113332164D01*
X98339233Y-113134238D01*
X98339233Y-113134237D01*
X98436733Y-112951828D01*
X98567946Y-112791946D01*
X98727828Y-112660733D01*
X98910237Y-112563233D01*
X98984167Y-112540807D01*
X99108164Y-112503193D01*
X99185293Y-112495596D01*
X99262420Y-112488000D01*
X99365580Y-112488000D01*
X99442707Y-112495596D01*
X99442707Y-112495596D01*
G37*
G36*
X121954000Y-113191000D02*
X119854000Y-113191000D01*
X119854000Y-111091000D01*
X121954000Y-111091000D01*
X121954000Y-113191000D01*
X121954000Y-113191000D01*
G37*
G36*
X128652707Y-111098596D02*
X128729836Y-111106193D01*
X128810496Y-111130661D01*
X128927763Y-111166233D01*
X129110172Y-111263733D01*
X129270054Y-111394946D01*
X129401267Y-111554828D01*
X129498767Y-111737237D01*
X129498767Y-111737238D01*
X129558807Y-111935164D01*
X129579080Y-112141000D01*
X129558807Y-112346836D01*
X129531609Y-112436497D01*
X129498767Y-112544763D01*
X129401267Y-112727172D01*
X129270054Y-112887054D01*
X129110172Y-113018267D01*
X128927763Y-113115767D01*
X128866874Y-113134237D01*
X128729836Y-113175807D01*
X128652707Y-113183404D01*
X128575580Y-113191000D01*
X128472420Y-113191000D01*
X128395293Y-113183404D01*
X128318164Y-113175807D01*
X128181126Y-113134237D01*
X128120237Y-113115767D01*
X127937828Y-113018267D01*
X127777946Y-112887054D01*
X127646733Y-112727172D01*
X127549233Y-112544763D01*
X127516391Y-112436497D01*
X127489193Y-112346836D01*
X127468920Y-112141000D01*
X127489193Y-111935164D01*
X127549233Y-111737238D01*
X127549233Y-111737237D01*
X127646733Y-111554828D01*
X127777946Y-111394946D01*
X127937828Y-111263733D01*
X128120237Y-111166233D01*
X128237504Y-111130661D01*
X128318164Y-111106193D01*
X128395293Y-111098596D01*
X128472420Y-111091000D01*
X128575580Y-111091000D01*
X128652707Y-111098596D01*
X128652707Y-111098596D01*
G37*
G36*
X132078888Y-110754470D02*
X132259274Y-110790350D01*
X132450362Y-110869502D01*
X132622336Y-110984411D01*
X132768589Y-111130664D01*
X132883498Y-111302638D01*
X132962650Y-111493726D01*
X133003000Y-111696584D01*
X133003000Y-111903416D01*
X132962650Y-112106274D01*
X132883498Y-112297362D01*
X132768589Y-112469336D01*
X132622336Y-112615589D01*
X132450362Y-112730498D01*
X132259274Y-112809650D01*
X132078888Y-112845530D01*
X132056417Y-112850000D01*
X131849583Y-112850000D01*
X131827112Y-112845530D01*
X131646726Y-112809650D01*
X131455638Y-112730498D01*
X131283664Y-112615589D01*
X131137411Y-112469336D01*
X131022502Y-112297362D01*
X130943350Y-112106274D01*
X130903000Y-111903416D01*
X130903000Y-111696584D01*
X130943350Y-111493726D01*
X131022502Y-111302638D01*
X131137411Y-111130664D01*
X131283664Y-110984411D01*
X131455638Y-110869502D01*
X131646726Y-110790350D01*
X131827112Y-110754470D01*
X131849583Y-110750000D01*
X132056417Y-110750000D01*
X132078888Y-110754470D01*
X132078888Y-110754470D01*
G37*
G36*
X147445888Y-110460470D02*
X147626274Y-110496350D01*
X147817362Y-110575502D01*
X147989336Y-110690411D01*
X148135589Y-110836664D01*
X148250498Y-111008638D01*
X148329650Y-111199726D01*
X148350445Y-111304274D01*
X148369837Y-111401762D01*
X148370000Y-111402584D01*
X148370000Y-111609416D01*
X148329650Y-111812274D01*
X148250498Y-112003362D01*
X148135589Y-112175336D01*
X147989336Y-112321589D01*
X147817362Y-112436498D01*
X147626274Y-112515650D01*
X147445888Y-112551530D01*
X147423417Y-112556000D01*
X147216583Y-112556000D01*
X147194112Y-112551530D01*
X147013726Y-112515650D01*
X146822638Y-112436498D01*
X146650664Y-112321589D01*
X146504411Y-112175336D01*
X146389502Y-112003362D01*
X146310350Y-111812274D01*
X146270000Y-111609416D01*
X146270000Y-111402584D01*
X146270164Y-111401762D01*
X146289555Y-111304274D01*
X146310350Y-111199726D01*
X146389502Y-111008638D01*
X146504411Y-110836664D01*
X146650664Y-110690411D01*
X146822638Y-110575502D01*
X147013726Y-110496350D01*
X147194112Y-110460470D01*
X147216583Y-110456000D01*
X147423417Y-110456000D01*
X147445888Y-110460470D01*
X147445888Y-110460470D01*
G37*
G36*
X139828707Y-110463596D02*
X139905836Y-110471193D01*
X140002903Y-110500638D01*
X140103763Y-110531233D01*
X140286172Y-110628733D01*
X140446054Y-110759946D01*
X140577267Y-110919828D01*
X140674767Y-111102237D01*
X140674767Y-111102238D01*
X140734807Y-111300164D01*
X140755080Y-111506000D01*
X140734807Y-111711836D01*
X140703941Y-111813589D01*
X140674767Y-111909763D01*
X140577267Y-112092172D01*
X140446054Y-112252054D01*
X140286172Y-112383267D01*
X140103763Y-112480767D01*
X140037787Y-112500780D01*
X139905836Y-112540807D01*
X139828707Y-112548404D01*
X139751580Y-112556000D01*
X139648420Y-112556000D01*
X139571293Y-112548404D01*
X139494164Y-112540807D01*
X139362213Y-112500780D01*
X139296237Y-112480767D01*
X139113828Y-112383267D01*
X138953946Y-112252054D01*
X138822733Y-112092172D01*
X138725233Y-111909763D01*
X138696059Y-111813589D01*
X138665193Y-111711836D01*
X138644920Y-111506000D01*
X138665193Y-111300164D01*
X138725233Y-111102238D01*
X138725233Y-111102237D01*
X138822733Y-110919828D01*
X138953946Y-110759946D01*
X139113828Y-110628733D01*
X139296237Y-110531233D01*
X139397097Y-110500638D01*
X139494164Y-110471193D01*
X139571293Y-110463596D01*
X139648420Y-110456000D01*
X139751580Y-110456000D01*
X139828707Y-110463596D01*
X139828707Y-110463596D01*
G37*
G36*
X91819888Y-109952470D02*
X92000274Y-109988350D01*
X92191362Y-110067502D01*
X92363336Y-110182411D01*
X92509589Y-110328664D01*
X92624498Y-110500638D01*
X92703650Y-110691726D01*
X92732479Y-110836664D01*
X92744000Y-110894583D01*
X92744000Y-111101417D01*
X92743050Y-111106193D01*
X92703650Y-111304274D01*
X92624498Y-111495362D01*
X92509589Y-111667336D01*
X92363336Y-111813589D01*
X92191362Y-111928498D01*
X92000274Y-112007650D01*
X91819888Y-112043530D01*
X91797417Y-112048000D01*
X91590583Y-112048000D01*
X91568112Y-112043530D01*
X91387726Y-112007650D01*
X91196638Y-111928498D01*
X91024664Y-111813589D01*
X90878411Y-111667336D01*
X90763502Y-111495362D01*
X90684350Y-111304274D01*
X90644950Y-111106193D01*
X90644000Y-111101417D01*
X90644000Y-110894583D01*
X90655521Y-110836664D01*
X90684350Y-110691726D01*
X90763502Y-110500638D01*
X90878411Y-110328664D01*
X91024664Y-110182411D01*
X91196638Y-110067502D01*
X91387726Y-109988350D01*
X91568112Y-109952470D01*
X91590583Y-109948000D01*
X91797417Y-109948000D01*
X91819888Y-109952470D01*
X91819888Y-109952470D01*
G37*
G36*
X95632707Y-109955596D02*
X95709836Y-109963193D01*
X95841787Y-110003220D01*
X95907763Y-110023233D01*
X96090172Y-110120733D01*
X96250054Y-110251946D01*
X96381267Y-110411828D01*
X96478767Y-110594237D01*
X96478767Y-110594238D01*
X96538807Y-110792164D01*
X96559080Y-110998000D01*
X96538807Y-111203836D01*
X96498780Y-111335787D01*
X96478767Y-111401763D01*
X96381267Y-111584172D01*
X96250054Y-111744054D01*
X96090172Y-111875267D01*
X95907763Y-111972767D01*
X95841787Y-111992780D01*
X95709836Y-112032807D01*
X95632707Y-112040403D01*
X95555580Y-112048000D01*
X95452420Y-112048000D01*
X95375293Y-112040403D01*
X95298164Y-112032807D01*
X95166213Y-111992780D01*
X95100237Y-111972767D01*
X94917828Y-111875267D01*
X94757946Y-111744054D01*
X94626733Y-111584172D01*
X94529233Y-111401763D01*
X94509220Y-111335787D01*
X94469193Y-111203836D01*
X94448920Y-110998000D01*
X94469193Y-110792164D01*
X94529233Y-110594238D01*
X94529233Y-110594237D01*
X94626733Y-110411828D01*
X94757946Y-110251946D01*
X94917828Y-110120733D01*
X95100237Y-110023233D01*
X95166213Y-110003220D01*
X95298164Y-109963193D01*
X95375293Y-109955596D01*
X95452420Y-109948000D01*
X95555580Y-109948000D01*
X95632707Y-109955596D01*
X95632707Y-109955596D01*
G37*
G36*
X100364000Y-112048000D02*
X98264000Y-112048000D01*
X98264000Y-109948000D01*
X100364000Y-109948000D01*
X100364000Y-112048000D01*
X100364000Y-112048000D01*
G37*
G36*
X107062707Y-109955596D02*
X107139836Y-109963193D01*
X107271787Y-110003220D01*
X107337763Y-110023233D01*
X107520172Y-110120733D01*
X107680054Y-110251946D01*
X107811267Y-110411828D01*
X107908767Y-110594237D01*
X107908767Y-110594238D01*
X107968807Y-110792164D01*
X107989080Y-110998000D01*
X107968807Y-111203836D01*
X107928780Y-111335787D01*
X107908767Y-111401763D01*
X107811267Y-111584172D01*
X107680054Y-111744054D01*
X107520172Y-111875267D01*
X107337763Y-111972767D01*
X107271787Y-111992780D01*
X107139836Y-112032807D01*
X107062707Y-112040403D01*
X106985580Y-112048000D01*
X106882420Y-112048000D01*
X106805293Y-112040403D01*
X106728164Y-112032807D01*
X106596213Y-111992780D01*
X106530237Y-111972767D01*
X106347828Y-111875267D01*
X106187946Y-111744054D01*
X106056733Y-111584172D01*
X105959233Y-111401763D01*
X105939220Y-111335787D01*
X105899193Y-111203836D01*
X105878920Y-110998000D01*
X105899193Y-110792164D01*
X105959233Y-110594238D01*
X105959233Y-110594237D01*
X106056733Y-110411828D01*
X106187946Y-110251946D01*
X106347828Y-110120733D01*
X106530237Y-110023233D01*
X106596213Y-110003220D01*
X106728164Y-109963193D01*
X106805293Y-109955596D01*
X106882420Y-109948000D01*
X106985580Y-109948000D01*
X107062707Y-109955596D01*
X107062707Y-109955596D01*
G37*
G36*
X139825888Y-105888470D02*
X140006274Y-105924350D01*
X140197362Y-106003502D01*
X140369336Y-106118411D01*
X140515589Y-106264664D01*
X140630498Y-106436638D01*
X140709650Y-106627726D01*
X140750000Y-106830584D01*
X140750000Y-107037416D01*
X140709650Y-107240274D01*
X140630498Y-107431362D01*
X140515589Y-107603336D01*
X140369336Y-107749589D01*
X140197362Y-107864498D01*
X140006274Y-107943650D01*
X139825888Y-107979530D01*
X139803417Y-107984000D01*
X139596583Y-107984000D01*
X139574112Y-107979530D01*
X139393726Y-107943650D01*
X139202638Y-107864498D01*
X139030664Y-107749589D01*
X138884411Y-107603336D01*
X138769502Y-107431362D01*
X138690350Y-107240274D01*
X138650000Y-107037416D01*
X138650000Y-106830584D01*
X138690350Y-106627726D01*
X138769502Y-106436638D01*
X138884411Y-106264664D01*
X139030664Y-106118411D01*
X139202638Y-106003502D01*
X139393726Y-105924350D01*
X139574112Y-105888470D01*
X139596583Y-105884000D01*
X139803417Y-105884000D01*
X139825888Y-105888470D01*
X139825888Y-105888470D01*
G37*
G36*
X147448707Y-105891597D02*
X147525836Y-105899193D01*
X147657787Y-105939220D01*
X147723763Y-105959233D01*
X147906172Y-106056733D01*
X148066054Y-106187946D01*
X148197267Y-106347828D01*
X148294767Y-106530237D01*
X148294767Y-106530238D01*
X148354807Y-106728164D01*
X148375080Y-106934000D01*
X148354807Y-107139836D01*
X148314780Y-107271787D01*
X148294767Y-107337763D01*
X148197267Y-107520172D01*
X148066054Y-107680054D01*
X147906172Y-107811267D01*
X147723763Y-107908767D01*
X147657787Y-107928780D01*
X147525836Y-107968807D01*
X147448707Y-107976404D01*
X147371580Y-107984000D01*
X147268420Y-107984000D01*
X147191293Y-107976404D01*
X147114164Y-107968807D01*
X146982213Y-107928780D01*
X146916237Y-107908767D01*
X146733828Y-107811267D01*
X146573946Y-107680054D01*
X146442733Y-107520172D01*
X146345233Y-107337763D01*
X146325220Y-107271787D01*
X146285193Y-107139836D01*
X146264920Y-106934000D01*
X146285193Y-106728164D01*
X146345233Y-106530238D01*
X146345233Y-106530237D01*
X146442733Y-106347828D01*
X146573946Y-106187946D01*
X146733828Y-106056733D01*
X146916237Y-105959233D01*
X146982213Y-105939220D01*
X147114164Y-105899193D01*
X147191293Y-105891597D01*
X147268420Y-105884000D01*
X147371580Y-105884000D01*
X147448707Y-105891597D01*
X147448707Y-105891597D01*
G37*
G36*
X115698707Y-103605596D02*
X115775836Y-103613193D01*
X115907787Y-103653220D01*
X115973763Y-103673233D01*
X116156172Y-103770733D01*
X116316054Y-103901946D01*
X116447267Y-104061828D01*
X116544767Y-104244237D01*
X116544767Y-104244238D01*
X116604807Y-104442164D01*
X116625080Y-104648000D01*
X116604807Y-104853836D01*
X116564780Y-104985787D01*
X116544767Y-105051763D01*
X116447267Y-105234172D01*
X116316054Y-105394054D01*
X116156172Y-105525267D01*
X115973763Y-105622767D01*
X115907787Y-105642780D01*
X115775836Y-105682807D01*
X115698707Y-105690404D01*
X115621580Y-105698000D01*
X115518420Y-105698000D01*
X115441293Y-105690404D01*
X115364164Y-105682807D01*
X115232213Y-105642780D01*
X115166237Y-105622767D01*
X114983828Y-105525267D01*
X114823946Y-105394054D01*
X114692733Y-105234172D01*
X114595233Y-105051763D01*
X114575220Y-104985787D01*
X114535193Y-104853836D01*
X114514920Y-104648000D01*
X114535193Y-104442164D01*
X114595233Y-104244238D01*
X114595233Y-104244237D01*
X114692733Y-104061828D01*
X114823946Y-103901946D01*
X114983828Y-103770733D01*
X115166237Y-103673233D01*
X115232213Y-103653220D01*
X115364164Y-103613193D01*
X115441293Y-103605597D01*
X115518420Y-103598000D01*
X115621580Y-103598000D01*
X115698707Y-103605596D01*
X115698707Y-103605596D01*
G37*
G36*
X123318707Y-103605596D02*
X123395836Y-103613193D01*
X123527787Y-103653220D01*
X123593763Y-103673233D01*
X123776172Y-103770733D01*
X123936054Y-103901946D01*
X124067267Y-104061828D01*
X124164767Y-104244237D01*
X124164767Y-104244238D01*
X124224807Y-104442164D01*
X124245080Y-104648000D01*
X124224807Y-104853836D01*
X124184780Y-104985787D01*
X124164767Y-105051763D01*
X124067267Y-105234172D01*
X123936054Y-105394054D01*
X123776172Y-105525267D01*
X123593763Y-105622767D01*
X123527787Y-105642780D01*
X123395836Y-105682807D01*
X123318707Y-105690404D01*
X123241580Y-105698000D01*
X123138420Y-105698000D01*
X123061293Y-105690404D01*
X122984164Y-105682807D01*
X122852213Y-105642780D01*
X122786237Y-105622767D01*
X122603828Y-105525267D01*
X122443946Y-105394054D01*
X122312733Y-105234172D01*
X122215233Y-105051763D01*
X122195220Y-104985787D01*
X122155193Y-104853836D01*
X122134920Y-104648000D01*
X122155193Y-104442164D01*
X122215233Y-104244238D01*
X122215233Y-104244237D01*
X122312733Y-104061828D01*
X122443946Y-103901946D01*
X122603828Y-103770733D01*
X122786237Y-103673233D01*
X122852213Y-103653220D01*
X122984164Y-103613193D01*
X123061293Y-103605597D01*
X123138420Y-103598000D01*
X123241580Y-103598000D01*
X123318707Y-103605596D01*
X123318707Y-103605596D01*
G37*
G36*
X136780707Y-103605596D02*
X136857836Y-103613193D01*
X136989787Y-103653220D01*
X137055763Y-103673233D01*
X137238172Y-103770733D01*
X137398054Y-103901946D01*
X137529267Y-104061828D01*
X137626767Y-104244237D01*
X137626767Y-104244238D01*
X137686807Y-104442164D01*
X137707080Y-104648000D01*
X137686807Y-104853836D01*
X137646780Y-104985787D01*
X137626767Y-105051763D01*
X137529267Y-105234172D01*
X137398054Y-105394054D01*
X137238172Y-105525267D01*
X137055763Y-105622767D01*
X136989787Y-105642780D01*
X136857836Y-105682807D01*
X136780707Y-105690404D01*
X136703580Y-105698000D01*
X136600420Y-105698000D01*
X136523293Y-105690404D01*
X136446164Y-105682807D01*
X136314213Y-105642780D01*
X136248237Y-105622767D01*
X136065828Y-105525267D01*
X135905946Y-105394054D01*
X135774733Y-105234172D01*
X135677233Y-105051763D01*
X135657220Y-104985787D01*
X135617193Y-104853836D01*
X135596920Y-104648000D01*
X135617193Y-104442164D01*
X135677233Y-104244238D01*
X135677233Y-104244237D01*
X135774733Y-104061828D01*
X135905946Y-103901946D01*
X136065828Y-103770733D01*
X136248237Y-103673233D01*
X136314213Y-103653220D01*
X136446164Y-103613193D01*
X136523293Y-103605597D01*
X136600420Y-103598000D01*
X136703580Y-103598000D01*
X136780707Y-103605596D01*
X136780707Y-103605596D01*
G37*
G36*
X98677888Y-103602470D02*
X98858274Y-103638350D01*
X99049362Y-103717502D01*
X99221336Y-103832411D01*
X99367589Y-103978664D01*
X99482498Y-104150638D01*
X99561650Y-104341726D01*
X99602000Y-104544584D01*
X99602000Y-104751416D01*
X99561650Y-104954274D01*
X99482498Y-105145362D01*
X99367589Y-105317336D01*
X99221336Y-105463589D01*
X99049362Y-105578498D01*
X98858274Y-105657650D01*
X98677888Y-105693530D01*
X98655417Y-105698000D01*
X98448583Y-105698000D01*
X98426112Y-105693530D01*
X98245726Y-105657650D01*
X98054638Y-105578498D01*
X97882664Y-105463589D01*
X97736411Y-105317336D01*
X97621502Y-105145362D01*
X97542350Y-104954274D01*
X97502000Y-104751416D01*
X97502000Y-104544584D01*
X97542350Y-104341726D01*
X97621502Y-104150638D01*
X97736411Y-103978664D01*
X97882664Y-103832411D01*
X98054638Y-103717502D01*
X98245726Y-103638350D01*
X98426112Y-103602470D01*
X98448583Y-103598000D01*
X98655417Y-103598000D01*
X98677888Y-103602470D01*
X98677888Y-103602470D01*
G37*
G36*
X106300707Y-103605596D02*
X106377836Y-103613193D01*
X106509787Y-103653220D01*
X106575763Y-103673233D01*
X106758172Y-103770733D01*
X106918054Y-103901946D01*
X107049267Y-104061828D01*
X107146767Y-104244237D01*
X107146767Y-104244238D01*
X107206807Y-104442164D01*
X107227080Y-104648000D01*
X107206807Y-104853836D01*
X107166780Y-104985787D01*
X107146767Y-105051763D01*
X107049267Y-105234172D01*
X106918054Y-105394054D01*
X106758172Y-105525267D01*
X106575763Y-105622767D01*
X106509787Y-105642780D01*
X106377836Y-105682807D01*
X106300707Y-105690404D01*
X106223580Y-105698000D01*
X106120420Y-105698000D01*
X106043293Y-105690404D01*
X105966164Y-105682807D01*
X105834213Y-105642780D01*
X105768237Y-105622767D01*
X105585828Y-105525267D01*
X105425946Y-105394054D01*
X105294733Y-105234172D01*
X105197233Y-105051763D01*
X105177220Y-104985787D01*
X105137193Y-104853836D01*
X105116920Y-104648000D01*
X105137193Y-104442164D01*
X105197233Y-104244238D01*
X105197233Y-104244237D01*
X105294733Y-104061828D01*
X105425946Y-103901946D01*
X105585828Y-103770733D01*
X105768237Y-103673233D01*
X105834213Y-103653220D01*
X105966164Y-103613193D01*
X106043293Y-103605597D01*
X106120420Y-103598000D01*
X106223580Y-103598000D01*
X106300707Y-103605596D01*
X106300707Y-103605596D01*
G37*
G36*
X129160707Y-103605596D02*
X129237836Y-103613193D01*
X129369787Y-103653220D01*
X129435763Y-103673233D01*
X129618172Y-103770733D01*
X129778054Y-103901946D01*
X129909267Y-104061828D01*
X130006767Y-104244237D01*
X130006767Y-104244238D01*
X130066807Y-104442164D01*
X130087080Y-104648000D01*
X130066807Y-104853836D01*
X130026780Y-104985787D01*
X130006767Y-105051763D01*
X129909267Y-105234172D01*
X129778054Y-105394054D01*
X129618172Y-105525267D01*
X129435763Y-105622767D01*
X129369787Y-105642780D01*
X129237836Y-105682807D01*
X129160707Y-105690404D01*
X129083580Y-105698000D01*
X128980420Y-105698000D01*
X128903293Y-105690404D01*
X128826164Y-105682807D01*
X128694213Y-105642780D01*
X128628237Y-105622767D01*
X128445828Y-105525267D01*
X128285946Y-105394054D01*
X128154733Y-105234172D01*
X128057233Y-105051763D01*
X128037220Y-104985787D01*
X127997193Y-104853836D01*
X127976920Y-104648000D01*
X127997193Y-104442164D01*
X128057233Y-104244238D01*
X128057233Y-104244237D01*
X128154733Y-104061828D01*
X128285946Y-103901946D01*
X128445828Y-103770733D01*
X128628237Y-103673233D01*
X128694213Y-103653220D01*
X128826164Y-103613193D01*
X128903293Y-103605597D01*
X128980420Y-103598000D01*
X129083580Y-103598000D01*
X129160707Y-103605596D01*
X129160707Y-103605596D01*
G37*
G36*
X136780707Y-101065596D02*
X136857836Y-101073193D01*
X136989787Y-101113220D01*
X137055763Y-101133233D01*
X137238172Y-101230733D01*
X137398054Y-101361946D01*
X137529267Y-101521828D01*
X137626767Y-101704237D01*
X137626767Y-101704238D01*
X137686807Y-101902164D01*
X137707080Y-102108000D01*
X137686807Y-102313836D01*
X137646780Y-102445787D01*
X137626767Y-102511763D01*
X137529267Y-102694172D01*
X137398054Y-102854054D01*
X137238172Y-102985267D01*
X137055763Y-103082767D01*
X136989787Y-103102780D01*
X136857836Y-103142807D01*
X136780707Y-103150404D01*
X136703580Y-103158000D01*
X136600420Y-103158000D01*
X136523293Y-103150404D01*
X136446164Y-103142807D01*
X136314213Y-103102780D01*
X136248237Y-103082767D01*
X136065828Y-102985267D01*
X135905946Y-102854054D01*
X135774733Y-102694172D01*
X135677233Y-102511763D01*
X135657220Y-102445787D01*
X135617193Y-102313836D01*
X135596920Y-102108000D01*
X135617193Y-101902164D01*
X135677233Y-101704238D01*
X135677233Y-101704237D01*
X135774733Y-101521828D01*
X135905946Y-101361946D01*
X136065828Y-101230733D01*
X136248237Y-101133233D01*
X136314213Y-101113220D01*
X136446164Y-101073193D01*
X136523293Y-101065596D01*
X136600420Y-101058000D01*
X136703580Y-101058000D01*
X136780707Y-101065596D01*
X136780707Y-101065596D01*
G37*
G36*
X129160707Y-101065596D02*
X129237836Y-101073193D01*
X129369787Y-101113220D01*
X129435763Y-101133233D01*
X129618172Y-101230733D01*
X129778054Y-101361946D01*
X129909267Y-101521828D01*
X130006767Y-101704237D01*
X130006767Y-101704238D01*
X130066807Y-101902164D01*
X130087080Y-102108000D01*
X130066807Y-102313836D01*
X130026780Y-102445787D01*
X130006767Y-102511763D01*
X129909267Y-102694172D01*
X129778054Y-102854054D01*
X129618172Y-102985267D01*
X129435763Y-103082767D01*
X129369787Y-103102780D01*
X129237836Y-103142807D01*
X129160707Y-103150404D01*
X129083580Y-103158000D01*
X128980420Y-103158000D01*
X128903293Y-103150404D01*
X128826164Y-103142807D01*
X128694213Y-103102780D01*
X128628237Y-103082767D01*
X128445828Y-102985267D01*
X128285946Y-102854054D01*
X128154733Y-102694172D01*
X128057233Y-102511763D01*
X128037220Y-102445787D01*
X127997193Y-102313836D01*
X127976920Y-102108000D01*
X127997193Y-101902164D01*
X128057233Y-101704238D01*
X128057233Y-101704237D01*
X128154733Y-101521828D01*
X128285946Y-101361946D01*
X128445828Y-101230733D01*
X128628237Y-101133233D01*
X128694213Y-101113220D01*
X128826164Y-101073193D01*
X128903293Y-101065596D01*
X128980420Y-101058000D01*
X129083580Y-101058000D01*
X129160707Y-101065596D01*
X129160707Y-101065596D01*
G37*
G36*
X123318707Y-101065596D02*
X123395836Y-101073193D01*
X123527787Y-101113220D01*
X123593763Y-101133233D01*
X123776172Y-101230733D01*
X123936054Y-101361946D01*
X124067267Y-101521828D01*
X124164767Y-101704237D01*
X124164767Y-101704238D01*
X124224807Y-101902164D01*
X124245080Y-102108000D01*
X124224807Y-102313836D01*
X124184780Y-102445787D01*
X124164767Y-102511763D01*
X124067267Y-102694172D01*
X123936054Y-102854054D01*
X123776172Y-102985267D01*
X123593763Y-103082767D01*
X123527787Y-103102780D01*
X123395836Y-103142807D01*
X123318707Y-103150404D01*
X123241580Y-103158000D01*
X123138420Y-103158000D01*
X123061293Y-103150404D01*
X122984164Y-103142807D01*
X122852213Y-103102780D01*
X122786237Y-103082767D01*
X122603828Y-102985267D01*
X122443946Y-102854054D01*
X122312733Y-102694172D01*
X122215233Y-102511763D01*
X122195220Y-102445787D01*
X122155193Y-102313836D01*
X122134920Y-102108000D01*
X122155193Y-101902164D01*
X122215233Y-101704238D01*
X122215233Y-101704237D01*
X122312733Y-101521828D01*
X122443946Y-101361946D01*
X122603828Y-101230733D01*
X122786237Y-101133233D01*
X122852213Y-101113220D01*
X122984164Y-101073193D01*
X123061293Y-101065596D01*
X123138420Y-101058000D01*
X123241580Y-101058000D01*
X123318707Y-101065596D01*
X123318707Y-101065596D01*
G37*
G36*
X115698707Y-101065596D02*
X115775836Y-101073193D01*
X115907787Y-101113220D01*
X115973763Y-101133233D01*
X116156172Y-101230733D01*
X116316054Y-101361946D01*
X116447267Y-101521828D01*
X116544767Y-101704237D01*
X116544767Y-101704238D01*
X116604807Y-101902164D01*
X116625080Y-102108000D01*
X116604807Y-102313836D01*
X116564780Y-102445787D01*
X116544767Y-102511763D01*
X116447267Y-102694172D01*
X116316054Y-102854054D01*
X116156172Y-102985267D01*
X115973763Y-103082767D01*
X115907787Y-103102780D01*
X115775836Y-103142807D01*
X115698707Y-103150404D01*
X115621580Y-103158000D01*
X115518420Y-103158000D01*
X115441293Y-103150404D01*
X115364164Y-103142807D01*
X115232213Y-103102780D01*
X115166237Y-103082767D01*
X114983828Y-102985267D01*
X114823946Y-102854054D01*
X114692733Y-102694172D01*
X114595233Y-102511763D01*
X114575220Y-102445787D01*
X114535193Y-102313836D01*
X114514920Y-102108000D01*
X114535193Y-101902164D01*
X114595233Y-101704238D01*
X114595233Y-101704237D01*
X114692733Y-101521828D01*
X114823946Y-101361946D01*
X114983828Y-101230733D01*
X115166237Y-101133233D01*
X115232213Y-101113220D01*
X115364164Y-101073193D01*
X115441293Y-101065596D01*
X115518420Y-101058000D01*
X115621580Y-101058000D01*
X115698707Y-101065596D01*
X115698707Y-101065596D01*
G37*
G36*
X143845443Y-98208194D02*
X144054728Y-98294883D01*
X144243085Y-98420739D01*
X144403261Y-98580915D01*
X144529117Y-98769272D01*
X144615806Y-98978557D01*
X144660000Y-99200734D01*
X144660000Y-99427266D01*
X144615806Y-99649443D01*
X144529117Y-99858728D01*
X144403261Y-100047085D01*
X144243085Y-100207261D01*
X144054728Y-100333117D01*
X143845443Y-100419806D01*
X143661463Y-100456402D01*
X143638014Y-100463515D01*
X143616403Y-100475066D01*
X143597461Y-100490612D01*
X143581916Y-100509554D01*
X143570365Y-100531165D01*
X143563252Y-100554614D01*
X143560850Y-100579000D01*
X143563252Y-100603387D01*
X143570365Y-100626836D01*
X143581916Y-100648447D01*
X143597462Y-100667389D01*
X143616404Y-100682934D01*
X143638015Y-100694485D01*
X143661464Y-100701598D01*
X143685850Y-100704000D01*
X144660000Y-100704000D01*
X144660000Y-103004000D01*
X142360000Y-103004000D01*
X142360000Y-100704000D01*
X143334150Y-100704000D01*
X143358536Y-100701598D01*
X143381985Y-100694485D01*
X143403596Y-100682934D01*
X143422538Y-100667388D01*
X143438084Y-100648446D01*
X143449635Y-100626835D01*
X143456748Y-100603386D01*
X143459150Y-100579000D01*
X143456748Y-100554614D01*
X143449635Y-100531165D01*
X143438084Y-100509554D01*
X143422538Y-100490612D01*
X143403596Y-100475066D01*
X143381985Y-100463515D01*
X143358537Y-100456402D01*
X143174557Y-100419806D01*
X142965272Y-100333117D01*
X142776915Y-100207261D01*
X142616739Y-100047085D01*
X142490883Y-99858728D01*
X142404194Y-99649443D01*
X142360000Y-99427266D01*
X142360000Y-99200734D01*
X142404194Y-98978557D01*
X142490883Y-98769272D01*
X142616739Y-98580915D01*
X142776915Y-98420739D01*
X142965272Y-98294883D01*
X143174557Y-98208194D01*
X143396734Y-98164000D01*
X143623266Y-98164000D01*
X143845443Y-98208194D01*
X143845443Y-98208194D01*
G37*
G36*
X98680707Y-99795597D02*
X98757836Y-99803193D01*
X98889787Y-99843220D01*
X98955763Y-99863233D01*
X99138172Y-99960733D01*
X99298054Y-100091946D01*
X99429267Y-100251828D01*
X99526767Y-100434237D01*
X99535648Y-100463515D01*
X99586807Y-100632164D01*
X99607080Y-100838000D01*
X99586807Y-101043836D01*
X99559689Y-101133233D01*
X99526767Y-101241763D01*
X99429267Y-101424172D01*
X99298054Y-101584054D01*
X99138172Y-101715267D01*
X98955763Y-101812767D01*
X98889787Y-101832780D01*
X98757836Y-101872807D01*
X98680707Y-101880403D01*
X98603580Y-101888000D01*
X98500420Y-101888000D01*
X98423293Y-101880404D01*
X98346164Y-101872807D01*
X98214213Y-101832780D01*
X98148237Y-101812767D01*
X97965828Y-101715267D01*
X97805946Y-101584054D01*
X97674733Y-101424172D01*
X97577233Y-101241763D01*
X97544311Y-101133233D01*
X97517193Y-101043836D01*
X97496920Y-100838000D01*
X97517193Y-100632164D01*
X97568352Y-100463515D01*
X97577233Y-100434237D01*
X97674733Y-100251828D01*
X97805946Y-100091946D01*
X97965828Y-99960733D01*
X98148237Y-99863233D01*
X98214213Y-99843220D01*
X98346164Y-99803193D01*
X98423293Y-99795597D01*
X98500420Y-99788000D01*
X98603580Y-99788000D01*
X98680707Y-99795597D01*
X98680707Y-99795597D01*
G37*
G36*
X106300707Y-99795597D02*
X106377836Y-99803193D01*
X106509787Y-99843220D01*
X106575763Y-99863233D01*
X106758172Y-99960733D01*
X106918054Y-100091946D01*
X107049267Y-100251828D01*
X107146767Y-100434237D01*
X107155648Y-100463515D01*
X107206807Y-100632164D01*
X107227080Y-100838000D01*
X107206807Y-101043836D01*
X107179689Y-101133233D01*
X107146767Y-101241763D01*
X107049267Y-101424172D01*
X106918054Y-101584054D01*
X106758172Y-101715267D01*
X106575763Y-101812767D01*
X106509787Y-101832780D01*
X106377836Y-101872807D01*
X106300707Y-101880403D01*
X106223580Y-101888000D01*
X106120420Y-101888000D01*
X106043293Y-101880404D01*
X105966164Y-101872807D01*
X105834213Y-101832780D01*
X105768237Y-101812767D01*
X105585828Y-101715267D01*
X105425946Y-101584054D01*
X105294733Y-101424172D01*
X105197233Y-101241763D01*
X105164311Y-101133233D01*
X105137193Y-101043836D01*
X105116920Y-100838000D01*
X105137193Y-100632164D01*
X105188352Y-100463515D01*
X105197233Y-100434237D01*
X105294733Y-100251828D01*
X105425946Y-100091946D01*
X105585828Y-99960733D01*
X105768237Y-99863233D01*
X105834213Y-99843220D01*
X105966164Y-99803193D01*
X106043293Y-99795597D01*
X106120420Y-99788000D01*
X106223580Y-99788000D01*
X106300707Y-99795597D01*
X106300707Y-99795597D01*
G37*
G36*
X136780707Y-98525596D02*
X136857836Y-98533193D01*
X136989787Y-98573220D01*
X137055763Y-98593233D01*
X137238172Y-98690733D01*
X137398054Y-98821946D01*
X137529267Y-98981828D01*
X137626767Y-99164237D01*
X137626767Y-99164238D01*
X137686807Y-99362164D01*
X137707080Y-99568000D01*
X137686807Y-99773836D01*
X137661055Y-99858728D01*
X137626767Y-99971763D01*
X137529267Y-100154172D01*
X137398054Y-100314054D01*
X137238172Y-100445267D01*
X137055763Y-100542767D01*
X137016708Y-100554614D01*
X136857836Y-100602807D01*
X136780707Y-100610403D01*
X136703580Y-100618000D01*
X136600420Y-100618000D01*
X136523293Y-100610403D01*
X136446164Y-100602807D01*
X136287292Y-100554614D01*
X136248237Y-100542767D01*
X136065828Y-100445267D01*
X135905946Y-100314054D01*
X135774733Y-100154172D01*
X135677233Y-99971763D01*
X135642945Y-99858728D01*
X135617193Y-99773836D01*
X135596920Y-99568000D01*
X135617193Y-99362164D01*
X135677233Y-99164238D01*
X135677233Y-99164237D01*
X135774733Y-98981828D01*
X135905946Y-98821946D01*
X136065828Y-98690733D01*
X136248237Y-98593233D01*
X136314213Y-98573220D01*
X136446164Y-98533193D01*
X136523293Y-98525596D01*
X136600420Y-98518000D01*
X136703580Y-98518000D01*
X136780707Y-98525596D01*
X136780707Y-98525596D01*
G37*
G36*
X129160707Y-98525596D02*
X129237836Y-98533193D01*
X129369787Y-98573220D01*
X129435763Y-98593233D01*
X129618172Y-98690733D01*
X129778054Y-98821946D01*
X129909267Y-98981828D01*
X130006767Y-99164237D01*
X130006767Y-99164238D01*
X130066807Y-99362164D01*
X130087080Y-99568000D01*
X130066807Y-99773836D01*
X130041055Y-99858728D01*
X130006767Y-99971763D01*
X129909267Y-100154172D01*
X129778054Y-100314054D01*
X129618172Y-100445267D01*
X129435763Y-100542767D01*
X129396708Y-100554614D01*
X129237836Y-100602807D01*
X129160707Y-100610403D01*
X129083580Y-100618000D01*
X128980420Y-100618000D01*
X128903293Y-100610403D01*
X128826164Y-100602807D01*
X128667292Y-100554614D01*
X128628237Y-100542767D01*
X128445828Y-100445267D01*
X128285946Y-100314054D01*
X128154733Y-100154172D01*
X128057233Y-99971763D01*
X128022945Y-99858728D01*
X127997193Y-99773836D01*
X127976920Y-99568000D01*
X127997193Y-99362164D01*
X128057233Y-99164238D01*
X128057233Y-99164237D01*
X128154733Y-98981828D01*
X128285946Y-98821946D01*
X128445828Y-98690733D01*
X128628237Y-98593233D01*
X128694213Y-98573220D01*
X128826164Y-98533193D01*
X128903293Y-98525596D01*
X128980420Y-98518000D01*
X129083580Y-98518000D01*
X129160707Y-98525596D01*
X129160707Y-98525596D01*
G37*
G36*
X115698707Y-98525596D02*
X115775836Y-98533193D01*
X115907787Y-98573220D01*
X115973763Y-98593233D01*
X116156172Y-98690733D01*
X116316054Y-98821946D01*
X116447267Y-98981828D01*
X116544767Y-99164237D01*
X116544767Y-99164238D01*
X116604807Y-99362164D01*
X116625080Y-99568000D01*
X116604807Y-99773836D01*
X116579055Y-99858728D01*
X116544767Y-99971763D01*
X116447267Y-100154172D01*
X116316054Y-100314054D01*
X116156172Y-100445267D01*
X115973763Y-100542767D01*
X115934708Y-100554614D01*
X115775836Y-100602807D01*
X115698707Y-100610403D01*
X115621580Y-100618000D01*
X115518420Y-100618000D01*
X115441293Y-100610403D01*
X115364164Y-100602807D01*
X115205292Y-100554614D01*
X115166237Y-100542767D01*
X114983828Y-100445267D01*
X114823946Y-100314054D01*
X114692733Y-100154172D01*
X114595233Y-99971763D01*
X114560945Y-99858728D01*
X114535193Y-99773836D01*
X114514920Y-99568000D01*
X114535193Y-99362164D01*
X114595233Y-99164238D01*
X114595233Y-99164237D01*
X114692733Y-98981828D01*
X114823946Y-98821946D01*
X114983828Y-98690733D01*
X115166237Y-98593233D01*
X115232213Y-98573220D01*
X115364164Y-98533193D01*
X115441293Y-98525596D01*
X115518420Y-98518000D01*
X115621580Y-98518000D01*
X115698707Y-98525596D01*
X115698707Y-98525596D01*
G37*
G36*
X123318707Y-98525596D02*
X123395836Y-98533193D01*
X123527787Y-98573220D01*
X123593763Y-98593233D01*
X123776172Y-98690733D01*
X123936054Y-98821946D01*
X124067267Y-98981828D01*
X124164767Y-99164237D01*
X124164767Y-99164238D01*
X124224807Y-99362164D01*
X124245080Y-99568000D01*
X124224807Y-99773836D01*
X124199055Y-99858728D01*
X124164767Y-99971763D01*
X124067267Y-100154172D01*
X123936054Y-100314054D01*
X123776172Y-100445267D01*
X123593763Y-100542767D01*
X123554708Y-100554614D01*
X123395836Y-100602807D01*
X123318707Y-100610403D01*
X123241580Y-100618000D01*
X123138420Y-100618000D01*
X123061293Y-100610403D01*
X122984164Y-100602807D01*
X122825292Y-100554614D01*
X122786237Y-100542767D01*
X122603828Y-100445267D01*
X122443946Y-100314054D01*
X122312733Y-100154172D01*
X122215233Y-99971763D01*
X122180945Y-99858728D01*
X122155193Y-99773836D01*
X122134920Y-99568000D01*
X122155193Y-99362164D01*
X122215233Y-99164238D01*
X122215233Y-99164237D01*
X122312733Y-98981828D01*
X122443946Y-98821946D01*
X122603828Y-98690733D01*
X122786237Y-98593233D01*
X122852213Y-98573220D01*
X122984164Y-98533193D01*
X123061293Y-98525596D01*
X123138420Y-98518000D01*
X123241580Y-98518000D01*
X123318707Y-98525596D01*
X123318707Y-98525596D01*
G37*
G36*
X98680707Y-97255596D02*
X98757836Y-97263193D01*
X98889787Y-97303220D01*
X98955763Y-97323233D01*
X99138172Y-97420733D01*
X99298054Y-97551946D01*
X99429267Y-97711828D01*
X99526767Y-97894237D01*
X99526767Y-97894238D01*
X99586807Y-98092164D01*
X99607080Y-98298000D01*
X99586807Y-98503836D01*
X99559689Y-98593233D01*
X99526767Y-98701763D01*
X99429267Y-98884172D01*
X99298054Y-99044054D01*
X99138172Y-99175267D01*
X98955763Y-99272767D01*
X98889787Y-99292780D01*
X98757836Y-99332807D01*
X98680707Y-99340403D01*
X98603580Y-99348000D01*
X98500420Y-99348000D01*
X98423293Y-99340403D01*
X98346164Y-99332807D01*
X98214213Y-99292780D01*
X98148237Y-99272767D01*
X97965828Y-99175267D01*
X97805946Y-99044054D01*
X97674733Y-98884172D01*
X97577233Y-98701763D01*
X97544311Y-98593233D01*
X97517193Y-98503836D01*
X97496920Y-98298000D01*
X97517193Y-98092164D01*
X97577233Y-97894238D01*
X97577233Y-97894237D01*
X97674733Y-97711828D01*
X97805946Y-97551946D01*
X97965828Y-97420733D01*
X98148237Y-97323233D01*
X98214213Y-97303220D01*
X98346164Y-97263193D01*
X98423293Y-97255597D01*
X98500420Y-97248000D01*
X98603580Y-97248000D01*
X98680707Y-97255596D01*
X98680707Y-97255596D01*
G37*
G36*
X106300707Y-97255596D02*
X106377836Y-97263193D01*
X106509787Y-97303220D01*
X106575763Y-97323233D01*
X106758172Y-97420733D01*
X106918054Y-97551946D01*
X107049267Y-97711828D01*
X107146767Y-97894237D01*
X107146767Y-97894238D01*
X107206807Y-98092164D01*
X107227080Y-98298000D01*
X107206807Y-98503836D01*
X107179689Y-98593233D01*
X107146767Y-98701763D01*
X107049267Y-98884172D01*
X106918054Y-99044054D01*
X106758172Y-99175267D01*
X106575763Y-99272767D01*
X106509787Y-99292780D01*
X106377836Y-99332807D01*
X106300707Y-99340403D01*
X106223580Y-99348000D01*
X106120420Y-99348000D01*
X106043293Y-99340403D01*
X105966164Y-99332807D01*
X105834213Y-99292780D01*
X105768237Y-99272767D01*
X105585828Y-99175267D01*
X105425946Y-99044054D01*
X105294733Y-98884172D01*
X105197233Y-98701763D01*
X105164311Y-98593233D01*
X105137193Y-98503836D01*
X105116920Y-98298000D01*
X105137193Y-98092164D01*
X105197233Y-97894238D01*
X105197233Y-97894237D01*
X105294733Y-97711828D01*
X105425946Y-97551946D01*
X105585828Y-97420733D01*
X105768237Y-97323233D01*
X105834213Y-97303220D01*
X105966164Y-97263193D01*
X106043293Y-97255597D01*
X106120420Y-97248000D01*
X106223580Y-97248000D01*
X106300707Y-97255596D01*
X106300707Y-97255596D01*
G37*
G36*
X115698707Y-95985596D02*
X115775836Y-95993193D01*
X115907787Y-96033220D01*
X115973763Y-96053233D01*
X116156172Y-96150733D01*
X116316054Y-96281946D01*
X116447267Y-96441828D01*
X116544767Y-96624237D01*
X116544998Y-96624998D01*
X116604807Y-96822164D01*
X116625080Y-97028000D01*
X116604807Y-97233836D01*
X116577689Y-97323233D01*
X116544767Y-97431763D01*
X116447267Y-97614172D01*
X116316054Y-97774054D01*
X116156172Y-97905267D01*
X115973763Y-98002767D01*
X115907787Y-98022780D01*
X115775836Y-98062807D01*
X115698707Y-98070403D01*
X115621580Y-98078000D01*
X115518420Y-98078000D01*
X115441293Y-98070403D01*
X115364164Y-98062807D01*
X115232213Y-98022780D01*
X115166237Y-98002767D01*
X114983828Y-97905267D01*
X114823946Y-97774054D01*
X114692733Y-97614172D01*
X114595233Y-97431763D01*
X114562311Y-97323233D01*
X114535193Y-97233836D01*
X114514920Y-97028000D01*
X114535193Y-96822164D01*
X114595002Y-96624998D01*
X114595233Y-96624237D01*
X114692733Y-96441828D01*
X114823946Y-96281946D01*
X114983828Y-96150733D01*
X115166237Y-96053233D01*
X115232213Y-96033220D01*
X115364164Y-95993193D01*
X115441293Y-95985596D01*
X115518420Y-95978000D01*
X115621580Y-95978000D01*
X115698707Y-95985596D01*
X115698707Y-95985596D01*
G37*
G36*
X123318707Y-95985596D02*
X123395836Y-95993193D01*
X123527787Y-96033220D01*
X123593763Y-96053233D01*
X123776172Y-96150733D01*
X123936054Y-96281946D01*
X124067267Y-96441828D01*
X124164767Y-96624237D01*
X124164998Y-96624998D01*
X124224807Y-96822164D01*
X124245080Y-97028000D01*
X124224807Y-97233836D01*
X124197689Y-97323233D01*
X124164767Y-97431763D01*
X124067267Y-97614172D01*
X123936054Y-97774054D01*
X123776172Y-97905267D01*
X123593763Y-98002767D01*
X123527787Y-98022780D01*
X123395836Y-98062807D01*
X123318707Y-98070403D01*
X123241580Y-98078000D01*
X123138420Y-98078000D01*
X123061293Y-98070403D01*
X122984164Y-98062807D01*
X122852213Y-98022780D01*
X122786237Y-98002767D01*
X122603828Y-97905267D01*
X122443946Y-97774054D01*
X122312733Y-97614172D01*
X122215233Y-97431763D01*
X122182311Y-97323233D01*
X122155193Y-97233836D01*
X122134920Y-97028000D01*
X122155193Y-96822164D01*
X122215002Y-96624998D01*
X122215233Y-96624237D01*
X122312733Y-96441828D01*
X122443946Y-96281946D01*
X122603828Y-96150733D01*
X122786237Y-96053233D01*
X122852213Y-96033220D01*
X122984164Y-95993193D01*
X123061293Y-95985596D01*
X123138420Y-95978000D01*
X123241580Y-95978000D01*
X123318707Y-95985596D01*
X123318707Y-95985596D01*
G37*
G36*
X136780707Y-95985596D02*
X136857836Y-95993193D01*
X136989787Y-96033220D01*
X137055763Y-96053233D01*
X137238172Y-96150733D01*
X137398054Y-96281946D01*
X137529267Y-96441828D01*
X137626767Y-96624237D01*
X137626998Y-96624998D01*
X137686807Y-96822164D01*
X137707080Y-97028000D01*
X137686807Y-97233836D01*
X137659689Y-97323233D01*
X137626767Y-97431763D01*
X137529267Y-97614172D01*
X137398054Y-97774054D01*
X137238172Y-97905267D01*
X137055763Y-98002767D01*
X136989787Y-98022780D01*
X136857836Y-98062807D01*
X136780707Y-98070403D01*
X136703580Y-98078000D01*
X136600420Y-98078000D01*
X136523293Y-98070403D01*
X136446164Y-98062807D01*
X136314213Y-98022780D01*
X136248237Y-98002767D01*
X136065828Y-97905267D01*
X135905946Y-97774054D01*
X135774733Y-97614172D01*
X135677233Y-97431763D01*
X135644311Y-97323233D01*
X135617193Y-97233836D01*
X135596920Y-97028000D01*
X135617193Y-96822164D01*
X135677002Y-96624998D01*
X135677233Y-96624237D01*
X135774733Y-96441828D01*
X135905946Y-96281946D01*
X136065828Y-96150733D01*
X136248237Y-96053233D01*
X136314213Y-96033220D01*
X136446164Y-95993193D01*
X136523293Y-95985596D01*
X136600420Y-95978000D01*
X136703580Y-95978000D01*
X136780707Y-95985596D01*
X136780707Y-95985596D01*
G37*
G36*
X129160707Y-95985596D02*
X129237836Y-95993193D01*
X129369787Y-96033220D01*
X129435763Y-96053233D01*
X129618172Y-96150733D01*
X129778054Y-96281946D01*
X129909267Y-96441828D01*
X130006767Y-96624237D01*
X130006998Y-96624998D01*
X130066807Y-96822164D01*
X130087080Y-97028000D01*
X130066807Y-97233836D01*
X130039689Y-97323233D01*
X130006767Y-97431763D01*
X129909267Y-97614172D01*
X129778054Y-97774054D01*
X129618172Y-97905267D01*
X129435763Y-98002767D01*
X129369787Y-98022780D01*
X129237836Y-98062807D01*
X129160707Y-98070403D01*
X129083580Y-98078000D01*
X128980420Y-98078000D01*
X128903293Y-98070403D01*
X128826164Y-98062807D01*
X128694213Y-98022780D01*
X128628237Y-98002767D01*
X128445828Y-97905267D01*
X128285946Y-97774054D01*
X128154733Y-97614172D01*
X128057233Y-97431763D01*
X128024311Y-97323233D01*
X127997193Y-97233836D01*
X127976920Y-97028000D01*
X127997193Y-96822164D01*
X128057002Y-96624998D01*
X128057233Y-96624237D01*
X128154733Y-96441828D01*
X128285946Y-96281946D01*
X128445828Y-96150733D01*
X128628237Y-96053233D01*
X128694213Y-96033220D01*
X128826164Y-95993193D01*
X128903293Y-95985596D01*
X128980420Y-95978000D01*
X129083580Y-95978000D01*
X129160707Y-95985596D01*
X129160707Y-95985596D01*
G37*
G36*
X106300707Y-94715597D02*
X106377836Y-94723193D01*
X106509787Y-94763220D01*
X106575763Y-94783233D01*
X106758172Y-94880733D01*
X106918054Y-95011946D01*
X107049267Y-95171828D01*
X107146767Y-95354237D01*
X107146767Y-95354238D01*
X107206807Y-95552164D01*
X107227080Y-95758000D01*
X107206807Y-95963836D01*
X107195602Y-96000774D01*
X107146767Y-96161763D01*
X107049267Y-96344172D01*
X106918054Y-96504054D01*
X106758172Y-96635267D01*
X106575763Y-96732767D01*
X106509787Y-96752780D01*
X106377836Y-96792807D01*
X106300707Y-96800403D01*
X106223580Y-96808000D01*
X106120420Y-96808000D01*
X106043293Y-96800403D01*
X105966164Y-96792807D01*
X105834213Y-96752780D01*
X105768237Y-96732767D01*
X105585828Y-96635267D01*
X105425946Y-96504054D01*
X105294733Y-96344172D01*
X105197233Y-96161763D01*
X105148398Y-96000774D01*
X105137193Y-95963836D01*
X105116920Y-95758000D01*
X105137193Y-95552164D01*
X105197233Y-95354238D01*
X105197233Y-95354237D01*
X105294733Y-95171828D01*
X105425946Y-95011946D01*
X105585828Y-94880733D01*
X105768237Y-94783233D01*
X105834213Y-94763220D01*
X105966164Y-94723193D01*
X106043293Y-94715597D01*
X106120420Y-94708000D01*
X106223580Y-94708000D01*
X106300707Y-94715597D01*
X106300707Y-94715597D01*
G37*
G36*
X98680707Y-94715597D02*
X98757836Y-94723193D01*
X98889787Y-94763220D01*
X98955763Y-94783233D01*
X99138172Y-94880733D01*
X99298054Y-95011946D01*
X99429267Y-95171828D01*
X99526767Y-95354237D01*
X99526767Y-95354238D01*
X99586807Y-95552164D01*
X99607080Y-95758000D01*
X99586807Y-95963836D01*
X99575602Y-96000774D01*
X99526767Y-96161763D01*
X99429267Y-96344172D01*
X99298054Y-96504054D01*
X99138172Y-96635267D01*
X98955763Y-96732767D01*
X98889787Y-96752780D01*
X98757836Y-96792807D01*
X98680707Y-96800403D01*
X98603580Y-96808000D01*
X98500420Y-96808000D01*
X98423293Y-96800403D01*
X98346164Y-96792807D01*
X98214213Y-96752780D01*
X98148237Y-96732767D01*
X97965828Y-96635267D01*
X97805946Y-96504054D01*
X97674733Y-96344172D01*
X97577233Y-96161763D01*
X97528398Y-96000774D01*
X97517193Y-95963836D01*
X97496920Y-95758000D01*
X97517193Y-95552164D01*
X97577233Y-95354238D01*
X97577233Y-95354237D01*
X97674733Y-95171828D01*
X97805946Y-95011946D01*
X97965828Y-94880733D01*
X98148237Y-94783233D01*
X98214213Y-94763220D01*
X98346164Y-94723193D01*
X98423293Y-94715597D01*
X98500420Y-94708000D01*
X98603580Y-94708000D01*
X98680707Y-94715597D01*
X98680707Y-94715597D01*
G37*
G36*
X94994888Y-94648970D02*
X95175274Y-94684850D01*
X95366362Y-94764002D01*
X95538336Y-94878911D01*
X95684589Y-95025164D01*
X95799498Y-95197138D01*
X95878650Y-95388226D01*
X95919000Y-95591084D01*
X95919000Y-95797916D01*
X95878650Y-96000774D01*
X95799498Y-96191862D01*
X95684589Y-96363836D01*
X95538336Y-96510089D01*
X95366362Y-96624998D01*
X95175274Y-96704150D01*
X94994888Y-96740030D01*
X94972417Y-96744500D01*
X94765583Y-96744500D01*
X94743112Y-96740030D01*
X94562726Y-96704150D01*
X94371638Y-96624998D01*
X94199664Y-96510089D01*
X94053411Y-96363836D01*
X93938502Y-96191862D01*
X93859350Y-96000774D01*
X93819000Y-95797916D01*
X93819000Y-95591084D01*
X93859350Y-95388226D01*
X93938502Y-95197138D01*
X94053411Y-95025164D01*
X94199664Y-94878911D01*
X94371638Y-94764002D01*
X94562726Y-94684850D01*
X94743112Y-94648970D01*
X94765583Y-94644500D01*
X94972417Y-94644500D01*
X94994888Y-94648970D01*
X94994888Y-94648970D01*
G37*
G36*
X109856707Y-94207596D02*
X109933836Y-94215193D01*
X110057833Y-94252807D01*
X110131763Y-94275233D01*
X110314172Y-94372733D01*
X110474054Y-94503946D01*
X110605267Y-94663828D01*
X110702767Y-94846237D01*
X110702767Y-94846238D01*
X110762807Y-95044164D01*
X110783080Y-95250000D01*
X110762807Y-95455836D01*
X110737883Y-95538000D01*
X110702767Y-95653763D01*
X110605267Y-95836172D01*
X110474054Y-95996054D01*
X110314172Y-96127267D01*
X110131763Y-96224767D01*
X110065787Y-96244780D01*
X109933836Y-96284807D01*
X109856707Y-96292403D01*
X109779580Y-96300000D01*
X109676420Y-96300000D01*
X109599293Y-96292403D01*
X109522164Y-96284807D01*
X109390213Y-96244780D01*
X109324237Y-96224767D01*
X109141828Y-96127267D01*
X108981946Y-95996054D01*
X108850733Y-95836172D01*
X108753233Y-95653763D01*
X108718117Y-95538000D01*
X108693193Y-95455836D01*
X108672920Y-95250000D01*
X108693193Y-95044164D01*
X108753233Y-94846238D01*
X108753233Y-94846237D01*
X108850733Y-94663828D01*
X108981946Y-94503946D01*
X109141828Y-94372733D01*
X109324237Y-94275233D01*
X109398167Y-94252807D01*
X109522164Y-94215193D01*
X109599293Y-94207596D01*
X109676420Y-94200000D01*
X109779580Y-94200000D01*
X109856707Y-94207596D01*
X109856707Y-94207596D01*
G37*
G36*
X115698707Y-93445596D02*
X115775836Y-93453193D01*
X115907787Y-93493220D01*
X115973763Y-93513233D01*
X116156172Y-93610733D01*
X116316054Y-93741946D01*
X116447267Y-93901828D01*
X116544767Y-94084237D01*
X116544767Y-94084238D01*
X116604807Y-94282164D01*
X116625080Y-94488000D01*
X116604807Y-94693836D01*
X116583522Y-94764002D01*
X116544767Y-94891763D01*
X116447267Y-95074172D01*
X116316054Y-95234054D01*
X116156172Y-95365267D01*
X115973763Y-95462767D01*
X115907787Y-95482780D01*
X115775836Y-95522807D01*
X115698707Y-95530403D01*
X115621580Y-95538000D01*
X115518420Y-95538000D01*
X115441293Y-95530403D01*
X115364164Y-95522807D01*
X115232213Y-95482780D01*
X115166237Y-95462767D01*
X114983828Y-95365267D01*
X114823946Y-95234054D01*
X114692733Y-95074172D01*
X114595233Y-94891763D01*
X114556478Y-94764002D01*
X114535193Y-94693836D01*
X114514920Y-94488000D01*
X114535193Y-94282164D01*
X114595233Y-94084238D01*
X114595233Y-94084237D01*
X114692733Y-93901828D01*
X114823946Y-93741946D01*
X114983828Y-93610733D01*
X115166237Y-93513233D01*
X115232213Y-93493220D01*
X115364164Y-93453193D01*
X115441293Y-93445596D01*
X115518420Y-93438000D01*
X115621580Y-93438000D01*
X115698707Y-93445596D01*
X115698707Y-93445596D01*
G37*
G36*
X123318707Y-93445596D02*
X123395836Y-93453193D01*
X123527787Y-93493220D01*
X123593763Y-93513233D01*
X123776172Y-93610733D01*
X123936054Y-93741946D01*
X124067267Y-93901828D01*
X124164767Y-94084237D01*
X124164767Y-94084238D01*
X124224807Y-94282164D01*
X124245080Y-94488000D01*
X124224807Y-94693836D01*
X124203522Y-94764002D01*
X124164767Y-94891763D01*
X124067267Y-95074172D01*
X123936054Y-95234054D01*
X123776172Y-95365267D01*
X123593763Y-95462767D01*
X123527787Y-95482780D01*
X123395836Y-95522807D01*
X123318707Y-95530403D01*
X123241580Y-95538000D01*
X123138420Y-95538000D01*
X123061293Y-95530403D01*
X122984164Y-95522807D01*
X122852213Y-95482780D01*
X122786237Y-95462767D01*
X122603828Y-95365267D01*
X122443946Y-95234054D01*
X122312733Y-95074172D01*
X122215233Y-94891763D01*
X122176478Y-94764002D01*
X122155193Y-94693836D01*
X122134920Y-94488000D01*
X122155193Y-94282164D01*
X122215233Y-94084238D01*
X122215233Y-94084237D01*
X122312733Y-93901828D01*
X122443946Y-93741946D01*
X122603828Y-93610733D01*
X122786237Y-93513233D01*
X122852213Y-93493220D01*
X122984164Y-93453193D01*
X123061293Y-93445596D01*
X123138420Y-93438000D01*
X123241580Y-93438000D01*
X123318707Y-93445596D01*
X123318707Y-93445596D01*
G37*
G36*
X129160707Y-93445596D02*
X129237836Y-93453193D01*
X129369787Y-93493220D01*
X129435763Y-93513233D01*
X129618172Y-93610733D01*
X129778054Y-93741946D01*
X129909267Y-93901828D01*
X130006767Y-94084237D01*
X130006767Y-94084238D01*
X130066807Y-94282164D01*
X130087080Y-94488000D01*
X130066807Y-94693836D01*
X130045522Y-94764002D01*
X130006767Y-94891763D01*
X129909267Y-95074172D01*
X129778054Y-95234054D01*
X129618172Y-95365267D01*
X129435763Y-95462767D01*
X129369787Y-95482780D01*
X129237836Y-95522807D01*
X129160707Y-95530403D01*
X129083580Y-95538000D01*
X128980420Y-95538000D01*
X128903293Y-95530403D01*
X128826164Y-95522807D01*
X128694213Y-95482780D01*
X128628237Y-95462767D01*
X128445828Y-95365267D01*
X128285946Y-95234054D01*
X128154733Y-95074172D01*
X128057233Y-94891763D01*
X128018478Y-94764002D01*
X127997193Y-94693836D01*
X127976920Y-94488000D01*
X127997193Y-94282164D01*
X128057233Y-94084238D01*
X128057233Y-94084237D01*
X128154733Y-93901828D01*
X128285946Y-93741946D01*
X128445828Y-93610733D01*
X128628237Y-93513233D01*
X128694213Y-93493220D01*
X128826164Y-93453193D01*
X128903293Y-93445596D01*
X128980420Y-93438000D01*
X129083580Y-93438000D01*
X129160707Y-93445596D01*
X129160707Y-93445596D01*
G37*
G36*
X136780707Y-93445596D02*
X136857836Y-93453193D01*
X136989787Y-93493220D01*
X137055763Y-93513233D01*
X137238172Y-93610733D01*
X137398054Y-93741946D01*
X137529267Y-93901828D01*
X137626767Y-94084237D01*
X137626767Y-94084238D01*
X137686807Y-94282164D01*
X137707080Y-94488000D01*
X137686807Y-94693836D01*
X137665522Y-94764002D01*
X137626767Y-94891763D01*
X137529267Y-95074172D01*
X137398054Y-95234054D01*
X137238172Y-95365267D01*
X137055763Y-95462767D01*
X136989787Y-95482780D01*
X136857836Y-95522807D01*
X136780707Y-95530403D01*
X136703580Y-95538000D01*
X136600420Y-95538000D01*
X136523293Y-95530403D01*
X136446164Y-95522807D01*
X136314213Y-95482780D01*
X136248237Y-95462767D01*
X136065828Y-95365267D01*
X135905946Y-95234054D01*
X135774733Y-95074172D01*
X135677233Y-94891763D01*
X135638478Y-94764002D01*
X135617193Y-94693836D01*
X135596920Y-94488000D01*
X135617193Y-94282164D01*
X135677233Y-94084238D01*
X135677233Y-94084237D01*
X135774733Y-93901828D01*
X135905946Y-93741946D01*
X136065828Y-93610733D01*
X136248237Y-93513233D01*
X136314213Y-93493220D01*
X136446164Y-93453193D01*
X136523293Y-93445596D01*
X136600420Y-93438000D01*
X136703580Y-93438000D01*
X136780707Y-93445596D01*
X136780707Y-93445596D01*
G37*
G36*
X143725639Y-92641916D02*
X143932986Y-92704815D01*
X143932988Y-92704816D01*
X144124084Y-92806958D01*
X144291581Y-92944419D01*
X144429042Y-93111916D01*
X144528460Y-93297916D01*
X144531185Y-93303014D01*
X144594084Y-93510361D01*
X144615322Y-93726000D01*
X144594084Y-93941639D01*
X144538462Y-94124998D01*
X144531184Y-94148988D01*
X144429042Y-94340084D01*
X144291581Y-94507581D01*
X144124084Y-94645042D01*
X143977872Y-94723193D01*
X143932986Y-94747185D01*
X143725639Y-94810084D01*
X143564038Y-94826000D01*
X143455962Y-94826000D01*
X143294361Y-94810084D01*
X143087014Y-94747185D01*
X143042128Y-94723193D01*
X142895916Y-94645042D01*
X142728419Y-94507581D01*
X142590958Y-94340084D01*
X142488816Y-94148988D01*
X142481539Y-94124998D01*
X142425916Y-93941639D01*
X142404678Y-93726000D01*
X142425916Y-93510361D01*
X142488815Y-93303014D01*
X142491540Y-93297916D01*
X142590958Y-93111916D01*
X142728419Y-92944419D01*
X142895916Y-92806958D01*
X143087012Y-92704816D01*
X143087014Y-92704815D01*
X143294361Y-92641916D01*
X143455962Y-92626000D01*
X143564038Y-92626000D01*
X143725639Y-92641916D01*
X143725639Y-92641916D01*
G37*
G36*
X106300707Y-92175596D02*
X106377836Y-92183193D01*
X106509787Y-92223220D01*
X106575763Y-92243233D01*
X106758172Y-92340733D01*
X106918054Y-92471946D01*
X107049267Y-92631828D01*
X107146767Y-92814237D01*
X107146767Y-92814238D01*
X107206807Y-93012164D01*
X107227080Y-93218000D01*
X107206807Y-93423836D01*
X107183469Y-93500771D01*
X107146767Y-93621763D01*
X107049267Y-93804172D01*
X106918054Y-93964054D01*
X106758172Y-94095267D01*
X106575763Y-94192767D01*
X106509787Y-94212780D01*
X106377836Y-94252807D01*
X106300707Y-94260403D01*
X106223580Y-94268000D01*
X106120420Y-94268000D01*
X106043293Y-94260403D01*
X105966164Y-94252807D01*
X105834213Y-94212780D01*
X105768237Y-94192767D01*
X105585828Y-94095267D01*
X105425946Y-93964054D01*
X105294733Y-93804172D01*
X105197233Y-93621763D01*
X105160531Y-93500771D01*
X105137193Y-93423836D01*
X105116920Y-93218000D01*
X105137193Y-93012164D01*
X105197233Y-92814238D01*
X105197233Y-92814237D01*
X105294733Y-92631828D01*
X105425946Y-92471946D01*
X105585828Y-92340733D01*
X105768237Y-92243233D01*
X105834213Y-92223220D01*
X105966164Y-92183193D01*
X106043293Y-92175596D01*
X106120420Y-92168000D01*
X106223580Y-92168000D01*
X106300707Y-92175596D01*
X106300707Y-92175596D01*
G37*
G36*
X99602000Y-94268000D02*
X97502000Y-94268000D01*
X97502000Y-92168000D01*
X99602000Y-92168000D01*
X99602000Y-94268000D01*
X99602000Y-94268000D01*
G37*
G36*
X94994888Y-92148970D02*
X95175274Y-92184850D01*
X95366362Y-92264002D01*
X95538336Y-92378911D01*
X95684589Y-92525164D01*
X95799498Y-92697138D01*
X95878650Y-92888226D01*
X95914530Y-93068612D01*
X95919000Y-93091083D01*
X95919000Y-93297917D01*
X95917986Y-93303014D01*
X95878650Y-93500774D01*
X95799498Y-93691862D01*
X95684589Y-93863836D01*
X95538336Y-94010089D01*
X95366362Y-94124998D01*
X95175274Y-94204150D01*
X94994888Y-94240030D01*
X94972417Y-94244500D01*
X94765583Y-94244500D01*
X94743112Y-94240030D01*
X94562726Y-94204150D01*
X94371638Y-94124998D01*
X94199664Y-94010089D01*
X94053411Y-93863836D01*
X93938502Y-93691862D01*
X93859350Y-93500774D01*
X93820014Y-93303014D01*
X93819000Y-93297917D01*
X93819000Y-93091083D01*
X93823470Y-93068612D01*
X93859350Y-92888226D01*
X93938502Y-92697138D01*
X94053411Y-92525164D01*
X94199664Y-92378911D01*
X94371638Y-92264002D01*
X94562726Y-92184850D01*
X94743112Y-92148970D01*
X94765583Y-92144500D01*
X94972417Y-92144500D01*
X94994888Y-92148970D01*
X94994888Y-92148970D01*
G37*
G36*
X115698707Y-90905596D02*
X115775836Y-90913193D01*
X115907787Y-90953220D01*
X115973763Y-90973233D01*
X116156172Y-91070733D01*
X116316054Y-91201946D01*
X116447267Y-91361828D01*
X116544767Y-91544237D01*
X116544767Y-91544238D01*
X116604807Y-91742164D01*
X116625080Y-91948000D01*
X116604807Y-92153836D01*
X116577689Y-92243233D01*
X116544767Y-92351763D01*
X116447267Y-92534172D01*
X116316054Y-92694054D01*
X116156172Y-92825267D01*
X115973763Y-92922767D01*
X115907787Y-92942780D01*
X115775836Y-92982807D01*
X115698707Y-92990403D01*
X115621580Y-92998000D01*
X115518420Y-92998000D01*
X115441293Y-92990403D01*
X115364164Y-92982807D01*
X115232213Y-92942780D01*
X115166237Y-92922767D01*
X114983828Y-92825267D01*
X114823946Y-92694054D01*
X114692733Y-92534172D01*
X114595233Y-92351763D01*
X114562311Y-92243233D01*
X114535193Y-92153836D01*
X114514920Y-91948000D01*
X114535193Y-91742164D01*
X114595233Y-91544238D01*
X114595233Y-91544237D01*
X114692733Y-91361828D01*
X114823946Y-91201946D01*
X114983828Y-91070733D01*
X115166237Y-90973233D01*
X115232213Y-90953220D01*
X115364164Y-90913193D01*
X115441293Y-90905596D01*
X115518420Y-90898000D01*
X115621580Y-90898000D01*
X115698707Y-90905596D01*
X115698707Y-90905596D01*
G37*
G36*
X136780707Y-90905596D02*
X136857836Y-90913193D01*
X136989787Y-90953220D01*
X137055763Y-90973233D01*
X137238172Y-91070733D01*
X137398054Y-91201946D01*
X137529267Y-91361828D01*
X137626767Y-91544237D01*
X137626767Y-91544238D01*
X137686807Y-91742164D01*
X137707080Y-91948000D01*
X137686807Y-92153836D01*
X137659689Y-92243233D01*
X137626767Y-92351763D01*
X137529267Y-92534172D01*
X137398054Y-92694054D01*
X137238172Y-92825267D01*
X137055763Y-92922767D01*
X136989787Y-92942780D01*
X136857836Y-92982807D01*
X136780707Y-92990403D01*
X136703580Y-92998000D01*
X136600420Y-92998000D01*
X136523293Y-92990403D01*
X136446164Y-92982807D01*
X136314213Y-92942780D01*
X136248237Y-92922767D01*
X136065828Y-92825267D01*
X135905946Y-92694054D01*
X135774733Y-92534172D01*
X135677233Y-92351763D01*
X135644311Y-92243233D01*
X135617193Y-92153836D01*
X135596920Y-91948000D01*
X135617193Y-91742164D01*
X135677233Y-91544238D01*
X135677233Y-91544237D01*
X135774733Y-91361828D01*
X135905946Y-91201946D01*
X136065828Y-91070733D01*
X136248237Y-90973233D01*
X136314213Y-90953220D01*
X136446164Y-90913193D01*
X136523293Y-90905596D01*
X136600420Y-90898000D01*
X136703580Y-90898000D01*
X136780707Y-90905596D01*
X136780707Y-90905596D01*
G37*
G36*
X129160707Y-90905596D02*
X129237836Y-90913193D01*
X129369787Y-90953220D01*
X129435763Y-90973233D01*
X129618172Y-91070733D01*
X129778054Y-91201946D01*
X129909267Y-91361828D01*
X130006767Y-91544237D01*
X130006767Y-91544238D01*
X130066807Y-91742164D01*
X130087080Y-91948000D01*
X130066807Y-92153836D01*
X130039689Y-92243233D01*
X130006767Y-92351763D01*
X129909267Y-92534172D01*
X129778054Y-92694054D01*
X129618172Y-92825267D01*
X129435763Y-92922767D01*
X129369787Y-92942780D01*
X129237836Y-92982807D01*
X129160707Y-92990403D01*
X129083580Y-92998000D01*
X128980420Y-92998000D01*
X128903293Y-92990403D01*
X128826164Y-92982807D01*
X128694213Y-92942780D01*
X128628237Y-92922767D01*
X128445828Y-92825267D01*
X128285946Y-92694054D01*
X128154733Y-92534172D01*
X128057233Y-92351763D01*
X128024311Y-92243233D01*
X127997193Y-92153836D01*
X127976920Y-91948000D01*
X127997193Y-91742164D01*
X128057233Y-91544238D01*
X128057233Y-91544237D01*
X128154733Y-91361828D01*
X128285946Y-91201946D01*
X128445828Y-91070733D01*
X128628237Y-90973233D01*
X128694213Y-90953220D01*
X128826164Y-90913193D01*
X128903293Y-90905596D01*
X128980420Y-90898000D01*
X129083580Y-90898000D01*
X129160707Y-90905596D01*
X129160707Y-90905596D01*
G37*
G36*
X123318707Y-90905596D02*
X123395836Y-90913193D01*
X123527787Y-90953220D01*
X123593763Y-90973233D01*
X123776172Y-91070733D01*
X123936054Y-91201946D01*
X124067267Y-91361828D01*
X124164767Y-91544237D01*
X124164767Y-91544238D01*
X124224807Y-91742164D01*
X124245080Y-91948000D01*
X124224807Y-92153836D01*
X124197689Y-92243233D01*
X124164767Y-92351763D01*
X124067267Y-92534172D01*
X123936054Y-92694054D01*
X123776172Y-92825267D01*
X123593763Y-92922767D01*
X123527787Y-92942780D01*
X123395836Y-92982807D01*
X123318707Y-92990403D01*
X123241580Y-92998000D01*
X123138420Y-92998000D01*
X123061293Y-92990403D01*
X122984164Y-92982807D01*
X122852213Y-92942780D01*
X122786237Y-92922767D01*
X122603828Y-92825267D01*
X122443946Y-92694054D01*
X122312733Y-92534172D01*
X122215233Y-92351763D01*
X122182311Y-92243233D01*
X122155193Y-92153836D01*
X122134920Y-91948000D01*
X122155193Y-91742164D01*
X122215233Y-91544238D01*
X122215233Y-91544237D01*
X122312733Y-91361828D01*
X122443946Y-91201946D01*
X122603828Y-91070733D01*
X122786237Y-90973233D01*
X122852213Y-90953220D01*
X122984164Y-90913193D01*
X123061293Y-90905596D01*
X123138420Y-90898000D01*
X123241580Y-90898000D01*
X123318707Y-90905596D01*
X123318707Y-90905596D01*
G37*
G36*
X143725639Y-90101916D02*
X143932986Y-90164815D01*
X143932988Y-90164816D01*
X144124084Y-90266958D01*
X144291581Y-90404419D01*
X144429042Y-90571916D01*
X144531184Y-90763012D01*
X144531185Y-90763014D01*
X144594084Y-90970361D01*
X144615322Y-91186000D01*
X144594084Y-91401639D01*
X144550827Y-91544237D01*
X144531184Y-91608988D01*
X144429042Y-91800084D01*
X144291581Y-91967581D01*
X144124084Y-92105042D01*
X143977872Y-92183193D01*
X143932986Y-92207185D01*
X143725639Y-92270084D01*
X143564038Y-92286000D01*
X143455962Y-92286000D01*
X143294361Y-92270084D01*
X143087014Y-92207185D01*
X143042128Y-92183193D01*
X142895916Y-92105042D01*
X142728419Y-91967581D01*
X142590958Y-91800084D01*
X142488816Y-91608988D01*
X142469174Y-91544237D01*
X142425916Y-91401639D01*
X142404678Y-91186000D01*
X142425916Y-90970361D01*
X142488815Y-90763014D01*
X142488816Y-90763012D01*
X142590958Y-90571916D01*
X142728419Y-90404419D01*
X142895916Y-90266958D01*
X143087012Y-90164816D01*
X143087014Y-90164815D01*
X143294361Y-90101916D01*
X143455962Y-90086000D01*
X143564038Y-90086000D01*
X143725639Y-90101916D01*
X143725639Y-90101916D01*
G37*
G36*
X136758020Y-88363362D02*
X136857836Y-88373193D01*
X136989787Y-88413220D01*
X137055763Y-88433233D01*
X137238172Y-88530733D01*
X137398054Y-88661946D01*
X137529267Y-88821828D01*
X137626767Y-89004237D01*
X137626767Y-89004238D01*
X137686807Y-89202164D01*
X137707080Y-89408000D01*
X137686807Y-89613836D01*
X137646780Y-89745787D01*
X137626767Y-89811763D01*
X137529267Y-89994172D01*
X137398054Y-90154054D01*
X137238172Y-90285267D01*
X137055763Y-90382767D01*
X136989787Y-90402780D01*
X136857836Y-90442807D01*
X136780707Y-90450403D01*
X136703580Y-90458000D01*
X136600420Y-90458000D01*
X136523293Y-90450403D01*
X136446164Y-90442807D01*
X136314213Y-90402780D01*
X136248237Y-90382767D01*
X136065828Y-90285267D01*
X135905946Y-90154054D01*
X135774733Y-89994172D01*
X135677233Y-89811763D01*
X135657220Y-89745787D01*
X135617193Y-89613836D01*
X135596920Y-89408000D01*
X135617193Y-89202164D01*
X135677233Y-89004238D01*
X135677233Y-89004237D01*
X135774733Y-88821828D01*
X135905946Y-88661946D01*
X136065828Y-88530733D01*
X136248237Y-88433233D01*
X136314213Y-88413220D01*
X136446164Y-88373193D01*
X136545980Y-88363362D01*
X136600420Y-88358000D01*
X136703580Y-88358000D01*
X136758020Y-88363362D01*
X136758020Y-88363362D01*
G37*
G36*
X130082000Y-90458000D02*
X127982000Y-90458000D01*
X127982000Y-88358000D01*
X130082000Y-88358000D01*
X130082000Y-90458000D01*
X130082000Y-90458000D01*
G37*
G36*
X123296020Y-88363362D02*
X123395836Y-88373193D01*
X123527787Y-88413220D01*
X123593763Y-88433233D01*
X123776172Y-88530733D01*
X123936054Y-88661946D01*
X124067267Y-88821828D01*
X124164767Y-89004237D01*
X124164767Y-89004238D01*
X124224807Y-89202164D01*
X124245080Y-89408000D01*
X124224807Y-89613836D01*
X124184780Y-89745787D01*
X124164767Y-89811763D01*
X124067267Y-89994172D01*
X123936054Y-90154054D01*
X123776172Y-90285267D01*
X123593763Y-90382767D01*
X123527787Y-90402780D01*
X123395836Y-90442807D01*
X123318707Y-90450403D01*
X123241580Y-90458000D01*
X123138420Y-90458000D01*
X123061293Y-90450403D01*
X122984164Y-90442807D01*
X122852213Y-90402780D01*
X122786237Y-90382767D01*
X122603828Y-90285267D01*
X122443946Y-90154054D01*
X122312733Y-89994172D01*
X122215233Y-89811763D01*
X122195220Y-89745787D01*
X122155193Y-89613836D01*
X122134920Y-89408000D01*
X122155193Y-89202164D01*
X122215233Y-89004238D01*
X122215233Y-89004237D01*
X122312733Y-88821828D01*
X122443946Y-88661946D01*
X122603828Y-88530733D01*
X122786237Y-88433233D01*
X122852213Y-88413220D01*
X122984164Y-88373193D01*
X123083980Y-88363362D01*
X123138420Y-88358000D01*
X123241580Y-88358000D01*
X123296020Y-88363362D01*
X123296020Y-88363362D01*
G37*
G36*
X116620000Y-90458000D02*
X114520000Y-90458000D01*
X114520000Y-88358000D01*
X116620000Y-88358000D01*
X116620000Y-90458000D01*
X116620000Y-90458000D01*
G37*
G36*
X94268000Y-90458000D02*
X92168000Y-90458000D01*
X92168000Y-88358000D01*
X94268000Y-88358000D01*
X94268000Y-90458000D01*
X94268000Y-90458000D01*
G37*
G36*
X144610000Y-89746000D02*
X142410000Y-89746000D01*
X142410000Y-87546000D01*
X144610000Y-87546000D01*
X144610000Y-89746000D01*
X144610000Y-89746000D01*
G37*
G36*
X100117190Y-86910890D02*
X100301362Y-86987177D01*
X100467113Y-87097928D01*
X100608072Y-87238887D01*
X100718823Y-87404638D01*
X100795110Y-87588810D01*
X100834000Y-87784327D01*
X100834000Y-87983673D01*
X100795110Y-88179190D01*
X100718823Y-88363362D01*
X100608072Y-88529113D01*
X100467113Y-88670072D01*
X100301362Y-88780823D01*
X100117190Y-88857110D01*
X99921673Y-88896000D01*
X99722327Y-88896000D01*
X99526810Y-88857110D01*
X99342638Y-88780823D01*
X99176887Y-88670072D01*
X99035928Y-88529113D01*
X98925177Y-88363362D01*
X98848890Y-88179190D01*
X98810000Y-87983673D01*
X98810000Y-87784327D01*
X98848890Y-87588810D01*
X98925177Y-87404638D01*
X99035928Y-87238887D01*
X99176887Y-87097928D01*
X99342638Y-86987177D01*
X99526810Y-86910890D01*
X99722327Y-86872000D01*
X99921673Y-86872000D01*
X100117190Y-86910890D01*
X100117190Y-86910890D01*
G37*
G36*
X105197190Y-86910890D02*
X105381362Y-86987177D01*
X105547113Y-87097928D01*
X105688072Y-87238887D01*
X105798823Y-87404638D01*
X105875110Y-87588810D01*
X105914000Y-87784327D01*
X105914000Y-87983673D01*
X105875110Y-88179190D01*
X105798823Y-88363362D01*
X105688072Y-88529113D01*
X105547113Y-88670072D01*
X105381362Y-88780823D01*
X105197190Y-88857110D01*
X105001673Y-88896000D01*
X104802327Y-88896000D01*
X104606810Y-88857110D01*
X104422638Y-88780823D01*
X104256887Y-88670072D01*
X104115928Y-88529113D01*
X104005177Y-88363362D01*
X103928890Y-88179190D01*
X103890000Y-87983673D01*
X103890000Y-87784327D01*
X103928890Y-87588810D01*
X104005177Y-87404638D01*
X104115928Y-87238887D01*
X104256887Y-87097928D01*
X104422638Y-86987177D01*
X104606810Y-86910890D01*
X104802327Y-86872000D01*
X105001673Y-86872000D01*
X105197190Y-86910890D01*
X105197190Y-86910890D01*
G37*
G36*
X109853888Y-86584470D02*
X110034274Y-86620350D01*
X110225362Y-86699502D01*
X110397336Y-86814411D01*
X110543589Y-86960664D01*
X110658498Y-87132638D01*
X110737650Y-87323726D01*
X110778000Y-87526584D01*
X110778000Y-87733416D01*
X110737650Y-87936274D01*
X110658498Y-88127362D01*
X110543589Y-88299336D01*
X110397336Y-88445589D01*
X110225362Y-88560498D01*
X110034274Y-88639650D01*
X109853888Y-88675530D01*
X109831417Y-88680000D01*
X109624583Y-88680000D01*
X109602112Y-88675530D01*
X109421726Y-88639650D01*
X109230638Y-88560498D01*
X109058664Y-88445589D01*
X108912411Y-88299336D01*
X108797502Y-88127362D01*
X108718350Y-87936274D01*
X108678000Y-87733416D01*
X108678000Y-87526584D01*
X108718350Y-87323726D01*
X108797502Y-87132638D01*
X108912411Y-86960664D01*
X109058664Y-86814411D01*
X109230638Y-86699502D01*
X109421726Y-86620350D01*
X109602112Y-86584470D01*
X109624583Y-86580000D01*
X109831417Y-86580000D01*
X109853888Y-86584470D01*
X109853888Y-86584470D01*
G37*
G36*
X93343888Y-85862470D02*
X93524274Y-85898350D01*
X93715362Y-85977502D01*
X93887336Y-86092411D01*
X94033589Y-86238664D01*
X94148498Y-86410638D01*
X94227650Y-86601726D01*
X94268000Y-86804584D01*
X94268000Y-87011416D01*
X94227650Y-87214274D01*
X94148498Y-87405362D01*
X94033589Y-87577336D01*
X93887336Y-87723589D01*
X93715362Y-87838498D01*
X93524274Y-87917650D01*
X93343888Y-87953530D01*
X93321417Y-87958000D01*
X93114583Y-87958000D01*
X93092112Y-87953530D01*
X92911726Y-87917650D01*
X92720638Y-87838498D01*
X92548664Y-87723589D01*
X92402411Y-87577336D01*
X92287502Y-87405362D01*
X92208350Y-87214274D01*
X92168000Y-87011416D01*
X92168000Y-86804584D01*
X92208350Y-86601726D01*
X92287502Y-86410638D01*
X92402411Y-86238664D01*
X92548664Y-86092411D01*
X92720638Y-85977502D01*
X92911726Y-85898350D01*
X93092112Y-85862470D01*
X93114583Y-85858000D01*
X93321417Y-85858000D01*
X93343888Y-85862470D01*
X93343888Y-85862470D01*
G37*
G36*
X124585888Y-84044470D02*
X124766274Y-84080350D01*
X124957362Y-84159502D01*
X125129336Y-84274411D01*
X125275589Y-84420664D01*
X125390498Y-84592638D01*
X125469650Y-84783726D01*
X125510000Y-84986584D01*
X125510000Y-85193416D01*
X125469650Y-85396274D01*
X125390498Y-85587362D01*
X125275589Y-85759336D01*
X125129336Y-85905589D01*
X124957362Y-86020498D01*
X124766274Y-86099650D01*
X124585888Y-86135530D01*
X124563417Y-86140000D01*
X124356583Y-86140000D01*
X124334112Y-86135530D01*
X124153726Y-86099650D01*
X123962638Y-86020498D01*
X123790664Y-85905589D01*
X123644411Y-85759336D01*
X123529502Y-85587362D01*
X123450350Y-85396274D01*
X123410000Y-85193416D01*
X123410000Y-84986584D01*
X123450350Y-84783726D01*
X123529502Y-84592638D01*
X123644411Y-84420664D01*
X123790664Y-84274411D01*
X123962638Y-84159502D01*
X124153726Y-84080350D01*
X124334112Y-84044470D01*
X124356583Y-84040000D01*
X124563417Y-84040000D01*
X124585888Y-84044470D01*
X124585888Y-84044470D01*
G37*
G36*
X128395888Y-84044470D02*
X128576274Y-84080350D01*
X128767362Y-84159502D01*
X128939336Y-84274411D01*
X129085589Y-84420664D01*
X129200498Y-84592638D01*
X129279650Y-84783726D01*
X129320000Y-84986584D01*
X129320000Y-85193416D01*
X129279650Y-85396274D01*
X129200498Y-85587362D01*
X129085589Y-85759336D01*
X128939336Y-85905589D01*
X128767362Y-86020498D01*
X128576274Y-86099650D01*
X128395888Y-86135530D01*
X128373417Y-86140000D01*
X128166583Y-86140000D01*
X128144112Y-86135530D01*
X127963726Y-86099650D01*
X127772638Y-86020498D01*
X127600664Y-85905589D01*
X127454411Y-85759336D01*
X127339502Y-85587362D01*
X127260350Y-85396274D01*
X127220000Y-85193416D01*
X127220000Y-84986584D01*
X127260350Y-84783726D01*
X127339502Y-84592638D01*
X127454411Y-84420664D01*
X127600664Y-84274411D01*
X127772638Y-84159502D01*
X127963726Y-84080350D01*
X128144112Y-84044470D01*
X128166583Y-84040000D01*
X128373417Y-84040000D01*
X128395888Y-84044470D01*
X128395888Y-84044470D01*
G37*
G36*
X109853888Y-82734470D02*
X110034274Y-82770350D01*
X110225362Y-82849502D01*
X110397336Y-82964411D01*
X110543589Y-83110664D01*
X110658498Y-83282638D01*
X110737650Y-83473726D01*
X110778000Y-83676584D01*
X110778000Y-83883416D01*
X110737650Y-84086274D01*
X110658498Y-84277362D01*
X110543589Y-84449336D01*
X110397336Y-84595589D01*
X110225362Y-84710498D01*
X110034274Y-84789650D01*
X109853888Y-84825530D01*
X109831417Y-84830000D01*
X109624583Y-84830000D01*
X109602112Y-84825530D01*
X109421726Y-84789650D01*
X109230638Y-84710498D01*
X109058664Y-84595589D01*
X108912411Y-84449336D01*
X108797502Y-84277362D01*
X108718350Y-84086274D01*
X108678000Y-83883416D01*
X108678000Y-83676584D01*
X108718350Y-83473726D01*
X108797502Y-83282638D01*
X108912411Y-83110664D01*
X109058664Y-82964411D01*
X109230638Y-82849502D01*
X109421726Y-82770350D01*
X109602112Y-82734470D01*
X109624583Y-82730000D01*
X109831417Y-82730000D01*
X109853888Y-82734470D01*
X109853888Y-82734470D01*
G37*
G36*
X102657190Y-81830890D02*
X102841362Y-81907177D01*
X103007113Y-82017928D01*
X103148072Y-82158887D01*
X103258823Y-82324638D01*
X103335110Y-82508810D01*
X103374000Y-82704327D01*
X103374000Y-82903673D01*
X103335110Y-83099190D01*
X103258823Y-83283362D01*
X103148072Y-83449113D01*
X103007113Y-83590072D01*
X102841362Y-83700823D01*
X102657190Y-83777110D01*
X102461673Y-83816000D01*
X102262327Y-83816000D01*
X102066810Y-83777110D01*
X101882638Y-83700823D01*
X101716887Y-83590072D01*
X101575928Y-83449113D01*
X101465177Y-83283362D01*
X101388890Y-83099190D01*
X101350000Y-82903673D01*
X101350000Y-82704327D01*
X101388890Y-82508810D01*
X101465177Y-82324638D01*
X101575928Y-82158887D01*
X101716887Y-82017928D01*
X101882638Y-81907177D01*
X102066810Y-81830890D01*
X102262327Y-81792000D01*
X102461673Y-81792000D01*
X102657190Y-81830890D01*
X102657190Y-81830890D01*
G37*
G36*
X120357639Y-81465916D02*
X120564986Y-81528815D01*
X120564988Y-81528816D01*
X120756084Y-81630958D01*
X120923581Y-81768419D01*
X121061042Y-81935916D01*
X121146388Y-82095589D01*
X121163185Y-82127014D01*
X121226084Y-82334361D01*
X121247322Y-82550000D01*
X121226084Y-82765639D01*
X121186456Y-82896274D01*
X121163184Y-82972988D01*
X121061042Y-83164084D01*
X120923581Y-83331581D01*
X120756084Y-83469042D01*
X120564988Y-83571184D01*
X120564986Y-83571185D01*
X120357639Y-83634084D01*
X120196038Y-83650000D01*
X120087962Y-83650000D01*
X119926361Y-83634084D01*
X119719014Y-83571185D01*
X119719012Y-83571184D01*
X119527916Y-83469042D01*
X119360419Y-83331581D01*
X119222958Y-83164084D01*
X119120816Y-82972988D01*
X119097545Y-82896274D01*
X119057916Y-82765639D01*
X119036678Y-82550000D01*
X119057916Y-82334361D01*
X119120815Y-82127014D01*
X119137612Y-82095589D01*
X119222958Y-81935916D01*
X119360419Y-81768419D01*
X119527916Y-81630958D01*
X119719012Y-81528816D01*
X119719014Y-81528815D01*
X119926361Y-81465916D01*
X120087962Y-81450000D01*
X120196038Y-81450000D01*
X120357639Y-81465916D01*
X120357639Y-81465916D01*
G37*
G36*
X118702000Y-83650000D02*
X116502000Y-83650000D01*
X116502000Y-81450000D01*
X118702000Y-81450000D01*
X118702000Y-83650000D01*
X118702000Y-83650000D01*
G37*
G36*
X128395888Y-81544470D02*
X128576274Y-81580350D01*
X128767362Y-81659502D01*
X128939336Y-81774411D01*
X129085589Y-81920664D01*
X129200498Y-82092638D01*
X129279650Y-82283726D01*
X129320000Y-82486584D01*
X129320000Y-82693416D01*
X129279650Y-82896274D01*
X129200498Y-83087362D01*
X129085589Y-83259336D01*
X128939336Y-83405589D01*
X128767362Y-83520498D01*
X128576274Y-83599650D01*
X128403158Y-83634084D01*
X128373417Y-83640000D01*
X128166583Y-83640000D01*
X128136842Y-83634084D01*
X127963726Y-83599650D01*
X127772638Y-83520498D01*
X127600664Y-83405589D01*
X127454411Y-83259336D01*
X127339502Y-83087362D01*
X127260350Y-82896274D01*
X127220000Y-82693416D01*
X127220000Y-82486584D01*
X127260350Y-82283726D01*
X127339502Y-82092638D01*
X127454411Y-81920664D01*
X127600664Y-81774411D01*
X127772638Y-81659502D01*
X127963726Y-81580350D01*
X128144112Y-81544470D01*
X128166583Y-81540000D01*
X128373417Y-81540000D01*
X128395888Y-81544470D01*
X128395888Y-81544470D01*
G37*
G36*
X124585888Y-81544470D02*
X124766274Y-81580350D01*
X124957362Y-81659502D01*
X125129336Y-81774411D01*
X125275589Y-81920664D01*
X125390498Y-82092638D01*
X125469650Y-82283726D01*
X125510000Y-82486584D01*
X125510000Y-82693416D01*
X125469650Y-82896274D01*
X125390498Y-83087362D01*
X125275589Y-83259336D01*
X125129336Y-83405589D01*
X124957362Y-83520498D01*
X124766274Y-83599650D01*
X124593158Y-83634084D01*
X124563417Y-83640000D01*
X124356583Y-83640000D01*
X124326842Y-83634084D01*
X124153726Y-83599650D01*
X123962638Y-83520498D01*
X123790664Y-83405589D01*
X123644411Y-83259336D01*
X123529502Y-83087362D01*
X123450350Y-82896274D01*
X123410000Y-82693416D01*
X123410000Y-82486584D01*
X123450350Y-82283726D01*
X123529502Y-82092638D01*
X123644411Y-81920664D01*
X123790664Y-81774411D01*
X123962638Y-81659502D01*
X124153726Y-81580350D01*
X124334112Y-81544470D01*
X124356583Y-81540000D01*
X124563417Y-81540000D01*
X124585888Y-81544470D01*
X124585888Y-81544470D01*
G37*
G36*
X109853888Y-80234470D02*
X110034274Y-80270350D01*
X110225362Y-80349502D01*
X110397336Y-80464411D01*
X110543589Y-80610664D01*
X110658498Y-80782638D01*
X110737650Y-80973726D01*
X110778000Y-81176584D01*
X110778000Y-81383416D01*
X110737650Y-81586274D01*
X110658498Y-81777362D01*
X110543589Y-81949336D01*
X110397336Y-82095589D01*
X110225362Y-82210498D01*
X110034274Y-82289650D01*
X109858373Y-82324638D01*
X109831417Y-82330000D01*
X109624583Y-82330000D01*
X109597627Y-82324638D01*
X109421726Y-82289650D01*
X109230638Y-82210498D01*
X109058664Y-82095589D01*
X108912411Y-81949336D01*
X108797502Y-81777362D01*
X108718350Y-81586274D01*
X108678000Y-81383416D01*
X108678000Y-81176584D01*
X108718350Y-80973726D01*
X108797502Y-80782638D01*
X108912411Y-80610664D01*
X109058664Y-80464411D01*
X109230638Y-80349502D01*
X109421726Y-80270350D01*
X109602112Y-80234470D01*
X109624583Y-80230000D01*
X109831417Y-80230000D01*
X109853888Y-80234470D01*
X109853888Y-80234470D01*
G37*
M02*
