M48
;DRILL file {KiCad 5.0.2-bee76a0~70~ubuntu16.04.1} date jue 09 ene 2020 22:15:39 CST
;FORMAT={-:-/ absolute / metric / decimal}
FMAT,2
METRIC,TZ
T1C0.400
T2C0.762
T3C0.800
T4C0.900
T5C1.000
%
G90
G05
T1
X90.17Y-106.426
X96.012Y-106.172
X102.362Y-86.106
X105.156Y-79.248
X105.973Y-122.428
X109.982Y-106.426
X111.506Y-107.95
X112.268Y-105.156
X116.586Y-119.38
X128.524Y-107.188
X133.096Y-98.044
T2
X137.224Y-121.793
X142.24Y-121.793
X99.822Y-87.884
X102.362Y-82.804
X104.902Y-87.884
X111.125Y-123.571
X113.157Y-123.571
X115.189Y-123.571
T3
X128.27Y-82.59
X128.27Y-85.09
X93.218Y-86.908
X93.218Y-89.408
X95.504Y-110.998
X95.504Y-118.618
X139.7Y-114.808
X147.32Y-114.808
X94.869Y-93.194
X94.869Y-95.694
X99.314Y-110.998
X99.314Y-113.538
X99.314Y-116.078
X99.314Y-118.618
X106.934Y-110.998
X106.934Y-113.538
X106.934Y-116.078
X106.934Y-118.618
X109.728Y-87.63
X109.728Y-95.25
X139.7Y-111.506
X147.32Y-111.506
X139.7Y-106.934
X147.32Y-106.934
X98.552Y-93.218
X98.552Y-95.758
X98.552Y-98.298
X98.552Y-100.838
X106.172Y-93.218
X106.172Y-95.758
X106.172Y-98.298
X106.172Y-100.838
X129.032Y-89.408
X129.032Y-91.948
X129.032Y-94.488
X129.032Y-97.028
X129.032Y-99.568
X129.032Y-102.108
X129.032Y-104.648
X136.652Y-89.408
X136.652Y-91.948
X136.652Y-94.488
X136.652Y-97.028
X136.652Y-99.568
X136.652Y-102.108
X136.652Y-104.648
X98.552Y-104.648
X106.172Y-104.648
X120.904Y-112.141
X120.904Y-114.681
X120.904Y-117.221
X120.904Y-119.761
X128.524Y-112.141
X128.524Y-114.681
X128.524Y-117.221
X128.524Y-119.761
X110.236Y-116.626
X110.236Y-119.126
X115.57Y-89.408
X115.57Y-91.948
X115.57Y-94.488
X115.57Y-97.028
X115.57Y-99.568
X115.57Y-102.108
X115.57Y-104.648
X123.19Y-89.408
X123.19Y-91.948
X123.19Y-94.488
X123.19Y-97.028
X123.19Y-99.568
X123.19Y-102.108
X123.19Y-104.648
X131.953Y-111.8
X131.953Y-114.3
X109.728Y-81.28
X109.728Y-83.78
X124.46Y-82.59
X124.46Y-85.09
X91.694Y-110.998
X91.694Y-118.618
T4
X143.51Y-99.314
X143.51Y-101.854
T5
X117.602Y-82.55
X120.142Y-82.55
X143.51Y-88.646
X143.51Y-91.186
X143.51Y-93.726
T0
M30
