G04 #@! TF.GenerationSoftware,KiCad,Pcbnew,5.0.2-bee76a0~70~ubuntu16.04.1*
G04 #@! TF.CreationDate,2020-01-09T22:15:49-06:00*
G04 #@! TF.ProjectId,8-Bit-Computer-Clock-Module,382d4269-742d-4436-9f6d-70757465722d,rev?*
G04 #@! TF.SameCoordinates,Original*
G04 #@! TF.FileFunction,Copper,L1,Top*
G04 #@! TF.FilePolarity,Positive*
%FSLAX46Y46*%
G04 Gerber Fmt 4.6, Leading zero omitted, Abs format (unit mm)*
G04 Created by KiCad (PCBNEW 5.0.2-bee76a0~70~ubuntu16.04.1) date jue 09 ene 2020 22:15:49 CST*
%MOMM*%
%LPD*%
G01*
G04 APERTURE LIST*
G04 #@! TA.AperFunction,ComponentPad*
%ADD10C,1.600000*%
G04 #@! TD*
G04 #@! TA.AperFunction,ComponentPad*
%ADD11C,1.800000*%
G04 #@! TD*
G04 #@! TA.AperFunction,ComponentPad*
%ADD12R,1.800000X1.800000*%
G04 #@! TD*
G04 #@! TA.AperFunction,ComponentPad*
%ADD13O,1.700000X1.700000*%
G04 #@! TD*
G04 #@! TA.AperFunction,ComponentPad*
%ADD14R,1.700000X1.700000*%
G04 #@! TD*
G04 #@! TA.AperFunction,ComponentPad*
%ADD15O,1.600000X1.600000*%
G04 #@! TD*
G04 #@! TA.AperFunction,ComponentPad*
%ADD16C,1.524000*%
G04 #@! TD*
G04 #@! TA.AperFunction,ComponentPad*
%ADD17R,1.524000X1.524000*%
G04 #@! TD*
G04 #@! TA.AperFunction,ComponentPad*
%ADD18R,1.600000X1.600000*%
G04 #@! TD*
G04 #@! TA.AperFunction,ViaPad*
%ADD19C,0.800000*%
G04 #@! TD*
G04 #@! TA.AperFunction,Conductor*
%ADD20C,0.250000*%
G04 #@! TD*
G04 #@! TA.AperFunction,Conductor*
%ADD21C,0.762000*%
G04 #@! TD*
G04 #@! TA.AperFunction,Conductor*
%ADD22C,0.254000*%
G04 #@! TD*
G04 APERTURE END LIST*
D10*
G04 #@! TO.P,C2,1*
G04 #@! TO.N,VCC*
X128270000Y-85090000D03*
G04 #@! TO.P,C2,2*
G04 #@! TO.N,GND*
X128270000Y-82590000D03*
G04 #@! TD*
G04 #@! TO.P,C3,2*
G04 #@! TO.N,GND*
X110236000Y-116626000D03*
G04 #@! TO.P,C3,1*
G04 #@! TO.N,Net-(C3-Pad1)*
X110236000Y-119126000D03*
G04 #@! TD*
G04 #@! TO.P,C5,2*
G04 #@! TO.N,GND*
X94869000Y-93194500D03*
G04 #@! TO.P,C5,1*
G04 #@! TO.N,Net-(C5-Pad1)*
X94869000Y-95694500D03*
G04 #@! TD*
G04 #@! TO.P,C6,2*
G04 #@! TO.N,GND*
X109728000Y-83780000D03*
G04 #@! TO.P,C6,1*
G04 #@! TO.N,Net-(C6-Pad1)*
X109728000Y-81280000D03*
G04 #@! TD*
G04 #@! TO.P,C7,1*
G04 #@! TO.N,Net-(C7-Pad1)*
X131953000Y-114300000D03*
G04 #@! TO.P,C7,2*
G04 #@! TO.N,GND*
X131953000Y-111800000D03*
G04 #@! TD*
D11*
G04 #@! TO.P,D1,2*
G04 #@! TO.N,/OUT*
X143510000Y-99314000D03*
D12*
G04 #@! TO.P,D1,1*
G04 #@! TO.N,Net-(D1-Pad1)*
X143510000Y-101854000D03*
G04 #@! TD*
D13*
G04 #@! TO.P,J1,2*
G04 #@! TO.N,GND*
X120142000Y-82550000D03*
D14*
G04 #@! TO.P,J1,1*
G04 #@! TO.N,VCC*
X117602000Y-82550000D03*
G04 #@! TD*
D13*
G04 #@! TO.P,J2,3*
G04 #@! TO.N,/~OUT*
X143510000Y-93726000D03*
G04 #@! TO.P,J2,2*
G04 #@! TO.N,/OUT*
X143510000Y-91186000D03*
D14*
G04 #@! TO.P,J2,1*
G04 #@! TO.N,/HLT*
X143510000Y-88646000D03*
G04 #@! TD*
D10*
G04 #@! TO.P,R1,1*
G04 #@! TO.N,VCC*
X95504000Y-118618000D03*
D15*
G04 #@! TO.P,R1,2*
G04 #@! TO.N,Net-(R1-Pad2)*
X95504000Y-110998000D03*
G04 #@! TD*
D10*
G04 #@! TO.P,R2,1*
G04 #@! TO.N,Net-(R2-Pad1)*
X147320000Y-111506000D03*
D15*
G04 #@! TO.P,R2,2*
G04 #@! TO.N,Net-(R1-Pad2)*
X139700000Y-111506000D03*
G04 #@! TD*
G04 #@! TO.P,R3,2*
G04 #@! TO.N,VCC*
X91694000Y-118618000D03*
D10*
G04 #@! TO.P,R3,1*
G04 #@! TO.N,Net-(R3-Pad1)*
X91694000Y-110998000D03*
G04 #@! TD*
D15*
G04 #@! TO.P,R4,2*
G04 #@! TO.N,Net-(R4-Pad2)*
X139700000Y-114808000D03*
D10*
G04 #@! TO.P,R4,1*
G04 #@! TO.N,VCC*
X147320000Y-114808000D03*
G04 #@! TD*
D15*
G04 #@! TO.P,R5,2*
G04 #@! TO.N,GND*
X106172000Y-104648000D03*
D10*
G04 #@! TO.P,R5,1*
G04 #@! TO.N,Net-(D1-Pad1)*
X98552000Y-104648000D03*
G04 #@! TD*
G04 #@! TO.P,R6,1*
G04 #@! TO.N,VCC*
X109728000Y-87630000D03*
D15*
G04 #@! TO.P,R6,2*
G04 #@! TO.N,Net-(R6-Pad2)*
X109728000Y-95250000D03*
G04 #@! TD*
G04 #@! TO.P,R7,2*
G04 #@! TO.N,Net-(C7-Pad1)*
X147320000Y-106934000D03*
D10*
G04 #@! TO.P,R7,1*
G04 #@! TO.N,VCC*
X139700000Y-106934000D03*
G04 #@! TD*
D16*
G04 #@! TO.P,RV1,1*
G04 #@! TO.N,Net-(C4-Pad1)*
X99822000Y-87884000D03*
G04 #@! TO.P,RV1,2*
G04 #@! TO.N,Net-(R2-Pad1)*
X102362000Y-82804000D03*
G04 #@! TO.P,RV1,3*
G04 #@! TO.N,Net-(RV1-Pad3)*
X104902000Y-87884000D03*
G04 #@! TD*
D17*
G04 #@! TO.P,SW1,1*
G04 #@! TO.N,Net-(R3-Pad1)*
X111125000Y-123571000D03*
D16*
G04 #@! TO.P,SW1,2*
G04 #@! TO.N,GND*
X113157000Y-123571000D03*
G04 #@! TO.P,SW1,3*
G04 #@! TO.N,Net-(R4-Pad2)*
X115189000Y-123571000D03*
G04 #@! TD*
D15*
G04 #@! TO.P,U3,8*
G04 #@! TO.N,VCC*
X128524000Y-112141000D03*
G04 #@! TO.P,U3,4*
X120904000Y-119761000D03*
G04 #@! TO.P,U3,7*
G04 #@! TO.N,Net-(R1-Pad2)*
X128524000Y-114681000D03*
G04 #@! TO.P,U3,3*
G04 #@! TO.N,Net-(U1-Pad1)*
X120904000Y-117221000D03*
G04 #@! TO.P,U3,6*
G04 #@! TO.N,Net-(C4-Pad1)*
X128524000Y-117221000D03*
G04 #@! TO.P,U3,2*
X120904000Y-114681000D03*
G04 #@! TO.P,U3,5*
G04 #@! TO.N,Net-(C3-Pad1)*
X128524000Y-119761000D03*
D18*
G04 #@! TO.P,U3,1*
G04 #@! TO.N,GND*
X120904000Y-112141000D03*
G04 #@! TD*
D16*
G04 #@! TO.P,SW2,1*
G04 #@! TO.N,GND*
X142240000Y-121793000D03*
G04 #@! TO.P,SW2,2*
G04 #@! TO.N,Net-(R6-Pad2)*
X137223500Y-121793000D03*
G04 #@! TD*
D10*
G04 #@! TO.P,C1,2*
G04 #@! TO.N,GND*
X124460000Y-82590000D03*
G04 #@! TO.P,C1,1*
G04 #@! TO.N,VCC*
X124460000Y-85090000D03*
G04 #@! TD*
G04 #@! TO.P,C4,2*
G04 #@! TO.N,GND*
X93218000Y-86908000D03*
D18*
G04 #@! TO.P,C4,1*
G04 #@! TO.N,Net-(C4-Pad1)*
X93218000Y-89408000D03*
G04 #@! TD*
D15*
G04 #@! TO.P,U1,14*
G04 #@! TO.N,VCC*
X136652000Y-89408000D03*
G04 #@! TO.P,U1,7*
G04 #@! TO.N,GND*
X129032000Y-104648000D03*
G04 #@! TO.P,U1,13*
G04 #@! TO.N,/OUT*
X136652000Y-91948000D03*
G04 #@! TO.P,U1,6*
G04 #@! TO.N,Net-(U1-Pad6)*
X129032000Y-102108000D03*
G04 #@! TO.P,U1,12*
G04 #@! TO.N,/OUT*
X136652000Y-94488000D03*
G04 #@! TO.P,U1,5*
G04 #@! TO.N,Net-(U1-Pad2)*
X129032000Y-99568000D03*
G04 #@! TO.P,U1,11*
G04 #@! TO.N,/~OUT*
X136652000Y-97028000D03*
G04 #@! TO.P,U1,4*
G04 #@! TO.N,Net-(U1-Pad2)*
X129032000Y-97028000D03*
G04 #@! TO.P,U1,10*
G04 #@! TO.N,Net-(U1-Pad10)*
X136652000Y-99568000D03*
G04 #@! TO.P,U1,3*
G04 #@! TO.N,Net-(U1-Pad3)*
X129032000Y-94488000D03*
G04 #@! TO.P,U1,9*
G04 #@! TO.N,Net-(U1-Pad10)*
X136652000Y-102108000D03*
G04 #@! TO.P,U1,2*
G04 #@! TO.N,Net-(U1-Pad2)*
X129032000Y-91948000D03*
G04 #@! TO.P,U1,8*
G04 #@! TO.N,/OUT*
X136652000Y-104648000D03*
D18*
G04 #@! TO.P,U1,1*
G04 #@! TO.N,Net-(U1-Pad1)*
X129032000Y-89408000D03*
G04 #@! TD*
G04 #@! TO.P,U2,1*
G04 #@! TO.N,Net-(U1-Pad6)*
X115570000Y-89408000D03*
D15*
G04 #@! TO.P,U2,8*
G04 #@! TO.N,Net-(U2-Pad13)*
X123190000Y-104648000D03*
G04 #@! TO.P,U2,2*
G04 #@! TO.N,Net-(U2-Pad2)*
X115570000Y-91948000D03*
G04 #@! TO.P,U2,9*
G04 #@! TO.N,/HLT*
X123190000Y-102108000D03*
G04 #@! TO.P,U2,3*
G04 #@! TO.N,Net-(U2-Pad3)*
X115570000Y-94488000D03*
G04 #@! TO.P,U2,10*
G04 #@! TO.N,/HLT*
X123190000Y-99568000D03*
G04 #@! TO.P,U2,4*
G04 #@! TO.N,Net-(U1-Pad3)*
X115570000Y-97028000D03*
G04 #@! TO.P,U2,11*
G04 #@! TO.N,Net-(U1-Pad10)*
X123190000Y-97028000D03*
G04 #@! TO.P,U2,5*
G04 #@! TO.N,Net-(U2-Pad3)*
X115570000Y-99568000D03*
G04 #@! TO.P,U2,12*
G04 #@! TO.N,Net-(U2-Pad12)*
X123190000Y-94488000D03*
G04 #@! TO.P,U2,6*
X115570000Y-102108000D03*
G04 #@! TO.P,U2,13*
G04 #@! TO.N,Net-(U2-Pad13)*
X123190000Y-91948000D03*
G04 #@! TO.P,U2,7*
G04 #@! TO.N,GND*
X115570000Y-104648000D03*
G04 #@! TO.P,U2,14*
G04 #@! TO.N,VCC*
X123190000Y-89408000D03*
G04 #@! TD*
D18*
G04 #@! TO.P,U4,1*
G04 #@! TO.N,GND*
X98552000Y-93218000D03*
D15*
G04 #@! TO.P,U4,5*
G04 #@! TO.N,Net-(C5-Pad1)*
X106172000Y-100838000D03*
G04 #@! TO.P,U4,2*
G04 #@! TO.N,Net-(R3-Pad1)*
X98552000Y-95758000D03*
G04 #@! TO.P,U4,6*
G04 #@! TO.N,GND*
X106172000Y-98298000D03*
G04 #@! TO.P,U4,3*
G04 #@! TO.N,Net-(U1-Pad2)*
X98552000Y-98298000D03*
G04 #@! TO.P,U4,7*
G04 #@! TO.N,Net-(U4-Pad7)*
X106172000Y-95758000D03*
G04 #@! TO.P,U4,4*
G04 #@! TO.N,Net-(R4-Pad2)*
X98552000Y-100838000D03*
G04 #@! TO.P,U4,8*
G04 #@! TO.N,VCC*
X106172000Y-93218000D03*
G04 #@! TD*
G04 #@! TO.P,U5,8*
G04 #@! TO.N,VCC*
X106934000Y-110998000D03*
G04 #@! TO.P,U5,4*
X99314000Y-118618000D03*
G04 #@! TO.P,U5,7*
G04 #@! TO.N,Net-(C7-Pad1)*
X106934000Y-113538000D03*
G04 #@! TO.P,U5,3*
G04 #@! TO.N,Net-(U2-Pad2)*
X99314000Y-116078000D03*
G04 #@! TO.P,U5,6*
G04 #@! TO.N,Net-(C7-Pad1)*
X106934000Y-116078000D03*
G04 #@! TO.P,U5,2*
G04 #@! TO.N,Net-(R6-Pad2)*
X99314000Y-113538000D03*
G04 #@! TO.P,U5,5*
G04 #@! TO.N,Net-(C6-Pad1)*
X106934000Y-118618000D03*
D18*
G04 #@! TO.P,U5,1*
G04 #@! TO.N,GND*
X99314000Y-110998000D03*
G04 #@! TD*
D19*
G04 #@! TO.N,Net-(D1-Pad1)*
X109982000Y-106426000D03*
X128524000Y-107188000D03*
G04 #@! TO.N,/HLT*
X133096000Y-98044000D03*
G04 #@! TO.N,Net-(C6-Pad1)*
X90170000Y-106426000D03*
G04 #@! TO.N,Net-(R1-Pad2)*
X116586000Y-119380000D03*
G04 #@! TO.N,Net-(R2-Pad1)*
X105156000Y-79248000D03*
G04 #@! TO.N,Net-(R4-Pad2)*
X111506000Y-107950000D03*
X96012000Y-106172000D03*
G04 #@! TO.N,Net-(R6-Pad2)*
X105972880Y-122428000D03*
G04 #@! TO.N,Net-(U1-Pad2)*
X102362000Y-86106000D03*
G04 #@! TO.N,Net-(U1-Pad6)*
X112268000Y-105156000D03*
G04 #@! TD*
D20*
G04 #@! TO.N,Net-(C3-Pad1)*
X110236000Y-120257370D02*
X111390630Y-121412000D01*
X110236000Y-119126000D02*
X110236000Y-120257370D01*
X126873000Y-121412000D02*
X128524000Y-119761000D01*
X111390630Y-121412000D02*
X126873000Y-121412000D01*
G04 #@! TO.N,Net-(C4-Pad1)*
X94742000Y-87884000D02*
X93218000Y-89408000D01*
X99822000Y-87884000D02*
X94742000Y-87884000D01*
X123444000Y-117221000D02*
X120904000Y-114681000D01*
X128524000Y-117221000D02*
X123444000Y-117221000D01*
X119380000Y-110744000D02*
X119380000Y-113157000D01*
X93218000Y-89408000D02*
X93218000Y-106426000D01*
X93218000Y-106426000D02*
X96012000Y-109220000D01*
X96012000Y-109220000D02*
X117856000Y-109220000D01*
X119380000Y-113157000D02*
X120904000Y-114681000D01*
X117856000Y-109220000D02*
X119380000Y-110744000D01*
G04 #@! TO.N,Net-(C5-Pad1)*
X94869000Y-95694500D02*
X94869000Y-101473000D01*
X94869000Y-101473000D02*
X96012000Y-102616000D01*
X104394000Y-102616000D02*
X106172000Y-100838000D01*
X96012000Y-102616000D02*
X104394000Y-102616000D01*
D21*
G04 #@! TO.N,VCC*
X117602000Y-84162000D02*
X117602000Y-82550000D01*
X117602000Y-84951370D02*
X117602000Y-84162000D01*
X122058630Y-89408000D02*
X117602000Y-84951370D01*
X123190000Y-89408000D02*
X122058630Y-89408000D01*
X123190000Y-86360000D02*
X124460000Y-85090000D01*
X123190000Y-89408000D02*
X123190000Y-86360000D01*
X106172000Y-91186000D02*
X109728000Y-87630000D01*
X106172000Y-93218000D02*
X106172000Y-91186000D01*
X136652000Y-89408000D02*
X136652000Y-86360000D01*
X136652000Y-86360000D02*
X135382000Y-85090000D01*
X135382000Y-85090000D02*
X128270000Y-85090000D01*
X124460000Y-85090000D02*
X128270000Y-85090000D01*
X91694000Y-118618000D02*
X95504000Y-118618000D01*
X95504000Y-118618000D02*
X99314000Y-118618000D01*
X114808000Y-82550000D02*
X117602000Y-82550000D01*
X109728000Y-87630000D02*
X114808000Y-82550000D01*
X106934000Y-110998000D02*
X117602000Y-110998000D01*
X117602000Y-110998000D02*
X118618000Y-112014000D01*
X118618000Y-117475000D02*
X120904000Y-119761000D01*
X118618000Y-112014000D02*
X118618000Y-117475000D01*
D20*
G04 #@! TO.N,/OUT*
X136652000Y-94488000D02*
X136652000Y-91948000D01*
X145288000Y-91761919D02*
X145288000Y-97536000D01*
X144712081Y-91186000D02*
X145288000Y-91761919D01*
X145288000Y-97536000D02*
X143510000Y-99314000D01*
X143510000Y-91186000D02*
X144712081Y-91186000D01*
X136652000Y-91948000D02*
X138430000Y-91948000D01*
X139192000Y-91186000D02*
X143510000Y-91186000D01*
X138430000Y-91948000D02*
X139192000Y-91186000D01*
X142237208Y-99314000D02*
X143510000Y-99314000D01*
X136652000Y-104648000D02*
X138430000Y-104648000D01*
X141478000Y-100073208D02*
X142237208Y-99314000D01*
X138430000Y-104648000D02*
X141478000Y-101600000D01*
X141478000Y-101600000D02*
X141478000Y-100073208D01*
G04 #@! TO.N,Net-(D1-Pad1)*
X143510000Y-101854000D02*
X143510000Y-103004000D01*
X98552000Y-104648000D02*
X99351999Y-105447999D01*
X99351999Y-105447999D02*
X100330000Y-106426000D01*
X100330000Y-106426000D02*
X109982000Y-106426000D01*
X142360000Y-101854000D02*
X143510000Y-101854000D01*
X137026000Y-107188000D02*
X142360000Y-101854000D01*
X128524000Y-107188000D02*
X137026000Y-107188000D01*
G04 #@! TO.N,/~OUT*
X141986000Y-97028000D02*
X143510000Y-95504000D01*
X143510000Y-95504000D02*
X143510000Y-93726000D01*
X136652000Y-97028000D02*
X141986000Y-97028000D01*
G04 #@! TO.N,/HLT*
X123190000Y-102108000D02*
X123190000Y-99568000D01*
X131826000Y-100838000D02*
X133096000Y-99568000D01*
X133096000Y-99568000D02*
X133096000Y-98044000D01*
X124460000Y-100838000D02*
X131826000Y-100838000D01*
X123989999Y-100367999D02*
X124460000Y-100838000D01*
X123190000Y-99568000D02*
X123989999Y-100367999D01*
G04 #@! TO.N,Net-(U2-Pad3)*
X117094000Y-96012000D02*
X115570000Y-94488000D01*
X117094000Y-98044000D02*
X117094000Y-96012000D01*
X115570000Y-99568000D02*
X117094000Y-98044000D01*
G04 #@! TO.N,Net-(C6-Pad1)*
X108596630Y-81280000D02*
X108342630Y-81026000D01*
X109728000Y-81280000D02*
X108596630Y-81280000D01*
X108342630Y-81026000D02*
X93980000Y-81026000D01*
X93980000Y-81026000D02*
X90170000Y-84836000D01*
X90170000Y-84836000D02*
X90170000Y-96012000D01*
X90170000Y-96012000D02*
X90170000Y-106426000D01*
X90170000Y-106426000D02*
X90170000Y-106426000D01*
G04 #@! TO.N,Net-(C7-Pad1)*
X106934000Y-116078000D02*
X106934000Y-113538000D01*
X145288000Y-108966000D02*
X147320000Y-106934000D01*
X131953000Y-114300000D02*
X135128000Y-114300000D01*
X138938000Y-108966000D02*
X145288000Y-108966000D01*
X135128000Y-114300000D02*
X138176000Y-111252000D01*
X138176000Y-111252000D02*
X138176000Y-109728000D01*
X138176000Y-109728000D02*
X138938000Y-108966000D01*
G04 #@! TO.N,Net-(R1-Pad2)*
X129667000Y-115824000D02*
X128524000Y-114681000D01*
X135382000Y-115824000D02*
X129667000Y-115824000D01*
X139700000Y-111506000D02*
X135382000Y-115824000D01*
X96679001Y-112173001D02*
X95504000Y-110998000D01*
X109379001Y-112173001D02*
X96679001Y-112173001D01*
X116586000Y-119380000D02*
X109379001Y-112173001D01*
G04 #@! TO.N,Net-(R2-Pad1)*
X147320000Y-111506000D02*
X148119999Y-110706001D01*
X148119999Y-110706001D02*
X148590000Y-110236000D01*
X148590000Y-110236000D02*
X148590000Y-109220000D01*
X148590000Y-109220000D02*
X148590000Y-106426000D01*
X148590000Y-106426000D02*
X148590000Y-101854000D01*
X148590000Y-101854000D02*
X148590000Y-81534000D01*
X148590000Y-81534000D02*
X146304000Y-79248000D01*
X146304000Y-79248000D02*
X105156000Y-79248000D01*
X105156000Y-79248000D02*
X105156000Y-79248000D01*
G04 #@! TO.N,Net-(R3-Pad1)*
X111125000Y-123571000D02*
X93345000Y-123571000D01*
X93345000Y-123571000D02*
X89916000Y-120142000D01*
X89916000Y-112776000D02*
X91694000Y-110998000D01*
X89916000Y-120142000D02*
X89916000Y-112776000D01*
G04 #@! TO.N,Net-(R4-Pad2)*
X139700000Y-121920000D02*
X139700000Y-114808000D01*
X138049000Y-123571000D02*
X139700000Y-121920000D01*
X115189000Y-123571000D02*
X138049000Y-123571000D01*
X111506000Y-107950000D02*
X97790000Y-107950000D01*
X97790000Y-107950000D02*
X96012000Y-106172000D01*
G04 #@! TO.N,Net-(R6-Pad2)*
X97536000Y-115316000D02*
X99314000Y-113538000D01*
X97536000Y-116586000D02*
X97536000Y-115316000D01*
X98203001Y-117253001D02*
X97536000Y-116586000D01*
X105972880Y-122428000D02*
X105572881Y-122028001D01*
X105572881Y-122028001D02*
X105518001Y-122028001D01*
X100743001Y-117253001D02*
X98203001Y-117253001D01*
X105518001Y-122028001D02*
X100743001Y-117253001D01*
G04 #@! TO.N,Net-(U1-Pad2)*
X129032000Y-98436630D02*
X129032000Y-97028000D01*
X129032000Y-99568000D02*
X129032000Y-98436630D01*
X130810000Y-93726000D02*
X129032000Y-91948000D01*
X130810000Y-96520000D02*
X130810000Y-93726000D01*
X130302000Y-97028000D02*
X130810000Y-96520000D01*
X129032000Y-97028000D02*
X130302000Y-97028000D01*
X98552000Y-98298000D02*
X102362000Y-94488000D01*
X102362000Y-94488000D02*
X102362000Y-86106000D01*
G04 #@! TO.N,Net-(U1-Pad6)*
X112268000Y-91660000D02*
X114520000Y-89408000D01*
X114520000Y-89408000D02*
X115570000Y-89408000D01*
X112268000Y-105156000D02*
X112268000Y-91660000D01*
G04 #@! TO.N,Net-(U2-Pad13)*
X123190000Y-104648000D02*
X121666000Y-103124000D01*
X121666000Y-93472000D02*
X123190000Y-91948000D01*
X121666000Y-103124000D02*
X121666000Y-93472000D01*
G04 #@! TO.N,Net-(U1-Pad10)*
X136652000Y-102108000D02*
X136652000Y-99568000D01*
X123190000Y-97028000D02*
X124714000Y-95504000D01*
X124714000Y-95504000D02*
X124714000Y-88646000D01*
X124714000Y-88646000D02*
X125984000Y-87376000D01*
X125984000Y-87376000D02*
X133858000Y-87376000D01*
X133858000Y-87376000D02*
X135382000Y-88900000D01*
X135382000Y-88900000D02*
X135382000Y-98298000D01*
X135382000Y-98298000D02*
X136652000Y-99568000D01*
G04 #@! TD*
D22*
G04 #@! TO.N,GND*
G36*
X148780179Y-78206477D02*
X148833737Y-78242263D01*
X148869523Y-78295821D01*
X148896000Y-78428931D01*
X148896000Y-80765198D01*
X146894331Y-78763530D01*
X146851929Y-78700071D01*
X146600537Y-78532096D01*
X146378852Y-78488000D01*
X146378847Y-78488000D01*
X146304000Y-78473112D01*
X146229153Y-78488000D01*
X105859711Y-78488000D01*
X105742280Y-78370569D01*
X105361874Y-78213000D01*
X104950126Y-78213000D01*
X104569720Y-78370569D01*
X104278569Y-78661720D01*
X104121000Y-79042126D01*
X104121000Y-79453874D01*
X104278569Y-79834280D01*
X104569720Y-80125431D01*
X104909084Y-80266000D01*
X94054848Y-80266000D01*
X93980000Y-80251112D01*
X93905152Y-80266000D01*
X93905148Y-80266000D01*
X93731605Y-80300520D01*
X93683462Y-80310096D01*
X93496418Y-80435076D01*
X93432071Y-80478071D01*
X93389671Y-80541527D01*
X89685530Y-84245669D01*
X89622071Y-84288071D01*
X89454096Y-84539464D01*
X89410000Y-84761149D01*
X89410000Y-84761153D01*
X89395112Y-84836000D01*
X89410000Y-84910847D01*
X89410001Y-95937144D01*
X89410000Y-95937149D01*
X89410001Y-105722288D01*
X89292569Y-105839720D01*
X89135000Y-106220126D01*
X89135000Y-106631874D01*
X89292569Y-107012280D01*
X89583720Y-107303431D01*
X89964126Y-107461000D01*
X90375874Y-107461000D01*
X90756280Y-107303431D01*
X91047431Y-107012280D01*
X91205000Y-106631874D01*
X91205000Y-106220126D01*
X91047431Y-105839720D01*
X90930000Y-105722289D01*
X90930000Y-86691223D01*
X91771035Y-86691223D01*
X91798222Y-87261454D01*
X91964136Y-87662005D01*
X92210255Y-87736139D01*
X93038395Y-86908000D01*
X92210255Y-86079861D01*
X91964136Y-86153995D01*
X91771035Y-86691223D01*
X90930000Y-86691223D01*
X90930000Y-85900255D01*
X92389861Y-85900255D01*
X93218000Y-86728395D01*
X94046139Y-85900255D01*
X93972005Y-85654136D01*
X93434777Y-85461035D01*
X92864546Y-85488222D01*
X92463995Y-85654136D01*
X92389861Y-85900255D01*
X90930000Y-85900255D01*
X90930000Y-85150801D01*
X91293056Y-84787745D01*
X108899861Y-84787745D01*
X108973995Y-85033864D01*
X109511223Y-85226965D01*
X110081454Y-85199778D01*
X110482005Y-85033864D01*
X110556139Y-84787745D01*
X109728000Y-83959605D01*
X108899861Y-84787745D01*
X91293056Y-84787745D01*
X94294802Y-81786000D01*
X101404343Y-81786000D01*
X101177680Y-82012663D01*
X100965000Y-82526119D01*
X100965000Y-83081881D01*
X101177680Y-83595337D01*
X101570663Y-83988320D01*
X102084119Y-84201000D01*
X102639881Y-84201000D01*
X103153337Y-83988320D01*
X103546320Y-83595337D01*
X103559622Y-83563223D01*
X108281035Y-83563223D01*
X108308222Y-84133454D01*
X108474136Y-84534005D01*
X108720255Y-84608139D01*
X109548395Y-83780000D01*
X109907605Y-83780000D01*
X110735745Y-84608139D01*
X110981864Y-84534005D01*
X111174965Y-83996777D01*
X111147778Y-83426546D01*
X110981864Y-83025995D01*
X110735745Y-82951861D01*
X109907605Y-83780000D01*
X109548395Y-83780000D01*
X108720255Y-82951861D01*
X108474136Y-83025995D01*
X108281035Y-83563223D01*
X103559622Y-83563223D01*
X103759000Y-83081881D01*
X103759000Y-82526119D01*
X103546320Y-82012663D01*
X103319657Y-81786000D01*
X108020685Y-81786000D01*
X108048701Y-81827929D01*
X108300093Y-81995904D01*
X108486678Y-82033018D01*
X108511466Y-82092862D01*
X108915138Y-82496534D01*
X108980299Y-82523525D01*
X108973995Y-82526136D01*
X108899861Y-82772255D01*
X109728000Y-83600395D01*
X110556139Y-82772255D01*
X110482005Y-82526136D01*
X110475254Y-82523710D01*
X110540862Y-82496534D01*
X110944534Y-82092862D01*
X111163000Y-81565439D01*
X111163000Y-80994561D01*
X110944534Y-80467138D01*
X110540862Y-80063466D01*
X110406955Y-80008000D01*
X145989199Y-80008000D01*
X147830001Y-81848803D01*
X147830000Y-101928851D01*
X147830001Y-101928856D01*
X147830000Y-105572333D01*
X147461333Y-105499000D01*
X147178667Y-105499000D01*
X146760091Y-105582260D01*
X146285423Y-105899423D01*
X145968260Y-106374091D01*
X145856887Y-106934000D01*
X145921312Y-107257886D01*
X144973199Y-108206000D01*
X140378955Y-108206000D01*
X140512862Y-108150534D01*
X140916534Y-107746862D01*
X141135000Y-107219439D01*
X141135000Y-106648561D01*
X140916534Y-106121138D01*
X140512862Y-105717466D01*
X139985439Y-105499000D01*
X139789801Y-105499000D01*
X142122071Y-103166731D01*
X142152191Y-103211809D01*
X142362235Y-103352157D01*
X142610000Y-103401440D01*
X142861518Y-103401440D01*
X142962072Y-103551929D01*
X143213464Y-103719904D01*
X143510000Y-103778889D01*
X143806537Y-103719904D01*
X144057929Y-103551929D01*
X144158483Y-103401440D01*
X144410000Y-103401440D01*
X144657765Y-103352157D01*
X144867809Y-103211809D01*
X145008157Y-103001765D01*
X145057440Y-102754000D01*
X145057440Y-100954000D01*
X145008157Y-100706235D01*
X144867809Y-100496191D01*
X144657765Y-100355843D01*
X144642092Y-100352725D01*
X144811310Y-100183507D01*
X145045000Y-99619330D01*
X145045000Y-99008670D01*
X144999640Y-98899161D01*
X145772473Y-98126329D01*
X145835929Y-98083929D01*
X145891031Y-98001463D01*
X146003904Y-97832538D01*
X146014553Y-97779000D01*
X146048000Y-97610852D01*
X146048000Y-97610848D01*
X146062888Y-97536000D01*
X146048000Y-97461152D01*
X146048000Y-91836765D01*
X146062888Y-91761918D01*
X146048000Y-91687071D01*
X146048000Y-91687067D01*
X146003904Y-91465382D01*
X145931934Y-91357671D01*
X145878329Y-91277445D01*
X145878327Y-91277443D01*
X145835929Y-91213990D01*
X145772476Y-91171592D01*
X145302411Y-90701529D01*
X145260010Y-90638071D01*
X145008618Y-90470096D01*
X144788369Y-90426286D01*
X144580625Y-90115375D01*
X144562381Y-90103184D01*
X144607765Y-90094157D01*
X144817809Y-89953809D01*
X144958157Y-89743765D01*
X145007440Y-89496000D01*
X145007440Y-87796000D01*
X144958157Y-87548235D01*
X144817809Y-87338191D01*
X144607765Y-87197843D01*
X144360000Y-87148560D01*
X142660000Y-87148560D01*
X142412235Y-87197843D01*
X142202191Y-87338191D01*
X142061843Y-87548235D01*
X142012560Y-87796000D01*
X142012560Y-89496000D01*
X142061843Y-89743765D01*
X142202191Y-89953809D01*
X142412235Y-90094157D01*
X142457619Y-90103184D01*
X142439375Y-90115375D01*
X142231822Y-90426000D01*
X139266848Y-90426000D01*
X139192000Y-90411112D01*
X139117152Y-90426000D01*
X139117148Y-90426000D01*
X138967510Y-90455765D01*
X138895462Y-90470096D01*
X138793333Y-90538337D01*
X138644071Y-90638071D01*
X138601671Y-90701527D01*
X138115199Y-91188000D01*
X137870043Y-91188000D01*
X137686577Y-90913423D01*
X137334242Y-90678000D01*
X137686577Y-90442577D01*
X138003740Y-89967909D01*
X138115113Y-89408000D01*
X138003740Y-88848091D01*
X137686577Y-88373423D01*
X137668000Y-88361010D01*
X137668000Y-86460063D01*
X137687904Y-86359999D01*
X137646927Y-86153995D01*
X137609051Y-85963577D01*
X137566655Y-85900126D01*
X137506075Y-85809463D01*
X137384495Y-85627505D01*
X137299663Y-85570822D01*
X136171180Y-84442339D01*
X136114495Y-84357505D01*
X135778423Y-84132949D01*
X135482065Y-84074000D01*
X135482063Y-84074000D01*
X135382000Y-84054096D01*
X135281937Y-84074000D01*
X129283396Y-84074000D01*
X129082862Y-83873466D01*
X129017701Y-83846475D01*
X129024005Y-83843864D01*
X129098139Y-83597745D01*
X128270000Y-82769605D01*
X127441861Y-83597745D01*
X127515995Y-83843864D01*
X127522746Y-83846290D01*
X127457138Y-83873466D01*
X127256604Y-84074000D01*
X125473396Y-84074000D01*
X125272862Y-83873466D01*
X125207701Y-83846475D01*
X125214005Y-83843864D01*
X125288139Y-83597745D01*
X124460000Y-82769605D01*
X123631861Y-83597745D01*
X123705995Y-83843864D01*
X123712746Y-83846290D01*
X123647138Y-83873466D01*
X123243466Y-84277138D01*
X123025000Y-84804561D01*
X123025000Y-85088160D01*
X122542337Y-85570823D01*
X122457506Y-85627505D01*
X122400823Y-85712337D01*
X122232950Y-85963577D01*
X122154096Y-86360000D01*
X122174001Y-86460068D01*
X122174000Y-88086530D01*
X118618000Y-84530530D01*
X118618000Y-84014421D01*
X118699765Y-83998157D01*
X118909809Y-83857809D01*
X119050157Y-83647765D01*
X119070739Y-83544292D01*
X119375076Y-83821645D01*
X119785110Y-83991476D01*
X120015000Y-83870155D01*
X120015000Y-82677000D01*
X120269000Y-82677000D01*
X120269000Y-83870155D01*
X120498890Y-83991476D01*
X120908924Y-83821645D01*
X121337183Y-83431358D01*
X121583486Y-82906892D01*
X121462819Y-82677000D01*
X120269000Y-82677000D01*
X120015000Y-82677000D01*
X119995000Y-82677000D01*
X119995000Y-82423000D01*
X120015000Y-82423000D01*
X120015000Y-81229845D01*
X120269000Y-81229845D01*
X120269000Y-82423000D01*
X121462819Y-82423000D01*
X121488946Y-82373223D01*
X123013035Y-82373223D01*
X123040222Y-82943454D01*
X123206136Y-83344005D01*
X123452255Y-83418139D01*
X124280395Y-82590000D01*
X124639605Y-82590000D01*
X125467745Y-83418139D01*
X125713864Y-83344005D01*
X125906965Y-82806777D01*
X125886295Y-82373223D01*
X126823035Y-82373223D01*
X126850222Y-82943454D01*
X127016136Y-83344005D01*
X127262255Y-83418139D01*
X128090395Y-82590000D01*
X128449605Y-82590000D01*
X129277745Y-83418139D01*
X129523864Y-83344005D01*
X129716965Y-82806777D01*
X129689778Y-82236546D01*
X129523864Y-81835995D01*
X129277745Y-81761861D01*
X128449605Y-82590000D01*
X128090395Y-82590000D01*
X127262255Y-81761861D01*
X127016136Y-81835995D01*
X126823035Y-82373223D01*
X125886295Y-82373223D01*
X125879778Y-82236546D01*
X125713864Y-81835995D01*
X125467745Y-81761861D01*
X124639605Y-82590000D01*
X124280395Y-82590000D01*
X123452255Y-81761861D01*
X123206136Y-81835995D01*
X123013035Y-82373223D01*
X121488946Y-82373223D01*
X121583486Y-82193108D01*
X121337183Y-81668642D01*
X121242392Y-81582255D01*
X123631861Y-81582255D01*
X124460000Y-82410395D01*
X125288139Y-81582255D01*
X127441861Y-81582255D01*
X128270000Y-82410395D01*
X129098139Y-81582255D01*
X129024005Y-81336136D01*
X128486777Y-81143035D01*
X127916546Y-81170222D01*
X127515995Y-81336136D01*
X127441861Y-81582255D01*
X125288139Y-81582255D01*
X125214005Y-81336136D01*
X124676777Y-81143035D01*
X124106546Y-81170222D01*
X123705995Y-81336136D01*
X123631861Y-81582255D01*
X121242392Y-81582255D01*
X120908924Y-81278355D01*
X120498890Y-81108524D01*
X120269000Y-81229845D01*
X120015000Y-81229845D01*
X119785110Y-81108524D01*
X119375076Y-81278355D01*
X119070739Y-81555708D01*
X119050157Y-81452235D01*
X118909809Y-81242191D01*
X118699765Y-81101843D01*
X118452000Y-81052560D01*
X116752000Y-81052560D01*
X116504235Y-81101843D01*
X116294191Y-81242191D01*
X116153843Y-81452235D01*
X116137579Y-81534000D01*
X114908063Y-81534000D01*
X114808000Y-81514096D01*
X114707936Y-81534000D01*
X114707935Y-81534000D01*
X114411577Y-81592949D01*
X114075505Y-81817505D01*
X114018822Y-81902337D01*
X109726160Y-86195000D01*
X109442561Y-86195000D01*
X108915138Y-86413466D01*
X108511466Y-86817138D01*
X108293000Y-87344561D01*
X108293000Y-87628159D01*
X105524338Y-90396822D01*
X105439506Y-90453505D01*
X105382823Y-90538337D01*
X105214950Y-90789577D01*
X105136096Y-91186000D01*
X105156001Y-91286068D01*
X105156001Y-92171010D01*
X105137423Y-92183423D01*
X104820260Y-92658091D01*
X104708887Y-93218000D01*
X104820260Y-93777909D01*
X105137423Y-94252577D01*
X105489758Y-94488000D01*
X105137423Y-94723423D01*
X104820260Y-95198091D01*
X104708887Y-95758000D01*
X104820260Y-96317909D01*
X105137423Y-96792577D01*
X105521108Y-97048947D01*
X105316866Y-97145611D01*
X104940959Y-97560577D01*
X104780096Y-97948961D01*
X104902085Y-98171000D01*
X106045000Y-98171000D01*
X106045000Y-98151000D01*
X106299000Y-98151000D01*
X106299000Y-98171000D01*
X107441915Y-98171000D01*
X107563904Y-97948961D01*
X107403041Y-97560577D01*
X107027134Y-97145611D01*
X106822892Y-97048947D01*
X107206577Y-96792577D01*
X107523740Y-96317909D01*
X107635113Y-95758000D01*
X107534066Y-95250000D01*
X108264887Y-95250000D01*
X108376260Y-95809909D01*
X108693423Y-96284577D01*
X109168091Y-96601740D01*
X109586667Y-96685000D01*
X109869333Y-96685000D01*
X110287909Y-96601740D01*
X110762577Y-96284577D01*
X111079740Y-95809909D01*
X111191113Y-95250000D01*
X111079740Y-94690091D01*
X110762577Y-94215423D01*
X110287909Y-93898260D01*
X109869333Y-93815000D01*
X109586667Y-93815000D01*
X109168091Y-93898260D01*
X108693423Y-94215423D01*
X108376260Y-94690091D01*
X108264887Y-95250000D01*
X107534066Y-95250000D01*
X107523740Y-95198091D01*
X107206577Y-94723423D01*
X106854242Y-94488000D01*
X107206577Y-94252577D01*
X107523740Y-93777909D01*
X107635113Y-93218000D01*
X107523740Y-92658091D01*
X107206577Y-92183423D01*
X107188000Y-92171010D01*
X107188000Y-91606840D01*
X109729841Y-89065000D01*
X110013439Y-89065000D01*
X110540862Y-88846534D01*
X110944534Y-88442862D01*
X111163000Y-87915439D01*
X111163000Y-87631840D01*
X115228841Y-83566000D01*
X116137579Y-83566000D01*
X116153843Y-83647765D01*
X116294191Y-83857809D01*
X116504235Y-83998157D01*
X116586000Y-84014421D01*
X116586000Y-84851307D01*
X116566096Y-84951370D01*
X116586000Y-85051433D01*
X116586000Y-85051434D01*
X116644949Y-85347792D01*
X116869505Y-85683865D01*
X116954340Y-85740550D01*
X121269452Y-90055663D01*
X121326135Y-90140495D01*
X121662207Y-90365051D01*
X121958565Y-90424000D01*
X121958566Y-90424000D01*
X122058630Y-90443904D01*
X122144850Y-90426754D01*
X122155423Y-90442577D01*
X122507758Y-90678000D01*
X122155423Y-90913423D01*
X121838260Y-91388091D01*
X121726887Y-91948000D01*
X121791312Y-92271886D01*
X121181528Y-92881671D01*
X121118072Y-92924071D01*
X121075672Y-92987527D01*
X121075671Y-92987528D01*
X120950097Y-93175463D01*
X120891112Y-93472000D01*
X120906001Y-93546852D01*
X120906000Y-103049153D01*
X120891112Y-103124000D01*
X120906000Y-103198847D01*
X120906000Y-103198851D01*
X120950096Y-103420536D01*
X121118071Y-103671929D01*
X121181530Y-103714331D01*
X121791312Y-104324114D01*
X121726887Y-104648000D01*
X121838260Y-105207909D01*
X122155423Y-105682577D01*
X122630091Y-105999740D01*
X123048667Y-106083000D01*
X123331333Y-106083000D01*
X123749909Y-105999740D01*
X124224577Y-105682577D01*
X124541740Y-105207909D01*
X124583684Y-104997039D01*
X127640096Y-104997039D01*
X127800959Y-105385423D01*
X128176866Y-105800389D01*
X128682959Y-106039914D01*
X128905000Y-105918629D01*
X128905000Y-104775000D01*
X129159000Y-104775000D01*
X129159000Y-105918629D01*
X129381041Y-106039914D01*
X129887134Y-105800389D01*
X130263041Y-105385423D01*
X130423904Y-104997039D01*
X130301915Y-104775000D01*
X129159000Y-104775000D01*
X128905000Y-104775000D01*
X127762085Y-104775000D01*
X127640096Y-104997039D01*
X124583684Y-104997039D01*
X124653113Y-104648000D01*
X124541740Y-104088091D01*
X124224577Y-103613423D01*
X123872242Y-103378000D01*
X124224577Y-103142577D01*
X124541740Y-102667909D01*
X124653113Y-102108000D01*
X124551668Y-101598000D01*
X127670332Y-101598000D01*
X127568887Y-102108000D01*
X127680260Y-102667909D01*
X127997423Y-103142577D01*
X128381108Y-103398947D01*
X128176866Y-103495611D01*
X127800959Y-103910577D01*
X127640096Y-104298961D01*
X127762085Y-104521000D01*
X128905000Y-104521000D01*
X128905000Y-104501000D01*
X129159000Y-104501000D01*
X129159000Y-104521000D01*
X130301915Y-104521000D01*
X130423904Y-104298961D01*
X130263041Y-103910577D01*
X129887134Y-103495611D01*
X129682892Y-103398947D01*
X130066577Y-103142577D01*
X130383740Y-102667909D01*
X130495113Y-102108000D01*
X130393668Y-101598000D01*
X131751153Y-101598000D01*
X131826000Y-101612888D01*
X131900847Y-101598000D01*
X131900852Y-101598000D01*
X132122537Y-101553904D01*
X132373929Y-101385929D01*
X132416331Y-101322470D01*
X133580473Y-100158329D01*
X133643929Y-100115929D01*
X133811904Y-99864537D01*
X133856000Y-99642852D01*
X133856000Y-99642848D01*
X133870888Y-99568001D01*
X133856000Y-99493154D01*
X133856000Y-98747711D01*
X133973431Y-98630280D01*
X134131000Y-98249874D01*
X134131000Y-97838126D01*
X133973431Y-97457720D01*
X133682280Y-97166569D01*
X133301874Y-97009000D01*
X132890126Y-97009000D01*
X132509720Y-97166569D01*
X132218569Y-97457720D01*
X132061000Y-97838126D01*
X132061000Y-98249874D01*
X132218569Y-98630280D01*
X132336001Y-98747712D01*
X132336000Y-99253198D01*
X131511199Y-100078000D01*
X130393668Y-100078000D01*
X130495113Y-99568000D01*
X130383740Y-99008091D01*
X130066577Y-98533423D01*
X129792000Y-98349957D01*
X129792000Y-98246043D01*
X130066577Y-98062577D01*
X130247358Y-97792019D01*
X130302000Y-97802888D01*
X130376847Y-97788000D01*
X130376852Y-97788000D01*
X130598537Y-97743904D01*
X130849929Y-97575929D01*
X130892330Y-97512471D01*
X131294475Y-97110327D01*
X131357929Y-97067929D01*
X131400327Y-97004476D01*
X131400329Y-97004474D01*
X131525903Y-96816538D01*
X131525904Y-96816537D01*
X131570000Y-96594852D01*
X131570000Y-96594848D01*
X131584888Y-96520001D01*
X131570000Y-96445154D01*
X131570000Y-93800848D01*
X131584888Y-93726000D01*
X131570000Y-93651152D01*
X131570000Y-93651148D01*
X131525904Y-93429463D01*
X131525904Y-93429462D01*
X131400329Y-93241527D01*
X131357929Y-93178071D01*
X131294473Y-93135671D01*
X130430688Y-92271886D01*
X130495113Y-91948000D01*
X130383740Y-91388091D01*
X130066577Y-90913423D01*
X129945894Y-90832785D01*
X130079765Y-90806157D01*
X130289809Y-90665809D01*
X130430157Y-90455765D01*
X130479440Y-90208000D01*
X130479440Y-88608000D01*
X130430157Y-88360235D01*
X130289809Y-88150191D01*
X130268571Y-88136000D01*
X133543199Y-88136000D01*
X134622000Y-89214803D01*
X134622001Y-98223148D01*
X134607112Y-98298000D01*
X134666097Y-98594537D01*
X134780713Y-98766071D01*
X134834072Y-98845929D01*
X134897528Y-98888329D01*
X135253312Y-99244113D01*
X135188887Y-99568000D01*
X135300260Y-100127909D01*
X135617423Y-100602577D01*
X135892001Y-100786044D01*
X135892000Y-100889956D01*
X135617423Y-101073423D01*
X135300260Y-101548091D01*
X135188887Y-102108000D01*
X135300260Y-102667909D01*
X135617423Y-103142577D01*
X135969758Y-103378000D01*
X135617423Y-103613423D01*
X135300260Y-104088091D01*
X135188887Y-104648000D01*
X135300260Y-105207909D01*
X135617423Y-105682577D01*
X136092091Y-105999740D01*
X136510667Y-106083000D01*
X136793333Y-106083000D01*
X137121469Y-106017730D01*
X136711199Y-106428000D01*
X129227711Y-106428000D01*
X129110280Y-106310569D01*
X128729874Y-106153000D01*
X128318126Y-106153000D01*
X127937720Y-106310569D01*
X127646569Y-106601720D01*
X127489000Y-106982126D01*
X127489000Y-107393874D01*
X127646569Y-107774280D01*
X127937720Y-108065431D01*
X128318126Y-108223000D01*
X128729874Y-108223000D01*
X129110280Y-108065431D01*
X129227711Y-107948000D01*
X136951153Y-107948000D01*
X137026000Y-107962888D01*
X137100847Y-107948000D01*
X137100852Y-107948000D01*
X137322537Y-107903904D01*
X137573929Y-107735929D01*
X137616331Y-107672470D01*
X138265000Y-107023801D01*
X138265000Y-107219439D01*
X138483466Y-107746862D01*
X138887138Y-108150534D01*
X139021045Y-108206000D01*
X139012848Y-108206000D01*
X138938000Y-108191112D01*
X138863152Y-108206000D01*
X138863148Y-108206000D01*
X138689605Y-108240520D01*
X138641462Y-108250096D01*
X138469789Y-108364805D01*
X138390071Y-108418071D01*
X138347671Y-108481527D01*
X137691528Y-109137671D01*
X137628072Y-109180071D01*
X137585672Y-109243527D01*
X137585671Y-109243528D01*
X137460097Y-109431463D01*
X137401112Y-109728000D01*
X137416001Y-109802851D01*
X137416000Y-110937198D01*
X134813199Y-113540000D01*
X133191430Y-113540000D01*
X133169534Y-113487138D01*
X132765862Y-113083466D01*
X132700701Y-113056475D01*
X132707005Y-113053864D01*
X132781139Y-112807745D01*
X131953000Y-111979605D01*
X131124861Y-112807745D01*
X131198995Y-113053864D01*
X131205746Y-113056290D01*
X131140138Y-113083466D01*
X130736466Y-113487138D01*
X130518000Y-114014561D01*
X130518000Y-114585439D01*
X130716227Y-115064000D01*
X129981802Y-115064000D01*
X129922688Y-115004886D01*
X129987113Y-114681000D01*
X129875740Y-114121091D01*
X129558577Y-113646423D01*
X129206242Y-113411000D01*
X129558577Y-113175577D01*
X129875740Y-112700909D01*
X129987113Y-112141000D01*
X129876165Y-111583223D01*
X130506035Y-111583223D01*
X130533222Y-112153454D01*
X130699136Y-112554005D01*
X130945255Y-112628139D01*
X131773395Y-111800000D01*
X132132605Y-111800000D01*
X132960745Y-112628139D01*
X133206864Y-112554005D01*
X133399965Y-112016777D01*
X133372778Y-111446546D01*
X133206864Y-111045995D01*
X132960745Y-110971861D01*
X132132605Y-111800000D01*
X131773395Y-111800000D01*
X130945255Y-110971861D01*
X130699136Y-111045995D01*
X130506035Y-111583223D01*
X129876165Y-111583223D01*
X129875740Y-111581091D01*
X129558577Y-111106423D01*
X129088392Y-110792255D01*
X131124861Y-110792255D01*
X131953000Y-111620395D01*
X132781139Y-110792255D01*
X132707005Y-110546136D01*
X132169777Y-110353035D01*
X131599546Y-110380222D01*
X131198995Y-110546136D01*
X131124861Y-110792255D01*
X129088392Y-110792255D01*
X129083909Y-110789260D01*
X128665333Y-110706000D01*
X128382667Y-110706000D01*
X127964091Y-110789260D01*
X127489423Y-111106423D01*
X127172260Y-111581091D01*
X127060887Y-112141000D01*
X127172260Y-112700909D01*
X127489423Y-113175577D01*
X127841758Y-113411000D01*
X127489423Y-113646423D01*
X127172260Y-114121091D01*
X127060887Y-114681000D01*
X127172260Y-115240909D01*
X127489423Y-115715577D01*
X127841758Y-115951000D01*
X127489423Y-116186423D01*
X127305957Y-116461000D01*
X123758803Y-116461000D01*
X122302688Y-115004886D01*
X122367113Y-114681000D01*
X122255740Y-114121091D01*
X121938577Y-113646423D01*
X121832082Y-113575265D01*
X122063698Y-113479327D01*
X122242327Y-113300699D01*
X122339000Y-113067310D01*
X122339000Y-112426750D01*
X122180250Y-112268000D01*
X121031000Y-112268000D01*
X121031000Y-112288000D01*
X120777000Y-112288000D01*
X120777000Y-112268000D01*
X120757000Y-112268000D01*
X120757000Y-112014000D01*
X120777000Y-112014000D01*
X120777000Y-110864750D01*
X121031000Y-110864750D01*
X121031000Y-112014000D01*
X122180250Y-112014000D01*
X122339000Y-111855250D01*
X122339000Y-111214690D01*
X122242327Y-110981301D01*
X122063698Y-110802673D01*
X121830309Y-110706000D01*
X121189750Y-110706000D01*
X121031000Y-110864750D01*
X120777000Y-110864750D01*
X120618250Y-110706000D01*
X120147330Y-110706000D01*
X120140000Y-110669152D01*
X120140000Y-110669148D01*
X120095904Y-110447463D01*
X120032809Y-110353035D01*
X119970329Y-110259526D01*
X119970327Y-110259524D01*
X119927929Y-110196071D01*
X119864476Y-110153673D01*
X118446331Y-108735530D01*
X118403929Y-108672071D01*
X118152537Y-108504096D01*
X117930852Y-108460000D01*
X117930847Y-108460000D01*
X117856000Y-108445112D01*
X117781153Y-108460000D01*
X112415027Y-108460000D01*
X112541000Y-108155874D01*
X112541000Y-107744126D01*
X112383431Y-107363720D01*
X112092280Y-107072569D01*
X111711874Y-106915000D01*
X111300126Y-106915000D01*
X110919720Y-107072569D01*
X110802289Y-107190000D01*
X110681711Y-107190000D01*
X110859431Y-107012280D01*
X111017000Y-106631874D01*
X111017000Y-106220126D01*
X110859431Y-105839720D01*
X110568280Y-105548569D01*
X110187874Y-105391000D01*
X109776126Y-105391000D01*
X109395720Y-105548569D01*
X109278289Y-105666000D01*
X107148874Y-105666000D01*
X107403041Y-105385423D01*
X107563904Y-104997039D01*
X107538130Y-104950126D01*
X111233000Y-104950126D01*
X111233000Y-105361874D01*
X111390569Y-105742280D01*
X111681720Y-106033431D01*
X112062126Y-106191000D01*
X112473874Y-106191000D01*
X112854280Y-106033431D01*
X113145431Y-105742280D01*
X113303000Y-105361874D01*
X113303000Y-104997039D01*
X114178096Y-104997039D01*
X114338959Y-105385423D01*
X114714866Y-105800389D01*
X115220959Y-106039914D01*
X115443000Y-105918629D01*
X115443000Y-104775000D01*
X115697000Y-104775000D01*
X115697000Y-105918629D01*
X115919041Y-106039914D01*
X116425134Y-105800389D01*
X116801041Y-105385423D01*
X116961904Y-104997039D01*
X116839915Y-104775000D01*
X115697000Y-104775000D01*
X115443000Y-104775000D01*
X114300085Y-104775000D01*
X114178096Y-104997039D01*
X113303000Y-104997039D01*
X113303000Y-104950126D01*
X113145431Y-104569720D01*
X113028000Y-104452289D01*
X113028000Y-91974801D01*
X114327058Y-90675743D01*
X114522235Y-90806157D01*
X114656106Y-90832785D01*
X114535423Y-90913423D01*
X114218260Y-91388091D01*
X114106887Y-91948000D01*
X114218260Y-92507909D01*
X114535423Y-92982577D01*
X114887758Y-93218000D01*
X114535423Y-93453423D01*
X114218260Y-93928091D01*
X114106887Y-94488000D01*
X114218260Y-95047909D01*
X114535423Y-95522577D01*
X114887758Y-95758000D01*
X114535423Y-95993423D01*
X114218260Y-96468091D01*
X114106887Y-97028000D01*
X114218260Y-97587909D01*
X114535423Y-98062577D01*
X114887758Y-98298000D01*
X114535423Y-98533423D01*
X114218260Y-99008091D01*
X114106887Y-99568000D01*
X114218260Y-100127909D01*
X114535423Y-100602577D01*
X114887758Y-100838000D01*
X114535423Y-101073423D01*
X114218260Y-101548091D01*
X114106887Y-102108000D01*
X114218260Y-102667909D01*
X114535423Y-103142577D01*
X114919108Y-103398947D01*
X114714866Y-103495611D01*
X114338959Y-103910577D01*
X114178096Y-104298961D01*
X114300085Y-104521000D01*
X115443000Y-104521000D01*
X115443000Y-104501000D01*
X115697000Y-104501000D01*
X115697000Y-104521000D01*
X116839915Y-104521000D01*
X116961904Y-104298961D01*
X116801041Y-103910577D01*
X116425134Y-103495611D01*
X116220892Y-103398947D01*
X116604577Y-103142577D01*
X116921740Y-102667909D01*
X117033113Y-102108000D01*
X116921740Y-101548091D01*
X116604577Y-101073423D01*
X116252242Y-100838000D01*
X116604577Y-100602577D01*
X116921740Y-100127909D01*
X117033113Y-99568000D01*
X116968688Y-99244114D01*
X117578476Y-98634327D01*
X117641929Y-98591929D01*
X117684327Y-98528476D01*
X117684329Y-98528474D01*
X117809903Y-98340538D01*
X117809904Y-98340537D01*
X117854000Y-98118852D01*
X117854000Y-98118848D01*
X117868888Y-98044001D01*
X117854000Y-97969154D01*
X117854000Y-96086846D01*
X117868888Y-96011999D01*
X117854000Y-95937152D01*
X117854000Y-95937148D01*
X117809904Y-95715463D01*
X117745883Y-95619649D01*
X117684329Y-95527526D01*
X117684327Y-95527524D01*
X117641929Y-95464071D01*
X117578476Y-95421673D01*
X116968688Y-94811886D01*
X117033113Y-94488000D01*
X116921740Y-93928091D01*
X116604577Y-93453423D01*
X116252242Y-93218000D01*
X116604577Y-92982577D01*
X116921740Y-92507909D01*
X117033113Y-91948000D01*
X116921740Y-91388091D01*
X116604577Y-90913423D01*
X116483894Y-90832785D01*
X116617765Y-90806157D01*
X116827809Y-90665809D01*
X116968157Y-90455765D01*
X117017440Y-90208000D01*
X117017440Y-88608000D01*
X116968157Y-88360235D01*
X116827809Y-88150191D01*
X116617765Y-88009843D01*
X116370000Y-87960560D01*
X114770000Y-87960560D01*
X114522235Y-88009843D01*
X114312191Y-88150191D01*
X114171843Y-88360235D01*
X114122560Y-88608000D01*
X114122560Y-88759517D01*
X113972071Y-88860071D01*
X113929671Y-88923527D01*
X111783528Y-91069671D01*
X111720072Y-91112071D01*
X111677672Y-91175527D01*
X111677671Y-91175528D01*
X111552097Y-91363463D01*
X111493112Y-91660000D01*
X111508001Y-91734852D01*
X111508000Y-104452289D01*
X111390569Y-104569720D01*
X111233000Y-104950126D01*
X107538130Y-104950126D01*
X107441915Y-104775000D01*
X106299000Y-104775000D01*
X106299000Y-104795000D01*
X106045000Y-104795000D01*
X106045000Y-104775000D01*
X104902085Y-104775000D01*
X104780096Y-104997039D01*
X104940959Y-105385423D01*
X105195126Y-105666000D01*
X100644802Y-105666000D01*
X99965103Y-104986302D01*
X99987000Y-104933439D01*
X99987000Y-104362561D01*
X99960656Y-104298961D01*
X104780096Y-104298961D01*
X104902085Y-104521000D01*
X106045000Y-104521000D01*
X106045000Y-103377371D01*
X106299000Y-103377371D01*
X106299000Y-104521000D01*
X107441915Y-104521000D01*
X107563904Y-104298961D01*
X107403041Y-103910577D01*
X107027134Y-103495611D01*
X106521041Y-103256086D01*
X106299000Y-103377371D01*
X106045000Y-103377371D01*
X105822959Y-103256086D01*
X105316866Y-103495611D01*
X104940959Y-103910577D01*
X104780096Y-104298961D01*
X99960656Y-104298961D01*
X99768534Y-103835138D01*
X99364862Y-103431466D01*
X99230955Y-103376000D01*
X104319153Y-103376000D01*
X104394000Y-103390888D01*
X104468847Y-103376000D01*
X104468852Y-103376000D01*
X104690537Y-103331904D01*
X104941929Y-103163929D01*
X104984331Y-103100470D01*
X105848114Y-102236688D01*
X106030667Y-102273000D01*
X106313333Y-102273000D01*
X106731909Y-102189740D01*
X107206577Y-101872577D01*
X107523740Y-101397909D01*
X107635113Y-100838000D01*
X107523740Y-100278091D01*
X107206577Y-99803423D01*
X106822892Y-99547053D01*
X107027134Y-99450389D01*
X107403041Y-99035423D01*
X107563904Y-98647039D01*
X107441915Y-98425000D01*
X106299000Y-98425000D01*
X106299000Y-98445000D01*
X106045000Y-98445000D01*
X106045000Y-98425000D01*
X104902085Y-98425000D01*
X104780096Y-98647039D01*
X104940959Y-99035423D01*
X105316866Y-99450389D01*
X105521108Y-99547053D01*
X105137423Y-99803423D01*
X104820260Y-100278091D01*
X104708887Y-100838000D01*
X104773312Y-101161886D01*
X104079199Y-101856000D01*
X99597653Y-101856000D01*
X99903740Y-101397909D01*
X100015113Y-100838000D01*
X99903740Y-100278091D01*
X99586577Y-99803423D01*
X99234242Y-99568000D01*
X99586577Y-99332577D01*
X99903740Y-98857909D01*
X100015113Y-98298000D01*
X99950688Y-97974113D01*
X102846473Y-95078329D01*
X102909929Y-95035929D01*
X102987650Y-94919611D01*
X103077904Y-94784538D01*
X103090060Y-94723423D01*
X103122000Y-94562852D01*
X103122000Y-94562848D01*
X103136888Y-94488000D01*
X103122000Y-94413152D01*
X103122000Y-87606119D01*
X103505000Y-87606119D01*
X103505000Y-88161881D01*
X103717680Y-88675337D01*
X104110663Y-89068320D01*
X104624119Y-89281000D01*
X105179881Y-89281000D01*
X105693337Y-89068320D01*
X106086320Y-88675337D01*
X106299000Y-88161881D01*
X106299000Y-87606119D01*
X106086320Y-87092663D01*
X105693337Y-86699680D01*
X105179881Y-86487000D01*
X104624119Y-86487000D01*
X104110663Y-86699680D01*
X103717680Y-87092663D01*
X103505000Y-87606119D01*
X103122000Y-87606119D01*
X103122000Y-86809711D01*
X103239431Y-86692280D01*
X103397000Y-86311874D01*
X103397000Y-85900126D01*
X103239431Y-85519720D01*
X102948280Y-85228569D01*
X102567874Y-85071000D01*
X102156126Y-85071000D01*
X101775720Y-85228569D01*
X101484569Y-85519720D01*
X101327000Y-85900126D01*
X101327000Y-86311874D01*
X101484569Y-86692280D01*
X101602001Y-86809712D01*
X101602000Y-94173198D01*
X100014595Y-95760603D01*
X100015113Y-95758000D01*
X99903740Y-95198091D01*
X99586577Y-94723423D01*
X99480082Y-94652265D01*
X99711698Y-94556327D01*
X99890327Y-94377699D01*
X99987000Y-94144310D01*
X99987000Y-93503750D01*
X99828250Y-93345000D01*
X98679000Y-93345000D01*
X98679000Y-93365000D01*
X98425000Y-93365000D01*
X98425000Y-93345000D01*
X97275750Y-93345000D01*
X97117000Y-93503750D01*
X97117000Y-94144310D01*
X97213673Y-94377699D01*
X97392302Y-94556327D01*
X97623918Y-94652265D01*
X97517423Y-94723423D01*
X97200260Y-95198091D01*
X97088887Y-95758000D01*
X97200260Y-96317909D01*
X97517423Y-96792577D01*
X97869758Y-97028000D01*
X97517423Y-97263423D01*
X97200260Y-97738091D01*
X97088887Y-98298000D01*
X97200260Y-98857909D01*
X97517423Y-99332577D01*
X97869758Y-99568000D01*
X97517423Y-99803423D01*
X97200260Y-100278091D01*
X97088887Y-100838000D01*
X97200260Y-101397909D01*
X97506347Y-101856000D01*
X96326802Y-101856000D01*
X95629000Y-101158199D01*
X95629000Y-96932930D01*
X95681862Y-96911034D01*
X96085534Y-96507362D01*
X96304000Y-95979939D01*
X96304000Y-95409061D01*
X96085534Y-94881638D01*
X95681862Y-94477966D01*
X95616701Y-94450975D01*
X95623005Y-94448364D01*
X95697139Y-94202245D01*
X94869000Y-93374105D01*
X94854858Y-93388248D01*
X94675252Y-93208642D01*
X94689395Y-93194500D01*
X95048605Y-93194500D01*
X95876745Y-94022639D01*
X96122864Y-93948505D01*
X96315965Y-93411277D01*
X96288778Y-92841046D01*
X96122864Y-92440495D01*
X95876745Y-92366361D01*
X95048605Y-93194500D01*
X94689395Y-93194500D01*
X94675252Y-93180358D01*
X94854858Y-93000752D01*
X94869000Y-93014895D01*
X95592204Y-92291690D01*
X97117000Y-92291690D01*
X97117000Y-92932250D01*
X97275750Y-93091000D01*
X98425000Y-93091000D01*
X98425000Y-91941750D01*
X98679000Y-91941750D01*
X98679000Y-93091000D01*
X99828250Y-93091000D01*
X99987000Y-92932250D01*
X99987000Y-92291690D01*
X99890327Y-92058301D01*
X99711698Y-91879673D01*
X99478309Y-91783000D01*
X98837750Y-91783000D01*
X98679000Y-91941750D01*
X98425000Y-91941750D01*
X98266250Y-91783000D01*
X97625691Y-91783000D01*
X97392302Y-91879673D01*
X97213673Y-92058301D01*
X97117000Y-92291690D01*
X95592204Y-92291690D01*
X95697139Y-92186755D01*
X95623005Y-91940636D01*
X95085777Y-91747535D01*
X94515546Y-91774722D01*
X94114995Y-91940636D01*
X94040861Y-92186753D01*
X93978000Y-92123892D01*
X93978000Y-90855440D01*
X94018000Y-90855440D01*
X94265765Y-90806157D01*
X94475809Y-90665809D01*
X94616157Y-90455765D01*
X94665440Y-90208000D01*
X94665440Y-89035362D01*
X95056803Y-88644000D01*
X98624700Y-88644000D01*
X98637680Y-88675337D01*
X99030663Y-89068320D01*
X99544119Y-89281000D01*
X100099881Y-89281000D01*
X100613337Y-89068320D01*
X101006320Y-88675337D01*
X101219000Y-88161881D01*
X101219000Y-87606119D01*
X101006320Y-87092663D01*
X100613337Y-86699680D01*
X100099881Y-86487000D01*
X99544119Y-86487000D01*
X99030663Y-86699680D01*
X98637680Y-87092663D01*
X98624700Y-87124000D01*
X94816846Y-87124000D01*
X94741999Y-87109112D01*
X94667152Y-87124000D01*
X94667148Y-87124000D01*
X94664949Y-87124437D01*
X94637778Y-86554546D01*
X94471864Y-86153995D01*
X94225745Y-86079861D01*
X93397605Y-86908000D01*
X93411748Y-86922142D01*
X93232142Y-87101748D01*
X93218000Y-87087605D01*
X92389861Y-87915745D01*
X92404187Y-87963307D01*
X92170235Y-88009843D01*
X91960191Y-88150191D01*
X91819843Y-88360235D01*
X91770560Y-88608000D01*
X91770560Y-90208000D01*
X91819843Y-90455765D01*
X91960191Y-90665809D01*
X92170235Y-90806157D01*
X92418000Y-90855440D01*
X92458000Y-90855440D01*
X92458001Y-106351148D01*
X92443112Y-106426000D01*
X92458001Y-106500851D01*
X92458001Y-106500852D01*
X92502097Y-106722537D01*
X92670072Y-106973929D01*
X92733528Y-107016329D01*
X95293881Y-109576682D01*
X94944091Y-109646260D01*
X94469423Y-109963423D01*
X94152260Y-110438091D01*
X94040887Y-110998000D01*
X94152260Y-111557909D01*
X94469423Y-112032577D01*
X94944091Y-112349740D01*
X95362667Y-112433000D01*
X95645333Y-112433000D01*
X95827886Y-112396688D01*
X96088674Y-112657477D01*
X96131072Y-112720930D01*
X96194525Y-112763328D01*
X96194527Y-112763330D01*
X96282477Y-112822096D01*
X96382464Y-112888905D01*
X96604149Y-112933001D01*
X96604153Y-112933001D01*
X96679000Y-112947889D01*
X96753847Y-112933001D01*
X97992388Y-112933001D01*
X97962260Y-112978091D01*
X97850887Y-113538000D01*
X97915312Y-113861886D01*
X97051528Y-114725671D01*
X96988072Y-114768071D01*
X96945672Y-114831527D01*
X96945671Y-114831528D01*
X96820097Y-115019463D01*
X96761112Y-115316000D01*
X96776001Y-115390851D01*
X96776000Y-116511153D01*
X96761112Y-116586000D01*
X96776000Y-116660847D01*
X96776000Y-116660851D01*
X96820096Y-116882536D01*
X96988071Y-117133929D01*
X97051530Y-117176331D01*
X97477198Y-117602000D01*
X96517396Y-117602000D01*
X96316862Y-117401466D01*
X95789439Y-117183000D01*
X95218561Y-117183000D01*
X94691138Y-117401466D01*
X94490604Y-117602000D01*
X92740990Y-117602000D01*
X92728577Y-117583423D01*
X92253909Y-117266260D01*
X91835333Y-117183000D01*
X91552667Y-117183000D01*
X91134091Y-117266260D01*
X90676000Y-117572347D01*
X90676000Y-113090801D01*
X91355698Y-112411103D01*
X91408561Y-112433000D01*
X91979439Y-112433000D01*
X92506862Y-112214534D01*
X92910534Y-111810862D01*
X93129000Y-111283439D01*
X93129000Y-110712561D01*
X92910534Y-110185138D01*
X92506862Y-109781466D01*
X91979439Y-109563000D01*
X91408561Y-109563000D01*
X90881138Y-109781466D01*
X90477466Y-110185138D01*
X90259000Y-110712561D01*
X90259000Y-111283439D01*
X90280897Y-111336302D01*
X89431528Y-112185671D01*
X89368072Y-112228071D01*
X89325672Y-112291527D01*
X89325671Y-112291528D01*
X89200097Y-112479463D01*
X89141112Y-112776000D01*
X89156001Y-112850852D01*
X89156000Y-120067153D01*
X89141112Y-120142000D01*
X89156000Y-120216847D01*
X89156000Y-120216851D01*
X89200096Y-120438536D01*
X89368071Y-120689929D01*
X89431530Y-120732331D01*
X92754673Y-124055476D01*
X92797071Y-124118929D01*
X92860524Y-124161327D01*
X92860526Y-124161329D01*
X92985902Y-124245102D01*
X93048463Y-124286904D01*
X93270148Y-124331000D01*
X93270152Y-124331000D01*
X93344999Y-124345888D01*
X93419846Y-124331000D01*
X109715560Y-124331000D01*
X109715560Y-124333000D01*
X109764843Y-124580765D01*
X109905191Y-124790809D01*
X110115235Y-124931157D01*
X110363000Y-124980440D01*
X111887000Y-124980440D01*
X112134765Y-124931157D01*
X112344809Y-124790809D01*
X112400996Y-124706720D01*
X112425857Y-124793397D01*
X112949302Y-124980144D01*
X113504368Y-124952362D01*
X113888143Y-124793397D01*
X113957608Y-124551213D01*
X113157000Y-123750605D01*
X113142858Y-123764748D01*
X112963253Y-123585143D01*
X112977395Y-123571000D01*
X113336605Y-123571000D01*
X113917521Y-124151916D01*
X114004680Y-124362337D01*
X114397663Y-124755320D01*
X114911119Y-124968000D01*
X115466881Y-124968000D01*
X115980337Y-124755320D01*
X116373320Y-124362337D01*
X116386300Y-124331000D01*
X137974153Y-124331000D01*
X138049000Y-124345888D01*
X138123847Y-124331000D01*
X138123852Y-124331000D01*
X138345537Y-124286904D01*
X138596929Y-124118929D01*
X138639331Y-124055470D01*
X139921588Y-122773213D01*
X141439392Y-122773213D01*
X141508857Y-123015397D01*
X142032302Y-123202144D01*
X142587368Y-123174362D01*
X142971143Y-123015397D01*
X143040608Y-122773213D01*
X142240000Y-121972605D01*
X141439392Y-122773213D01*
X139921588Y-122773213D01*
X140184473Y-122510329D01*
X140247929Y-122467929D01*
X140415904Y-122216537D01*
X140460000Y-121994852D01*
X140460000Y-121994848D01*
X140474888Y-121920000D01*
X140460000Y-121845152D01*
X140460000Y-121585302D01*
X140830856Y-121585302D01*
X140858638Y-122140368D01*
X141017603Y-122524143D01*
X141259787Y-122593608D01*
X142060395Y-121793000D01*
X142419605Y-121793000D01*
X143220213Y-122593608D01*
X143462397Y-122524143D01*
X143649144Y-122000698D01*
X143621362Y-121445632D01*
X143462397Y-121061857D01*
X143220213Y-120992392D01*
X142419605Y-121793000D01*
X142060395Y-121793000D01*
X141259787Y-120992392D01*
X141017603Y-121061857D01*
X140830856Y-121585302D01*
X140460000Y-121585302D01*
X140460000Y-120812787D01*
X141439392Y-120812787D01*
X142240000Y-121613395D01*
X143040608Y-120812787D01*
X142971143Y-120570603D01*
X142447698Y-120383856D01*
X141892632Y-120411638D01*
X141508857Y-120570603D01*
X141439392Y-120812787D01*
X140460000Y-120812787D01*
X140460000Y-116026043D01*
X140734577Y-115842577D01*
X141051740Y-115367909D01*
X141163113Y-114808000D01*
X141106336Y-114522561D01*
X145885000Y-114522561D01*
X145885000Y-115093439D01*
X146103466Y-115620862D01*
X146507138Y-116024534D01*
X147034561Y-116243000D01*
X147605439Y-116243000D01*
X148132862Y-116024534D01*
X148536534Y-115620862D01*
X148755000Y-115093439D01*
X148755000Y-114522561D01*
X148536534Y-113995138D01*
X148132862Y-113591466D01*
X147605439Y-113373000D01*
X147034561Y-113373000D01*
X146507138Y-113591466D01*
X146103466Y-113995138D01*
X145885000Y-114522561D01*
X141106336Y-114522561D01*
X141051740Y-114248091D01*
X140734577Y-113773423D01*
X140259909Y-113456260D01*
X139841333Y-113373000D01*
X139558667Y-113373000D01*
X139140091Y-113456260D01*
X138665423Y-113773423D01*
X138348260Y-114248091D01*
X138236887Y-114808000D01*
X138348260Y-115367909D01*
X138665423Y-115842577D01*
X138940001Y-116026044D01*
X138940000Y-121605198D01*
X138620500Y-121924698D01*
X138620500Y-121515119D01*
X138407820Y-121001663D01*
X138014837Y-120608680D01*
X137501381Y-120396000D01*
X136945619Y-120396000D01*
X136432163Y-120608680D01*
X136039180Y-121001663D01*
X135826500Y-121515119D01*
X135826500Y-122070881D01*
X136039180Y-122584337D01*
X136265843Y-122811000D01*
X116386300Y-122811000D01*
X116373320Y-122779663D01*
X115980337Y-122386680D01*
X115466881Y-122174000D01*
X114911119Y-122174000D01*
X114397663Y-122386680D01*
X114004680Y-122779663D01*
X113917521Y-122990084D01*
X113336605Y-123571000D01*
X112977395Y-123571000D01*
X112963253Y-123556858D01*
X113142858Y-123377253D01*
X113157000Y-123391395D01*
X113957608Y-122590787D01*
X113888143Y-122348603D01*
X113393131Y-122172000D01*
X126798153Y-122172000D01*
X126873000Y-122186888D01*
X126947847Y-122172000D01*
X126947852Y-122172000D01*
X127169537Y-122127904D01*
X127420929Y-121959929D01*
X127463331Y-121896470D01*
X128200114Y-121159688D01*
X128382667Y-121196000D01*
X128665333Y-121196000D01*
X129083909Y-121112740D01*
X129558577Y-120795577D01*
X129875740Y-120320909D01*
X129987113Y-119761000D01*
X129875740Y-119201091D01*
X129558577Y-118726423D01*
X129206242Y-118491000D01*
X129558577Y-118255577D01*
X129875740Y-117780909D01*
X129987113Y-117221000D01*
X129875740Y-116661091D01*
X129824229Y-116584000D01*
X135307153Y-116584000D01*
X135382000Y-116598888D01*
X135456847Y-116584000D01*
X135456852Y-116584000D01*
X135678537Y-116539904D01*
X135929929Y-116371929D01*
X135972331Y-116308470D01*
X139376114Y-112904688D01*
X139558667Y-112941000D01*
X139841333Y-112941000D01*
X140259909Y-112857740D01*
X140734577Y-112540577D01*
X141051740Y-112065909D01*
X141163113Y-111506000D01*
X141051740Y-110946091D01*
X140734577Y-110471423D01*
X140259909Y-110154260D01*
X139841333Y-110071000D01*
X139558667Y-110071000D01*
X139140091Y-110154260D01*
X138936000Y-110290629D01*
X138936000Y-110042801D01*
X139252802Y-109726000D01*
X145213153Y-109726000D01*
X145288000Y-109740888D01*
X145362847Y-109726000D01*
X145362852Y-109726000D01*
X145584537Y-109681904D01*
X145835929Y-109513929D01*
X145878331Y-109450470D01*
X146996114Y-108332688D01*
X147178667Y-108369000D01*
X147461333Y-108369000D01*
X147830000Y-108295667D01*
X147830000Y-109294851D01*
X147830001Y-109294855D01*
X147830000Y-109921199D01*
X147658302Y-110092897D01*
X147605439Y-110071000D01*
X147034561Y-110071000D01*
X146507138Y-110289466D01*
X146103466Y-110693138D01*
X145885000Y-111220561D01*
X145885000Y-111791439D01*
X146103466Y-112318862D01*
X146507138Y-112722534D01*
X147034561Y-112941000D01*
X147605439Y-112941000D01*
X148132862Y-112722534D01*
X148536534Y-112318862D01*
X148755000Y-111791439D01*
X148755000Y-111220561D01*
X148733103Y-111167698D01*
X148896001Y-111004800D01*
X148896001Y-127057064D01*
X148869523Y-127190179D01*
X148833737Y-127243737D01*
X148780179Y-127279523D01*
X148647069Y-127306000D01*
X89096931Y-127306000D01*
X88963821Y-127279523D01*
X88910263Y-127243737D01*
X88874477Y-127190179D01*
X88848000Y-127057069D01*
X88848000Y-78555931D01*
X88884144Y-78374223D01*
X88947461Y-78279461D01*
X89042223Y-78216144D01*
X89223930Y-78180000D01*
X148647069Y-78180000D01*
X148780179Y-78206477D01*
X148780179Y-78206477D01*
G37*
X148780179Y-78206477D02*
X148833737Y-78242263D01*
X148869523Y-78295821D01*
X148896000Y-78428931D01*
X148896000Y-80765198D01*
X146894331Y-78763530D01*
X146851929Y-78700071D01*
X146600537Y-78532096D01*
X146378852Y-78488000D01*
X146378847Y-78488000D01*
X146304000Y-78473112D01*
X146229153Y-78488000D01*
X105859711Y-78488000D01*
X105742280Y-78370569D01*
X105361874Y-78213000D01*
X104950126Y-78213000D01*
X104569720Y-78370569D01*
X104278569Y-78661720D01*
X104121000Y-79042126D01*
X104121000Y-79453874D01*
X104278569Y-79834280D01*
X104569720Y-80125431D01*
X104909084Y-80266000D01*
X94054848Y-80266000D01*
X93980000Y-80251112D01*
X93905152Y-80266000D01*
X93905148Y-80266000D01*
X93731605Y-80300520D01*
X93683462Y-80310096D01*
X93496418Y-80435076D01*
X93432071Y-80478071D01*
X93389671Y-80541527D01*
X89685530Y-84245669D01*
X89622071Y-84288071D01*
X89454096Y-84539464D01*
X89410000Y-84761149D01*
X89410000Y-84761153D01*
X89395112Y-84836000D01*
X89410000Y-84910847D01*
X89410001Y-95937144D01*
X89410000Y-95937149D01*
X89410001Y-105722288D01*
X89292569Y-105839720D01*
X89135000Y-106220126D01*
X89135000Y-106631874D01*
X89292569Y-107012280D01*
X89583720Y-107303431D01*
X89964126Y-107461000D01*
X90375874Y-107461000D01*
X90756280Y-107303431D01*
X91047431Y-107012280D01*
X91205000Y-106631874D01*
X91205000Y-106220126D01*
X91047431Y-105839720D01*
X90930000Y-105722289D01*
X90930000Y-86691223D01*
X91771035Y-86691223D01*
X91798222Y-87261454D01*
X91964136Y-87662005D01*
X92210255Y-87736139D01*
X93038395Y-86908000D01*
X92210255Y-86079861D01*
X91964136Y-86153995D01*
X91771035Y-86691223D01*
X90930000Y-86691223D01*
X90930000Y-85900255D01*
X92389861Y-85900255D01*
X93218000Y-86728395D01*
X94046139Y-85900255D01*
X93972005Y-85654136D01*
X93434777Y-85461035D01*
X92864546Y-85488222D01*
X92463995Y-85654136D01*
X92389861Y-85900255D01*
X90930000Y-85900255D01*
X90930000Y-85150801D01*
X91293056Y-84787745D01*
X108899861Y-84787745D01*
X108973995Y-85033864D01*
X109511223Y-85226965D01*
X110081454Y-85199778D01*
X110482005Y-85033864D01*
X110556139Y-84787745D01*
X109728000Y-83959605D01*
X108899861Y-84787745D01*
X91293056Y-84787745D01*
X94294802Y-81786000D01*
X101404343Y-81786000D01*
X101177680Y-82012663D01*
X100965000Y-82526119D01*
X100965000Y-83081881D01*
X101177680Y-83595337D01*
X101570663Y-83988320D01*
X102084119Y-84201000D01*
X102639881Y-84201000D01*
X103153337Y-83988320D01*
X103546320Y-83595337D01*
X103559622Y-83563223D01*
X108281035Y-83563223D01*
X108308222Y-84133454D01*
X108474136Y-84534005D01*
X108720255Y-84608139D01*
X109548395Y-83780000D01*
X109907605Y-83780000D01*
X110735745Y-84608139D01*
X110981864Y-84534005D01*
X111174965Y-83996777D01*
X111147778Y-83426546D01*
X110981864Y-83025995D01*
X110735745Y-82951861D01*
X109907605Y-83780000D01*
X109548395Y-83780000D01*
X108720255Y-82951861D01*
X108474136Y-83025995D01*
X108281035Y-83563223D01*
X103559622Y-83563223D01*
X103759000Y-83081881D01*
X103759000Y-82526119D01*
X103546320Y-82012663D01*
X103319657Y-81786000D01*
X108020685Y-81786000D01*
X108048701Y-81827929D01*
X108300093Y-81995904D01*
X108486678Y-82033018D01*
X108511466Y-82092862D01*
X108915138Y-82496534D01*
X108980299Y-82523525D01*
X108973995Y-82526136D01*
X108899861Y-82772255D01*
X109728000Y-83600395D01*
X110556139Y-82772255D01*
X110482005Y-82526136D01*
X110475254Y-82523710D01*
X110540862Y-82496534D01*
X110944534Y-82092862D01*
X111163000Y-81565439D01*
X111163000Y-80994561D01*
X110944534Y-80467138D01*
X110540862Y-80063466D01*
X110406955Y-80008000D01*
X145989199Y-80008000D01*
X147830001Y-81848803D01*
X147830000Y-101928851D01*
X147830001Y-101928856D01*
X147830000Y-105572333D01*
X147461333Y-105499000D01*
X147178667Y-105499000D01*
X146760091Y-105582260D01*
X146285423Y-105899423D01*
X145968260Y-106374091D01*
X145856887Y-106934000D01*
X145921312Y-107257886D01*
X144973199Y-108206000D01*
X140378955Y-108206000D01*
X140512862Y-108150534D01*
X140916534Y-107746862D01*
X141135000Y-107219439D01*
X141135000Y-106648561D01*
X140916534Y-106121138D01*
X140512862Y-105717466D01*
X139985439Y-105499000D01*
X139789801Y-105499000D01*
X142122071Y-103166731D01*
X142152191Y-103211809D01*
X142362235Y-103352157D01*
X142610000Y-103401440D01*
X142861518Y-103401440D01*
X142962072Y-103551929D01*
X143213464Y-103719904D01*
X143510000Y-103778889D01*
X143806537Y-103719904D01*
X144057929Y-103551929D01*
X144158483Y-103401440D01*
X144410000Y-103401440D01*
X144657765Y-103352157D01*
X144867809Y-103211809D01*
X145008157Y-103001765D01*
X145057440Y-102754000D01*
X145057440Y-100954000D01*
X145008157Y-100706235D01*
X144867809Y-100496191D01*
X144657765Y-100355843D01*
X144642092Y-100352725D01*
X144811310Y-100183507D01*
X145045000Y-99619330D01*
X145045000Y-99008670D01*
X144999640Y-98899161D01*
X145772473Y-98126329D01*
X145835929Y-98083929D01*
X145891031Y-98001463D01*
X146003904Y-97832538D01*
X146014553Y-97779000D01*
X146048000Y-97610852D01*
X146048000Y-97610848D01*
X146062888Y-97536000D01*
X146048000Y-97461152D01*
X146048000Y-91836765D01*
X146062888Y-91761918D01*
X146048000Y-91687071D01*
X146048000Y-91687067D01*
X146003904Y-91465382D01*
X145931934Y-91357671D01*
X145878329Y-91277445D01*
X145878327Y-91277443D01*
X145835929Y-91213990D01*
X145772476Y-91171592D01*
X145302411Y-90701529D01*
X145260010Y-90638071D01*
X145008618Y-90470096D01*
X144788369Y-90426286D01*
X144580625Y-90115375D01*
X144562381Y-90103184D01*
X144607765Y-90094157D01*
X144817809Y-89953809D01*
X144958157Y-89743765D01*
X145007440Y-89496000D01*
X145007440Y-87796000D01*
X144958157Y-87548235D01*
X144817809Y-87338191D01*
X144607765Y-87197843D01*
X144360000Y-87148560D01*
X142660000Y-87148560D01*
X142412235Y-87197843D01*
X142202191Y-87338191D01*
X142061843Y-87548235D01*
X142012560Y-87796000D01*
X142012560Y-89496000D01*
X142061843Y-89743765D01*
X142202191Y-89953809D01*
X142412235Y-90094157D01*
X142457619Y-90103184D01*
X142439375Y-90115375D01*
X142231822Y-90426000D01*
X139266848Y-90426000D01*
X139192000Y-90411112D01*
X139117152Y-90426000D01*
X139117148Y-90426000D01*
X138967510Y-90455765D01*
X138895462Y-90470096D01*
X138793333Y-90538337D01*
X138644071Y-90638071D01*
X138601671Y-90701527D01*
X138115199Y-91188000D01*
X137870043Y-91188000D01*
X137686577Y-90913423D01*
X137334242Y-90678000D01*
X137686577Y-90442577D01*
X138003740Y-89967909D01*
X138115113Y-89408000D01*
X138003740Y-88848091D01*
X137686577Y-88373423D01*
X137668000Y-88361010D01*
X137668000Y-86460063D01*
X137687904Y-86359999D01*
X137646927Y-86153995D01*
X137609051Y-85963577D01*
X137566655Y-85900126D01*
X137506075Y-85809463D01*
X137384495Y-85627505D01*
X137299663Y-85570822D01*
X136171180Y-84442339D01*
X136114495Y-84357505D01*
X135778423Y-84132949D01*
X135482065Y-84074000D01*
X135482063Y-84074000D01*
X135382000Y-84054096D01*
X135281937Y-84074000D01*
X129283396Y-84074000D01*
X129082862Y-83873466D01*
X129017701Y-83846475D01*
X129024005Y-83843864D01*
X129098139Y-83597745D01*
X128270000Y-82769605D01*
X127441861Y-83597745D01*
X127515995Y-83843864D01*
X127522746Y-83846290D01*
X127457138Y-83873466D01*
X127256604Y-84074000D01*
X125473396Y-84074000D01*
X125272862Y-83873466D01*
X125207701Y-83846475D01*
X125214005Y-83843864D01*
X125288139Y-83597745D01*
X124460000Y-82769605D01*
X123631861Y-83597745D01*
X123705995Y-83843864D01*
X123712746Y-83846290D01*
X123647138Y-83873466D01*
X123243466Y-84277138D01*
X123025000Y-84804561D01*
X123025000Y-85088160D01*
X122542337Y-85570823D01*
X122457506Y-85627505D01*
X122400823Y-85712337D01*
X122232950Y-85963577D01*
X122154096Y-86360000D01*
X122174001Y-86460068D01*
X122174000Y-88086530D01*
X118618000Y-84530530D01*
X118618000Y-84014421D01*
X118699765Y-83998157D01*
X118909809Y-83857809D01*
X119050157Y-83647765D01*
X119070739Y-83544292D01*
X119375076Y-83821645D01*
X119785110Y-83991476D01*
X120015000Y-83870155D01*
X120015000Y-82677000D01*
X120269000Y-82677000D01*
X120269000Y-83870155D01*
X120498890Y-83991476D01*
X120908924Y-83821645D01*
X121337183Y-83431358D01*
X121583486Y-82906892D01*
X121462819Y-82677000D01*
X120269000Y-82677000D01*
X120015000Y-82677000D01*
X119995000Y-82677000D01*
X119995000Y-82423000D01*
X120015000Y-82423000D01*
X120015000Y-81229845D01*
X120269000Y-81229845D01*
X120269000Y-82423000D01*
X121462819Y-82423000D01*
X121488946Y-82373223D01*
X123013035Y-82373223D01*
X123040222Y-82943454D01*
X123206136Y-83344005D01*
X123452255Y-83418139D01*
X124280395Y-82590000D01*
X124639605Y-82590000D01*
X125467745Y-83418139D01*
X125713864Y-83344005D01*
X125906965Y-82806777D01*
X125886295Y-82373223D01*
X126823035Y-82373223D01*
X126850222Y-82943454D01*
X127016136Y-83344005D01*
X127262255Y-83418139D01*
X128090395Y-82590000D01*
X128449605Y-82590000D01*
X129277745Y-83418139D01*
X129523864Y-83344005D01*
X129716965Y-82806777D01*
X129689778Y-82236546D01*
X129523864Y-81835995D01*
X129277745Y-81761861D01*
X128449605Y-82590000D01*
X128090395Y-82590000D01*
X127262255Y-81761861D01*
X127016136Y-81835995D01*
X126823035Y-82373223D01*
X125886295Y-82373223D01*
X125879778Y-82236546D01*
X125713864Y-81835995D01*
X125467745Y-81761861D01*
X124639605Y-82590000D01*
X124280395Y-82590000D01*
X123452255Y-81761861D01*
X123206136Y-81835995D01*
X123013035Y-82373223D01*
X121488946Y-82373223D01*
X121583486Y-82193108D01*
X121337183Y-81668642D01*
X121242392Y-81582255D01*
X123631861Y-81582255D01*
X124460000Y-82410395D01*
X125288139Y-81582255D01*
X127441861Y-81582255D01*
X128270000Y-82410395D01*
X129098139Y-81582255D01*
X129024005Y-81336136D01*
X128486777Y-81143035D01*
X127916546Y-81170222D01*
X127515995Y-81336136D01*
X127441861Y-81582255D01*
X125288139Y-81582255D01*
X125214005Y-81336136D01*
X124676777Y-81143035D01*
X124106546Y-81170222D01*
X123705995Y-81336136D01*
X123631861Y-81582255D01*
X121242392Y-81582255D01*
X120908924Y-81278355D01*
X120498890Y-81108524D01*
X120269000Y-81229845D01*
X120015000Y-81229845D01*
X119785110Y-81108524D01*
X119375076Y-81278355D01*
X119070739Y-81555708D01*
X119050157Y-81452235D01*
X118909809Y-81242191D01*
X118699765Y-81101843D01*
X118452000Y-81052560D01*
X116752000Y-81052560D01*
X116504235Y-81101843D01*
X116294191Y-81242191D01*
X116153843Y-81452235D01*
X116137579Y-81534000D01*
X114908063Y-81534000D01*
X114808000Y-81514096D01*
X114707936Y-81534000D01*
X114707935Y-81534000D01*
X114411577Y-81592949D01*
X114075505Y-81817505D01*
X114018822Y-81902337D01*
X109726160Y-86195000D01*
X109442561Y-86195000D01*
X108915138Y-86413466D01*
X108511466Y-86817138D01*
X108293000Y-87344561D01*
X108293000Y-87628159D01*
X105524338Y-90396822D01*
X105439506Y-90453505D01*
X105382823Y-90538337D01*
X105214950Y-90789577D01*
X105136096Y-91186000D01*
X105156001Y-91286068D01*
X105156001Y-92171010D01*
X105137423Y-92183423D01*
X104820260Y-92658091D01*
X104708887Y-93218000D01*
X104820260Y-93777909D01*
X105137423Y-94252577D01*
X105489758Y-94488000D01*
X105137423Y-94723423D01*
X104820260Y-95198091D01*
X104708887Y-95758000D01*
X104820260Y-96317909D01*
X105137423Y-96792577D01*
X105521108Y-97048947D01*
X105316866Y-97145611D01*
X104940959Y-97560577D01*
X104780096Y-97948961D01*
X104902085Y-98171000D01*
X106045000Y-98171000D01*
X106045000Y-98151000D01*
X106299000Y-98151000D01*
X106299000Y-98171000D01*
X107441915Y-98171000D01*
X107563904Y-97948961D01*
X107403041Y-97560577D01*
X107027134Y-97145611D01*
X106822892Y-97048947D01*
X107206577Y-96792577D01*
X107523740Y-96317909D01*
X107635113Y-95758000D01*
X107534066Y-95250000D01*
X108264887Y-95250000D01*
X108376260Y-95809909D01*
X108693423Y-96284577D01*
X109168091Y-96601740D01*
X109586667Y-96685000D01*
X109869333Y-96685000D01*
X110287909Y-96601740D01*
X110762577Y-96284577D01*
X111079740Y-95809909D01*
X111191113Y-95250000D01*
X111079740Y-94690091D01*
X110762577Y-94215423D01*
X110287909Y-93898260D01*
X109869333Y-93815000D01*
X109586667Y-93815000D01*
X109168091Y-93898260D01*
X108693423Y-94215423D01*
X108376260Y-94690091D01*
X108264887Y-95250000D01*
X107534066Y-95250000D01*
X107523740Y-95198091D01*
X107206577Y-94723423D01*
X106854242Y-94488000D01*
X107206577Y-94252577D01*
X107523740Y-93777909D01*
X107635113Y-93218000D01*
X107523740Y-92658091D01*
X107206577Y-92183423D01*
X107188000Y-92171010D01*
X107188000Y-91606840D01*
X109729841Y-89065000D01*
X110013439Y-89065000D01*
X110540862Y-88846534D01*
X110944534Y-88442862D01*
X111163000Y-87915439D01*
X111163000Y-87631840D01*
X115228841Y-83566000D01*
X116137579Y-83566000D01*
X116153843Y-83647765D01*
X116294191Y-83857809D01*
X116504235Y-83998157D01*
X116586000Y-84014421D01*
X116586000Y-84851307D01*
X116566096Y-84951370D01*
X116586000Y-85051433D01*
X116586000Y-85051434D01*
X116644949Y-85347792D01*
X116869505Y-85683865D01*
X116954340Y-85740550D01*
X121269452Y-90055663D01*
X121326135Y-90140495D01*
X121662207Y-90365051D01*
X121958565Y-90424000D01*
X121958566Y-90424000D01*
X122058630Y-90443904D01*
X122144850Y-90426754D01*
X122155423Y-90442577D01*
X122507758Y-90678000D01*
X122155423Y-90913423D01*
X121838260Y-91388091D01*
X121726887Y-91948000D01*
X121791312Y-92271886D01*
X121181528Y-92881671D01*
X121118072Y-92924071D01*
X121075672Y-92987527D01*
X121075671Y-92987528D01*
X120950097Y-93175463D01*
X120891112Y-93472000D01*
X120906001Y-93546852D01*
X120906000Y-103049153D01*
X120891112Y-103124000D01*
X120906000Y-103198847D01*
X120906000Y-103198851D01*
X120950096Y-103420536D01*
X121118071Y-103671929D01*
X121181530Y-103714331D01*
X121791312Y-104324114D01*
X121726887Y-104648000D01*
X121838260Y-105207909D01*
X122155423Y-105682577D01*
X122630091Y-105999740D01*
X123048667Y-106083000D01*
X123331333Y-106083000D01*
X123749909Y-105999740D01*
X124224577Y-105682577D01*
X124541740Y-105207909D01*
X124583684Y-104997039D01*
X127640096Y-104997039D01*
X127800959Y-105385423D01*
X128176866Y-105800389D01*
X128682959Y-106039914D01*
X128905000Y-105918629D01*
X128905000Y-104775000D01*
X129159000Y-104775000D01*
X129159000Y-105918629D01*
X129381041Y-106039914D01*
X129887134Y-105800389D01*
X130263041Y-105385423D01*
X130423904Y-104997039D01*
X130301915Y-104775000D01*
X129159000Y-104775000D01*
X128905000Y-104775000D01*
X127762085Y-104775000D01*
X127640096Y-104997039D01*
X124583684Y-104997039D01*
X124653113Y-104648000D01*
X124541740Y-104088091D01*
X124224577Y-103613423D01*
X123872242Y-103378000D01*
X124224577Y-103142577D01*
X124541740Y-102667909D01*
X124653113Y-102108000D01*
X124551668Y-101598000D01*
X127670332Y-101598000D01*
X127568887Y-102108000D01*
X127680260Y-102667909D01*
X127997423Y-103142577D01*
X128381108Y-103398947D01*
X128176866Y-103495611D01*
X127800959Y-103910577D01*
X127640096Y-104298961D01*
X127762085Y-104521000D01*
X128905000Y-104521000D01*
X128905000Y-104501000D01*
X129159000Y-104501000D01*
X129159000Y-104521000D01*
X130301915Y-104521000D01*
X130423904Y-104298961D01*
X130263041Y-103910577D01*
X129887134Y-103495611D01*
X129682892Y-103398947D01*
X130066577Y-103142577D01*
X130383740Y-102667909D01*
X130495113Y-102108000D01*
X130393668Y-101598000D01*
X131751153Y-101598000D01*
X131826000Y-101612888D01*
X131900847Y-101598000D01*
X131900852Y-101598000D01*
X132122537Y-101553904D01*
X132373929Y-101385929D01*
X132416331Y-101322470D01*
X133580473Y-100158329D01*
X133643929Y-100115929D01*
X133811904Y-99864537D01*
X133856000Y-99642852D01*
X133856000Y-99642848D01*
X133870888Y-99568001D01*
X133856000Y-99493154D01*
X133856000Y-98747711D01*
X133973431Y-98630280D01*
X134131000Y-98249874D01*
X134131000Y-97838126D01*
X133973431Y-97457720D01*
X133682280Y-97166569D01*
X133301874Y-97009000D01*
X132890126Y-97009000D01*
X132509720Y-97166569D01*
X132218569Y-97457720D01*
X132061000Y-97838126D01*
X132061000Y-98249874D01*
X132218569Y-98630280D01*
X132336001Y-98747712D01*
X132336000Y-99253198D01*
X131511199Y-100078000D01*
X130393668Y-100078000D01*
X130495113Y-99568000D01*
X130383740Y-99008091D01*
X130066577Y-98533423D01*
X129792000Y-98349957D01*
X129792000Y-98246043D01*
X130066577Y-98062577D01*
X130247358Y-97792019D01*
X130302000Y-97802888D01*
X130376847Y-97788000D01*
X130376852Y-97788000D01*
X130598537Y-97743904D01*
X130849929Y-97575929D01*
X130892330Y-97512471D01*
X131294475Y-97110327D01*
X131357929Y-97067929D01*
X131400327Y-97004476D01*
X131400329Y-97004474D01*
X131525903Y-96816538D01*
X131525904Y-96816537D01*
X131570000Y-96594852D01*
X131570000Y-96594848D01*
X131584888Y-96520001D01*
X131570000Y-96445154D01*
X131570000Y-93800848D01*
X131584888Y-93726000D01*
X131570000Y-93651152D01*
X131570000Y-93651148D01*
X131525904Y-93429463D01*
X131525904Y-93429462D01*
X131400329Y-93241527D01*
X131357929Y-93178071D01*
X131294473Y-93135671D01*
X130430688Y-92271886D01*
X130495113Y-91948000D01*
X130383740Y-91388091D01*
X130066577Y-90913423D01*
X129945894Y-90832785D01*
X130079765Y-90806157D01*
X130289809Y-90665809D01*
X130430157Y-90455765D01*
X130479440Y-90208000D01*
X130479440Y-88608000D01*
X130430157Y-88360235D01*
X130289809Y-88150191D01*
X130268571Y-88136000D01*
X133543199Y-88136000D01*
X134622000Y-89214803D01*
X134622001Y-98223148D01*
X134607112Y-98298000D01*
X134666097Y-98594537D01*
X134780713Y-98766071D01*
X134834072Y-98845929D01*
X134897528Y-98888329D01*
X135253312Y-99244113D01*
X135188887Y-99568000D01*
X135300260Y-100127909D01*
X135617423Y-100602577D01*
X135892001Y-100786044D01*
X135892000Y-100889956D01*
X135617423Y-101073423D01*
X135300260Y-101548091D01*
X135188887Y-102108000D01*
X135300260Y-102667909D01*
X135617423Y-103142577D01*
X135969758Y-103378000D01*
X135617423Y-103613423D01*
X135300260Y-104088091D01*
X135188887Y-104648000D01*
X135300260Y-105207909D01*
X135617423Y-105682577D01*
X136092091Y-105999740D01*
X136510667Y-106083000D01*
X136793333Y-106083000D01*
X137121469Y-106017730D01*
X136711199Y-106428000D01*
X129227711Y-106428000D01*
X129110280Y-106310569D01*
X128729874Y-106153000D01*
X128318126Y-106153000D01*
X127937720Y-106310569D01*
X127646569Y-106601720D01*
X127489000Y-106982126D01*
X127489000Y-107393874D01*
X127646569Y-107774280D01*
X127937720Y-108065431D01*
X128318126Y-108223000D01*
X128729874Y-108223000D01*
X129110280Y-108065431D01*
X129227711Y-107948000D01*
X136951153Y-107948000D01*
X137026000Y-107962888D01*
X137100847Y-107948000D01*
X137100852Y-107948000D01*
X137322537Y-107903904D01*
X137573929Y-107735929D01*
X137616331Y-107672470D01*
X138265000Y-107023801D01*
X138265000Y-107219439D01*
X138483466Y-107746862D01*
X138887138Y-108150534D01*
X139021045Y-108206000D01*
X139012848Y-108206000D01*
X138938000Y-108191112D01*
X138863152Y-108206000D01*
X138863148Y-108206000D01*
X138689605Y-108240520D01*
X138641462Y-108250096D01*
X138469789Y-108364805D01*
X138390071Y-108418071D01*
X138347671Y-108481527D01*
X137691528Y-109137671D01*
X137628072Y-109180071D01*
X137585672Y-109243527D01*
X137585671Y-109243528D01*
X137460097Y-109431463D01*
X137401112Y-109728000D01*
X137416001Y-109802851D01*
X137416000Y-110937198D01*
X134813199Y-113540000D01*
X133191430Y-113540000D01*
X133169534Y-113487138D01*
X132765862Y-113083466D01*
X132700701Y-113056475D01*
X132707005Y-113053864D01*
X132781139Y-112807745D01*
X131953000Y-111979605D01*
X131124861Y-112807745D01*
X131198995Y-113053864D01*
X131205746Y-113056290D01*
X131140138Y-113083466D01*
X130736466Y-113487138D01*
X130518000Y-114014561D01*
X130518000Y-114585439D01*
X130716227Y-115064000D01*
X129981802Y-115064000D01*
X129922688Y-115004886D01*
X129987113Y-114681000D01*
X129875740Y-114121091D01*
X129558577Y-113646423D01*
X129206242Y-113411000D01*
X129558577Y-113175577D01*
X129875740Y-112700909D01*
X129987113Y-112141000D01*
X129876165Y-111583223D01*
X130506035Y-111583223D01*
X130533222Y-112153454D01*
X130699136Y-112554005D01*
X130945255Y-112628139D01*
X131773395Y-111800000D01*
X132132605Y-111800000D01*
X132960745Y-112628139D01*
X133206864Y-112554005D01*
X133399965Y-112016777D01*
X133372778Y-111446546D01*
X133206864Y-111045995D01*
X132960745Y-110971861D01*
X132132605Y-111800000D01*
X131773395Y-111800000D01*
X130945255Y-110971861D01*
X130699136Y-111045995D01*
X130506035Y-111583223D01*
X129876165Y-111583223D01*
X129875740Y-111581091D01*
X129558577Y-111106423D01*
X129088392Y-110792255D01*
X131124861Y-110792255D01*
X131953000Y-111620395D01*
X132781139Y-110792255D01*
X132707005Y-110546136D01*
X132169777Y-110353035D01*
X131599546Y-110380222D01*
X131198995Y-110546136D01*
X131124861Y-110792255D01*
X129088392Y-110792255D01*
X129083909Y-110789260D01*
X128665333Y-110706000D01*
X128382667Y-110706000D01*
X127964091Y-110789260D01*
X127489423Y-111106423D01*
X127172260Y-111581091D01*
X127060887Y-112141000D01*
X127172260Y-112700909D01*
X127489423Y-113175577D01*
X127841758Y-113411000D01*
X127489423Y-113646423D01*
X127172260Y-114121091D01*
X127060887Y-114681000D01*
X127172260Y-115240909D01*
X127489423Y-115715577D01*
X127841758Y-115951000D01*
X127489423Y-116186423D01*
X127305957Y-116461000D01*
X123758803Y-116461000D01*
X122302688Y-115004886D01*
X122367113Y-114681000D01*
X122255740Y-114121091D01*
X121938577Y-113646423D01*
X121832082Y-113575265D01*
X122063698Y-113479327D01*
X122242327Y-113300699D01*
X122339000Y-113067310D01*
X122339000Y-112426750D01*
X122180250Y-112268000D01*
X121031000Y-112268000D01*
X121031000Y-112288000D01*
X120777000Y-112288000D01*
X120777000Y-112268000D01*
X120757000Y-112268000D01*
X120757000Y-112014000D01*
X120777000Y-112014000D01*
X120777000Y-110864750D01*
X121031000Y-110864750D01*
X121031000Y-112014000D01*
X122180250Y-112014000D01*
X122339000Y-111855250D01*
X122339000Y-111214690D01*
X122242327Y-110981301D01*
X122063698Y-110802673D01*
X121830309Y-110706000D01*
X121189750Y-110706000D01*
X121031000Y-110864750D01*
X120777000Y-110864750D01*
X120618250Y-110706000D01*
X120147330Y-110706000D01*
X120140000Y-110669152D01*
X120140000Y-110669148D01*
X120095904Y-110447463D01*
X120032809Y-110353035D01*
X119970329Y-110259526D01*
X119970327Y-110259524D01*
X119927929Y-110196071D01*
X119864476Y-110153673D01*
X118446331Y-108735530D01*
X118403929Y-108672071D01*
X118152537Y-108504096D01*
X117930852Y-108460000D01*
X117930847Y-108460000D01*
X117856000Y-108445112D01*
X117781153Y-108460000D01*
X112415027Y-108460000D01*
X112541000Y-108155874D01*
X112541000Y-107744126D01*
X112383431Y-107363720D01*
X112092280Y-107072569D01*
X111711874Y-106915000D01*
X111300126Y-106915000D01*
X110919720Y-107072569D01*
X110802289Y-107190000D01*
X110681711Y-107190000D01*
X110859431Y-107012280D01*
X111017000Y-106631874D01*
X111017000Y-106220126D01*
X110859431Y-105839720D01*
X110568280Y-105548569D01*
X110187874Y-105391000D01*
X109776126Y-105391000D01*
X109395720Y-105548569D01*
X109278289Y-105666000D01*
X107148874Y-105666000D01*
X107403041Y-105385423D01*
X107563904Y-104997039D01*
X107538130Y-104950126D01*
X111233000Y-104950126D01*
X111233000Y-105361874D01*
X111390569Y-105742280D01*
X111681720Y-106033431D01*
X112062126Y-106191000D01*
X112473874Y-106191000D01*
X112854280Y-106033431D01*
X113145431Y-105742280D01*
X113303000Y-105361874D01*
X113303000Y-104997039D01*
X114178096Y-104997039D01*
X114338959Y-105385423D01*
X114714866Y-105800389D01*
X115220959Y-106039914D01*
X115443000Y-105918629D01*
X115443000Y-104775000D01*
X115697000Y-104775000D01*
X115697000Y-105918629D01*
X115919041Y-106039914D01*
X116425134Y-105800389D01*
X116801041Y-105385423D01*
X116961904Y-104997039D01*
X116839915Y-104775000D01*
X115697000Y-104775000D01*
X115443000Y-104775000D01*
X114300085Y-104775000D01*
X114178096Y-104997039D01*
X113303000Y-104997039D01*
X113303000Y-104950126D01*
X113145431Y-104569720D01*
X113028000Y-104452289D01*
X113028000Y-91974801D01*
X114327058Y-90675743D01*
X114522235Y-90806157D01*
X114656106Y-90832785D01*
X114535423Y-90913423D01*
X114218260Y-91388091D01*
X114106887Y-91948000D01*
X114218260Y-92507909D01*
X114535423Y-92982577D01*
X114887758Y-93218000D01*
X114535423Y-93453423D01*
X114218260Y-93928091D01*
X114106887Y-94488000D01*
X114218260Y-95047909D01*
X114535423Y-95522577D01*
X114887758Y-95758000D01*
X114535423Y-95993423D01*
X114218260Y-96468091D01*
X114106887Y-97028000D01*
X114218260Y-97587909D01*
X114535423Y-98062577D01*
X114887758Y-98298000D01*
X114535423Y-98533423D01*
X114218260Y-99008091D01*
X114106887Y-99568000D01*
X114218260Y-100127909D01*
X114535423Y-100602577D01*
X114887758Y-100838000D01*
X114535423Y-101073423D01*
X114218260Y-101548091D01*
X114106887Y-102108000D01*
X114218260Y-102667909D01*
X114535423Y-103142577D01*
X114919108Y-103398947D01*
X114714866Y-103495611D01*
X114338959Y-103910577D01*
X114178096Y-104298961D01*
X114300085Y-104521000D01*
X115443000Y-104521000D01*
X115443000Y-104501000D01*
X115697000Y-104501000D01*
X115697000Y-104521000D01*
X116839915Y-104521000D01*
X116961904Y-104298961D01*
X116801041Y-103910577D01*
X116425134Y-103495611D01*
X116220892Y-103398947D01*
X116604577Y-103142577D01*
X116921740Y-102667909D01*
X117033113Y-102108000D01*
X116921740Y-101548091D01*
X116604577Y-101073423D01*
X116252242Y-100838000D01*
X116604577Y-100602577D01*
X116921740Y-100127909D01*
X117033113Y-99568000D01*
X116968688Y-99244114D01*
X117578476Y-98634327D01*
X117641929Y-98591929D01*
X117684327Y-98528476D01*
X117684329Y-98528474D01*
X117809903Y-98340538D01*
X117809904Y-98340537D01*
X117854000Y-98118852D01*
X117854000Y-98118848D01*
X117868888Y-98044001D01*
X117854000Y-97969154D01*
X117854000Y-96086846D01*
X117868888Y-96011999D01*
X117854000Y-95937152D01*
X117854000Y-95937148D01*
X117809904Y-95715463D01*
X117745883Y-95619649D01*
X117684329Y-95527526D01*
X117684327Y-95527524D01*
X117641929Y-95464071D01*
X117578476Y-95421673D01*
X116968688Y-94811886D01*
X117033113Y-94488000D01*
X116921740Y-93928091D01*
X116604577Y-93453423D01*
X116252242Y-93218000D01*
X116604577Y-92982577D01*
X116921740Y-92507909D01*
X117033113Y-91948000D01*
X116921740Y-91388091D01*
X116604577Y-90913423D01*
X116483894Y-90832785D01*
X116617765Y-90806157D01*
X116827809Y-90665809D01*
X116968157Y-90455765D01*
X117017440Y-90208000D01*
X117017440Y-88608000D01*
X116968157Y-88360235D01*
X116827809Y-88150191D01*
X116617765Y-88009843D01*
X116370000Y-87960560D01*
X114770000Y-87960560D01*
X114522235Y-88009843D01*
X114312191Y-88150191D01*
X114171843Y-88360235D01*
X114122560Y-88608000D01*
X114122560Y-88759517D01*
X113972071Y-88860071D01*
X113929671Y-88923527D01*
X111783528Y-91069671D01*
X111720072Y-91112071D01*
X111677672Y-91175527D01*
X111677671Y-91175528D01*
X111552097Y-91363463D01*
X111493112Y-91660000D01*
X111508001Y-91734852D01*
X111508000Y-104452289D01*
X111390569Y-104569720D01*
X111233000Y-104950126D01*
X107538130Y-104950126D01*
X107441915Y-104775000D01*
X106299000Y-104775000D01*
X106299000Y-104795000D01*
X106045000Y-104795000D01*
X106045000Y-104775000D01*
X104902085Y-104775000D01*
X104780096Y-104997039D01*
X104940959Y-105385423D01*
X105195126Y-105666000D01*
X100644802Y-105666000D01*
X99965103Y-104986302D01*
X99987000Y-104933439D01*
X99987000Y-104362561D01*
X99960656Y-104298961D01*
X104780096Y-104298961D01*
X104902085Y-104521000D01*
X106045000Y-104521000D01*
X106045000Y-103377371D01*
X106299000Y-103377371D01*
X106299000Y-104521000D01*
X107441915Y-104521000D01*
X107563904Y-104298961D01*
X107403041Y-103910577D01*
X107027134Y-103495611D01*
X106521041Y-103256086D01*
X106299000Y-103377371D01*
X106045000Y-103377371D01*
X105822959Y-103256086D01*
X105316866Y-103495611D01*
X104940959Y-103910577D01*
X104780096Y-104298961D01*
X99960656Y-104298961D01*
X99768534Y-103835138D01*
X99364862Y-103431466D01*
X99230955Y-103376000D01*
X104319153Y-103376000D01*
X104394000Y-103390888D01*
X104468847Y-103376000D01*
X104468852Y-103376000D01*
X104690537Y-103331904D01*
X104941929Y-103163929D01*
X104984331Y-103100470D01*
X105848114Y-102236688D01*
X106030667Y-102273000D01*
X106313333Y-102273000D01*
X106731909Y-102189740D01*
X107206577Y-101872577D01*
X107523740Y-101397909D01*
X107635113Y-100838000D01*
X107523740Y-100278091D01*
X107206577Y-99803423D01*
X106822892Y-99547053D01*
X107027134Y-99450389D01*
X107403041Y-99035423D01*
X107563904Y-98647039D01*
X107441915Y-98425000D01*
X106299000Y-98425000D01*
X106299000Y-98445000D01*
X106045000Y-98445000D01*
X106045000Y-98425000D01*
X104902085Y-98425000D01*
X104780096Y-98647039D01*
X104940959Y-99035423D01*
X105316866Y-99450389D01*
X105521108Y-99547053D01*
X105137423Y-99803423D01*
X104820260Y-100278091D01*
X104708887Y-100838000D01*
X104773312Y-101161886D01*
X104079199Y-101856000D01*
X99597653Y-101856000D01*
X99903740Y-101397909D01*
X100015113Y-100838000D01*
X99903740Y-100278091D01*
X99586577Y-99803423D01*
X99234242Y-99568000D01*
X99586577Y-99332577D01*
X99903740Y-98857909D01*
X100015113Y-98298000D01*
X99950688Y-97974113D01*
X102846473Y-95078329D01*
X102909929Y-95035929D01*
X102987650Y-94919611D01*
X103077904Y-94784538D01*
X103090060Y-94723423D01*
X103122000Y-94562852D01*
X103122000Y-94562848D01*
X103136888Y-94488000D01*
X103122000Y-94413152D01*
X103122000Y-87606119D01*
X103505000Y-87606119D01*
X103505000Y-88161881D01*
X103717680Y-88675337D01*
X104110663Y-89068320D01*
X104624119Y-89281000D01*
X105179881Y-89281000D01*
X105693337Y-89068320D01*
X106086320Y-88675337D01*
X106299000Y-88161881D01*
X106299000Y-87606119D01*
X106086320Y-87092663D01*
X105693337Y-86699680D01*
X105179881Y-86487000D01*
X104624119Y-86487000D01*
X104110663Y-86699680D01*
X103717680Y-87092663D01*
X103505000Y-87606119D01*
X103122000Y-87606119D01*
X103122000Y-86809711D01*
X103239431Y-86692280D01*
X103397000Y-86311874D01*
X103397000Y-85900126D01*
X103239431Y-85519720D01*
X102948280Y-85228569D01*
X102567874Y-85071000D01*
X102156126Y-85071000D01*
X101775720Y-85228569D01*
X101484569Y-85519720D01*
X101327000Y-85900126D01*
X101327000Y-86311874D01*
X101484569Y-86692280D01*
X101602001Y-86809712D01*
X101602000Y-94173198D01*
X100014595Y-95760603D01*
X100015113Y-95758000D01*
X99903740Y-95198091D01*
X99586577Y-94723423D01*
X99480082Y-94652265D01*
X99711698Y-94556327D01*
X99890327Y-94377699D01*
X99987000Y-94144310D01*
X99987000Y-93503750D01*
X99828250Y-93345000D01*
X98679000Y-93345000D01*
X98679000Y-93365000D01*
X98425000Y-93365000D01*
X98425000Y-93345000D01*
X97275750Y-93345000D01*
X97117000Y-93503750D01*
X97117000Y-94144310D01*
X97213673Y-94377699D01*
X97392302Y-94556327D01*
X97623918Y-94652265D01*
X97517423Y-94723423D01*
X97200260Y-95198091D01*
X97088887Y-95758000D01*
X97200260Y-96317909D01*
X97517423Y-96792577D01*
X97869758Y-97028000D01*
X97517423Y-97263423D01*
X97200260Y-97738091D01*
X97088887Y-98298000D01*
X97200260Y-98857909D01*
X97517423Y-99332577D01*
X97869758Y-99568000D01*
X97517423Y-99803423D01*
X97200260Y-100278091D01*
X97088887Y-100838000D01*
X97200260Y-101397909D01*
X97506347Y-101856000D01*
X96326802Y-101856000D01*
X95629000Y-101158199D01*
X95629000Y-96932930D01*
X95681862Y-96911034D01*
X96085534Y-96507362D01*
X96304000Y-95979939D01*
X96304000Y-95409061D01*
X96085534Y-94881638D01*
X95681862Y-94477966D01*
X95616701Y-94450975D01*
X95623005Y-94448364D01*
X95697139Y-94202245D01*
X94869000Y-93374105D01*
X94854858Y-93388248D01*
X94675252Y-93208642D01*
X94689395Y-93194500D01*
X95048605Y-93194500D01*
X95876745Y-94022639D01*
X96122864Y-93948505D01*
X96315965Y-93411277D01*
X96288778Y-92841046D01*
X96122864Y-92440495D01*
X95876745Y-92366361D01*
X95048605Y-93194500D01*
X94689395Y-93194500D01*
X94675252Y-93180358D01*
X94854858Y-93000752D01*
X94869000Y-93014895D01*
X95592204Y-92291690D01*
X97117000Y-92291690D01*
X97117000Y-92932250D01*
X97275750Y-93091000D01*
X98425000Y-93091000D01*
X98425000Y-91941750D01*
X98679000Y-91941750D01*
X98679000Y-93091000D01*
X99828250Y-93091000D01*
X99987000Y-92932250D01*
X99987000Y-92291690D01*
X99890327Y-92058301D01*
X99711698Y-91879673D01*
X99478309Y-91783000D01*
X98837750Y-91783000D01*
X98679000Y-91941750D01*
X98425000Y-91941750D01*
X98266250Y-91783000D01*
X97625691Y-91783000D01*
X97392302Y-91879673D01*
X97213673Y-92058301D01*
X97117000Y-92291690D01*
X95592204Y-92291690D01*
X95697139Y-92186755D01*
X95623005Y-91940636D01*
X95085777Y-91747535D01*
X94515546Y-91774722D01*
X94114995Y-91940636D01*
X94040861Y-92186753D01*
X93978000Y-92123892D01*
X93978000Y-90855440D01*
X94018000Y-90855440D01*
X94265765Y-90806157D01*
X94475809Y-90665809D01*
X94616157Y-90455765D01*
X94665440Y-90208000D01*
X94665440Y-89035362D01*
X95056803Y-88644000D01*
X98624700Y-88644000D01*
X98637680Y-88675337D01*
X99030663Y-89068320D01*
X99544119Y-89281000D01*
X100099881Y-89281000D01*
X100613337Y-89068320D01*
X101006320Y-88675337D01*
X101219000Y-88161881D01*
X101219000Y-87606119D01*
X101006320Y-87092663D01*
X100613337Y-86699680D01*
X100099881Y-86487000D01*
X99544119Y-86487000D01*
X99030663Y-86699680D01*
X98637680Y-87092663D01*
X98624700Y-87124000D01*
X94816846Y-87124000D01*
X94741999Y-87109112D01*
X94667152Y-87124000D01*
X94667148Y-87124000D01*
X94664949Y-87124437D01*
X94637778Y-86554546D01*
X94471864Y-86153995D01*
X94225745Y-86079861D01*
X93397605Y-86908000D01*
X93411748Y-86922142D01*
X93232142Y-87101748D01*
X93218000Y-87087605D01*
X92389861Y-87915745D01*
X92404187Y-87963307D01*
X92170235Y-88009843D01*
X91960191Y-88150191D01*
X91819843Y-88360235D01*
X91770560Y-88608000D01*
X91770560Y-90208000D01*
X91819843Y-90455765D01*
X91960191Y-90665809D01*
X92170235Y-90806157D01*
X92418000Y-90855440D01*
X92458000Y-90855440D01*
X92458001Y-106351148D01*
X92443112Y-106426000D01*
X92458001Y-106500851D01*
X92458001Y-106500852D01*
X92502097Y-106722537D01*
X92670072Y-106973929D01*
X92733528Y-107016329D01*
X95293881Y-109576682D01*
X94944091Y-109646260D01*
X94469423Y-109963423D01*
X94152260Y-110438091D01*
X94040887Y-110998000D01*
X94152260Y-111557909D01*
X94469423Y-112032577D01*
X94944091Y-112349740D01*
X95362667Y-112433000D01*
X95645333Y-112433000D01*
X95827886Y-112396688D01*
X96088674Y-112657477D01*
X96131072Y-112720930D01*
X96194525Y-112763328D01*
X96194527Y-112763330D01*
X96282477Y-112822096D01*
X96382464Y-112888905D01*
X96604149Y-112933001D01*
X96604153Y-112933001D01*
X96679000Y-112947889D01*
X96753847Y-112933001D01*
X97992388Y-112933001D01*
X97962260Y-112978091D01*
X97850887Y-113538000D01*
X97915312Y-113861886D01*
X97051528Y-114725671D01*
X96988072Y-114768071D01*
X96945672Y-114831527D01*
X96945671Y-114831528D01*
X96820097Y-115019463D01*
X96761112Y-115316000D01*
X96776001Y-115390851D01*
X96776000Y-116511153D01*
X96761112Y-116586000D01*
X96776000Y-116660847D01*
X96776000Y-116660851D01*
X96820096Y-116882536D01*
X96988071Y-117133929D01*
X97051530Y-117176331D01*
X97477198Y-117602000D01*
X96517396Y-117602000D01*
X96316862Y-117401466D01*
X95789439Y-117183000D01*
X95218561Y-117183000D01*
X94691138Y-117401466D01*
X94490604Y-117602000D01*
X92740990Y-117602000D01*
X92728577Y-117583423D01*
X92253909Y-117266260D01*
X91835333Y-117183000D01*
X91552667Y-117183000D01*
X91134091Y-117266260D01*
X90676000Y-117572347D01*
X90676000Y-113090801D01*
X91355698Y-112411103D01*
X91408561Y-112433000D01*
X91979439Y-112433000D01*
X92506862Y-112214534D01*
X92910534Y-111810862D01*
X93129000Y-111283439D01*
X93129000Y-110712561D01*
X92910534Y-110185138D01*
X92506862Y-109781466D01*
X91979439Y-109563000D01*
X91408561Y-109563000D01*
X90881138Y-109781466D01*
X90477466Y-110185138D01*
X90259000Y-110712561D01*
X90259000Y-111283439D01*
X90280897Y-111336302D01*
X89431528Y-112185671D01*
X89368072Y-112228071D01*
X89325672Y-112291527D01*
X89325671Y-112291528D01*
X89200097Y-112479463D01*
X89141112Y-112776000D01*
X89156001Y-112850852D01*
X89156000Y-120067153D01*
X89141112Y-120142000D01*
X89156000Y-120216847D01*
X89156000Y-120216851D01*
X89200096Y-120438536D01*
X89368071Y-120689929D01*
X89431530Y-120732331D01*
X92754673Y-124055476D01*
X92797071Y-124118929D01*
X92860524Y-124161327D01*
X92860526Y-124161329D01*
X92985902Y-124245102D01*
X93048463Y-124286904D01*
X93270148Y-124331000D01*
X93270152Y-124331000D01*
X93344999Y-124345888D01*
X93419846Y-124331000D01*
X109715560Y-124331000D01*
X109715560Y-124333000D01*
X109764843Y-124580765D01*
X109905191Y-124790809D01*
X110115235Y-124931157D01*
X110363000Y-124980440D01*
X111887000Y-124980440D01*
X112134765Y-124931157D01*
X112344809Y-124790809D01*
X112400996Y-124706720D01*
X112425857Y-124793397D01*
X112949302Y-124980144D01*
X113504368Y-124952362D01*
X113888143Y-124793397D01*
X113957608Y-124551213D01*
X113157000Y-123750605D01*
X113142858Y-123764748D01*
X112963253Y-123585143D01*
X112977395Y-123571000D01*
X113336605Y-123571000D01*
X113917521Y-124151916D01*
X114004680Y-124362337D01*
X114397663Y-124755320D01*
X114911119Y-124968000D01*
X115466881Y-124968000D01*
X115980337Y-124755320D01*
X116373320Y-124362337D01*
X116386300Y-124331000D01*
X137974153Y-124331000D01*
X138049000Y-124345888D01*
X138123847Y-124331000D01*
X138123852Y-124331000D01*
X138345537Y-124286904D01*
X138596929Y-124118929D01*
X138639331Y-124055470D01*
X139921588Y-122773213D01*
X141439392Y-122773213D01*
X141508857Y-123015397D01*
X142032302Y-123202144D01*
X142587368Y-123174362D01*
X142971143Y-123015397D01*
X143040608Y-122773213D01*
X142240000Y-121972605D01*
X141439392Y-122773213D01*
X139921588Y-122773213D01*
X140184473Y-122510329D01*
X140247929Y-122467929D01*
X140415904Y-122216537D01*
X140460000Y-121994852D01*
X140460000Y-121994848D01*
X140474888Y-121920000D01*
X140460000Y-121845152D01*
X140460000Y-121585302D01*
X140830856Y-121585302D01*
X140858638Y-122140368D01*
X141017603Y-122524143D01*
X141259787Y-122593608D01*
X142060395Y-121793000D01*
X142419605Y-121793000D01*
X143220213Y-122593608D01*
X143462397Y-122524143D01*
X143649144Y-122000698D01*
X143621362Y-121445632D01*
X143462397Y-121061857D01*
X143220213Y-120992392D01*
X142419605Y-121793000D01*
X142060395Y-121793000D01*
X141259787Y-120992392D01*
X141017603Y-121061857D01*
X140830856Y-121585302D01*
X140460000Y-121585302D01*
X140460000Y-120812787D01*
X141439392Y-120812787D01*
X142240000Y-121613395D01*
X143040608Y-120812787D01*
X142971143Y-120570603D01*
X142447698Y-120383856D01*
X141892632Y-120411638D01*
X141508857Y-120570603D01*
X141439392Y-120812787D01*
X140460000Y-120812787D01*
X140460000Y-116026043D01*
X140734577Y-115842577D01*
X141051740Y-115367909D01*
X141163113Y-114808000D01*
X141106336Y-114522561D01*
X145885000Y-114522561D01*
X145885000Y-115093439D01*
X146103466Y-115620862D01*
X146507138Y-116024534D01*
X147034561Y-116243000D01*
X147605439Y-116243000D01*
X148132862Y-116024534D01*
X148536534Y-115620862D01*
X148755000Y-115093439D01*
X148755000Y-114522561D01*
X148536534Y-113995138D01*
X148132862Y-113591466D01*
X147605439Y-113373000D01*
X147034561Y-113373000D01*
X146507138Y-113591466D01*
X146103466Y-113995138D01*
X145885000Y-114522561D01*
X141106336Y-114522561D01*
X141051740Y-114248091D01*
X140734577Y-113773423D01*
X140259909Y-113456260D01*
X139841333Y-113373000D01*
X139558667Y-113373000D01*
X139140091Y-113456260D01*
X138665423Y-113773423D01*
X138348260Y-114248091D01*
X138236887Y-114808000D01*
X138348260Y-115367909D01*
X138665423Y-115842577D01*
X138940001Y-116026044D01*
X138940000Y-121605198D01*
X138620500Y-121924698D01*
X138620500Y-121515119D01*
X138407820Y-121001663D01*
X138014837Y-120608680D01*
X137501381Y-120396000D01*
X136945619Y-120396000D01*
X136432163Y-120608680D01*
X136039180Y-121001663D01*
X135826500Y-121515119D01*
X135826500Y-122070881D01*
X136039180Y-122584337D01*
X136265843Y-122811000D01*
X116386300Y-122811000D01*
X116373320Y-122779663D01*
X115980337Y-122386680D01*
X115466881Y-122174000D01*
X114911119Y-122174000D01*
X114397663Y-122386680D01*
X114004680Y-122779663D01*
X113917521Y-122990084D01*
X113336605Y-123571000D01*
X112977395Y-123571000D01*
X112963253Y-123556858D01*
X113142858Y-123377253D01*
X113157000Y-123391395D01*
X113957608Y-122590787D01*
X113888143Y-122348603D01*
X113393131Y-122172000D01*
X126798153Y-122172000D01*
X126873000Y-122186888D01*
X126947847Y-122172000D01*
X126947852Y-122172000D01*
X127169537Y-122127904D01*
X127420929Y-121959929D01*
X127463331Y-121896470D01*
X128200114Y-121159688D01*
X128382667Y-121196000D01*
X128665333Y-121196000D01*
X129083909Y-121112740D01*
X129558577Y-120795577D01*
X129875740Y-120320909D01*
X129987113Y-119761000D01*
X129875740Y-119201091D01*
X129558577Y-118726423D01*
X129206242Y-118491000D01*
X129558577Y-118255577D01*
X129875740Y-117780909D01*
X129987113Y-117221000D01*
X129875740Y-116661091D01*
X129824229Y-116584000D01*
X135307153Y-116584000D01*
X135382000Y-116598888D01*
X135456847Y-116584000D01*
X135456852Y-116584000D01*
X135678537Y-116539904D01*
X135929929Y-116371929D01*
X135972331Y-116308470D01*
X139376114Y-112904688D01*
X139558667Y-112941000D01*
X139841333Y-112941000D01*
X140259909Y-112857740D01*
X140734577Y-112540577D01*
X141051740Y-112065909D01*
X141163113Y-111506000D01*
X141051740Y-110946091D01*
X140734577Y-110471423D01*
X140259909Y-110154260D01*
X139841333Y-110071000D01*
X139558667Y-110071000D01*
X139140091Y-110154260D01*
X138936000Y-110290629D01*
X138936000Y-110042801D01*
X139252802Y-109726000D01*
X145213153Y-109726000D01*
X145288000Y-109740888D01*
X145362847Y-109726000D01*
X145362852Y-109726000D01*
X145584537Y-109681904D01*
X145835929Y-109513929D01*
X145878331Y-109450470D01*
X146996114Y-108332688D01*
X147178667Y-108369000D01*
X147461333Y-108369000D01*
X147830000Y-108295667D01*
X147830000Y-109294851D01*
X147830001Y-109294855D01*
X147830000Y-109921199D01*
X147658302Y-110092897D01*
X147605439Y-110071000D01*
X147034561Y-110071000D01*
X146507138Y-110289466D01*
X146103466Y-110693138D01*
X145885000Y-111220561D01*
X145885000Y-111791439D01*
X146103466Y-112318862D01*
X146507138Y-112722534D01*
X147034561Y-112941000D01*
X147605439Y-112941000D01*
X148132862Y-112722534D01*
X148536534Y-112318862D01*
X148755000Y-111791439D01*
X148755000Y-111220561D01*
X148733103Y-111167698D01*
X148896001Y-111004800D01*
X148896001Y-127057064D01*
X148869523Y-127190179D01*
X148833737Y-127243737D01*
X148780179Y-127279523D01*
X148647069Y-127306000D01*
X89096931Y-127306000D01*
X88963821Y-127279523D01*
X88910263Y-127243737D01*
X88874477Y-127190179D01*
X88848000Y-127057069D01*
X88848000Y-78555931D01*
X88884144Y-78374223D01*
X88947461Y-78279461D01*
X89042223Y-78216144D01*
X89223930Y-78180000D01*
X148647069Y-78180000D01*
X148780179Y-78206477D01*
G36*
X117602000Y-112434841D02*
X117602001Y-117374932D01*
X117582096Y-117475000D01*
X117660950Y-117871423D01*
X117686370Y-117909466D01*
X117885506Y-118207495D01*
X117970338Y-118264178D01*
X119445246Y-119739086D01*
X119440887Y-119761000D01*
X119552260Y-120320909D01*
X119773488Y-120652000D01*
X111705433Y-120652000D01*
X111222414Y-120168982D01*
X111452534Y-119938862D01*
X111671000Y-119411439D01*
X111671000Y-118840561D01*
X111452534Y-118313138D01*
X111048862Y-117909466D01*
X110983701Y-117882475D01*
X110990005Y-117879864D01*
X111064139Y-117633745D01*
X110236000Y-116805605D01*
X109407861Y-117633745D01*
X109481995Y-117879864D01*
X109488746Y-117882290D01*
X109423138Y-117909466D01*
X109019466Y-118313138D01*
X108801000Y-118840561D01*
X108801000Y-119411439D01*
X109019466Y-119938862D01*
X109423138Y-120342534D01*
X109482983Y-120367323D01*
X109520097Y-120553907D01*
X109688072Y-120805299D01*
X109751528Y-120847699D01*
X110800303Y-121896475D01*
X110842701Y-121959929D01*
X110906154Y-122002327D01*
X110906156Y-122002329D01*
X111008752Y-122070881D01*
X111094093Y-122127904D01*
X111263293Y-122161560D01*
X110363000Y-122161560D01*
X110115235Y-122210843D01*
X109905191Y-122351191D01*
X109764843Y-122561235D01*
X109715560Y-122809000D01*
X109715560Y-122811000D01*
X106934512Y-122811000D01*
X107007880Y-122633874D01*
X107007880Y-122222126D01*
X106850311Y-121841720D01*
X106559160Y-121550569D01*
X106178754Y-121393000D01*
X105990498Y-121393000D01*
X105891963Y-121327161D01*
X101333332Y-116768531D01*
X101290930Y-116705072D01*
X101039538Y-116537097D01*
X100817853Y-116493001D01*
X100817848Y-116493001D01*
X100743001Y-116478113D01*
X100695652Y-116487531D01*
X100777113Y-116078000D01*
X100665740Y-115518091D01*
X100348577Y-115043423D01*
X99996242Y-114808000D01*
X100348577Y-114572577D01*
X100665740Y-114097909D01*
X100777113Y-113538000D01*
X100665740Y-112978091D01*
X100635612Y-112933001D01*
X105612388Y-112933001D01*
X105582260Y-112978091D01*
X105470887Y-113538000D01*
X105582260Y-114097909D01*
X105899423Y-114572577D01*
X106174001Y-114756044D01*
X106174000Y-114859956D01*
X105899423Y-115043423D01*
X105582260Y-115518091D01*
X105470887Y-116078000D01*
X105582260Y-116637909D01*
X105899423Y-117112577D01*
X106251758Y-117348000D01*
X105899423Y-117583423D01*
X105582260Y-118058091D01*
X105470887Y-118618000D01*
X105582260Y-119177909D01*
X105899423Y-119652577D01*
X106374091Y-119969740D01*
X106792667Y-120053000D01*
X107075333Y-120053000D01*
X107493909Y-119969740D01*
X107968577Y-119652577D01*
X108285740Y-119177909D01*
X108397113Y-118618000D01*
X108285740Y-118058091D01*
X107968577Y-117583423D01*
X107616242Y-117348000D01*
X107968577Y-117112577D01*
X108285740Y-116637909D01*
X108331228Y-116409223D01*
X108789035Y-116409223D01*
X108816222Y-116979454D01*
X108982136Y-117380005D01*
X109228255Y-117454139D01*
X110056395Y-116626000D01*
X110415605Y-116626000D01*
X111243745Y-117454139D01*
X111489864Y-117380005D01*
X111682965Y-116842777D01*
X111655778Y-116272546D01*
X111489864Y-115871995D01*
X111243745Y-115797861D01*
X110415605Y-116626000D01*
X110056395Y-116626000D01*
X109228255Y-115797861D01*
X108982136Y-115871995D01*
X108789035Y-116409223D01*
X108331228Y-116409223D01*
X108397113Y-116078000D01*
X108305664Y-115618255D01*
X109407861Y-115618255D01*
X110236000Y-116446395D01*
X111064139Y-115618255D01*
X110990005Y-115372136D01*
X110452777Y-115179035D01*
X109882546Y-115206222D01*
X109481995Y-115372136D01*
X109407861Y-115618255D01*
X108305664Y-115618255D01*
X108285740Y-115518091D01*
X107968577Y-115043423D01*
X107694000Y-114859957D01*
X107694000Y-114756043D01*
X107968577Y-114572577D01*
X108285740Y-114097909D01*
X108397113Y-113538000D01*
X108285740Y-112978091D01*
X108255612Y-112933001D01*
X109064200Y-112933001D01*
X115551000Y-119419802D01*
X115551000Y-119585874D01*
X115708569Y-119966280D01*
X115999720Y-120257431D01*
X116380126Y-120415000D01*
X116791874Y-120415000D01*
X117172280Y-120257431D01*
X117463431Y-119966280D01*
X117621000Y-119585874D01*
X117621000Y-119174126D01*
X117463431Y-118793720D01*
X117172280Y-118502569D01*
X116791874Y-118345000D01*
X116625802Y-118345000D01*
X110294801Y-112014000D01*
X117181160Y-112014000D01*
X117602000Y-112434841D01*
X117602000Y-112434841D01*
G37*
X117602000Y-112434841D02*
X117602001Y-117374932D01*
X117582096Y-117475000D01*
X117660950Y-117871423D01*
X117686370Y-117909466D01*
X117885506Y-118207495D01*
X117970338Y-118264178D01*
X119445246Y-119739086D01*
X119440887Y-119761000D01*
X119552260Y-120320909D01*
X119773488Y-120652000D01*
X111705433Y-120652000D01*
X111222414Y-120168982D01*
X111452534Y-119938862D01*
X111671000Y-119411439D01*
X111671000Y-118840561D01*
X111452534Y-118313138D01*
X111048862Y-117909466D01*
X110983701Y-117882475D01*
X110990005Y-117879864D01*
X111064139Y-117633745D01*
X110236000Y-116805605D01*
X109407861Y-117633745D01*
X109481995Y-117879864D01*
X109488746Y-117882290D01*
X109423138Y-117909466D01*
X109019466Y-118313138D01*
X108801000Y-118840561D01*
X108801000Y-119411439D01*
X109019466Y-119938862D01*
X109423138Y-120342534D01*
X109482983Y-120367323D01*
X109520097Y-120553907D01*
X109688072Y-120805299D01*
X109751528Y-120847699D01*
X110800303Y-121896475D01*
X110842701Y-121959929D01*
X110906154Y-122002327D01*
X110906156Y-122002329D01*
X111008752Y-122070881D01*
X111094093Y-122127904D01*
X111263293Y-122161560D01*
X110363000Y-122161560D01*
X110115235Y-122210843D01*
X109905191Y-122351191D01*
X109764843Y-122561235D01*
X109715560Y-122809000D01*
X109715560Y-122811000D01*
X106934512Y-122811000D01*
X107007880Y-122633874D01*
X107007880Y-122222126D01*
X106850311Y-121841720D01*
X106559160Y-121550569D01*
X106178754Y-121393000D01*
X105990498Y-121393000D01*
X105891963Y-121327161D01*
X101333332Y-116768531D01*
X101290930Y-116705072D01*
X101039538Y-116537097D01*
X100817853Y-116493001D01*
X100817848Y-116493001D01*
X100743001Y-116478113D01*
X100695652Y-116487531D01*
X100777113Y-116078000D01*
X100665740Y-115518091D01*
X100348577Y-115043423D01*
X99996242Y-114808000D01*
X100348577Y-114572577D01*
X100665740Y-114097909D01*
X100777113Y-113538000D01*
X100665740Y-112978091D01*
X100635612Y-112933001D01*
X105612388Y-112933001D01*
X105582260Y-112978091D01*
X105470887Y-113538000D01*
X105582260Y-114097909D01*
X105899423Y-114572577D01*
X106174001Y-114756044D01*
X106174000Y-114859956D01*
X105899423Y-115043423D01*
X105582260Y-115518091D01*
X105470887Y-116078000D01*
X105582260Y-116637909D01*
X105899423Y-117112577D01*
X106251758Y-117348000D01*
X105899423Y-117583423D01*
X105582260Y-118058091D01*
X105470887Y-118618000D01*
X105582260Y-119177909D01*
X105899423Y-119652577D01*
X106374091Y-119969740D01*
X106792667Y-120053000D01*
X107075333Y-120053000D01*
X107493909Y-119969740D01*
X107968577Y-119652577D01*
X108285740Y-119177909D01*
X108397113Y-118618000D01*
X108285740Y-118058091D01*
X107968577Y-117583423D01*
X107616242Y-117348000D01*
X107968577Y-117112577D01*
X108285740Y-116637909D01*
X108331228Y-116409223D01*
X108789035Y-116409223D01*
X108816222Y-116979454D01*
X108982136Y-117380005D01*
X109228255Y-117454139D01*
X110056395Y-116626000D01*
X110415605Y-116626000D01*
X111243745Y-117454139D01*
X111489864Y-117380005D01*
X111682965Y-116842777D01*
X111655778Y-116272546D01*
X111489864Y-115871995D01*
X111243745Y-115797861D01*
X110415605Y-116626000D01*
X110056395Y-116626000D01*
X109228255Y-115797861D01*
X108982136Y-115871995D01*
X108789035Y-116409223D01*
X108331228Y-116409223D01*
X108397113Y-116078000D01*
X108305664Y-115618255D01*
X109407861Y-115618255D01*
X110236000Y-116446395D01*
X111064139Y-115618255D01*
X110990005Y-115372136D01*
X110452777Y-115179035D01*
X109882546Y-115206222D01*
X109481995Y-115372136D01*
X109407861Y-115618255D01*
X108305664Y-115618255D01*
X108285740Y-115518091D01*
X107968577Y-115043423D01*
X107694000Y-114859957D01*
X107694000Y-114756043D01*
X107968577Y-114572577D01*
X108285740Y-114097909D01*
X108397113Y-113538000D01*
X108285740Y-112978091D01*
X108255612Y-112933001D01*
X109064200Y-112933001D01*
X115551000Y-119419802D01*
X115551000Y-119585874D01*
X115708569Y-119966280D01*
X115999720Y-120257431D01*
X116380126Y-120415000D01*
X116791874Y-120415000D01*
X117172280Y-120257431D01*
X117463431Y-119966280D01*
X117621000Y-119585874D01*
X117621000Y-119174126D01*
X117463431Y-118793720D01*
X117172280Y-118502569D01*
X116791874Y-118345000D01*
X116625802Y-118345000D01*
X110294801Y-112014000D01*
X117181160Y-112014000D01*
X117602000Y-112434841D01*
G36*
X97879000Y-110071690D02*
X97879000Y-110712250D01*
X98037750Y-110871000D01*
X99187000Y-110871000D01*
X99187000Y-110851000D01*
X99441000Y-110851000D01*
X99441000Y-110871000D01*
X100590250Y-110871000D01*
X100749000Y-110712250D01*
X100749000Y-110071690D01*
X100711021Y-109980000D01*
X105888347Y-109980000D01*
X105582260Y-110438091D01*
X105470887Y-110998000D01*
X105553436Y-111413001D01*
X100749000Y-111413001D01*
X100749000Y-111283750D01*
X100590250Y-111125000D01*
X99441000Y-111125000D01*
X99441000Y-111145000D01*
X99187000Y-111145000D01*
X99187000Y-111125000D01*
X98037750Y-111125000D01*
X97879000Y-111283750D01*
X97879000Y-111413001D01*
X96993804Y-111413001D01*
X96902688Y-111321886D01*
X96967113Y-110998000D01*
X96855740Y-110438091D01*
X96549653Y-109980000D01*
X97916979Y-109980000D01*
X97879000Y-110071690D01*
X97879000Y-110071690D01*
G37*
X97879000Y-110071690D02*
X97879000Y-110712250D01*
X98037750Y-110871000D01*
X99187000Y-110871000D01*
X99187000Y-110851000D01*
X99441000Y-110851000D01*
X99441000Y-110871000D01*
X100590250Y-110871000D01*
X100749000Y-110712250D01*
X100749000Y-110071690D01*
X100711021Y-109980000D01*
X105888347Y-109980000D01*
X105582260Y-110438091D01*
X105470887Y-110998000D01*
X105553436Y-111413001D01*
X100749000Y-111413001D01*
X100749000Y-111283750D01*
X100590250Y-111125000D01*
X99441000Y-111125000D01*
X99441000Y-111145000D01*
X99187000Y-111145000D01*
X99187000Y-111125000D01*
X98037750Y-111125000D01*
X97879000Y-111283750D01*
X97879000Y-111413001D01*
X96993804Y-111413001D01*
X96902688Y-111321886D01*
X96967113Y-110998000D01*
X96855740Y-110438091D01*
X96549653Y-109980000D01*
X97916979Y-109980000D01*
X97879000Y-110071690D01*
G04 #@! TD*
M02*
