G04 #@! TF.GenerationSoftware,KiCad,Pcbnew,5.0.2-bee76a0~70~ubuntu16.04.1*
G04 #@! TF.CreationDate,2020-01-09T22:15:49-06:00*
G04 #@! TF.ProjectId,8-Bit-Computer-Clock-Module,382d4269-742d-4436-9f6d-70757465722d,rev?*
G04 #@! TF.SameCoordinates,Original*
G04 #@! TF.FileFunction,Legend,Top*
G04 #@! TF.FilePolarity,Positive*
%FSLAX46Y46*%
G04 Gerber Fmt 4.6, Leading zero omitted, Abs format (unit mm)*
G04 Created by KiCad (PCBNEW 5.0.2-bee76a0~70~ubuntu16.04.1) date jue 09 ene 2020 22:15:49 CST*
%MOMM*%
%LPD*%
G01*
G04 APERTURE LIST*
%ADD10C,0.150000*%
%ADD11C,0.300000*%
%ADD12C,0.120000*%
%ADD13C,0.203200*%
G04 APERTURE END LIST*
D10*
X119769000Y-80009904D02*
X119721380Y-80105142D01*
X119721380Y-80248000D01*
X119769000Y-80390857D01*
X119864238Y-80486095D01*
X119959476Y-80533714D01*
X120149952Y-80581333D01*
X120292809Y-80581333D01*
X120483285Y-80533714D01*
X120578523Y-80486095D01*
X120673761Y-80390857D01*
X120721380Y-80248000D01*
X120721380Y-80152761D01*
X120673761Y-80009904D01*
X120626142Y-79962285D01*
X120292809Y-79962285D01*
X120292809Y-80152761D01*
X120721380Y-79533714D02*
X119721380Y-79533714D01*
X120721380Y-78962285D01*
X119721380Y-78962285D01*
X120721380Y-78486095D02*
X119721380Y-78486095D01*
X119721380Y-78248000D01*
X119769000Y-78105142D01*
X119864238Y-78009904D01*
X119959476Y-77962285D01*
X120149952Y-77914666D01*
X120292809Y-77914666D01*
X120483285Y-77962285D01*
X120578523Y-78009904D01*
X120673761Y-78105142D01*
X120721380Y-78248000D01*
X120721380Y-78486095D01*
X117054380Y-80581333D02*
X118054380Y-80248000D01*
X117054380Y-79914666D01*
X117959142Y-79009904D02*
X118006761Y-79057523D01*
X118054380Y-79200380D01*
X118054380Y-79295619D01*
X118006761Y-79438476D01*
X117911523Y-79533714D01*
X117816285Y-79581333D01*
X117625809Y-79628952D01*
X117482952Y-79628952D01*
X117292476Y-79581333D01*
X117197238Y-79533714D01*
X117102000Y-79438476D01*
X117054380Y-79295619D01*
X117054380Y-79200380D01*
X117102000Y-79057523D01*
X117149619Y-79009904D01*
X117959142Y-78009904D02*
X118006761Y-78057523D01*
X118054380Y-78200380D01*
X118054380Y-78295619D01*
X118006761Y-78438476D01*
X117911523Y-78533714D01*
X117816285Y-78581333D01*
X117625809Y-78628952D01*
X117482952Y-78628952D01*
X117292476Y-78581333D01*
X117197238Y-78533714D01*
X117102000Y-78438476D01*
X117054380Y-78295619D01*
X117054380Y-78200380D01*
X117102000Y-78057523D01*
X117149619Y-78009904D01*
X145510428Y-92811000D02*
X146558047Y-92811000D01*
X145939000Y-93178380D02*
X146129476Y-93178380D01*
X146224714Y-93226000D01*
X146319952Y-93321238D01*
X146367571Y-93511714D01*
X146367571Y-93845047D01*
X146319952Y-94035523D01*
X146224714Y-94130761D01*
X146129476Y-94178380D01*
X145939000Y-94178380D01*
X145843761Y-94130761D01*
X145748523Y-94035523D01*
X145700904Y-93845047D01*
X145700904Y-93511714D01*
X145748523Y-93321238D01*
X145843761Y-93226000D01*
X145939000Y-93178380D01*
X146558047Y-92811000D02*
X147605666Y-92811000D01*
X146796142Y-93178380D02*
X146796142Y-93987904D01*
X146843761Y-94083142D01*
X146891380Y-94130761D01*
X146986619Y-94178380D01*
X147177095Y-94178380D01*
X147272333Y-94130761D01*
X147319952Y-94083142D01*
X147367571Y-93987904D01*
X147367571Y-93178380D01*
X147605666Y-92811000D02*
X148367571Y-92811000D01*
X147700904Y-93178380D02*
X148272333Y-93178380D01*
X147986619Y-94178380D02*
X147986619Y-93178380D01*
X145939000Y-90638380D02*
X146129476Y-90638380D01*
X146224714Y-90686000D01*
X146319952Y-90781238D01*
X146367571Y-90971714D01*
X146367571Y-91305047D01*
X146319952Y-91495523D01*
X146224714Y-91590761D01*
X146129476Y-91638380D01*
X145939000Y-91638380D01*
X145843761Y-91590761D01*
X145748523Y-91495523D01*
X145700904Y-91305047D01*
X145700904Y-90971714D01*
X145748523Y-90781238D01*
X145843761Y-90686000D01*
X145939000Y-90638380D01*
X146796142Y-90638380D02*
X146796142Y-91447904D01*
X146843761Y-91543142D01*
X146891380Y-91590761D01*
X146986619Y-91638380D01*
X147177095Y-91638380D01*
X147272333Y-91590761D01*
X147319952Y-91543142D01*
X147367571Y-91447904D01*
X147367571Y-90638380D01*
X147700904Y-90638380D02*
X148272333Y-90638380D01*
X147986619Y-91638380D02*
X147986619Y-90638380D01*
X145629476Y-87731000D02*
X146677095Y-87731000D01*
X145867571Y-89098380D02*
X145867571Y-88098380D01*
X145867571Y-88574571D02*
X146439000Y-88574571D01*
X146439000Y-89098380D02*
X146439000Y-88098380D01*
X146677095Y-87731000D02*
X147486619Y-87731000D01*
X147391380Y-89098380D02*
X146915190Y-89098380D01*
X146915190Y-88098380D01*
X147486619Y-87731000D02*
X148248523Y-87731000D01*
X147581857Y-88098380D02*
X148153285Y-88098380D01*
X147867571Y-89098380D02*
X147867571Y-88098380D01*
D11*
X135866857Y-80577571D02*
X135866857Y-81863285D01*
X135795428Y-82006142D01*
X135652571Y-82077571D01*
X135581142Y-82077571D01*
X135866857Y-80077571D02*
X135795428Y-80149000D01*
X135866857Y-80220428D01*
X135938285Y-80149000D01*
X135866857Y-80077571D01*
X135866857Y-80220428D01*
X136795428Y-81577571D02*
X136652571Y-81506142D01*
X136581142Y-81434714D01*
X136509714Y-81291857D01*
X136509714Y-80863285D01*
X136581142Y-80720428D01*
X136652571Y-80649000D01*
X136795428Y-80577571D01*
X137009714Y-80577571D01*
X137152571Y-80649000D01*
X137224000Y-80720428D01*
X137295428Y-80863285D01*
X137295428Y-81291857D01*
X137224000Y-81434714D01*
X137152571Y-81506142D01*
X137009714Y-81577571D01*
X136795428Y-81577571D01*
X137938285Y-81577571D02*
X137938285Y-80077571D01*
X138581142Y-81577571D02*
X138581142Y-80791857D01*
X138509714Y-80649000D01*
X138366857Y-80577571D01*
X138152571Y-80577571D01*
X138009714Y-80649000D01*
X137938285Y-80720428D01*
X139295428Y-80577571D02*
X139295428Y-81577571D01*
X139295428Y-80720428D02*
X139366857Y-80649000D01*
X139509714Y-80577571D01*
X139724000Y-80577571D01*
X139866857Y-80649000D01*
X139938285Y-80791857D01*
X139938285Y-81577571D01*
X140652571Y-80577571D02*
X140652571Y-81577571D01*
X140652571Y-80720428D02*
X140724000Y-80649000D01*
X140866857Y-80577571D01*
X141081142Y-80577571D01*
X141224000Y-80649000D01*
X141295428Y-80791857D01*
X141295428Y-81577571D01*
X141866857Y-80577571D02*
X142224000Y-81577571D01*
X142581142Y-80577571D02*
X142224000Y-81577571D01*
X142081142Y-81934714D01*
X142009714Y-82006142D01*
X141866857Y-82077571D01*
X143152571Y-81577571D02*
X143152571Y-80577571D01*
X143152571Y-80863285D02*
X143224000Y-80720428D01*
X143295428Y-80649000D01*
X143438285Y-80577571D01*
X143581142Y-80577571D01*
X144009714Y-81506142D02*
X144152571Y-81577571D01*
X144438285Y-81577571D01*
X144581142Y-81506142D01*
X144652571Y-81363285D01*
X144652571Y-81291857D01*
X144581142Y-81149000D01*
X144438285Y-81077571D01*
X144224000Y-81077571D01*
X144081142Y-81006142D01*
X144009714Y-80863285D01*
X144009714Y-80791857D01*
X144081142Y-80649000D01*
X144224000Y-80577571D01*
X144438285Y-80577571D01*
X144581142Y-80649000D01*
X145295428Y-81577571D02*
X145295428Y-80577571D01*
X145295428Y-80720428D02*
X145366857Y-80649000D01*
X145509714Y-80577571D01*
X145724000Y-80577571D01*
X145866857Y-80649000D01*
X145938285Y-80791857D01*
X145938285Y-81577571D01*
X145938285Y-80791857D02*
X146009714Y-80649000D01*
X146152571Y-80577571D01*
X146366857Y-80577571D01*
X146509714Y-80649000D01*
X146581142Y-80791857D01*
X146581142Y-81577571D01*
D12*
G04 #@! TO.C,C2*
X126960000Y-85900000D02*
X126960000Y-81780000D01*
X129580000Y-85900000D02*
X129580000Y-81780000D01*
X126960000Y-85900000D02*
X127520000Y-85900000D01*
X129020000Y-85900000D02*
X129580000Y-85900000D01*
X126960000Y-81780000D02*
X127520000Y-81780000D01*
X129020000Y-81780000D02*
X129580000Y-81780000D01*
G04 #@! TO.C,C3*
X110986000Y-115816000D02*
X111546000Y-115816000D01*
X108926000Y-115816000D02*
X109486000Y-115816000D01*
X110986000Y-119936000D02*
X111546000Y-119936000D01*
X108926000Y-119936000D02*
X109486000Y-119936000D01*
X111546000Y-119936000D02*
X111546000Y-115816000D01*
X108926000Y-119936000D02*
X108926000Y-115816000D01*
G04 #@! TO.C,C5*
X95619000Y-92384500D02*
X96179000Y-92384500D01*
X93559000Y-92384500D02*
X94119000Y-92384500D01*
X95619000Y-96504500D02*
X96179000Y-96504500D01*
X93559000Y-96504500D02*
X94119000Y-96504500D01*
X96179000Y-96504500D02*
X96179000Y-92384500D01*
X93559000Y-96504500D02*
X93559000Y-92384500D01*
G04 #@! TO.C,C6*
X108978000Y-84590000D02*
X108418000Y-84590000D01*
X111038000Y-84590000D02*
X110478000Y-84590000D01*
X108978000Y-80470000D02*
X108418000Y-80470000D01*
X111038000Y-80470000D02*
X110478000Y-80470000D01*
X108418000Y-80470000D02*
X108418000Y-84590000D01*
X111038000Y-80470000D02*
X111038000Y-84590000D01*
G04 #@! TO.C,C7*
X130643000Y-115110000D02*
X130643000Y-110990000D01*
X133263000Y-115110000D02*
X133263000Y-110990000D01*
X130643000Y-115110000D02*
X131203000Y-115110000D01*
X132703000Y-115110000D02*
X133263000Y-115110000D01*
X130643000Y-110990000D02*
X131203000Y-110990000D01*
X132703000Y-110990000D02*
X133263000Y-110990000D01*
G04 #@! TO.C,D1*
X144590000Y-102144000D02*
X144746000Y-102144000D01*
X142274000Y-102144000D02*
X142430000Y-102144000D01*
X144589837Y-99542870D02*
G75*
G02X144590000Y-101624961I-1079837J-1041130D01*
G01*
X142430163Y-99542870D02*
G75*
G03X142430000Y-101624961I1079837J-1041130D01*
G01*
X144588608Y-98911665D02*
G75*
G02X144745516Y-102144000I-1078608J-1672335D01*
G01*
X142431392Y-98911665D02*
G75*
G03X142274484Y-102144000I1078608J-1672335D01*
G01*
G04 #@! TO.C,J1*
X116272000Y-83880000D02*
X116272000Y-82550000D01*
X117602000Y-83880000D02*
X116272000Y-83880000D01*
X118872000Y-83880000D02*
X118872000Y-81220000D01*
X118872000Y-81220000D02*
X121472000Y-81220000D01*
X118872000Y-83880000D02*
X121472000Y-83880000D01*
X121472000Y-83880000D02*
X121472000Y-81220000D01*
G04 #@! TO.C,J2*
X142180000Y-87316000D02*
X143510000Y-87316000D01*
X142180000Y-88646000D02*
X142180000Y-87316000D01*
X142180000Y-89916000D02*
X144840000Y-89916000D01*
X144840000Y-89916000D02*
X144840000Y-95056000D01*
X142180000Y-89916000D02*
X142180000Y-95056000D01*
X142180000Y-95056000D02*
X144840000Y-95056000D01*
G04 #@! TO.C,R1*
X94524000Y-118018000D02*
X94194000Y-118018000D01*
X94194000Y-118018000D02*
X94194000Y-111598000D01*
X94194000Y-111598000D02*
X94524000Y-111598000D01*
X96484000Y-118018000D02*
X96814000Y-118018000D01*
X96814000Y-118018000D02*
X96814000Y-111598000D01*
X96814000Y-111598000D02*
X96484000Y-111598000D01*
G04 #@! TO.C,R2*
X146720000Y-112486000D02*
X146720000Y-112816000D01*
X146720000Y-112816000D02*
X140300000Y-112816000D01*
X140300000Y-112816000D02*
X140300000Y-112486000D01*
X146720000Y-110526000D02*
X146720000Y-110196000D01*
X146720000Y-110196000D02*
X140300000Y-110196000D01*
X140300000Y-110196000D02*
X140300000Y-110526000D01*
G04 #@! TO.C,R3*
X90384000Y-118018000D02*
X90714000Y-118018000D01*
X90384000Y-111598000D02*
X90384000Y-118018000D01*
X90714000Y-111598000D02*
X90384000Y-111598000D01*
X93004000Y-118018000D02*
X92674000Y-118018000D01*
X93004000Y-111598000D02*
X93004000Y-118018000D01*
X92674000Y-111598000D02*
X93004000Y-111598000D01*
G04 #@! TO.C,R4*
X140300000Y-113498000D02*
X140300000Y-113828000D01*
X146720000Y-113498000D02*
X140300000Y-113498000D01*
X146720000Y-113828000D02*
X146720000Y-113498000D01*
X140300000Y-116118000D02*
X140300000Y-115788000D01*
X146720000Y-116118000D02*
X140300000Y-116118000D01*
X146720000Y-115788000D02*
X146720000Y-116118000D01*
G04 #@! TO.C,R5*
X105572000Y-105958000D02*
X105572000Y-105628000D01*
X99152000Y-105958000D02*
X105572000Y-105958000D01*
X99152000Y-105628000D02*
X99152000Y-105958000D01*
X105572000Y-103338000D02*
X105572000Y-103668000D01*
X99152000Y-103338000D02*
X105572000Y-103338000D01*
X99152000Y-103668000D02*
X99152000Y-103338000D01*
G04 #@! TO.C,R6*
X110708000Y-88230000D02*
X111038000Y-88230000D01*
X111038000Y-88230000D02*
X111038000Y-94650000D01*
X111038000Y-94650000D02*
X110708000Y-94650000D01*
X108748000Y-88230000D02*
X108418000Y-88230000D01*
X108418000Y-88230000D02*
X108418000Y-94650000D01*
X108418000Y-94650000D02*
X108748000Y-94650000D01*
G04 #@! TO.C,R7*
X146720000Y-108244000D02*
X146720000Y-107914000D01*
X140300000Y-108244000D02*
X146720000Y-108244000D01*
X140300000Y-107914000D02*
X140300000Y-108244000D01*
X146720000Y-105624000D02*
X146720000Y-105954000D01*
X140300000Y-105624000D02*
X146720000Y-105624000D01*
X140300000Y-105954000D02*
X140300000Y-105624000D01*
D10*
G04 #@! TO.C,RV1*
X107442000Y-90424000D02*
X97282000Y-90424000D01*
D13*
X107442000Y-90424000D02*
X107442000Y-80264000D01*
D10*
X107442000Y-80264000D02*
X97282000Y-80264000D01*
X97282000Y-80264000D02*
X97282000Y-90424000D01*
G04 #@! TO.C,SW1*
X108839000Y-121412000D02*
X117475000Y-121412000D01*
X117475000Y-121412000D02*
X117475000Y-125730000D01*
X117475000Y-125730000D02*
X108839000Y-125730000D01*
X108839000Y-125730000D02*
X108839000Y-121412000D01*
D12*
G04 #@! TO.C,U3*
X129854000Y-110751000D02*
X119574000Y-110751000D01*
X129854000Y-121151000D02*
X129854000Y-110751000D01*
X119574000Y-121151000D02*
X129854000Y-121151000D01*
X119574000Y-110751000D02*
X119574000Y-121151000D01*
X127364000Y-110811000D02*
X125714000Y-110811000D01*
X127364000Y-121091000D02*
X127364000Y-110811000D01*
X122064000Y-121091000D02*
X127364000Y-121091000D01*
X122064000Y-110811000D02*
X122064000Y-121091000D01*
X123714000Y-110811000D02*
X122064000Y-110811000D01*
X125714000Y-110811000D02*
G75*
G02X123714000Y-110811000I-1000000J0D01*
G01*
D10*
G04 #@! TO.C,SW2*
X142811500Y-124841000D02*
X136652000Y-124841000D01*
X136652000Y-124841000D02*
X136652000Y-118681500D01*
X136652000Y-118681500D02*
X142811500Y-118681500D01*
X142811500Y-118681500D02*
X142811500Y-124841000D01*
X141159398Y-121754832D02*
G75*
G03X141159398Y-121754832I-1459398J0D01*
G01*
D12*
G04 #@! TO.C,C1*
X125210000Y-81780000D02*
X125770000Y-81780000D01*
X123150000Y-81780000D02*
X123710000Y-81780000D01*
X125210000Y-85900000D02*
X125770000Y-85900000D01*
X123150000Y-85900000D02*
X123710000Y-85900000D01*
X125770000Y-85900000D02*
X125770000Y-81780000D01*
X123150000Y-85900000D02*
X123150000Y-81780000D01*
G04 #@! TO.C,C4*
X92568000Y-91008000D02*
X93868000Y-91008000D01*
X93218000Y-91608000D02*
X93218000Y-90408000D01*
X92864000Y-85597000D02*
X93572000Y-85597000D01*
X92659000Y-85637000D02*
X93777000Y-85637000D01*
X92511000Y-85677000D02*
X93925000Y-85677000D01*
X92389000Y-85717000D02*
X94047000Y-85717000D01*
X92284000Y-85757000D02*
X94152000Y-85757000D01*
X92190000Y-85797000D02*
X94246000Y-85797000D01*
X92106000Y-85837000D02*
X94330000Y-85837000D01*
X92029000Y-85877000D02*
X94407000Y-85877000D01*
X91957000Y-85917000D02*
X94479000Y-85917000D01*
X94198000Y-85957000D02*
X94545000Y-85957000D01*
X91891000Y-85957000D02*
X92238000Y-85957000D01*
X94198000Y-85997000D02*
X94608000Y-85997000D01*
X91828000Y-85997000D02*
X92238000Y-85997000D01*
X94198000Y-86037000D02*
X94666000Y-86037000D01*
X91770000Y-86037000D02*
X92238000Y-86037000D01*
X94198000Y-86077000D02*
X94722000Y-86077000D01*
X91714000Y-86077000D02*
X92238000Y-86077000D01*
X94198000Y-86117000D02*
X94774000Y-86117000D01*
X91662000Y-86117000D02*
X92238000Y-86117000D01*
X94198000Y-86157000D02*
X94824000Y-86157000D01*
X91612000Y-86157000D02*
X92238000Y-86157000D01*
X94198000Y-86197000D02*
X94872000Y-86197000D01*
X91564000Y-86197000D02*
X92238000Y-86197000D01*
X94198000Y-86237000D02*
X94917000Y-86237000D01*
X91519000Y-86237000D02*
X92238000Y-86237000D01*
X94198000Y-86277000D02*
X94960000Y-86277000D01*
X91476000Y-86277000D02*
X92238000Y-86277000D01*
X94198000Y-86317000D02*
X95001000Y-86317000D01*
X91435000Y-86317000D02*
X92238000Y-86317000D01*
X94198000Y-86357000D02*
X95041000Y-86357000D01*
X91395000Y-86357000D02*
X92238000Y-86357000D01*
X94198000Y-86397000D02*
X95079000Y-86397000D01*
X91357000Y-86397000D02*
X92238000Y-86397000D01*
X94198000Y-86437000D02*
X95115000Y-86437000D01*
X91321000Y-86437000D02*
X92238000Y-86437000D01*
X94198000Y-86477000D02*
X95150000Y-86477000D01*
X91286000Y-86477000D02*
X92238000Y-86477000D01*
X94198000Y-86517000D02*
X95183000Y-86517000D01*
X91253000Y-86517000D02*
X92238000Y-86517000D01*
X94198000Y-86557000D02*
X95215000Y-86557000D01*
X91221000Y-86557000D02*
X92238000Y-86557000D01*
X94198000Y-86597000D02*
X95246000Y-86597000D01*
X91190000Y-86597000D02*
X92238000Y-86597000D01*
X94198000Y-86637000D02*
X95276000Y-86637000D01*
X91160000Y-86637000D02*
X92238000Y-86637000D01*
X94198000Y-86677000D02*
X95304000Y-86677000D01*
X91132000Y-86677000D02*
X92238000Y-86677000D01*
X94198000Y-86717000D02*
X95331000Y-86717000D01*
X91105000Y-86717000D02*
X92238000Y-86717000D01*
X94198000Y-86757000D02*
X95358000Y-86757000D01*
X91078000Y-86757000D02*
X92238000Y-86757000D01*
X94198000Y-86797000D02*
X95383000Y-86797000D01*
X91053000Y-86797000D02*
X92238000Y-86797000D01*
X94198000Y-86837000D02*
X95407000Y-86837000D01*
X91029000Y-86837000D02*
X92238000Y-86837000D01*
X94198000Y-86877000D02*
X95430000Y-86877000D01*
X91006000Y-86877000D02*
X92238000Y-86877000D01*
X94198000Y-86917000D02*
X95452000Y-86917000D01*
X90984000Y-86917000D02*
X92238000Y-86917000D01*
X94198000Y-86957000D02*
X95474000Y-86957000D01*
X90962000Y-86957000D02*
X92238000Y-86957000D01*
X94198000Y-86997000D02*
X95494000Y-86997000D01*
X90942000Y-86997000D02*
X92238000Y-86997000D01*
X94198000Y-87037000D02*
X95514000Y-87037000D01*
X90922000Y-87037000D02*
X92238000Y-87037000D01*
X94198000Y-87077000D02*
X95533000Y-87077000D01*
X90903000Y-87077000D02*
X92238000Y-87077000D01*
X94198000Y-87117000D02*
X95551000Y-87117000D01*
X90885000Y-87117000D02*
X92238000Y-87117000D01*
X94198000Y-87157000D02*
X95568000Y-87157000D01*
X90868000Y-87157000D02*
X92238000Y-87157000D01*
X94198000Y-87197000D02*
X95584000Y-87197000D01*
X90852000Y-87197000D02*
X92238000Y-87197000D01*
X94198000Y-87237000D02*
X95600000Y-87237000D01*
X90836000Y-87237000D02*
X92238000Y-87237000D01*
X94198000Y-87277000D02*
X95614000Y-87277000D01*
X90822000Y-87277000D02*
X92238000Y-87277000D01*
X94198000Y-87317000D02*
X95628000Y-87317000D01*
X90808000Y-87317000D02*
X92238000Y-87317000D01*
X94198000Y-87357000D02*
X95642000Y-87357000D01*
X90794000Y-87357000D02*
X92238000Y-87357000D01*
X94198000Y-87397000D02*
X95654000Y-87397000D01*
X90782000Y-87397000D02*
X92238000Y-87397000D01*
X94198000Y-87437000D02*
X95666000Y-87437000D01*
X90770000Y-87437000D02*
X92238000Y-87437000D01*
X94198000Y-87478000D02*
X95678000Y-87478000D01*
X90758000Y-87478000D02*
X92238000Y-87478000D01*
X94198000Y-87518000D02*
X95688000Y-87518000D01*
X90748000Y-87518000D02*
X92238000Y-87518000D01*
X94198000Y-87558000D02*
X95698000Y-87558000D01*
X90738000Y-87558000D02*
X92238000Y-87558000D01*
X94198000Y-87598000D02*
X95707000Y-87598000D01*
X90729000Y-87598000D02*
X92238000Y-87598000D01*
X94198000Y-87638000D02*
X95716000Y-87638000D01*
X90720000Y-87638000D02*
X92238000Y-87638000D01*
X94198000Y-87678000D02*
X95724000Y-87678000D01*
X90712000Y-87678000D02*
X92238000Y-87678000D01*
X94198000Y-87718000D02*
X95731000Y-87718000D01*
X90705000Y-87718000D02*
X92238000Y-87718000D01*
X94198000Y-87758000D02*
X95737000Y-87758000D01*
X90699000Y-87758000D02*
X92238000Y-87758000D01*
X94198000Y-87798000D02*
X95743000Y-87798000D01*
X90693000Y-87798000D02*
X92238000Y-87798000D01*
X94198000Y-87838000D02*
X95749000Y-87838000D01*
X90687000Y-87838000D02*
X92238000Y-87838000D01*
X94198000Y-87878000D02*
X95753000Y-87878000D01*
X90683000Y-87878000D02*
X92238000Y-87878000D01*
X90679000Y-87918000D02*
X95757000Y-87918000D01*
X90675000Y-87958000D02*
X95761000Y-87958000D01*
X90672000Y-87998000D02*
X95764000Y-87998000D01*
X90670000Y-88038000D02*
X95766000Y-88038000D01*
X90669000Y-88078000D02*
X95767000Y-88078000D01*
X90668000Y-88118000D02*
X95768000Y-88118000D01*
X90668000Y-88158000D02*
X95768000Y-88158000D01*
X94397723Y-85852278D02*
G75*
G03X92038000Y-85852420I-1179723J-2305722D01*
G01*
X94397723Y-85852278D02*
G75*
G02X94398000Y-90463580I-1179723J-2305722D01*
G01*
X92038277Y-85852278D02*
G75*
G03X92038000Y-90463580I1179723J-2305722D01*
G01*
G04 #@! TO.C,U1*
X137982000Y-88018000D02*
X127702000Y-88018000D01*
X137982000Y-106038000D02*
X137982000Y-88018000D01*
X127702000Y-106038000D02*
X137982000Y-106038000D01*
X127702000Y-88018000D02*
X127702000Y-106038000D01*
X135492000Y-88078000D02*
X133842000Y-88078000D01*
X135492000Y-105978000D02*
X135492000Y-88078000D01*
X130192000Y-105978000D02*
X135492000Y-105978000D01*
X130192000Y-88078000D02*
X130192000Y-105978000D01*
X131842000Y-88078000D02*
X130192000Y-88078000D01*
X133842000Y-88078000D02*
G75*
G02X131842000Y-88078000I-1000000J0D01*
G01*
G04 #@! TO.C,U2*
X120380000Y-88078000D02*
G75*
G02X118380000Y-88078000I-1000000J0D01*
G01*
X118380000Y-88078000D02*
X116730000Y-88078000D01*
X116730000Y-88078000D02*
X116730000Y-105978000D01*
X116730000Y-105978000D02*
X122030000Y-105978000D01*
X122030000Y-105978000D02*
X122030000Y-88078000D01*
X122030000Y-88078000D02*
X120380000Y-88078000D01*
X114240000Y-88018000D02*
X114240000Y-106038000D01*
X114240000Y-106038000D02*
X124520000Y-106038000D01*
X124520000Y-106038000D02*
X124520000Y-88018000D01*
X124520000Y-88018000D02*
X114240000Y-88018000D01*
G04 #@! TO.C,U4*
X103362000Y-91888000D02*
G75*
G02X101362000Y-91888000I-1000000J0D01*
G01*
X101362000Y-91888000D02*
X99712000Y-91888000D01*
X99712000Y-91888000D02*
X99712000Y-102168000D01*
X99712000Y-102168000D02*
X105012000Y-102168000D01*
X105012000Y-102168000D02*
X105012000Y-91888000D01*
X105012000Y-91888000D02*
X103362000Y-91888000D01*
X97222000Y-91828000D02*
X97222000Y-102228000D01*
X97222000Y-102228000D02*
X107502000Y-102228000D01*
X107502000Y-102228000D02*
X107502000Y-91828000D01*
X107502000Y-91828000D02*
X97222000Y-91828000D01*
G04 #@! TO.C,U5*
X108264000Y-109608000D02*
X97984000Y-109608000D01*
X108264000Y-120008000D02*
X108264000Y-109608000D01*
X97984000Y-120008000D02*
X108264000Y-120008000D01*
X97984000Y-109608000D02*
X97984000Y-120008000D01*
X105774000Y-109668000D02*
X104124000Y-109668000D01*
X105774000Y-119948000D02*
X105774000Y-109668000D01*
X100474000Y-119948000D02*
X105774000Y-119948000D01*
X100474000Y-109668000D02*
X100474000Y-119948000D01*
X102124000Y-109668000D02*
X100474000Y-109668000D01*
X104124000Y-109668000D02*
G75*
G02X102124000Y-109668000I-1000000J0D01*
G01*
G04 #@! TO.C,C2*
D10*
X128103333Y-81002142D02*
X128055714Y-81049761D01*
X127912857Y-81097380D01*
X127817619Y-81097380D01*
X127674761Y-81049761D01*
X127579523Y-80954523D01*
X127531904Y-80859285D01*
X127484285Y-80668809D01*
X127484285Y-80525952D01*
X127531904Y-80335476D01*
X127579523Y-80240238D01*
X127674761Y-80145000D01*
X127817619Y-80097380D01*
X127912857Y-80097380D01*
X128055714Y-80145000D01*
X128103333Y-80192619D01*
X128484285Y-80192619D02*
X128531904Y-80145000D01*
X128627142Y-80097380D01*
X128865238Y-80097380D01*
X128960476Y-80145000D01*
X129008095Y-80192619D01*
X129055714Y-80287857D01*
X129055714Y-80383095D01*
X129008095Y-80525952D01*
X128436666Y-81097380D01*
X129055714Y-81097380D01*
G04 #@! TO.C,C3*
X110069333Y-115165142D02*
X110021714Y-115212761D01*
X109878857Y-115260380D01*
X109783619Y-115260380D01*
X109640761Y-115212761D01*
X109545523Y-115117523D01*
X109497904Y-115022285D01*
X109450285Y-114831809D01*
X109450285Y-114688952D01*
X109497904Y-114498476D01*
X109545523Y-114403238D01*
X109640761Y-114308000D01*
X109783619Y-114260380D01*
X109878857Y-114260380D01*
X110021714Y-114308000D01*
X110069333Y-114355619D01*
X110402666Y-114260380D02*
X111021714Y-114260380D01*
X110688380Y-114641333D01*
X110831238Y-114641333D01*
X110926476Y-114688952D01*
X110974095Y-114736571D01*
X111021714Y-114831809D01*
X111021714Y-115069904D01*
X110974095Y-115165142D01*
X110926476Y-115212761D01*
X110831238Y-115260380D01*
X110545523Y-115260380D01*
X110450285Y-115212761D01*
X110402666Y-115165142D01*
G04 #@! TO.C,C5*
X91908333Y-93257642D02*
X91860714Y-93305261D01*
X91717857Y-93352880D01*
X91622619Y-93352880D01*
X91479761Y-93305261D01*
X91384523Y-93210023D01*
X91336904Y-93114785D01*
X91289285Y-92924309D01*
X91289285Y-92781452D01*
X91336904Y-92590976D01*
X91384523Y-92495738D01*
X91479761Y-92400500D01*
X91622619Y-92352880D01*
X91717857Y-92352880D01*
X91860714Y-92400500D01*
X91908333Y-92448119D01*
X92813095Y-92352880D02*
X92336904Y-92352880D01*
X92289285Y-92829071D01*
X92336904Y-92781452D01*
X92432142Y-92733833D01*
X92670238Y-92733833D01*
X92765476Y-92781452D01*
X92813095Y-92829071D01*
X92860714Y-92924309D01*
X92860714Y-93162404D01*
X92813095Y-93257642D01*
X92765476Y-93305261D01*
X92670238Y-93352880D01*
X92432142Y-93352880D01*
X92336904Y-93305261D01*
X92289285Y-93257642D01*
G04 #@! TO.C,C6*
X109561333Y-79605142D02*
X109513714Y-79652761D01*
X109370857Y-79700380D01*
X109275619Y-79700380D01*
X109132761Y-79652761D01*
X109037523Y-79557523D01*
X108989904Y-79462285D01*
X108942285Y-79271809D01*
X108942285Y-79128952D01*
X108989904Y-78938476D01*
X109037523Y-78843238D01*
X109132761Y-78748000D01*
X109275619Y-78700380D01*
X109370857Y-78700380D01*
X109513714Y-78748000D01*
X109561333Y-78795619D01*
X110418476Y-78700380D02*
X110228000Y-78700380D01*
X110132761Y-78748000D01*
X110085142Y-78795619D01*
X109989904Y-78938476D01*
X109942285Y-79128952D01*
X109942285Y-79509904D01*
X109989904Y-79605142D01*
X110037523Y-79652761D01*
X110132761Y-79700380D01*
X110323238Y-79700380D01*
X110418476Y-79652761D01*
X110466095Y-79605142D01*
X110513714Y-79509904D01*
X110513714Y-79271809D01*
X110466095Y-79176571D01*
X110418476Y-79128952D01*
X110323238Y-79081333D01*
X110132761Y-79081333D01*
X110037523Y-79128952D01*
X109989904Y-79176571D01*
X109942285Y-79271809D01*
G04 #@! TO.C,C7*
X129770142Y-113196666D02*
X129817761Y-113244285D01*
X129865380Y-113387142D01*
X129865380Y-113482380D01*
X129817761Y-113625238D01*
X129722523Y-113720476D01*
X129627285Y-113768095D01*
X129436809Y-113815714D01*
X129293952Y-113815714D01*
X129103476Y-113768095D01*
X129008238Y-113720476D01*
X128913000Y-113625238D01*
X128865380Y-113482380D01*
X128865380Y-113387142D01*
X128913000Y-113244285D01*
X128960619Y-113196666D01*
X128865380Y-112863333D02*
X128865380Y-112196666D01*
X129865380Y-112625238D01*
G04 #@! TO.C,D1*
X139469904Y-100782380D02*
X139469904Y-99782380D01*
X139708000Y-99782380D01*
X139850857Y-99830000D01*
X139946095Y-99925238D01*
X139993714Y-100020476D01*
X140041333Y-100210952D01*
X140041333Y-100353809D01*
X139993714Y-100544285D01*
X139946095Y-100639523D01*
X139850857Y-100734761D01*
X139708000Y-100782380D01*
X139469904Y-100782380D01*
X140993714Y-100782380D02*
X140422285Y-100782380D01*
X140708000Y-100782380D02*
X140708000Y-99782380D01*
X140612761Y-99925238D01*
X140517523Y-100020476D01*
X140422285Y-100068095D01*
G04 #@! TO.C,J1*
X118538666Y-84542380D02*
X118538666Y-85256666D01*
X118491047Y-85399523D01*
X118395809Y-85494761D01*
X118252952Y-85542380D01*
X118157714Y-85542380D01*
X119538666Y-85542380D02*
X118967238Y-85542380D01*
X119252952Y-85542380D02*
X119252952Y-84542380D01*
X119157714Y-84685238D01*
X119062476Y-84780476D01*
X118967238Y-84828095D01*
G04 #@! TO.C,J2*
X143176666Y-85768380D02*
X143176666Y-86482666D01*
X143129047Y-86625523D01*
X143033809Y-86720761D01*
X142890952Y-86768380D01*
X142795714Y-86768380D01*
X143605238Y-85863619D02*
X143652857Y-85816000D01*
X143748095Y-85768380D01*
X143986190Y-85768380D01*
X144081428Y-85816000D01*
X144129047Y-85863619D01*
X144176666Y-85958857D01*
X144176666Y-86054095D01*
X144129047Y-86196952D01*
X143557619Y-86768380D01*
X144176666Y-86768380D01*
G04 #@! TO.C,R1*
X95337333Y-121356380D02*
X95004000Y-120880190D01*
X94765904Y-121356380D02*
X94765904Y-120356380D01*
X95146857Y-120356380D01*
X95242095Y-120404000D01*
X95289714Y-120451619D01*
X95337333Y-120546857D01*
X95337333Y-120689714D01*
X95289714Y-120784952D01*
X95242095Y-120832571D01*
X95146857Y-120880190D01*
X94765904Y-120880190D01*
X96289714Y-121356380D02*
X95718285Y-121356380D01*
X96004000Y-121356380D02*
X96004000Y-120356380D01*
X95908761Y-120499238D01*
X95813523Y-120594476D01*
X95718285Y-120642095D01*
G04 #@! TO.C,R2*
X137501333Y-110434380D02*
X137168000Y-109958190D01*
X136929904Y-110434380D02*
X136929904Y-109434380D01*
X137310857Y-109434380D01*
X137406095Y-109482000D01*
X137453714Y-109529619D01*
X137501333Y-109624857D01*
X137501333Y-109767714D01*
X137453714Y-109862952D01*
X137406095Y-109910571D01*
X137310857Y-109958190D01*
X136929904Y-109958190D01*
X137882285Y-109529619D02*
X137929904Y-109482000D01*
X138025142Y-109434380D01*
X138263238Y-109434380D01*
X138358476Y-109482000D01*
X138406095Y-109529619D01*
X138453714Y-109624857D01*
X138453714Y-109720095D01*
X138406095Y-109862952D01*
X137834666Y-110434380D01*
X138453714Y-110434380D01*
G04 #@! TO.C,R3*
X91527333Y-121356380D02*
X91194000Y-120880190D01*
X90955904Y-121356380D02*
X90955904Y-120356380D01*
X91336857Y-120356380D01*
X91432095Y-120404000D01*
X91479714Y-120451619D01*
X91527333Y-120546857D01*
X91527333Y-120689714D01*
X91479714Y-120784952D01*
X91432095Y-120832571D01*
X91336857Y-120880190D01*
X90955904Y-120880190D01*
X91860666Y-120356380D02*
X92479714Y-120356380D01*
X92146380Y-120737333D01*
X92289238Y-120737333D01*
X92384476Y-120784952D01*
X92432095Y-120832571D01*
X92479714Y-120927809D01*
X92479714Y-121165904D01*
X92432095Y-121261142D01*
X92384476Y-121308761D01*
X92289238Y-121356380D01*
X92003523Y-121356380D01*
X91908285Y-121308761D01*
X91860666Y-121261142D01*
G04 #@! TO.C,R4*
X143343333Y-117570380D02*
X143010000Y-117094190D01*
X142771904Y-117570380D02*
X142771904Y-116570380D01*
X143152857Y-116570380D01*
X143248095Y-116618000D01*
X143295714Y-116665619D01*
X143343333Y-116760857D01*
X143343333Y-116903714D01*
X143295714Y-116998952D01*
X143248095Y-117046571D01*
X143152857Y-117094190D01*
X142771904Y-117094190D01*
X144200476Y-116903714D02*
X144200476Y-117570380D01*
X143962380Y-116522761D02*
X143724285Y-117237047D01*
X144343333Y-117237047D01*
G04 #@! TO.C,R5*
X107783333Y-107640380D02*
X107450000Y-107164190D01*
X107211904Y-107640380D02*
X107211904Y-106640380D01*
X107592857Y-106640380D01*
X107688095Y-106688000D01*
X107735714Y-106735619D01*
X107783333Y-106830857D01*
X107783333Y-106973714D01*
X107735714Y-107068952D01*
X107688095Y-107116571D01*
X107592857Y-107164190D01*
X107211904Y-107164190D01*
X108688095Y-106640380D02*
X108211904Y-106640380D01*
X108164285Y-107116571D01*
X108211904Y-107068952D01*
X108307142Y-107021333D01*
X108545238Y-107021333D01*
X108640476Y-107068952D01*
X108688095Y-107116571D01*
X108735714Y-107211809D01*
X108735714Y-107449904D01*
X108688095Y-107545142D01*
X108640476Y-107592761D01*
X108545238Y-107640380D01*
X108307142Y-107640380D01*
X108211904Y-107592761D01*
X108164285Y-107545142D01*
G04 #@! TO.C,R6*
X109561333Y-97734380D02*
X109228000Y-97258190D01*
X108989904Y-97734380D02*
X108989904Y-96734380D01*
X109370857Y-96734380D01*
X109466095Y-96782000D01*
X109513714Y-96829619D01*
X109561333Y-96924857D01*
X109561333Y-97067714D01*
X109513714Y-97162952D01*
X109466095Y-97210571D01*
X109370857Y-97258190D01*
X108989904Y-97258190D01*
X110418476Y-96734380D02*
X110228000Y-96734380D01*
X110132761Y-96782000D01*
X110085142Y-96829619D01*
X109989904Y-96972476D01*
X109942285Y-97162952D01*
X109942285Y-97543904D01*
X109989904Y-97639142D01*
X110037523Y-97686761D01*
X110132761Y-97734380D01*
X110323238Y-97734380D01*
X110418476Y-97686761D01*
X110466095Y-97639142D01*
X110513714Y-97543904D01*
X110513714Y-97305809D01*
X110466095Y-97210571D01*
X110418476Y-97162952D01*
X110323238Y-97115333D01*
X110132761Y-97115333D01*
X110037523Y-97162952D01*
X109989904Y-97210571D01*
X109942285Y-97305809D01*
G04 #@! TO.C,R7*
X143343333Y-105076380D02*
X143010000Y-104600190D01*
X142771904Y-105076380D02*
X142771904Y-104076380D01*
X143152857Y-104076380D01*
X143248095Y-104124000D01*
X143295714Y-104171619D01*
X143343333Y-104266857D01*
X143343333Y-104409714D01*
X143295714Y-104504952D01*
X143248095Y-104552571D01*
X143152857Y-104600190D01*
X142771904Y-104600190D01*
X143676666Y-104076380D02*
X144343333Y-104076380D01*
X143914761Y-105076380D01*
G04 #@! TO.C,RV1*
X101766761Y-79954380D02*
X101433428Y-79478190D01*
X101195333Y-79954380D02*
X101195333Y-78954380D01*
X101576285Y-78954380D01*
X101671523Y-79002000D01*
X101719142Y-79049619D01*
X101766761Y-79144857D01*
X101766761Y-79287714D01*
X101719142Y-79382952D01*
X101671523Y-79430571D01*
X101576285Y-79478190D01*
X101195333Y-79478190D01*
X102052476Y-78954380D02*
X102385809Y-79954380D01*
X102719142Y-78954380D01*
X103576285Y-79954380D02*
X103004857Y-79954380D01*
X103290571Y-79954380D02*
X103290571Y-78954380D01*
X103195333Y-79097238D01*
X103100095Y-79192476D01*
X103004857Y-79240095D01*
G04 #@! TO.C,SW1*
X117411666Y-126896761D02*
X117554523Y-126944380D01*
X117792619Y-126944380D01*
X117887857Y-126896761D01*
X117935476Y-126849142D01*
X117983095Y-126753904D01*
X117983095Y-126658666D01*
X117935476Y-126563428D01*
X117887857Y-126515809D01*
X117792619Y-126468190D01*
X117602142Y-126420571D01*
X117506904Y-126372952D01*
X117459285Y-126325333D01*
X117411666Y-126230095D01*
X117411666Y-126134857D01*
X117459285Y-126039619D01*
X117506904Y-125992000D01*
X117602142Y-125944380D01*
X117840238Y-125944380D01*
X117983095Y-125992000D01*
X118316428Y-125944380D02*
X118554523Y-126944380D01*
X118745000Y-126230095D01*
X118935476Y-126944380D01*
X119173571Y-125944380D01*
X120078333Y-126944380D02*
X119506904Y-126944380D01*
X119792619Y-126944380D02*
X119792619Y-125944380D01*
X119697380Y-126087238D01*
X119602142Y-126182476D01*
X119506904Y-126230095D01*
G04 #@! TO.C,U3*
X123952095Y-109263380D02*
X123952095Y-110072904D01*
X123999714Y-110168142D01*
X124047333Y-110215761D01*
X124142571Y-110263380D01*
X124333047Y-110263380D01*
X124428285Y-110215761D01*
X124475904Y-110168142D01*
X124523523Y-110072904D01*
X124523523Y-109263380D01*
X124904476Y-109263380D02*
X125523523Y-109263380D01*
X125190190Y-109644333D01*
X125333047Y-109644333D01*
X125428285Y-109691952D01*
X125475904Y-109739571D01*
X125523523Y-109834809D01*
X125523523Y-110072904D01*
X125475904Y-110168142D01*
X125428285Y-110215761D01*
X125333047Y-110263380D01*
X125047333Y-110263380D01*
X124952095Y-110215761D01*
X124904476Y-110168142D01*
G04 #@! TO.C,SW2*
X138493666Y-126134761D02*
X138636523Y-126182380D01*
X138874619Y-126182380D01*
X138969857Y-126134761D01*
X139017476Y-126087142D01*
X139065095Y-125991904D01*
X139065095Y-125896666D01*
X139017476Y-125801428D01*
X138969857Y-125753809D01*
X138874619Y-125706190D01*
X138684142Y-125658571D01*
X138588904Y-125610952D01*
X138541285Y-125563333D01*
X138493666Y-125468095D01*
X138493666Y-125372857D01*
X138541285Y-125277619D01*
X138588904Y-125230000D01*
X138684142Y-125182380D01*
X138922238Y-125182380D01*
X139065095Y-125230000D01*
X139398428Y-125182380D02*
X139636523Y-126182380D01*
X139827000Y-125468095D01*
X140017476Y-126182380D01*
X140255571Y-125182380D01*
X140588904Y-125277619D02*
X140636523Y-125230000D01*
X140731761Y-125182380D01*
X140969857Y-125182380D01*
X141065095Y-125230000D01*
X141112714Y-125277619D01*
X141160333Y-125372857D01*
X141160333Y-125468095D01*
X141112714Y-125610952D01*
X140541285Y-126182380D01*
X141160333Y-126182380D01*
G04 #@! TO.C,C1*
X124293333Y-81002142D02*
X124245714Y-81049761D01*
X124102857Y-81097380D01*
X124007619Y-81097380D01*
X123864761Y-81049761D01*
X123769523Y-80954523D01*
X123721904Y-80859285D01*
X123674285Y-80668809D01*
X123674285Y-80525952D01*
X123721904Y-80335476D01*
X123769523Y-80240238D01*
X123864761Y-80145000D01*
X124007619Y-80097380D01*
X124102857Y-80097380D01*
X124245714Y-80145000D01*
X124293333Y-80192619D01*
X125245714Y-81097380D02*
X124674285Y-81097380D01*
X124960000Y-81097380D02*
X124960000Y-80097380D01*
X124864761Y-80240238D01*
X124769523Y-80335476D01*
X124674285Y-80383095D01*
G04 #@! TO.C,C4*
X93051333Y-84685142D02*
X93003714Y-84732761D01*
X92860857Y-84780380D01*
X92765619Y-84780380D01*
X92622761Y-84732761D01*
X92527523Y-84637523D01*
X92479904Y-84542285D01*
X92432285Y-84351809D01*
X92432285Y-84208952D01*
X92479904Y-84018476D01*
X92527523Y-83923238D01*
X92622761Y-83828000D01*
X92765619Y-83780380D01*
X92860857Y-83780380D01*
X93003714Y-83828000D01*
X93051333Y-83875619D01*
X93908476Y-84113714D02*
X93908476Y-84780380D01*
X93670380Y-83732761D02*
X93432285Y-84447047D01*
X94051333Y-84447047D01*
G04 #@! TO.C,U1*
X132080095Y-86530380D02*
X132080095Y-87339904D01*
X132127714Y-87435142D01*
X132175333Y-87482761D01*
X132270571Y-87530380D01*
X132461047Y-87530380D01*
X132556285Y-87482761D01*
X132603904Y-87435142D01*
X132651523Y-87339904D01*
X132651523Y-86530380D01*
X133651523Y-87530380D02*
X133080095Y-87530380D01*
X133365809Y-87530380D02*
X133365809Y-86530380D01*
X133270571Y-86673238D01*
X133175333Y-86768476D01*
X133080095Y-86816095D01*
G04 #@! TO.C,U2*
X118618095Y-86530380D02*
X118618095Y-87339904D01*
X118665714Y-87435142D01*
X118713333Y-87482761D01*
X118808571Y-87530380D01*
X118999047Y-87530380D01*
X119094285Y-87482761D01*
X119141904Y-87435142D01*
X119189523Y-87339904D01*
X119189523Y-86530380D01*
X119618095Y-86625619D02*
X119665714Y-86578000D01*
X119760952Y-86530380D01*
X119999047Y-86530380D01*
X120094285Y-86578000D01*
X120141904Y-86625619D01*
X120189523Y-86720857D01*
X120189523Y-86816095D01*
X120141904Y-86958952D01*
X119570476Y-87530380D01*
X120189523Y-87530380D01*
G04 #@! TO.C,U4*
X101600095Y-90340380D02*
X101600095Y-91149904D01*
X101647714Y-91245142D01*
X101695333Y-91292761D01*
X101790571Y-91340380D01*
X101981047Y-91340380D01*
X102076285Y-91292761D01*
X102123904Y-91245142D01*
X102171523Y-91149904D01*
X102171523Y-90340380D01*
X103076285Y-90673714D02*
X103076285Y-91340380D01*
X102838190Y-90292761D02*
X102600095Y-91007047D01*
X103219142Y-91007047D01*
G04 #@! TO.C,U5*
X102362095Y-108120380D02*
X102362095Y-108929904D01*
X102409714Y-109025142D01*
X102457333Y-109072761D01*
X102552571Y-109120380D01*
X102743047Y-109120380D01*
X102838285Y-109072761D01*
X102885904Y-109025142D01*
X102933523Y-108929904D01*
X102933523Y-108120380D01*
X103885904Y-108120380D02*
X103409714Y-108120380D01*
X103362095Y-108596571D01*
X103409714Y-108548952D01*
X103504952Y-108501333D01*
X103743047Y-108501333D01*
X103838285Y-108548952D01*
X103885904Y-108596571D01*
X103933523Y-108691809D01*
X103933523Y-108929904D01*
X103885904Y-109025142D01*
X103838285Y-109072761D01*
X103743047Y-109120380D01*
X103504952Y-109120380D01*
X103409714Y-109072761D01*
X103362095Y-109025142D01*
G04 #@! TD*
M02*
