G04 #@! TF.GenerationSoftware,KiCad,Pcbnew,5.0.2-bee76a0~70~ubuntu16.04.1*
G04 #@! TF.CreationDate,2020-01-09T22:15:49-06:00*
G04 #@! TF.ProjectId,8-Bit-Computer-Clock-Module,382d4269-742d-4436-9f6d-70757465722d,rev?*
G04 #@! TF.SameCoordinates,Original*
G04 #@! TF.FileFunction,Copper,L2,Bot*
G04 #@! TF.FilePolarity,Positive*
%FSLAX46Y46*%
G04 Gerber Fmt 4.6, Leading zero omitted, Abs format (unit mm)*
G04 Created by KiCad (PCBNEW 5.0.2-bee76a0~70~ubuntu16.04.1) date jue 09 ene 2020 22:15:49 CST*
%MOMM*%
%LPD*%
G01*
G04 APERTURE LIST*
G04 #@! TA.AperFunction,ComponentPad*
%ADD10C,1.600000*%
G04 #@! TD*
G04 #@! TA.AperFunction,ComponentPad*
%ADD11C,1.800000*%
G04 #@! TD*
G04 #@! TA.AperFunction,ComponentPad*
%ADD12R,1.800000X1.800000*%
G04 #@! TD*
G04 #@! TA.AperFunction,ComponentPad*
%ADD13O,1.700000X1.700000*%
G04 #@! TD*
G04 #@! TA.AperFunction,ComponentPad*
%ADD14R,1.700000X1.700000*%
G04 #@! TD*
G04 #@! TA.AperFunction,ComponentPad*
%ADD15O,1.600000X1.600000*%
G04 #@! TD*
G04 #@! TA.AperFunction,ComponentPad*
%ADD16C,1.524000*%
G04 #@! TD*
G04 #@! TA.AperFunction,ComponentPad*
%ADD17R,1.524000X1.524000*%
G04 #@! TD*
G04 #@! TA.AperFunction,ComponentPad*
%ADD18R,1.600000X1.600000*%
G04 #@! TD*
G04 #@! TA.AperFunction,ViaPad*
%ADD19C,0.800000*%
G04 #@! TD*
G04 #@! TA.AperFunction,Conductor*
%ADD20C,0.762000*%
G04 #@! TD*
G04 #@! TA.AperFunction,Conductor*
%ADD21C,0.250000*%
G04 #@! TD*
G04 #@! TA.AperFunction,Conductor*
%ADD22C,0.254000*%
G04 #@! TD*
G04 APERTURE END LIST*
D10*
G04 #@! TO.P,C2,1*
G04 #@! TO.N,VCC*
X128270000Y-85090000D03*
G04 #@! TO.P,C2,2*
G04 #@! TO.N,GND*
X128270000Y-82590000D03*
G04 #@! TD*
G04 #@! TO.P,C3,2*
G04 #@! TO.N,GND*
X110236000Y-116626000D03*
G04 #@! TO.P,C3,1*
G04 #@! TO.N,Net-(C3-Pad1)*
X110236000Y-119126000D03*
G04 #@! TD*
G04 #@! TO.P,C5,2*
G04 #@! TO.N,GND*
X94869000Y-93194500D03*
G04 #@! TO.P,C5,1*
G04 #@! TO.N,Net-(C5-Pad1)*
X94869000Y-95694500D03*
G04 #@! TD*
G04 #@! TO.P,C6,2*
G04 #@! TO.N,GND*
X109728000Y-83780000D03*
G04 #@! TO.P,C6,1*
G04 #@! TO.N,Net-(C6-Pad1)*
X109728000Y-81280000D03*
G04 #@! TD*
G04 #@! TO.P,C7,1*
G04 #@! TO.N,Net-(C7-Pad1)*
X131953000Y-114300000D03*
G04 #@! TO.P,C7,2*
G04 #@! TO.N,GND*
X131953000Y-111800000D03*
G04 #@! TD*
D11*
G04 #@! TO.P,D1,2*
G04 #@! TO.N,/OUT*
X143510000Y-99314000D03*
D12*
G04 #@! TO.P,D1,1*
G04 #@! TO.N,Net-(D1-Pad1)*
X143510000Y-101854000D03*
G04 #@! TD*
D13*
G04 #@! TO.P,J1,2*
G04 #@! TO.N,GND*
X120142000Y-82550000D03*
D14*
G04 #@! TO.P,J1,1*
G04 #@! TO.N,VCC*
X117602000Y-82550000D03*
G04 #@! TD*
D13*
G04 #@! TO.P,J2,3*
G04 #@! TO.N,/~OUT*
X143510000Y-93726000D03*
G04 #@! TO.P,J2,2*
G04 #@! TO.N,/OUT*
X143510000Y-91186000D03*
D14*
G04 #@! TO.P,J2,1*
G04 #@! TO.N,/HLT*
X143510000Y-88646000D03*
G04 #@! TD*
D10*
G04 #@! TO.P,R1,1*
G04 #@! TO.N,VCC*
X95504000Y-118618000D03*
D15*
G04 #@! TO.P,R1,2*
G04 #@! TO.N,Net-(R1-Pad2)*
X95504000Y-110998000D03*
G04 #@! TD*
D10*
G04 #@! TO.P,R2,1*
G04 #@! TO.N,Net-(R2-Pad1)*
X147320000Y-111506000D03*
D15*
G04 #@! TO.P,R2,2*
G04 #@! TO.N,Net-(R1-Pad2)*
X139700000Y-111506000D03*
G04 #@! TD*
G04 #@! TO.P,R3,2*
G04 #@! TO.N,VCC*
X91694000Y-118618000D03*
D10*
G04 #@! TO.P,R3,1*
G04 #@! TO.N,Net-(R3-Pad1)*
X91694000Y-110998000D03*
G04 #@! TD*
D15*
G04 #@! TO.P,R4,2*
G04 #@! TO.N,Net-(R4-Pad2)*
X139700000Y-114808000D03*
D10*
G04 #@! TO.P,R4,1*
G04 #@! TO.N,VCC*
X147320000Y-114808000D03*
G04 #@! TD*
D15*
G04 #@! TO.P,R5,2*
G04 #@! TO.N,GND*
X106172000Y-104648000D03*
D10*
G04 #@! TO.P,R5,1*
G04 #@! TO.N,Net-(D1-Pad1)*
X98552000Y-104648000D03*
G04 #@! TD*
G04 #@! TO.P,R6,1*
G04 #@! TO.N,VCC*
X109728000Y-87630000D03*
D15*
G04 #@! TO.P,R6,2*
G04 #@! TO.N,Net-(R6-Pad2)*
X109728000Y-95250000D03*
G04 #@! TD*
G04 #@! TO.P,R7,2*
G04 #@! TO.N,Net-(C7-Pad1)*
X147320000Y-106934000D03*
D10*
G04 #@! TO.P,R7,1*
G04 #@! TO.N,VCC*
X139700000Y-106934000D03*
G04 #@! TD*
D16*
G04 #@! TO.P,RV1,1*
G04 #@! TO.N,Net-(C4-Pad1)*
X99822000Y-87884000D03*
G04 #@! TO.P,RV1,2*
G04 #@! TO.N,Net-(R2-Pad1)*
X102362000Y-82804000D03*
G04 #@! TO.P,RV1,3*
G04 #@! TO.N,Net-(RV1-Pad3)*
X104902000Y-87884000D03*
G04 #@! TD*
D17*
G04 #@! TO.P,SW1,1*
G04 #@! TO.N,Net-(R3-Pad1)*
X111125000Y-123571000D03*
D16*
G04 #@! TO.P,SW1,2*
G04 #@! TO.N,GND*
X113157000Y-123571000D03*
G04 #@! TO.P,SW1,3*
G04 #@! TO.N,Net-(R4-Pad2)*
X115189000Y-123571000D03*
G04 #@! TD*
D15*
G04 #@! TO.P,U3,8*
G04 #@! TO.N,VCC*
X128524000Y-112141000D03*
G04 #@! TO.P,U3,4*
X120904000Y-119761000D03*
G04 #@! TO.P,U3,7*
G04 #@! TO.N,Net-(R1-Pad2)*
X128524000Y-114681000D03*
G04 #@! TO.P,U3,3*
G04 #@! TO.N,Net-(U1-Pad1)*
X120904000Y-117221000D03*
G04 #@! TO.P,U3,6*
G04 #@! TO.N,Net-(C4-Pad1)*
X128524000Y-117221000D03*
G04 #@! TO.P,U3,2*
X120904000Y-114681000D03*
G04 #@! TO.P,U3,5*
G04 #@! TO.N,Net-(C3-Pad1)*
X128524000Y-119761000D03*
D18*
G04 #@! TO.P,U3,1*
G04 #@! TO.N,GND*
X120904000Y-112141000D03*
G04 #@! TD*
D16*
G04 #@! TO.P,SW2,1*
G04 #@! TO.N,GND*
X142240000Y-121793000D03*
G04 #@! TO.P,SW2,2*
G04 #@! TO.N,Net-(R6-Pad2)*
X137223500Y-121793000D03*
G04 #@! TD*
D10*
G04 #@! TO.P,C1,2*
G04 #@! TO.N,GND*
X124460000Y-82590000D03*
G04 #@! TO.P,C1,1*
G04 #@! TO.N,VCC*
X124460000Y-85090000D03*
G04 #@! TD*
G04 #@! TO.P,C4,2*
G04 #@! TO.N,GND*
X93218000Y-86908000D03*
D18*
G04 #@! TO.P,C4,1*
G04 #@! TO.N,Net-(C4-Pad1)*
X93218000Y-89408000D03*
G04 #@! TD*
D15*
G04 #@! TO.P,U1,14*
G04 #@! TO.N,VCC*
X136652000Y-89408000D03*
G04 #@! TO.P,U1,7*
G04 #@! TO.N,GND*
X129032000Y-104648000D03*
G04 #@! TO.P,U1,13*
G04 #@! TO.N,/OUT*
X136652000Y-91948000D03*
G04 #@! TO.P,U1,6*
G04 #@! TO.N,Net-(U1-Pad6)*
X129032000Y-102108000D03*
G04 #@! TO.P,U1,12*
G04 #@! TO.N,/OUT*
X136652000Y-94488000D03*
G04 #@! TO.P,U1,5*
G04 #@! TO.N,Net-(U1-Pad2)*
X129032000Y-99568000D03*
G04 #@! TO.P,U1,11*
G04 #@! TO.N,/~OUT*
X136652000Y-97028000D03*
G04 #@! TO.P,U1,4*
G04 #@! TO.N,Net-(U1-Pad2)*
X129032000Y-97028000D03*
G04 #@! TO.P,U1,10*
G04 #@! TO.N,Net-(U1-Pad10)*
X136652000Y-99568000D03*
G04 #@! TO.P,U1,3*
G04 #@! TO.N,Net-(U1-Pad3)*
X129032000Y-94488000D03*
G04 #@! TO.P,U1,9*
G04 #@! TO.N,Net-(U1-Pad10)*
X136652000Y-102108000D03*
G04 #@! TO.P,U1,2*
G04 #@! TO.N,Net-(U1-Pad2)*
X129032000Y-91948000D03*
G04 #@! TO.P,U1,8*
G04 #@! TO.N,/OUT*
X136652000Y-104648000D03*
D18*
G04 #@! TO.P,U1,1*
G04 #@! TO.N,Net-(U1-Pad1)*
X129032000Y-89408000D03*
G04 #@! TD*
G04 #@! TO.P,U2,1*
G04 #@! TO.N,Net-(U1-Pad6)*
X115570000Y-89408000D03*
D15*
G04 #@! TO.P,U2,8*
G04 #@! TO.N,Net-(U2-Pad13)*
X123190000Y-104648000D03*
G04 #@! TO.P,U2,2*
G04 #@! TO.N,Net-(U2-Pad2)*
X115570000Y-91948000D03*
G04 #@! TO.P,U2,9*
G04 #@! TO.N,/HLT*
X123190000Y-102108000D03*
G04 #@! TO.P,U2,3*
G04 #@! TO.N,Net-(U2-Pad3)*
X115570000Y-94488000D03*
G04 #@! TO.P,U2,10*
G04 #@! TO.N,/HLT*
X123190000Y-99568000D03*
G04 #@! TO.P,U2,4*
G04 #@! TO.N,Net-(U1-Pad3)*
X115570000Y-97028000D03*
G04 #@! TO.P,U2,11*
G04 #@! TO.N,Net-(U1-Pad10)*
X123190000Y-97028000D03*
G04 #@! TO.P,U2,5*
G04 #@! TO.N,Net-(U2-Pad3)*
X115570000Y-99568000D03*
G04 #@! TO.P,U2,12*
G04 #@! TO.N,Net-(U2-Pad12)*
X123190000Y-94488000D03*
G04 #@! TO.P,U2,6*
X115570000Y-102108000D03*
G04 #@! TO.P,U2,13*
G04 #@! TO.N,Net-(U2-Pad13)*
X123190000Y-91948000D03*
G04 #@! TO.P,U2,7*
G04 #@! TO.N,GND*
X115570000Y-104648000D03*
G04 #@! TO.P,U2,14*
G04 #@! TO.N,VCC*
X123190000Y-89408000D03*
G04 #@! TD*
D18*
G04 #@! TO.P,U4,1*
G04 #@! TO.N,GND*
X98552000Y-93218000D03*
D15*
G04 #@! TO.P,U4,5*
G04 #@! TO.N,Net-(C5-Pad1)*
X106172000Y-100838000D03*
G04 #@! TO.P,U4,2*
G04 #@! TO.N,Net-(R3-Pad1)*
X98552000Y-95758000D03*
G04 #@! TO.P,U4,6*
G04 #@! TO.N,GND*
X106172000Y-98298000D03*
G04 #@! TO.P,U4,3*
G04 #@! TO.N,Net-(U1-Pad2)*
X98552000Y-98298000D03*
G04 #@! TO.P,U4,7*
G04 #@! TO.N,Net-(U4-Pad7)*
X106172000Y-95758000D03*
G04 #@! TO.P,U4,4*
G04 #@! TO.N,Net-(R4-Pad2)*
X98552000Y-100838000D03*
G04 #@! TO.P,U4,8*
G04 #@! TO.N,VCC*
X106172000Y-93218000D03*
G04 #@! TD*
G04 #@! TO.P,U5,8*
G04 #@! TO.N,VCC*
X106934000Y-110998000D03*
G04 #@! TO.P,U5,4*
X99314000Y-118618000D03*
G04 #@! TO.P,U5,7*
G04 #@! TO.N,Net-(C7-Pad1)*
X106934000Y-113538000D03*
G04 #@! TO.P,U5,3*
G04 #@! TO.N,Net-(U2-Pad2)*
X99314000Y-116078000D03*
G04 #@! TO.P,U5,6*
G04 #@! TO.N,Net-(C7-Pad1)*
X106934000Y-116078000D03*
G04 #@! TO.P,U5,2*
G04 #@! TO.N,Net-(R6-Pad2)*
X99314000Y-113538000D03*
G04 #@! TO.P,U5,5*
G04 #@! TO.N,Net-(C6-Pad1)*
X106934000Y-118618000D03*
D18*
G04 #@! TO.P,U5,1*
G04 #@! TO.N,GND*
X99314000Y-110998000D03*
G04 #@! TD*
D19*
G04 #@! TO.N,Net-(D1-Pad1)*
X109982000Y-106426000D03*
X128524000Y-107188000D03*
G04 #@! TO.N,/HLT*
X133096000Y-98044000D03*
G04 #@! TO.N,Net-(C6-Pad1)*
X90170000Y-106426000D03*
G04 #@! TO.N,Net-(R1-Pad2)*
X116586000Y-119380000D03*
G04 #@! TO.N,Net-(R2-Pad1)*
X105156000Y-79248000D03*
G04 #@! TO.N,Net-(R4-Pad2)*
X111506000Y-107950000D03*
X96012000Y-106172000D03*
G04 #@! TO.N,Net-(R6-Pad2)*
X105972880Y-122428000D03*
G04 #@! TO.N,Net-(U1-Pad2)*
X102362000Y-86106000D03*
G04 #@! TO.N,Net-(U1-Pad6)*
X112268000Y-105156000D03*
G04 #@! TD*
D20*
G04 #@! TO.N,VCC*
X99314000Y-118618000D02*
X101346000Y-118618000D01*
X101346000Y-118618000D02*
X104394000Y-115570000D01*
X104394000Y-115570000D02*
X104394000Y-112014000D01*
X104394000Y-112014000D02*
X105410000Y-110998000D01*
X105410000Y-110998000D02*
X106934000Y-110998000D01*
X126873000Y-112141000D02*
X128524000Y-112141000D01*
X120904000Y-119761000D02*
X121793000Y-119761000D01*
X121793000Y-119761000D02*
X125984000Y-115570000D01*
X125984000Y-115570000D02*
X125984000Y-113030000D01*
X125984000Y-113030000D02*
X126873000Y-112141000D01*
X146188630Y-114808000D02*
X141732000Y-110351370D01*
X147320000Y-114808000D02*
X146188630Y-114808000D01*
X141732000Y-110351370D02*
X141732000Y-107442000D01*
X141224000Y-106934000D02*
X139700000Y-106934000D01*
X141732000Y-107442000D02*
X141224000Y-106934000D01*
X139700000Y-92456000D02*
X136652000Y-89408000D01*
X139700000Y-106934000D02*
X139700000Y-92456000D01*
X138684000Y-107950000D02*
X139700000Y-106934000D01*
X131572000Y-107950000D02*
X138684000Y-107950000D01*
X128524000Y-110998000D02*
X131572000Y-107950000D01*
X128524000Y-112141000D02*
X128524000Y-110998000D01*
D21*
G04 #@! TO.N,Net-(D1-Pad1)*
X109982000Y-106426000D02*
X110236000Y-106426000D01*
X111129002Y-106426000D02*
X111891002Y-107188000D01*
X110236000Y-106426000D02*
X111129002Y-106426000D01*
X111891002Y-107188000D02*
X128524000Y-107188000D01*
G04 #@! TO.N,/HLT*
X143510000Y-87546000D02*
X142324000Y-86360000D01*
X143510000Y-88646000D02*
X143510000Y-87546000D01*
X142324000Y-86360000D02*
X134112000Y-86360000D01*
X134112000Y-86360000D02*
X133096000Y-87376000D01*
X133096000Y-87376000D02*
X133096000Y-98044000D01*
G04 #@! TO.N,Net-(U1-Pad3)*
X127508000Y-92964000D02*
X129032000Y-94488000D01*
X127508000Y-91186000D02*
X127508000Y-92964000D01*
X123952000Y-87630000D02*
X127508000Y-91186000D01*
X115570000Y-97028000D02*
X117348000Y-95250000D01*
X117348000Y-95250000D02*
X117348000Y-88138000D01*
X117348000Y-88138000D02*
X117856000Y-87630000D01*
X117856000Y-87630000D02*
X123952000Y-87630000D01*
G04 #@! TO.N,Net-(C6-Pad1)*
X106934000Y-118618000D02*
X106134001Y-119417999D01*
X106134001Y-119417999D02*
X104140000Y-121412000D01*
X104140000Y-121412000D02*
X91440000Y-121412000D01*
X90170000Y-113538000D02*
X90170000Y-120142000D01*
X90170000Y-106426000D02*
X90170000Y-113538000D01*
X91440000Y-121412000D02*
X90170000Y-120142000D01*
G04 #@! TO.N,Net-(C7-Pad1)*
X106934000Y-116078000D02*
X108458000Y-117602000D01*
X108458000Y-117602000D02*
X108458000Y-124206000D01*
X108458000Y-124206000D02*
X109982000Y-125730000D01*
X109982000Y-125730000D02*
X126238000Y-125730000D01*
X131953000Y-120015000D02*
X131953000Y-114300000D01*
X126238000Y-125730000D02*
X131953000Y-120015000D01*
G04 #@! TO.N,Net-(R1-Pad2)*
X128524000Y-114681000D02*
X126492000Y-116713000D01*
X126492000Y-116713000D02*
X126492000Y-119888000D01*
X126492000Y-119888000D02*
X124968000Y-121412000D01*
X124968000Y-121412000D02*
X118618000Y-121412000D01*
X118618000Y-121412000D02*
X116586000Y-119380000D01*
G04 #@! TO.N,Net-(R2-Pad1)*
X102362000Y-82804000D02*
X102362000Y-81280000D01*
X102362000Y-81280000D02*
X104394000Y-79248000D01*
X104394000Y-79248000D02*
X105156000Y-79248000D01*
G04 #@! TO.N,Net-(R3-Pad1)*
X91694000Y-102616000D02*
X91694000Y-110998000D01*
X98552000Y-95758000D02*
X91694000Y-102616000D01*
G04 #@! TO.N,Net-(R4-Pad2)*
X115189000Y-123571000D02*
X115189000Y-119629998D01*
X115189000Y-119629998D02*
X115189000Y-111633000D01*
X115189000Y-111633000D02*
X111506000Y-107950000D01*
X96012000Y-103378000D02*
X98552000Y-100838000D01*
X96012000Y-106172000D02*
X96012000Y-103378000D01*
G04 #@! TO.N,Net-(R6-Pad2)*
X137223500Y-121793000D02*
X132842000Y-126174500D01*
X132842000Y-126174500D02*
X132778500Y-126238000D01*
X109782880Y-126238000D02*
X105972880Y-122428000D01*
X132778500Y-126238000D02*
X109782880Y-126238000D01*
X105972880Y-122428000D02*
X105972880Y-122428000D01*
X107347001Y-105504999D02*
X99314000Y-113538000D01*
X109728000Y-103124000D02*
X107347001Y-105504999D01*
X109728000Y-95250000D02*
X109728000Y-103124000D01*
G04 #@! TO.N,Net-(U1-Pad1)*
X130082000Y-89408000D02*
X129032000Y-89408000D01*
X130756841Y-90082841D02*
X130082000Y-89408000D01*
X130756841Y-107188001D02*
X130756841Y-90082841D01*
X120904000Y-117221000D02*
X122047000Y-117221000D01*
X122047000Y-117221000D02*
X125222000Y-114046000D01*
X125222000Y-114046000D02*
X125222000Y-112722842D01*
X125222000Y-112722842D02*
X130756841Y-107188001D01*
G04 #@! TO.N,Net-(U1-Pad2)*
X122682000Y-85598000D02*
X123952000Y-86868000D01*
X102870000Y-85598000D02*
X122682000Y-85598000D01*
X123952000Y-86868000D02*
X129032000Y-91948000D01*
X102362000Y-86106000D02*
X102870000Y-85598000D01*
G04 #@! TO.N,Net-(U1-Pad6)*
X112522000Y-105410000D02*
X112268000Y-105156000D01*
X125730000Y-102108000D02*
X129032000Y-102108000D01*
X124968000Y-102870000D02*
X125730000Y-102108000D01*
X112268000Y-105156000D02*
X113284000Y-106172000D01*
X113284000Y-106172000D02*
X124460000Y-106172000D01*
X124460000Y-106172000D02*
X124968000Y-105664000D01*
X124968000Y-105664000D02*
X124968000Y-102870000D01*
G04 #@! TO.N,Net-(U2-Pad12)*
X115570000Y-102108000D02*
X120396000Y-97282000D01*
X120396000Y-97282000D02*
X123190000Y-94488000D01*
G04 #@! TO.N,Net-(U2-Pad2)*
X99314000Y-116078000D02*
X102870000Y-112522000D01*
X102870000Y-112522000D02*
X102870000Y-111506000D01*
X113792000Y-93726000D02*
X115570000Y-91948000D01*
X102870000Y-111506000D02*
X113792000Y-100584000D01*
X113792000Y-100584000D02*
X113792000Y-93726000D01*
G04 #@! TD*
D22*
G04 #@! TO.N,GND*
G36*
X148780179Y-78206477D02*
X148833737Y-78242263D01*
X148869523Y-78295821D01*
X148896000Y-78428931D01*
X148896001Y-127057064D01*
X148869523Y-127190179D01*
X148833737Y-127243737D01*
X148780179Y-127279523D01*
X148647069Y-127306000D01*
X89096931Y-127306000D01*
X88963821Y-127279523D01*
X88910263Y-127243737D01*
X88874477Y-127190179D01*
X88848000Y-127057069D01*
X88848000Y-106220126D01*
X89135000Y-106220126D01*
X89135000Y-106631874D01*
X89292569Y-107012280D01*
X89410000Y-107129711D01*
X89410001Y-113463144D01*
X89410000Y-113463149D01*
X89410001Y-120067148D01*
X89395112Y-120142000D01*
X89454097Y-120438537D01*
X89528693Y-120550177D01*
X89622072Y-120689929D01*
X89685528Y-120732329D01*
X90849671Y-121896473D01*
X90892071Y-121959929D01*
X91143463Y-122127904D01*
X91365148Y-122172000D01*
X91365152Y-122172000D01*
X91439999Y-122186888D01*
X91514846Y-122172000D01*
X104065153Y-122172000D01*
X104140000Y-122186888D01*
X104214847Y-122172000D01*
X104214852Y-122172000D01*
X104436537Y-122127904D01*
X104687929Y-121959929D01*
X104730331Y-121896470D01*
X106610114Y-120016688D01*
X106792667Y-120053000D01*
X107075333Y-120053000D01*
X107493909Y-119969740D01*
X107698000Y-119833371D01*
X107698001Y-123078320D01*
X107007880Y-122388199D01*
X107007880Y-122222126D01*
X106850311Y-121841720D01*
X106559160Y-121550569D01*
X106178754Y-121393000D01*
X105767006Y-121393000D01*
X105386600Y-121550569D01*
X105095449Y-121841720D01*
X104937880Y-122222126D01*
X104937880Y-122633874D01*
X105095449Y-123014280D01*
X105386600Y-123305431D01*
X105767006Y-123463000D01*
X105933079Y-123463000D01*
X109192551Y-126722473D01*
X109234951Y-126785929D01*
X109298407Y-126828329D01*
X109486342Y-126953904D01*
X109534485Y-126963480D01*
X109708028Y-126998000D01*
X109708032Y-126998000D01*
X109782880Y-127012888D01*
X109857728Y-126998000D01*
X132703653Y-126998000D01*
X132778500Y-127012888D01*
X132853347Y-126998000D01*
X132853352Y-126998000D01*
X133075037Y-126953904D01*
X133326429Y-126785929D01*
X133368831Y-126722470D01*
X133432329Y-126658972D01*
X136914282Y-123177020D01*
X136945619Y-123190000D01*
X137501381Y-123190000D01*
X138014837Y-122977320D01*
X138218944Y-122773213D01*
X141439392Y-122773213D01*
X141508857Y-123015397D01*
X142032302Y-123202144D01*
X142587368Y-123174362D01*
X142971143Y-123015397D01*
X143040608Y-122773213D01*
X142240000Y-121972605D01*
X141439392Y-122773213D01*
X138218944Y-122773213D01*
X138407820Y-122584337D01*
X138620500Y-122070881D01*
X138620500Y-121585302D01*
X140830856Y-121585302D01*
X140858638Y-122140368D01*
X141017603Y-122524143D01*
X141259787Y-122593608D01*
X142060395Y-121793000D01*
X142419605Y-121793000D01*
X143220213Y-122593608D01*
X143462397Y-122524143D01*
X143649144Y-122000698D01*
X143621362Y-121445632D01*
X143462397Y-121061857D01*
X143220213Y-120992392D01*
X142419605Y-121793000D01*
X142060395Y-121793000D01*
X141259787Y-120992392D01*
X141017603Y-121061857D01*
X140830856Y-121585302D01*
X138620500Y-121585302D01*
X138620500Y-121515119D01*
X138407820Y-121001663D01*
X138218944Y-120812787D01*
X141439392Y-120812787D01*
X142240000Y-121613395D01*
X143040608Y-120812787D01*
X142971143Y-120570603D01*
X142447698Y-120383856D01*
X141892632Y-120411638D01*
X141508857Y-120570603D01*
X141439392Y-120812787D01*
X138218944Y-120812787D01*
X138014837Y-120608680D01*
X137501381Y-120396000D01*
X136945619Y-120396000D01*
X136432163Y-120608680D01*
X136039180Y-121001663D01*
X135826500Y-121515119D01*
X135826500Y-122070881D01*
X135839480Y-122102218D01*
X132463699Y-125478000D01*
X127564801Y-125478000D01*
X132437473Y-120605329D01*
X132500929Y-120562929D01*
X132668904Y-120311537D01*
X132713000Y-120089852D01*
X132713000Y-120089848D01*
X132727888Y-120015000D01*
X132713000Y-119940152D01*
X132713000Y-115538430D01*
X132765862Y-115516534D01*
X133169534Y-115112862D01*
X133295812Y-114808000D01*
X138236887Y-114808000D01*
X138348260Y-115367909D01*
X138665423Y-115842577D01*
X139140091Y-116159740D01*
X139558667Y-116243000D01*
X139841333Y-116243000D01*
X140259909Y-116159740D01*
X140734577Y-115842577D01*
X141051740Y-115367909D01*
X141163113Y-114808000D01*
X141051740Y-114248091D01*
X140734577Y-113773423D01*
X140259909Y-113456260D01*
X139841333Y-113373000D01*
X139558667Y-113373000D01*
X139140091Y-113456260D01*
X138665423Y-113773423D01*
X138348260Y-114248091D01*
X138236887Y-114808000D01*
X133295812Y-114808000D01*
X133388000Y-114585439D01*
X133388000Y-114014561D01*
X133169534Y-113487138D01*
X132765862Y-113083466D01*
X132700701Y-113056475D01*
X132707005Y-113053864D01*
X132781139Y-112807745D01*
X131953000Y-111979605D01*
X131124861Y-112807745D01*
X131198995Y-113053864D01*
X131205746Y-113056290D01*
X131140138Y-113083466D01*
X130736466Y-113487138D01*
X130518000Y-114014561D01*
X130518000Y-114585439D01*
X130736466Y-115112862D01*
X131140138Y-115516534D01*
X131193001Y-115538431D01*
X131193000Y-119700198D01*
X125923199Y-124970000D01*
X113151972Y-124970000D01*
X113504368Y-124952362D01*
X113888143Y-124793397D01*
X113957608Y-124551213D01*
X113157000Y-123750605D01*
X113142858Y-123764748D01*
X112963253Y-123585143D01*
X112977395Y-123571000D01*
X112963253Y-123556858D01*
X113142858Y-123377253D01*
X113157000Y-123391395D01*
X113957608Y-122590787D01*
X113888143Y-122348603D01*
X113364698Y-122161856D01*
X112809632Y-122189638D01*
X112425857Y-122348603D01*
X112400996Y-122435280D01*
X112344809Y-122351191D01*
X112134765Y-122210843D01*
X111887000Y-122161560D01*
X110363000Y-122161560D01*
X110115235Y-122210843D01*
X109905191Y-122351191D01*
X109764843Y-122561235D01*
X109715560Y-122809000D01*
X109715560Y-124333000D01*
X109729405Y-124402603D01*
X109218000Y-123891199D01*
X109218000Y-120137396D01*
X109423138Y-120342534D01*
X109950561Y-120561000D01*
X110521439Y-120561000D01*
X111048862Y-120342534D01*
X111452534Y-119938862D01*
X111671000Y-119411439D01*
X111671000Y-118840561D01*
X111452534Y-118313138D01*
X111048862Y-117909466D01*
X110983701Y-117882475D01*
X110990005Y-117879864D01*
X111064139Y-117633745D01*
X110236000Y-116805605D01*
X110221858Y-116819748D01*
X110042252Y-116640142D01*
X110056395Y-116626000D01*
X110415605Y-116626000D01*
X111243745Y-117454139D01*
X111489864Y-117380005D01*
X111682965Y-116842777D01*
X111655778Y-116272546D01*
X111489864Y-115871995D01*
X111243745Y-115797861D01*
X110415605Y-116626000D01*
X110056395Y-116626000D01*
X109228255Y-115797861D01*
X108982136Y-115871995D01*
X108789035Y-116409223D01*
X108811514Y-116880712D01*
X108332688Y-116401886D01*
X108397113Y-116078000D01*
X108305664Y-115618255D01*
X109407861Y-115618255D01*
X110236000Y-116446395D01*
X111064139Y-115618255D01*
X110990005Y-115372136D01*
X110452777Y-115179035D01*
X109882546Y-115206222D01*
X109481995Y-115372136D01*
X109407861Y-115618255D01*
X108305664Y-115618255D01*
X108285740Y-115518091D01*
X107968577Y-115043423D01*
X107616242Y-114808000D01*
X107968577Y-114572577D01*
X108285740Y-114097909D01*
X108397113Y-113538000D01*
X108285740Y-112978091D01*
X107968577Y-112503423D01*
X107616242Y-112268000D01*
X107968577Y-112032577D01*
X108285740Y-111557909D01*
X108397113Y-110998000D01*
X108285740Y-110438091D01*
X107968577Y-109963423D01*
X107493909Y-109646260D01*
X107075333Y-109563000D01*
X106792667Y-109563000D01*
X106374091Y-109646260D01*
X105899423Y-109963423D01*
X105887010Y-109982000D01*
X105510063Y-109982000D01*
X105475647Y-109975154D01*
X108947000Y-106503802D01*
X108947000Y-106631874D01*
X109104569Y-107012280D01*
X109395720Y-107303431D01*
X109776126Y-107461000D01*
X110187874Y-107461000D01*
X110568280Y-107303431D01*
X110685711Y-107186000D01*
X110806289Y-107186000D01*
X110628569Y-107363720D01*
X110471000Y-107744126D01*
X110471000Y-108155874D01*
X110628569Y-108536280D01*
X110919720Y-108827431D01*
X111300126Y-108985000D01*
X111466199Y-108985000D01*
X114429001Y-111947803D01*
X114429000Y-119704849D01*
X114429001Y-119704854D01*
X114429000Y-122373700D01*
X114397663Y-122386680D01*
X114004680Y-122779663D01*
X113917521Y-122990084D01*
X113336605Y-123571000D01*
X113917521Y-124151916D01*
X114004680Y-124362337D01*
X114397663Y-124755320D01*
X114911119Y-124968000D01*
X115466881Y-124968000D01*
X115980337Y-124755320D01*
X116373320Y-124362337D01*
X116586000Y-123848881D01*
X116586000Y-123293119D01*
X116373320Y-122779663D01*
X115980337Y-122386680D01*
X115949000Y-122373700D01*
X115949000Y-120206711D01*
X115999720Y-120257431D01*
X116380126Y-120415000D01*
X116546199Y-120415000D01*
X118027671Y-121896473D01*
X118070071Y-121959929D01*
X118321463Y-122127904D01*
X118543148Y-122172000D01*
X118543153Y-122172000D01*
X118618000Y-122186888D01*
X118692847Y-122172000D01*
X124893153Y-122172000D01*
X124968000Y-122186888D01*
X125042847Y-122172000D01*
X125042852Y-122172000D01*
X125264537Y-122127904D01*
X125515929Y-121959929D01*
X125558331Y-121896470D01*
X126976476Y-120478327D01*
X127039929Y-120435929D01*
X127082327Y-120372476D01*
X127082329Y-120372474D01*
X127159533Y-120256929D01*
X127172260Y-120320909D01*
X127489423Y-120795577D01*
X127964091Y-121112740D01*
X128382667Y-121196000D01*
X128665333Y-121196000D01*
X129083909Y-121112740D01*
X129558577Y-120795577D01*
X129875740Y-120320909D01*
X129987113Y-119761000D01*
X129875740Y-119201091D01*
X129558577Y-118726423D01*
X129206242Y-118491000D01*
X129558577Y-118255577D01*
X129875740Y-117780909D01*
X129987113Y-117221000D01*
X129875740Y-116661091D01*
X129558577Y-116186423D01*
X129206242Y-115951000D01*
X129558577Y-115715577D01*
X129875740Y-115240909D01*
X129987113Y-114681000D01*
X129875740Y-114121091D01*
X129558577Y-113646423D01*
X129206242Y-113411000D01*
X129558577Y-113175577D01*
X129875740Y-112700909D01*
X129987113Y-112141000D01*
X129876165Y-111583223D01*
X130506035Y-111583223D01*
X130533222Y-112153454D01*
X130699136Y-112554005D01*
X130945255Y-112628139D01*
X131773395Y-111800000D01*
X132132605Y-111800000D01*
X132960745Y-112628139D01*
X133206864Y-112554005D01*
X133399965Y-112016777D01*
X133372778Y-111446546D01*
X133206864Y-111045995D01*
X132960745Y-110971861D01*
X132132605Y-111800000D01*
X131773395Y-111800000D01*
X130945255Y-110971861D01*
X130699136Y-111045995D01*
X130506035Y-111583223D01*
X129876165Y-111583223D01*
X129875740Y-111581091D01*
X129676273Y-111282567D01*
X130166585Y-110792255D01*
X131124861Y-110792255D01*
X131953000Y-111620395D01*
X132781139Y-110792255D01*
X132707005Y-110546136D01*
X132169777Y-110353035D01*
X131599546Y-110380222D01*
X131198995Y-110546136D01*
X131124861Y-110792255D01*
X130166585Y-110792255D01*
X131992841Y-108966000D01*
X138583937Y-108966000D01*
X138684000Y-108985904D01*
X138784063Y-108966000D01*
X138784065Y-108966000D01*
X139080423Y-108907051D01*
X139416495Y-108682495D01*
X139473179Y-108597661D01*
X139701840Y-108369000D01*
X139985439Y-108369000D01*
X140512862Y-108150534D01*
X140713396Y-107950000D01*
X140716001Y-107950000D01*
X140716000Y-110251306D01*
X140696096Y-110351370D01*
X140716000Y-110451433D01*
X140716000Y-110451434D01*
X140717738Y-110460172D01*
X140259909Y-110154260D01*
X139841333Y-110071000D01*
X139558667Y-110071000D01*
X139140091Y-110154260D01*
X138665423Y-110471423D01*
X138348260Y-110946091D01*
X138236887Y-111506000D01*
X138348260Y-112065909D01*
X138665423Y-112540577D01*
X139140091Y-112857740D01*
X139558667Y-112941000D01*
X139841333Y-112941000D01*
X140259909Y-112857740D01*
X140734577Y-112540577D01*
X141051740Y-112065909D01*
X141163113Y-111506000D01*
X141091930Y-111148140D01*
X145399452Y-115455663D01*
X145456135Y-115540495D01*
X145792207Y-115765051D01*
X146088565Y-115824000D01*
X146088566Y-115824000D01*
X146188630Y-115843904D01*
X146288694Y-115824000D01*
X146306604Y-115824000D01*
X146507138Y-116024534D01*
X147034561Y-116243000D01*
X147605439Y-116243000D01*
X148132862Y-116024534D01*
X148536534Y-115620862D01*
X148755000Y-115093439D01*
X148755000Y-114522561D01*
X148536534Y-113995138D01*
X148132862Y-113591466D01*
X147605439Y-113373000D01*
X147034561Y-113373000D01*
X146507138Y-113591466D01*
X146458037Y-113640567D01*
X144038031Y-111220561D01*
X145885000Y-111220561D01*
X145885000Y-111791439D01*
X146103466Y-112318862D01*
X146507138Y-112722534D01*
X147034561Y-112941000D01*
X147605439Y-112941000D01*
X148132862Y-112722534D01*
X148536534Y-112318862D01*
X148755000Y-111791439D01*
X148755000Y-111220561D01*
X148536534Y-110693138D01*
X148132862Y-110289466D01*
X147605439Y-110071000D01*
X147034561Y-110071000D01*
X146507138Y-110289466D01*
X146103466Y-110693138D01*
X145885000Y-111220561D01*
X144038031Y-111220561D01*
X142748000Y-109930530D01*
X142748000Y-107542063D01*
X142767904Y-107441999D01*
X142740341Y-107303431D01*
X142689051Y-107045577D01*
X142681359Y-107034064D01*
X142623109Y-106946888D01*
X142614498Y-106934000D01*
X145856887Y-106934000D01*
X145968260Y-107493909D01*
X146285423Y-107968577D01*
X146760091Y-108285740D01*
X147178667Y-108369000D01*
X147461333Y-108369000D01*
X147879909Y-108285740D01*
X148354577Y-107968577D01*
X148671740Y-107493909D01*
X148783113Y-106934000D01*
X148671740Y-106374091D01*
X148354577Y-105899423D01*
X147879909Y-105582260D01*
X147461333Y-105499000D01*
X147178667Y-105499000D01*
X146760091Y-105582260D01*
X146285423Y-105899423D01*
X145968260Y-106374091D01*
X145856887Y-106934000D01*
X142614498Y-106934000D01*
X142464495Y-106709505D01*
X142379660Y-106652820D01*
X142013180Y-106286340D01*
X141956495Y-106201505D01*
X141620423Y-105976949D01*
X141324065Y-105918000D01*
X141324063Y-105918000D01*
X141224000Y-105898096D01*
X141123937Y-105918000D01*
X140716000Y-105918000D01*
X140716000Y-100954000D01*
X141962560Y-100954000D01*
X141962560Y-102754000D01*
X142011843Y-103001765D01*
X142152191Y-103211809D01*
X142362235Y-103352157D01*
X142610000Y-103401440D01*
X144410000Y-103401440D01*
X144657765Y-103352157D01*
X144867809Y-103211809D01*
X145008157Y-103001765D01*
X145057440Y-102754000D01*
X145057440Y-100954000D01*
X145008157Y-100706235D01*
X144867809Y-100496191D01*
X144657765Y-100355843D01*
X144642092Y-100352725D01*
X144811310Y-100183507D01*
X145045000Y-99619330D01*
X145045000Y-99008670D01*
X144811310Y-98444493D01*
X144379507Y-98012690D01*
X143815330Y-97779000D01*
X143204670Y-97779000D01*
X142640493Y-98012690D01*
X142208690Y-98444493D01*
X141975000Y-99008670D01*
X141975000Y-99619330D01*
X142208690Y-100183507D01*
X142377908Y-100352725D01*
X142362235Y-100355843D01*
X142152191Y-100496191D01*
X142011843Y-100706235D01*
X141962560Y-100954000D01*
X140716000Y-100954000D01*
X140716000Y-92556063D01*
X140735904Y-92456000D01*
X140716000Y-92355935D01*
X140657051Y-92059577D01*
X140432495Y-91723505D01*
X140347663Y-91666822D01*
X138110754Y-89429914D01*
X138115113Y-89408000D01*
X138003740Y-88848091D01*
X137686577Y-88373423D01*
X137211909Y-88056260D01*
X136793333Y-87973000D01*
X136510667Y-87973000D01*
X136092091Y-88056260D01*
X135617423Y-88373423D01*
X135300260Y-88848091D01*
X135188887Y-89408000D01*
X135300260Y-89967909D01*
X135617423Y-90442577D01*
X135969758Y-90678000D01*
X135617423Y-90913423D01*
X135300260Y-91388091D01*
X135188887Y-91948000D01*
X135300260Y-92507909D01*
X135617423Y-92982577D01*
X135969758Y-93218000D01*
X135617423Y-93453423D01*
X135300260Y-93928091D01*
X135188887Y-94488000D01*
X135300260Y-95047909D01*
X135617423Y-95522577D01*
X135969758Y-95758000D01*
X135617423Y-95993423D01*
X135300260Y-96468091D01*
X135188887Y-97028000D01*
X135300260Y-97587909D01*
X135617423Y-98062577D01*
X135969758Y-98298000D01*
X135617423Y-98533423D01*
X135300260Y-99008091D01*
X135188887Y-99568000D01*
X135300260Y-100127909D01*
X135617423Y-100602577D01*
X135969758Y-100838000D01*
X135617423Y-101073423D01*
X135300260Y-101548091D01*
X135188887Y-102108000D01*
X135300260Y-102667909D01*
X135617423Y-103142577D01*
X135969758Y-103378000D01*
X135617423Y-103613423D01*
X135300260Y-104088091D01*
X135188887Y-104648000D01*
X135300260Y-105207909D01*
X135617423Y-105682577D01*
X136092091Y-105999740D01*
X136510667Y-106083000D01*
X136793333Y-106083000D01*
X137211909Y-105999740D01*
X137686577Y-105682577D01*
X138003740Y-105207909D01*
X138115113Y-104648000D01*
X138003740Y-104088091D01*
X137686577Y-103613423D01*
X137334242Y-103378000D01*
X137686577Y-103142577D01*
X138003740Y-102667909D01*
X138115113Y-102108000D01*
X138003740Y-101548091D01*
X137686577Y-101073423D01*
X137334242Y-100838000D01*
X137686577Y-100602577D01*
X138003740Y-100127909D01*
X138115113Y-99568000D01*
X138003740Y-99008091D01*
X137686577Y-98533423D01*
X137334242Y-98298000D01*
X137686577Y-98062577D01*
X138003740Y-97587909D01*
X138115113Y-97028000D01*
X138003740Y-96468091D01*
X137686577Y-95993423D01*
X137334242Y-95758000D01*
X137686577Y-95522577D01*
X138003740Y-95047909D01*
X138115113Y-94488000D01*
X138003740Y-93928091D01*
X137686577Y-93453423D01*
X137334242Y-93218000D01*
X137686577Y-92982577D01*
X138003740Y-92507909D01*
X138055393Y-92248233D01*
X138684001Y-92876842D01*
X138684000Y-105920604D01*
X138483466Y-106121138D01*
X138265000Y-106648561D01*
X138265000Y-106932160D01*
X138263160Y-106934000D01*
X131672063Y-106934000D01*
X131572000Y-106914096D01*
X131516841Y-106925068D01*
X131516841Y-97838126D01*
X132061000Y-97838126D01*
X132061000Y-98249874D01*
X132218569Y-98630280D01*
X132509720Y-98921431D01*
X132890126Y-99079000D01*
X133301874Y-99079000D01*
X133682280Y-98921431D01*
X133973431Y-98630280D01*
X134131000Y-98249874D01*
X134131000Y-97838126D01*
X133973431Y-97457720D01*
X133856000Y-97340289D01*
X133856000Y-87690801D01*
X134426802Y-87120000D01*
X142009199Y-87120000D01*
X142217296Y-87328098D01*
X142202191Y-87338191D01*
X142061843Y-87548235D01*
X142012560Y-87796000D01*
X142012560Y-89496000D01*
X142061843Y-89743765D01*
X142202191Y-89953809D01*
X142412235Y-90094157D01*
X142457619Y-90103184D01*
X142439375Y-90115375D01*
X142111161Y-90606582D01*
X141995908Y-91186000D01*
X142111161Y-91765418D01*
X142439375Y-92256625D01*
X142737761Y-92456000D01*
X142439375Y-92655375D01*
X142111161Y-93146582D01*
X141995908Y-93726000D01*
X142111161Y-94305418D01*
X142439375Y-94796625D01*
X142930582Y-95124839D01*
X143363744Y-95211000D01*
X143656256Y-95211000D01*
X144089418Y-95124839D01*
X144580625Y-94796625D01*
X144908839Y-94305418D01*
X145024092Y-93726000D01*
X144908839Y-93146582D01*
X144580625Y-92655375D01*
X144282239Y-92456000D01*
X144580625Y-92256625D01*
X144908839Y-91765418D01*
X145024092Y-91186000D01*
X144908839Y-90606582D01*
X144580625Y-90115375D01*
X144562381Y-90103184D01*
X144607765Y-90094157D01*
X144817809Y-89953809D01*
X144958157Y-89743765D01*
X145007440Y-89496000D01*
X145007440Y-87796000D01*
X144958157Y-87548235D01*
X144817809Y-87338191D01*
X144607765Y-87197843D01*
X144360000Y-87148560D01*
X144158483Y-87148560D01*
X144057929Y-86998071D01*
X143994473Y-86955671D01*
X142914331Y-85875530D01*
X142871929Y-85812071D01*
X142620537Y-85644096D01*
X142398852Y-85600000D01*
X142398847Y-85600000D01*
X142324000Y-85585112D01*
X142249153Y-85600000D01*
X134186847Y-85600000D01*
X134112000Y-85585112D01*
X134037153Y-85600000D01*
X134037148Y-85600000D01*
X133815463Y-85644096D01*
X133564071Y-85812071D01*
X133521671Y-85875527D01*
X132611530Y-86785669D01*
X132548071Y-86828071D01*
X132380096Y-87079464D01*
X132336000Y-87301149D01*
X132336000Y-87301153D01*
X132321112Y-87376000D01*
X132336000Y-87450847D01*
X132336001Y-97340288D01*
X132218569Y-97457720D01*
X132061000Y-97838126D01*
X131516841Y-97838126D01*
X131516841Y-90157687D01*
X131531729Y-90082840D01*
X131516841Y-90007993D01*
X131516841Y-90007989D01*
X131472745Y-89786304D01*
X131415747Y-89701000D01*
X131347170Y-89598367D01*
X131347168Y-89598365D01*
X131304770Y-89534912D01*
X131241316Y-89492513D01*
X130672330Y-88923529D01*
X130629929Y-88860071D01*
X130479440Y-88759517D01*
X130479440Y-88608000D01*
X130430157Y-88360235D01*
X130289809Y-88150191D01*
X130079765Y-88009843D01*
X129832000Y-87960560D01*
X128232000Y-87960560D01*
X127984235Y-88009843D01*
X127774191Y-88150191D01*
X127633843Y-88360235D01*
X127584560Y-88608000D01*
X127584560Y-89425758D01*
X124683801Y-86525000D01*
X124745439Y-86525000D01*
X125272862Y-86306534D01*
X125676534Y-85902862D01*
X125895000Y-85375439D01*
X125895000Y-84804561D01*
X126835000Y-84804561D01*
X126835000Y-85375439D01*
X127053466Y-85902862D01*
X127457138Y-86306534D01*
X127984561Y-86525000D01*
X128555439Y-86525000D01*
X129082862Y-86306534D01*
X129486534Y-85902862D01*
X129705000Y-85375439D01*
X129705000Y-84804561D01*
X129486534Y-84277138D01*
X129082862Y-83873466D01*
X129017701Y-83846475D01*
X129024005Y-83843864D01*
X129098139Y-83597745D01*
X128270000Y-82769605D01*
X127441861Y-83597745D01*
X127515995Y-83843864D01*
X127522746Y-83846290D01*
X127457138Y-83873466D01*
X127053466Y-84277138D01*
X126835000Y-84804561D01*
X125895000Y-84804561D01*
X125676534Y-84277138D01*
X125272862Y-83873466D01*
X125207701Y-83846475D01*
X125214005Y-83843864D01*
X125288139Y-83597745D01*
X124460000Y-82769605D01*
X123631861Y-83597745D01*
X123705995Y-83843864D01*
X123712746Y-83846290D01*
X123647138Y-83873466D01*
X123243466Y-84277138D01*
X123025000Y-84804561D01*
X123025000Y-84913142D01*
X122978537Y-84882096D01*
X122756852Y-84838000D01*
X122756847Y-84838000D01*
X122682000Y-84823112D01*
X122607153Y-84838000D01*
X110541002Y-84838000D01*
X110556139Y-84787745D01*
X109728000Y-83959605D01*
X108899861Y-84787745D01*
X108914998Y-84838000D01*
X102944846Y-84838000D01*
X102869999Y-84823112D01*
X102795152Y-84838000D01*
X102795148Y-84838000D01*
X102573463Y-84882096D01*
X102573461Y-84882097D01*
X102573462Y-84882097D01*
X102385526Y-85007671D01*
X102385524Y-85007673D01*
X102322071Y-85050071D01*
X102308087Y-85071000D01*
X102156126Y-85071000D01*
X101775720Y-85228569D01*
X101484569Y-85519720D01*
X101327000Y-85900126D01*
X101327000Y-86311874D01*
X101484569Y-86692280D01*
X101775720Y-86983431D01*
X102156126Y-87141000D01*
X102567874Y-87141000D01*
X102948280Y-86983431D01*
X103239431Y-86692280D01*
X103377894Y-86358000D01*
X109049045Y-86358000D01*
X108915138Y-86413466D01*
X108511466Y-86817138D01*
X108293000Y-87344561D01*
X108293000Y-87915439D01*
X108511466Y-88442862D01*
X108915138Y-88846534D01*
X109442561Y-89065000D01*
X110013439Y-89065000D01*
X110540862Y-88846534D01*
X110944534Y-88442862D01*
X111163000Y-87915439D01*
X111163000Y-87344561D01*
X110944534Y-86817138D01*
X110540862Y-86413466D01*
X110406955Y-86358000D01*
X122367199Y-86358000D01*
X122879198Y-86870000D01*
X117930846Y-86870000D01*
X117855999Y-86855112D01*
X117781152Y-86870000D01*
X117781148Y-86870000D01*
X117559463Y-86914096D01*
X117559461Y-86914097D01*
X117559462Y-86914097D01*
X117371526Y-87039671D01*
X117371524Y-87039673D01*
X117308071Y-87082071D01*
X117265672Y-87145525D01*
X116863527Y-87547672D01*
X116800072Y-87590071D01*
X116757672Y-87653527D01*
X116757671Y-87653528D01*
X116632097Y-87841463D01*
X116599333Y-88006177D01*
X116370000Y-87960560D01*
X114770000Y-87960560D01*
X114522235Y-88009843D01*
X114312191Y-88150191D01*
X114171843Y-88360235D01*
X114122560Y-88608000D01*
X114122560Y-90208000D01*
X114171843Y-90455765D01*
X114312191Y-90665809D01*
X114522235Y-90806157D01*
X114656106Y-90832785D01*
X114535423Y-90913423D01*
X114218260Y-91388091D01*
X114106887Y-91948000D01*
X114171312Y-92271886D01*
X113307528Y-93135671D01*
X113244072Y-93178071D01*
X113201672Y-93241527D01*
X113201671Y-93241528D01*
X113076097Y-93429463D01*
X113017112Y-93726000D01*
X113032001Y-93800852D01*
X113032000Y-100269198D01*
X110488000Y-102813198D01*
X110488000Y-96468043D01*
X110762577Y-96284577D01*
X111079740Y-95809909D01*
X111191113Y-95250000D01*
X111079740Y-94690091D01*
X110762577Y-94215423D01*
X110287909Y-93898260D01*
X109869333Y-93815000D01*
X109586667Y-93815000D01*
X109168091Y-93898260D01*
X108693423Y-94215423D01*
X108376260Y-94690091D01*
X108264887Y-95250000D01*
X108376260Y-95809909D01*
X108693423Y-96284577D01*
X108968000Y-96468044D01*
X108968001Y-102809197D01*
X107538814Y-104238385D01*
X107403041Y-103910577D01*
X107027134Y-103495611D01*
X106521041Y-103256086D01*
X106299000Y-103377371D01*
X106299000Y-104521000D01*
X106319000Y-104521000D01*
X106319000Y-104775000D01*
X106299000Y-104775000D01*
X106299000Y-104795000D01*
X106045000Y-104795000D01*
X106045000Y-104775000D01*
X104902085Y-104775000D01*
X104780096Y-104997039D01*
X104940959Y-105385423D01*
X105316866Y-105800389D01*
X105764807Y-106012391D01*
X100621224Y-111155974D01*
X100590250Y-111125000D01*
X99441000Y-111125000D01*
X99441000Y-111145000D01*
X99187000Y-111145000D01*
X99187000Y-111125000D01*
X98037750Y-111125000D01*
X97879000Y-111283750D01*
X97879000Y-111924310D01*
X97975673Y-112157699D01*
X98154302Y-112336327D01*
X98385918Y-112432265D01*
X98279423Y-112503423D01*
X97962260Y-112978091D01*
X97850887Y-113538000D01*
X97962260Y-114097909D01*
X98279423Y-114572577D01*
X98631758Y-114808000D01*
X98279423Y-115043423D01*
X97962260Y-115518091D01*
X97850887Y-116078000D01*
X97962260Y-116637909D01*
X98279423Y-117112577D01*
X98631758Y-117348000D01*
X98279423Y-117583423D01*
X97962260Y-118058091D01*
X97850887Y-118618000D01*
X97962260Y-119177909D01*
X98279423Y-119652577D01*
X98754091Y-119969740D01*
X99172667Y-120053000D01*
X99455333Y-120053000D01*
X99873909Y-119969740D01*
X100348577Y-119652577D01*
X100360990Y-119634000D01*
X101245937Y-119634000D01*
X101346000Y-119653904D01*
X101446063Y-119634000D01*
X101446065Y-119634000D01*
X101742423Y-119575051D01*
X102078495Y-119350495D01*
X102135180Y-119265660D01*
X105041664Y-116359177D01*
X105126495Y-116302495D01*
X105351051Y-115966423D01*
X105410000Y-115670065D01*
X105410000Y-115670064D01*
X105429904Y-115570000D01*
X105410000Y-115469937D01*
X105410000Y-112434840D01*
X105830841Y-112014000D01*
X105887010Y-112014000D01*
X105899423Y-112032577D01*
X106251758Y-112268000D01*
X105899423Y-112503423D01*
X105582260Y-112978091D01*
X105470887Y-113538000D01*
X105582260Y-114097909D01*
X105899423Y-114572577D01*
X106251758Y-114808000D01*
X105899423Y-115043423D01*
X105582260Y-115518091D01*
X105470887Y-116078000D01*
X105582260Y-116637909D01*
X105899423Y-117112577D01*
X106251758Y-117348000D01*
X105899423Y-117583423D01*
X105582260Y-118058091D01*
X105470887Y-118618000D01*
X105535312Y-118941886D01*
X103825199Y-120652000D01*
X91754802Y-120652000D01*
X90948600Y-119845799D01*
X91134091Y-119969740D01*
X91552667Y-120053000D01*
X91835333Y-120053000D01*
X92253909Y-119969740D01*
X92728577Y-119652577D01*
X93045740Y-119177909D01*
X93157113Y-118618000D01*
X93100336Y-118332561D01*
X94069000Y-118332561D01*
X94069000Y-118903439D01*
X94287466Y-119430862D01*
X94691138Y-119834534D01*
X95218561Y-120053000D01*
X95789439Y-120053000D01*
X96316862Y-119834534D01*
X96720534Y-119430862D01*
X96939000Y-118903439D01*
X96939000Y-118332561D01*
X96720534Y-117805138D01*
X96316862Y-117401466D01*
X95789439Y-117183000D01*
X95218561Y-117183000D01*
X94691138Y-117401466D01*
X94287466Y-117805138D01*
X94069000Y-118332561D01*
X93100336Y-118332561D01*
X93045740Y-118058091D01*
X92728577Y-117583423D01*
X92253909Y-117266260D01*
X91835333Y-117183000D01*
X91552667Y-117183000D01*
X91134091Y-117266260D01*
X90930000Y-117402629D01*
X90930000Y-112234773D01*
X91408561Y-112433000D01*
X91979439Y-112433000D01*
X92506862Y-112214534D01*
X92910534Y-111810862D01*
X93129000Y-111283439D01*
X93129000Y-110998000D01*
X94040887Y-110998000D01*
X94152260Y-111557909D01*
X94469423Y-112032577D01*
X94944091Y-112349740D01*
X95362667Y-112433000D01*
X95645333Y-112433000D01*
X96063909Y-112349740D01*
X96538577Y-112032577D01*
X96855740Y-111557909D01*
X96967113Y-110998000D01*
X96855740Y-110438091D01*
X96610919Y-110071690D01*
X97879000Y-110071690D01*
X97879000Y-110712250D01*
X98037750Y-110871000D01*
X99187000Y-110871000D01*
X99187000Y-109721750D01*
X99441000Y-109721750D01*
X99441000Y-110871000D01*
X100590250Y-110871000D01*
X100749000Y-110712250D01*
X100749000Y-110071690D01*
X100652327Y-109838301D01*
X100473698Y-109659673D01*
X100240309Y-109563000D01*
X99599750Y-109563000D01*
X99441000Y-109721750D01*
X99187000Y-109721750D01*
X99028250Y-109563000D01*
X98387691Y-109563000D01*
X98154302Y-109659673D01*
X97975673Y-109838301D01*
X97879000Y-110071690D01*
X96610919Y-110071690D01*
X96538577Y-109963423D01*
X96063909Y-109646260D01*
X95645333Y-109563000D01*
X95362667Y-109563000D01*
X94944091Y-109646260D01*
X94469423Y-109963423D01*
X94152260Y-110438091D01*
X94040887Y-110998000D01*
X93129000Y-110998000D01*
X93129000Y-110712561D01*
X92910534Y-110185138D01*
X92506862Y-109781466D01*
X92454000Y-109759570D01*
X92454000Y-102930801D01*
X97089405Y-98295397D01*
X97088887Y-98298000D01*
X97200260Y-98857909D01*
X97517423Y-99332577D01*
X97869758Y-99568000D01*
X97517423Y-99803423D01*
X97200260Y-100278091D01*
X97088887Y-100838000D01*
X97153312Y-101161886D01*
X95527528Y-102787671D01*
X95464072Y-102830071D01*
X95421672Y-102893527D01*
X95421671Y-102893528D01*
X95296097Y-103081463D01*
X95237112Y-103378000D01*
X95252001Y-103452852D01*
X95252000Y-105468289D01*
X95134569Y-105585720D01*
X94977000Y-105966126D01*
X94977000Y-106377874D01*
X95134569Y-106758280D01*
X95425720Y-107049431D01*
X95806126Y-107207000D01*
X96217874Y-107207000D01*
X96598280Y-107049431D01*
X96889431Y-106758280D01*
X97047000Y-106377874D01*
X97047000Y-105966126D01*
X96889431Y-105585720D01*
X96772000Y-105468289D01*
X96772000Y-104362561D01*
X97117000Y-104362561D01*
X97117000Y-104933439D01*
X97335466Y-105460862D01*
X97739138Y-105864534D01*
X98266561Y-106083000D01*
X98837439Y-106083000D01*
X99364862Y-105864534D01*
X99768534Y-105460862D01*
X99987000Y-104933439D01*
X99987000Y-104362561D01*
X99960656Y-104298961D01*
X104780096Y-104298961D01*
X104902085Y-104521000D01*
X106045000Y-104521000D01*
X106045000Y-103377371D01*
X105822959Y-103256086D01*
X105316866Y-103495611D01*
X104940959Y-103910577D01*
X104780096Y-104298961D01*
X99960656Y-104298961D01*
X99768534Y-103835138D01*
X99364862Y-103431466D01*
X98837439Y-103213000D01*
X98266561Y-103213000D01*
X97739138Y-103431466D01*
X97335466Y-103835138D01*
X97117000Y-104362561D01*
X96772000Y-104362561D01*
X96772000Y-103692801D01*
X98228114Y-102236688D01*
X98410667Y-102273000D01*
X98693333Y-102273000D01*
X99111909Y-102189740D01*
X99586577Y-101872577D01*
X99903740Y-101397909D01*
X100015113Y-100838000D01*
X104708887Y-100838000D01*
X104820260Y-101397909D01*
X105137423Y-101872577D01*
X105612091Y-102189740D01*
X106030667Y-102273000D01*
X106313333Y-102273000D01*
X106731909Y-102189740D01*
X107206577Y-101872577D01*
X107523740Y-101397909D01*
X107635113Y-100838000D01*
X107523740Y-100278091D01*
X107206577Y-99803423D01*
X106822892Y-99547053D01*
X107027134Y-99450389D01*
X107403041Y-99035423D01*
X107563904Y-98647039D01*
X107441915Y-98425000D01*
X106299000Y-98425000D01*
X106299000Y-98445000D01*
X106045000Y-98445000D01*
X106045000Y-98425000D01*
X104902085Y-98425000D01*
X104780096Y-98647039D01*
X104940959Y-99035423D01*
X105316866Y-99450389D01*
X105521108Y-99547053D01*
X105137423Y-99803423D01*
X104820260Y-100278091D01*
X104708887Y-100838000D01*
X100015113Y-100838000D01*
X99903740Y-100278091D01*
X99586577Y-99803423D01*
X99234242Y-99568000D01*
X99586577Y-99332577D01*
X99903740Y-98857909D01*
X100015113Y-98298000D01*
X99903740Y-97738091D01*
X99586577Y-97263423D01*
X99234242Y-97028000D01*
X99586577Y-96792577D01*
X99903740Y-96317909D01*
X100015113Y-95758000D01*
X99903740Y-95198091D01*
X99586577Y-94723423D01*
X99480082Y-94652265D01*
X99711698Y-94556327D01*
X99890327Y-94377699D01*
X99987000Y-94144310D01*
X99987000Y-93503750D01*
X99828250Y-93345000D01*
X98679000Y-93345000D01*
X98679000Y-93365000D01*
X98425000Y-93365000D01*
X98425000Y-93345000D01*
X97275750Y-93345000D01*
X97117000Y-93503750D01*
X97117000Y-94144310D01*
X97213673Y-94377699D01*
X97392302Y-94556327D01*
X97623918Y-94652265D01*
X97517423Y-94723423D01*
X97200260Y-95198091D01*
X97088887Y-95758000D01*
X97153312Y-96081886D01*
X91209530Y-102025669D01*
X91146071Y-102068071D01*
X90978096Y-102319464D01*
X90934000Y-102541149D01*
X90934000Y-102541153D01*
X90919112Y-102616000D01*
X90934000Y-102690847D01*
X90934000Y-105726289D01*
X90756280Y-105548569D01*
X90375874Y-105391000D01*
X89964126Y-105391000D01*
X89583720Y-105548569D01*
X89292569Y-105839720D01*
X89135000Y-106220126D01*
X88848000Y-106220126D01*
X88848000Y-95409061D01*
X93434000Y-95409061D01*
X93434000Y-95979939D01*
X93652466Y-96507362D01*
X94056138Y-96911034D01*
X94583561Y-97129500D01*
X95154439Y-97129500D01*
X95681862Y-96911034D01*
X96085534Y-96507362D01*
X96304000Y-95979939D01*
X96304000Y-95409061D01*
X96085534Y-94881638D01*
X95681862Y-94477966D01*
X95616701Y-94450975D01*
X95623005Y-94448364D01*
X95697139Y-94202245D01*
X94869000Y-93374105D01*
X94040861Y-94202245D01*
X94114995Y-94448364D01*
X94121746Y-94450790D01*
X94056138Y-94477966D01*
X93652466Y-94881638D01*
X93434000Y-95409061D01*
X88848000Y-95409061D01*
X88848000Y-92977723D01*
X93422035Y-92977723D01*
X93449222Y-93547954D01*
X93615136Y-93948505D01*
X93861255Y-94022639D01*
X94689395Y-93194500D01*
X95048605Y-93194500D01*
X95876745Y-94022639D01*
X96122864Y-93948505D01*
X96315965Y-93411277D01*
X96306751Y-93218000D01*
X104708887Y-93218000D01*
X104820260Y-93777909D01*
X105137423Y-94252577D01*
X105489758Y-94488000D01*
X105137423Y-94723423D01*
X104820260Y-95198091D01*
X104708887Y-95758000D01*
X104820260Y-96317909D01*
X105137423Y-96792577D01*
X105521108Y-97048947D01*
X105316866Y-97145611D01*
X104940959Y-97560577D01*
X104780096Y-97948961D01*
X104902085Y-98171000D01*
X106045000Y-98171000D01*
X106045000Y-98151000D01*
X106299000Y-98151000D01*
X106299000Y-98171000D01*
X107441915Y-98171000D01*
X107563904Y-97948961D01*
X107403041Y-97560577D01*
X107027134Y-97145611D01*
X106822892Y-97048947D01*
X107206577Y-96792577D01*
X107523740Y-96317909D01*
X107635113Y-95758000D01*
X107523740Y-95198091D01*
X107206577Y-94723423D01*
X106854242Y-94488000D01*
X107206577Y-94252577D01*
X107523740Y-93777909D01*
X107635113Y-93218000D01*
X107523740Y-92658091D01*
X107206577Y-92183423D01*
X106731909Y-91866260D01*
X106313333Y-91783000D01*
X106030667Y-91783000D01*
X105612091Y-91866260D01*
X105137423Y-92183423D01*
X104820260Y-92658091D01*
X104708887Y-93218000D01*
X96306751Y-93218000D01*
X96288778Y-92841046D01*
X96122864Y-92440495D01*
X95876745Y-92366361D01*
X95048605Y-93194500D01*
X94689395Y-93194500D01*
X93861255Y-92366361D01*
X93615136Y-92440495D01*
X93422035Y-92977723D01*
X88848000Y-92977723D01*
X88848000Y-92186755D01*
X94040861Y-92186755D01*
X94869000Y-93014895D01*
X95592204Y-92291690D01*
X97117000Y-92291690D01*
X97117000Y-92932250D01*
X97275750Y-93091000D01*
X98425000Y-93091000D01*
X98425000Y-91941750D01*
X98679000Y-91941750D01*
X98679000Y-93091000D01*
X99828250Y-93091000D01*
X99987000Y-92932250D01*
X99987000Y-92291690D01*
X99890327Y-92058301D01*
X99711698Y-91879673D01*
X99478309Y-91783000D01*
X98837750Y-91783000D01*
X98679000Y-91941750D01*
X98425000Y-91941750D01*
X98266250Y-91783000D01*
X97625691Y-91783000D01*
X97392302Y-91879673D01*
X97213673Y-92058301D01*
X97117000Y-92291690D01*
X95592204Y-92291690D01*
X95697139Y-92186755D01*
X95623005Y-91940636D01*
X95085777Y-91747535D01*
X94515546Y-91774722D01*
X94114995Y-91940636D01*
X94040861Y-92186755D01*
X88848000Y-92186755D01*
X88848000Y-88608000D01*
X91770560Y-88608000D01*
X91770560Y-90208000D01*
X91819843Y-90455765D01*
X91960191Y-90665809D01*
X92170235Y-90806157D01*
X92418000Y-90855440D01*
X94018000Y-90855440D01*
X94265765Y-90806157D01*
X94475809Y-90665809D01*
X94616157Y-90455765D01*
X94665440Y-90208000D01*
X94665440Y-88608000D01*
X94616157Y-88360235D01*
X94475809Y-88150191D01*
X94265765Y-88009843D01*
X94031813Y-87963307D01*
X94046139Y-87915745D01*
X93218000Y-87087605D01*
X92389861Y-87915745D01*
X92404187Y-87963307D01*
X92170235Y-88009843D01*
X91960191Y-88150191D01*
X91819843Y-88360235D01*
X91770560Y-88608000D01*
X88848000Y-88608000D01*
X88848000Y-86691223D01*
X91771035Y-86691223D01*
X91798222Y-87261454D01*
X91964136Y-87662005D01*
X92210255Y-87736139D01*
X93038395Y-86908000D01*
X93397605Y-86908000D01*
X94225745Y-87736139D01*
X94471864Y-87662005D01*
X94491951Y-87606119D01*
X98425000Y-87606119D01*
X98425000Y-88161881D01*
X98637680Y-88675337D01*
X99030663Y-89068320D01*
X99544119Y-89281000D01*
X100099881Y-89281000D01*
X100613337Y-89068320D01*
X101006320Y-88675337D01*
X101219000Y-88161881D01*
X101219000Y-87606119D01*
X103505000Y-87606119D01*
X103505000Y-88161881D01*
X103717680Y-88675337D01*
X104110663Y-89068320D01*
X104624119Y-89281000D01*
X105179881Y-89281000D01*
X105693337Y-89068320D01*
X106086320Y-88675337D01*
X106299000Y-88161881D01*
X106299000Y-87606119D01*
X106086320Y-87092663D01*
X105693337Y-86699680D01*
X105179881Y-86487000D01*
X104624119Y-86487000D01*
X104110663Y-86699680D01*
X103717680Y-87092663D01*
X103505000Y-87606119D01*
X101219000Y-87606119D01*
X101006320Y-87092663D01*
X100613337Y-86699680D01*
X100099881Y-86487000D01*
X99544119Y-86487000D01*
X99030663Y-86699680D01*
X98637680Y-87092663D01*
X98425000Y-87606119D01*
X94491951Y-87606119D01*
X94664965Y-87124777D01*
X94637778Y-86554546D01*
X94471864Y-86153995D01*
X94225745Y-86079861D01*
X93397605Y-86908000D01*
X93038395Y-86908000D01*
X92210255Y-86079861D01*
X91964136Y-86153995D01*
X91771035Y-86691223D01*
X88848000Y-86691223D01*
X88848000Y-85900255D01*
X92389861Y-85900255D01*
X93218000Y-86728395D01*
X94046139Y-85900255D01*
X93972005Y-85654136D01*
X93434777Y-85461035D01*
X92864546Y-85488222D01*
X92463995Y-85654136D01*
X92389861Y-85900255D01*
X88848000Y-85900255D01*
X88848000Y-82526119D01*
X100965000Y-82526119D01*
X100965000Y-83081881D01*
X101177680Y-83595337D01*
X101570663Y-83988320D01*
X102084119Y-84201000D01*
X102639881Y-84201000D01*
X103153337Y-83988320D01*
X103546320Y-83595337D01*
X103559622Y-83563223D01*
X108281035Y-83563223D01*
X108308222Y-84133454D01*
X108474136Y-84534005D01*
X108720255Y-84608139D01*
X109548395Y-83780000D01*
X109907605Y-83780000D01*
X110735745Y-84608139D01*
X110981864Y-84534005D01*
X111174965Y-83996777D01*
X111147778Y-83426546D01*
X110981864Y-83025995D01*
X110735745Y-82951861D01*
X109907605Y-83780000D01*
X109548395Y-83780000D01*
X108720255Y-82951861D01*
X108474136Y-83025995D01*
X108281035Y-83563223D01*
X103559622Y-83563223D01*
X103759000Y-83081881D01*
X103759000Y-82526119D01*
X103546320Y-82012663D01*
X103153337Y-81619680D01*
X103122000Y-81606700D01*
X103122000Y-81594801D01*
X103722240Y-80994561D01*
X108293000Y-80994561D01*
X108293000Y-81565439D01*
X108511466Y-82092862D01*
X108915138Y-82496534D01*
X108980299Y-82523525D01*
X108973995Y-82526136D01*
X108899861Y-82772255D01*
X109728000Y-83600395D01*
X110556139Y-82772255D01*
X110482005Y-82526136D01*
X110475254Y-82523710D01*
X110540862Y-82496534D01*
X110944534Y-82092862D01*
X111107262Y-81700000D01*
X116104560Y-81700000D01*
X116104560Y-83400000D01*
X116153843Y-83647765D01*
X116294191Y-83857809D01*
X116504235Y-83998157D01*
X116752000Y-84047440D01*
X118452000Y-84047440D01*
X118699765Y-83998157D01*
X118909809Y-83857809D01*
X119050157Y-83647765D01*
X119070739Y-83544292D01*
X119375076Y-83821645D01*
X119785110Y-83991476D01*
X120015000Y-83870155D01*
X120015000Y-82677000D01*
X120269000Y-82677000D01*
X120269000Y-83870155D01*
X120498890Y-83991476D01*
X120908924Y-83821645D01*
X121337183Y-83431358D01*
X121583486Y-82906892D01*
X121462819Y-82677000D01*
X120269000Y-82677000D01*
X120015000Y-82677000D01*
X119995000Y-82677000D01*
X119995000Y-82423000D01*
X120015000Y-82423000D01*
X120015000Y-81229845D01*
X120269000Y-81229845D01*
X120269000Y-82423000D01*
X121462819Y-82423000D01*
X121488946Y-82373223D01*
X123013035Y-82373223D01*
X123040222Y-82943454D01*
X123206136Y-83344005D01*
X123452255Y-83418139D01*
X124280395Y-82590000D01*
X124639605Y-82590000D01*
X125467745Y-83418139D01*
X125713864Y-83344005D01*
X125906965Y-82806777D01*
X125886295Y-82373223D01*
X126823035Y-82373223D01*
X126850222Y-82943454D01*
X127016136Y-83344005D01*
X127262255Y-83418139D01*
X128090395Y-82590000D01*
X128449605Y-82590000D01*
X129277745Y-83418139D01*
X129523864Y-83344005D01*
X129716965Y-82806777D01*
X129689778Y-82236546D01*
X129523864Y-81835995D01*
X129277745Y-81761861D01*
X128449605Y-82590000D01*
X128090395Y-82590000D01*
X127262255Y-81761861D01*
X127016136Y-81835995D01*
X126823035Y-82373223D01*
X125886295Y-82373223D01*
X125879778Y-82236546D01*
X125713864Y-81835995D01*
X125467745Y-81761861D01*
X124639605Y-82590000D01*
X124280395Y-82590000D01*
X123452255Y-81761861D01*
X123206136Y-81835995D01*
X123013035Y-82373223D01*
X121488946Y-82373223D01*
X121583486Y-82193108D01*
X121337183Y-81668642D01*
X121242392Y-81582255D01*
X123631861Y-81582255D01*
X124460000Y-82410395D01*
X125288139Y-81582255D01*
X127441861Y-81582255D01*
X128270000Y-82410395D01*
X129098139Y-81582255D01*
X129024005Y-81336136D01*
X128486777Y-81143035D01*
X127916546Y-81170222D01*
X127515995Y-81336136D01*
X127441861Y-81582255D01*
X125288139Y-81582255D01*
X125214005Y-81336136D01*
X124676777Y-81143035D01*
X124106546Y-81170222D01*
X123705995Y-81336136D01*
X123631861Y-81582255D01*
X121242392Y-81582255D01*
X120908924Y-81278355D01*
X120498890Y-81108524D01*
X120269000Y-81229845D01*
X120015000Y-81229845D01*
X119785110Y-81108524D01*
X119375076Y-81278355D01*
X119070739Y-81555708D01*
X119050157Y-81452235D01*
X118909809Y-81242191D01*
X118699765Y-81101843D01*
X118452000Y-81052560D01*
X116752000Y-81052560D01*
X116504235Y-81101843D01*
X116294191Y-81242191D01*
X116153843Y-81452235D01*
X116104560Y-81700000D01*
X111107262Y-81700000D01*
X111163000Y-81565439D01*
X111163000Y-80994561D01*
X110944534Y-80467138D01*
X110540862Y-80063466D01*
X110013439Y-79845000D01*
X109442561Y-79845000D01*
X108915138Y-80063466D01*
X108511466Y-80467138D01*
X108293000Y-80994561D01*
X103722240Y-80994561D01*
X104585029Y-80131772D01*
X104950126Y-80283000D01*
X105361874Y-80283000D01*
X105742280Y-80125431D01*
X106033431Y-79834280D01*
X106191000Y-79453874D01*
X106191000Y-79042126D01*
X106033431Y-78661720D01*
X105742280Y-78370569D01*
X105361874Y-78213000D01*
X104950126Y-78213000D01*
X104569720Y-78370569D01*
X104455036Y-78485253D01*
X104394000Y-78473112D01*
X104319153Y-78488000D01*
X104319148Y-78488000D01*
X104097463Y-78532096D01*
X103846071Y-78700071D01*
X103803671Y-78763527D01*
X101877528Y-80689671D01*
X101814072Y-80732071D01*
X101771672Y-80795527D01*
X101771671Y-80795528D01*
X101646097Y-80983463D01*
X101587112Y-81280000D01*
X101602001Y-81354851D01*
X101602001Y-81606700D01*
X101570663Y-81619680D01*
X101177680Y-82012663D01*
X100965000Y-82526119D01*
X88848000Y-82526119D01*
X88848000Y-78555931D01*
X88884144Y-78374223D01*
X88947461Y-78279461D01*
X89042223Y-78216144D01*
X89223930Y-78180000D01*
X148647069Y-78180000D01*
X148780179Y-78206477D01*
X148780179Y-78206477D01*
G37*
X148780179Y-78206477D02*
X148833737Y-78242263D01*
X148869523Y-78295821D01*
X148896000Y-78428931D01*
X148896001Y-127057064D01*
X148869523Y-127190179D01*
X148833737Y-127243737D01*
X148780179Y-127279523D01*
X148647069Y-127306000D01*
X89096931Y-127306000D01*
X88963821Y-127279523D01*
X88910263Y-127243737D01*
X88874477Y-127190179D01*
X88848000Y-127057069D01*
X88848000Y-106220126D01*
X89135000Y-106220126D01*
X89135000Y-106631874D01*
X89292569Y-107012280D01*
X89410000Y-107129711D01*
X89410001Y-113463144D01*
X89410000Y-113463149D01*
X89410001Y-120067148D01*
X89395112Y-120142000D01*
X89454097Y-120438537D01*
X89528693Y-120550177D01*
X89622072Y-120689929D01*
X89685528Y-120732329D01*
X90849671Y-121896473D01*
X90892071Y-121959929D01*
X91143463Y-122127904D01*
X91365148Y-122172000D01*
X91365152Y-122172000D01*
X91439999Y-122186888D01*
X91514846Y-122172000D01*
X104065153Y-122172000D01*
X104140000Y-122186888D01*
X104214847Y-122172000D01*
X104214852Y-122172000D01*
X104436537Y-122127904D01*
X104687929Y-121959929D01*
X104730331Y-121896470D01*
X106610114Y-120016688D01*
X106792667Y-120053000D01*
X107075333Y-120053000D01*
X107493909Y-119969740D01*
X107698000Y-119833371D01*
X107698001Y-123078320D01*
X107007880Y-122388199D01*
X107007880Y-122222126D01*
X106850311Y-121841720D01*
X106559160Y-121550569D01*
X106178754Y-121393000D01*
X105767006Y-121393000D01*
X105386600Y-121550569D01*
X105095449Y-121841720D01*
X104937880Y-122222126D01*
X104937880Y-122633874D01*
X105095449Y-123014280D01*
X105386600Y-123305431D01*
X105767006Y-123463000D01*
X105933079Y-123463000D01*
X109192551Y-126722473D01*
X109234951Y-126785929D01*
X109298407Y-126828329D01*
X109486342Y-126953904D01*
X109534485Y-126963480D01*
X109708028Y-126998000D01*
X109708032Y-126998000D01*
X109782880Y-127012888D01*
X109857728Y-126998000D01*
X132703653Y-126998000D01*
X132778500Y-127012888D01*
X132853347Y-126998000D01*
X132853352Y-126998000D01*
X133075037Y-126953904D01*
X133326429Y-126785929D01*
X133368831Y-126722470D01*
X133432329Y-126658972D01*
X136914282Y-123177020D01*
X136945619Y-123190000D01*
X137501381Y-123190000D01*
X138014837Y-122977320D01*
X138218944Y-122773213D01*
X141439392Y-122773213D01*
X141508857Y-123015397D01*
X142032302Y-123202144D01*
X142587368Y-123174362D01*
X142971143Y-123015397D01*
X143040608Y-122773213D01*
X142240000Y-121972605D01*
X141439392Y-122773213D01*
X138218944Y-122773213D01*
X138407820Y-122584337D01*
X138620500Y-122070881D01*
X138620500Y-121585302D01*
X140830856Y-121585302D01*
X140858638Y-122140368D01*
X141017603Y-122524143D01*
X141259787Y-122593608D01*
X142060395Y-121793000D01*
X142419605Y-121793000D01*
X143220213Y-122593608D01*
X143462397Y-122524143D01*
X143649144Y-122000698D01*
X143621362Y-121445632D01*
X143462397Y-121061857D01*
X143220213Y-120992392D01*
X142419605Y-121793000D01*
X142060395Y-121793000D01*
X141259787Y-120992392D01*
X141017603Y-121061857D01*
X140830856Y-121585302D01*
X138620500Y-121585302D01*
X138620500Y-121515119D01*
X138407820Y-121001663D01*
X138218944Y-120812787D01*
X141439392Y-120812787D01*
X142240000Y-121613395D01*
X143040608Y-120812787D01*
X142971143Y-120570603D01*
X142447698Y-120383856D01*
X141892632Y-120411638D01*
X141508857Y-120570603D01*
X141439392Y-120812787D01*
X138218944Y-120812787D01*
X138014837Y-120608680D01*
X137501381Y-120396000D01*
X136945619Y-120396000D01*
X136432163Y-120608680D01*
X136039180Y-121001663D01*
X135826500Y-121515119D01*
X135826500Y-122070881D01*
X135839480Y-122102218D01*
X132463699Y-125478000D01*
X127564801Y-125478000D01*
X132437473Y-120605329D01*
X132500929Y-120562929D01*
X132668904Y-120311537D01*
X132713000Y-120089852D01*
X132713000Y-120089848D01*
X132727888Y-120015000D01*
X132713000Y-119940152D01*
X132713000Y-115538430D01*
X132765862Y-115516534D01*
X133169534Y-115112862D01*
X133295812Y-114808000D01*
X138236887Y-114808000D01*
X138348260Y-115367909D01*
X138665423Y-115842577D01*
X139140091Y-116159740D01*
X139558667Y-116243000D01*
X139841333Y-116243000D01*
X140259909Y-116159740D01*
X140734577Y-115842577D01*
X141051740Y-115367909D01*
X141163113Y-114808000D01*
X141051740Y-114248091D01*
X140734577Y-113773423D01*
X140259909Y-113456260D01*
X139841333Y-113373000D01*
X139558667Y-113373000D01*
X139140091Y-113456260D01*
X138665423Y-113773423D01*
X138348260Y-114248091D01*
X138236887Y-114808000D01*
X133295812Y-114808000D01*
X133388000Y-114585439D01*
X133388000Y-114014561D01*
X133169534Y-113487138D01*
X132765862Y-113083466D01*
X132700701Y-113056475D01*
X132707005Y-113053864D01*
X132781139Y-112807745D01*
X131953000Y-111979605D01*
X131124861Y-112807745D01*
X131198995Y-113053864D01*
X131205746Y-113056290D01*
X131140138Y-113083466D01*
X130736466Y-113487138D01*
X130518000Y-114014561D01*
X130518000Y-114585439D01*
X130736466Y-115112862D01*
X131140138Y-115516534D01*
X131193001Y-115538431D01*
X131193000Y-119700198D01*
X125923199Y-124970000D01*
X113151972Y-124970000D01*
X113504368Y-124952362D01*
X113888143Y-124793397D01*
X113957608Y-124551213D01*
X113157000Y-123750605D01*
X113142858Y-123764748D01*
X112963253Y-123585143D01*
X112977395Y-123571000D01*
X112963253Y-123556858D01*
X113142858Y-123377253D01*
X113157000Y-123391395D01*
X113957608Y-122590787D01*
X113888143Y-122348603D01*
X113364698Y-122161856D01*
X112809632Y-122189638D01*
X112425857Y-122348603D01*
X112400996Y-122435280D01*
X112344809Y-122351191D01*
X112134765Y-122210843D01*
X111887000Y-122161560D01*
X110363000Y-122161560D01*
X110115235Y-122210843D01*
X109905191Y-122351191D01*
X109764843Y-122561235D01*
X109715560Y-122809000D01*
X109715560Y-124333000D01*
X109729405Y-124402603D01*
X109218000Y-123891199D01*
X109218000Y-120137396D01*
X109423138Y-120342534D01*
X109950561Y-120561000D01*
X110521439Y-120561000D01*
X111048862Y-120342534D01*
X111452534Y-119938862D01*
X111671000Y-119411439D01*
X111671000Y-118840561D01*
X111452534Y-118313138D01*
X111048862Y-117909466D01*
X110983701Y-117882475D01*
X110990005Y-117879864D01*
X111064139Y-117633745D01*
X110236000Y-116805605D01*
X110221858Y-116819748D01*
X110042252Y-116640142D01*
X110056395Y-116626000D01*
X110415605Y-116626000D01*
X111243745Y-117454139D01*
X111489864Y-117380005D01*
X111682965Y-116842777D01*
X111655778Y-116272546D01*
X111489864Y-115871995D01*
X111243745Y-115797861D01*
X110415605Y-116626000D01*
X110056395Y-116626000D01*
X109228255Y-115797861D01*
X108982136Y-115871995D01*
X108789035Y-116409223D01*
X108811514Y-116880712D01*
X108332688Y-116401886D01*
X108397113Y-116078000D01*
X108305664Y-115618255D01*
X109407861Y-115618255D01*
X110236000Y-116446395D01*
X111064139Y-115618255D01*
X110990005Y-115372136D01*
X110452777Y-115179035D01*
X109882546Y-115206222D01*
X109481995Y-115372136D01*
X109407861Y-115618255D01*
X108305664Y-115618255D01*
X108285740Y-115518091D01*
X107968577Y-115043423D01*
X107616242Y-114808000D01*
X107968577Y-114572577D01*
X108285740Y-114097909D01*
X108397113Y-113538000D01*
X108285740Y-112978091D01*
X107968577Y-112503423D01*
X107616242Y-112268000D01*
X107968577Y-112032577D01*
X108285740Y-111557909D01*
X108397113Y-110998000D01*
X108285740Y-110438091D01*
X107968577Y-109963423D01*
X107493909Y-109646260D01*
X107075333Y-109563000D01*
X106792667Y-109563000D01*
X106374091Y-109646260D01*
X105899423Y-109963423D01*
X105887010Y-109982000D01*
X105510063Y-109982000D01*
X105475647Y-109975154D01*
X108947000Y-106503802D01*
X108947000Y-106631874D01*
X109104569Y-107012280D01*
X109395720Y-107303431D01*
X109776126Y-107461000D01*
X110187874Y-107461000D01*
X110568280Y-107303431D01*
X110685711Y-107186000D01*
X110806289Y-107186000D01*
X110628569Y-107363720D01*
X110471000Y-107744126D01*
X110471000Y-108155874D01*
X110628569Y-108536280D01*
X110919720Y-108827431D01*
X111300126Y-108985000D01*
X111466199Y-108985000D01*
X114429001Y-111947803D01*
X114429000Y-119704849D01*
X114429001Y-119704854D01*
X114429000Y-122373700D01*
X114397663Y-122386680D01*
X114004680Y-122779663D01*
X113917521Y-122990084D01*
X113336605Y-123571000D01*
X113917521Y-124151916D01*
X114004680Y-124362337D01*
X114397663Y-124755320D01*
X114911119Y-124968000D01*
X115466881Y-124968000D01*
X115980337Y-124755320D01*
X116373320Y-124362337D01*
X116586000Y-123848881D01*
X116586000Y-123293119D01*
X116373320Y-122779663D01*
X115980337Y-122386680D01*
X115949000Y-122373700D01*
X115949000Y-120206711D01*
X115999720Y-120257431D01*
X116380126Y-120415000D01*
X116546199Y-120415000D01*
X118027671Y-121896473D01*
X118070071Y-121959929D01*
X118321463Y-122127904D01*
X118543148Y-122172000D01*
X118543153Y-122172000D01*
X118618000Y-122186888D01*
X118692847Y-122172000D01*
X124893153Y-122172000D01*
X124968000Y-122186888D01*
X125042847Y-122172000D01*
X125042852Y-122172000D01*
X125264537Y-122127904D01*
X125515929Y-121959929D01*
X125558331Y-121896470D01*
X126976476Y-120478327D01*
X127039929Y-120435929D01*
X127082327Y-120372476D01*
X127082329Y-120372474D01*
X127159533Y-120256929D01*
X127172260Y-120320909D01*
X127489423Y-120795577D01*
X127964091Y-121112740D01*
X128382667Y-121196000D01*
X128665333Y-121196000D01*
X129083909Y-121112740D01*
X129558577Y-120795577D01*
X129875740Y-120320909D01*
X129987113Y-119761000D01*
X129875740Y-119201091D01*
X129558577Y-118726423D01*
X129206242Y-118491000D01*
X129558577Y-118255577D01*
X129875740Y-117780909D01*
X129987113Y-117221000D01*
X129875740Y-116661091D01*
X129558577Y-116186423D01*
X129206242Y-115951000D01*
X129558577Y-115715577D01*
X129875740Y-115240909D01*
X129987113Y-114681000D01*
X129875740Y-114121091D01*
X129558577Y-113646423D01*
X129206242Y-113411000D01*
X129558577Y-113175577D01*
X129875740Y-112700909D01*
X129987113Y-112141000D01*
X129876165Y-111583223D01*
X130506035Y-111583223D01*
X130533222Y-112153454D01*
X130699136Y-112554005D01*
X130945255Y-112628139D01*
X131773395Y-111800000D01*
X132132605Y-111800000D01*
X132960745Y-112628139D01*
X133206864Y-112554005D01*
X133399965Y-112016777D01*
X133372778Y-111446546D01*
X133206864Y-111045995D01*
X132960745Y-110971861D01*
X132132605Y-111800000D01*
X131773395Y-111800000D01*
X130945255Y-110971861D01*
X130699136Y-111045995D01*
X130506035Y-111583223D01*
X129876165Y-111583223D01*
X129875740Y-111581091D01*
X129676273Y-111282567D01*
X130166585Y-110792255D01*
X131124861Y-110792255D01*
X131953000Y-111620395D01*
X132781139Y-110792255D01*
X132707005Y-110546136D01*
X132169777Y-110353035D01*
X131599546Y-110380222D01*
X131198995Y-110546136D01*
X131124861Y-110792255D01*
X130166585Y-110792255D01*
X131992841Y-108966000D01*
X138583937Y-108966000D01*
X138684000Y-108985904D01*
X138784063Y-108966000D01*
X138784065Y-108966000D01*
X139080423Y-108907051D01*
X139416495Y-108682495D01*
X139473179Y-108597661D01*
X139701840Y-108369000D01*
X139985439Y-108369000D01*
X140512862Y-108150534D01*
X140713396Y-107950000D01*
X140716001Y-107950000D01*
X140716000Y-110251306D01*
X140696096Y-110351370D01*
X140716000Y-110451433D01*
X140716000Y-110451434D01*
X140717738Y-110460172D01*
X140259909Y-110154260D01*
X139841333Y-110071000D01*
X139558667Y-110071000D01*
X139140091Y-110154260D01*
X138665423Y-110471423D01*
X138348260Y-110946091D01*
X138236887Y-111506000D01*
X138348260Y-112065909D01*
X138665423Y-112540577D01*
X139140091Y-112857740D01*
X139558667Y-112941000D01*
X139841333Y-112941000D01*
X140259909Y-112857740D01*
X140734577Y-112540577D01*
X141051740Y-112065909D01*
X141163113Y-111506000D01*
X141091930Y-111148140D01*
X145399452Y-115455663D01*
X145456135Y-115540495D01*
X145792207Y-115765051D01*
X146088565Y-115824000D01*
X146088566Y-115824000D01*
X146188630Y-115843904D01*
X146288694Y-115824000D01*
X146306604Y-115824000D01*
X146507138Y-116024534D01*
X147034561Y-116243000D01*
X147605439Y-116243000D01*
X148132862Y-116024534D01*
X148536534Y-115620862D01*
X148755000Y-115093439D01*
X148755000Y-114522561D01*
X148536534Y-113995138D01*
X148132862Y-113591466D01*
X147605439Y-113373000D01*
X147034561Y-113373000D01*
X146507138Y-113591466D01*
X146458037Y-113640567D01*
X144038031Y-111220561D01*
X145885000Y-111220561D01*
X145885000Y-111791439D01*
X146103466Y-112318862D01*
X146507138Y-112722534D01*
X147034561Y-112941000D01*
X147605439Y-112941000D01*
X148132862Y-112722534D01*
X148536534Y-112318862D01*
X148755000Y-111791439D01*
X148755000Y-111220561D01*
X148536534Y-110693138D01*
X148132862Y-110289466D01*
X147605439Y-110071000D01*
X147034561Y-110071000D01*
X146507138Y-110289466D01*
X146103466Y-110693138D01*
X145885000Y-111220561D01*
X144038031Y-111220561D01*
X142748000Y-109930530D01*
X142748000Y-107542063D01*
X142767904Y-107441999D01*
X142740341Y-107303431D01*
X142689051Y-107045577D01*
X142681359Y-107034064D01*
X142623109Y-106946888D01*
X142614498Y-106934000D01*
X145856887Y-106934000D01*
X145968260Y-107493909D01*
X146285423Y-107968577D01*
X146760091Y-108285740D01*
X147178667Y-108369000D01*
X147461333Y-108369000D01*
X147879909Y-108285740D01*
X148354577Y-107968577D01*
X148671740Y-107493909D01*
X148783113Y-106934000D01*
X148671740Y-106374091D01*
X148354577Y-105899423D01*
X147879909Y-105582260D01*
X147461333Y-105499000D01*
X147178667Y-105499000D01*
X146760091Y-105582260D01*
X146285423Y-105899423D01*
X145968260Y-106374091D01*
X145856887Y-106934000D01*
X142614498Y-106934000D01*
X142464495Y-106709505D01*
X142379660Y-106652820D01*
X142013180Y-106286340D01*
X141956495Y-106201505D01*
X141620423Y-105976949D01*
X141324065Y-105918000D01*
X141324063Y-105918000D01*
X141224000Y-105898096D01*
X141123937Y-105918000D01*
X140716000Y-105918000D01*
X140716000Y-100954000D01*
X141962560Y-100954000D01*
X141962560Y-102754000D01*
X142011843Y-103001765D01*
X142152191Y-103211809D01*
X142362235Y-103352157D01*
X142610000Y-103401440D01*
X144410000Y-103401440D01*
X144657765Y-103352157D01*
X144867809Y-103211809D01*
X145008157Y-103001765D01*
X145057440Y-102754000D01*
X145057440Y-100954000D01*
X145008157Y-100706235D01*
X144867809Y-100496191D01*
X144657765Y-100355843D01*
X144642092Y-100352725D01*
X144811310Y-100183507D01*
X145045000Y-99619330D01*
X145045000Y-99008670D01*
X144811310Y-98444493D01*
X144379507Y-98012690D01*
X143815330Y-97779000D01*
X143204670Y-97779000D01*
X142640493Y-98012690D01*
X142208690Y-98444493D01*
X141975000Y-99008670D01*
X141975000Y-99619330D01*
X142208690Y-100183507D01*
X142377908Y-100352725D01*
X142362235Y-100355843D01*
X142152191Y-100496191D01*
X142011843Y-100706235D01*
X141962560Y-100954000D01*
X140716000Y-100954000D01*
X140716000Y-92556063D01*
X140735904Y-92456000D01*
X140716000Y-92355935D01*
X140657051Y-92059577D01*
X140432495Y-91723505D01*
X140347663Y-91666822D01*
X138110754Y-89429914D01*
X138115113Y-89408000D01*
X138003740Y-88848091D01*
X137686577Y-88373423D01*
X137211909Y-88056260D01*
X136793333Y-87973000D01*
X136510667Y-87973000D01*
X136092091Y-88056260D01*
X135617423Y-88373423D01*
X135300260Y-88848091D01*
X135188887Y-89408000D01*
X135300260Y-89967909D01*
X135617423Y-90442577D01*
X135969758Y-90678000D01*
X135617423Y-90913423D01*
X135300260Y-91388091D01*
X135188887Y-91948000D01*
X135300260Y-92507909D01*
X135617423Y-92982577D01*
X135969758Y-93218000D01*
X135617423Y-93453423D01*
X135300260Y-93928091D01*
X135188887Y-94488000D01*
X135300260Y-95047909D01*
X135617423Y-95522577D01*
X135969758Y-95758000D01*
X135617423Y-95993423D01*
X135300260Y-96468091D01*
X135188887Y-97028000D01*
X135300260Y-97587909D01*
X135617423Y-98062577D01*
X135969758Y-98298000D01*
X135617423Y-98533423D01*
X135300260Y-99008091D01*
X135188887Y-99568000D01*
X135300260Y-100127909D01*
X135617423Y-100602577D01*
X135969758Y-100838000D01*
X135617423Y-101073423D01*
X135300260Y-101548091D01*
X135188887Y-102108000D01*
X135300260Y-102667909D01*
X135617423Y-103142577D01*
X135969758Y-103378000D01*
X135617423Y-103613423D01*
X135300260Y-104088091D01*
X135188887Y-104648000D01*
X135300260Y-105207909D01*
X135617423Y-105682577D01*
X136092091Y-105999740D01*
X136510667Y-106083000D01*
X136793333Y-106083000D01*
X137211909Y-105999740D01*
X137686577Y-105682577D01*
X138003740Y-105207909D01*
X138115113Y-104648000D01*
X138003740Y-104088091D01*
X137686577Y-103613423D01*
X137334242Y-103378000D01*
X137686577Y-103142577D01*
X138003740Y-102667909D01*
X138115113Y-102108000D01*
X138003740Y-101548091D01*
X137686577Y-101073423D01*
X137334242Y-100838000D01*
X137686577Y-100602577D01*
X138003740Y-100127909D01*
X138115113Y-99568000D01*
X138003740Y-99008091D01*
X137686577Y-98533423D01*
X137334242Y-98298000D01*
X137686577Y-98062577D01*
X138003740Y-97587909D01*
X138115113Y-97028000D01*
X138003740Y-96468091D01*
X137686577Y-95993423D01*
X137334242Y-95758000D01*
X137686577Y-95522577D01*
X138003740Y-95047909D01*
X138115113Y-94488000D01*
X138003740Y-93928091D01*
X137686577Y-93453423D01*
X137334242Y-93218000D01*
X137686577Y-92982577D01*
X138003740Y-92507909D01*
X138055393Y-92248233D01*
X138684001Y-92876842D01*
X138684000Y-105920604D01*
X138483466Y-106121138D01*
X138265000Y-106648561D01*
X138265000Y-106932160D01*
X138263160Y-106934000D01*
X131672063Y-106934000D01*
X131572000Y-106914096D01*
X131516841Y-106925068D01*
X131516841Y-97838126D01*
X132061000Y-97838126D01*
X132061000Y-98249874D01*
X132218569Y-98630280D01*
X132509720Y-98921431D01*
X132890126Y-99079000D01*
X133301874Y-99079000D01*
X133682280Y-98921431D01*
X133973431Y-98630280D01*
X134131000Y-98249874D01*
X134131000Y-97838126D01*
X133973431Y-97457720D01*
X133856000Y-97340289D01*
X133856000Y-87690801D01*
X134426802Y-87120000D01*
X142009199Y-87120000D01*
X142217296Y-87328098D01*
X142202191Y-87338191D01*
X142061843Y-87548235D01*
X142012560Y-87796000D01*
X142012560Y-89496000D01*
X142061843Y-89743765D01*
X142202191Y-89953809D01*
X142412235Y-90094157D01*
X142457619Y-90103184D01*
X142439375Y-90115375D01*
X142111161Y-90606582D01*
X141995908Y-91186000D01*
X142111161Y-91765418D01*
X142439375Y-92256625D01*
X142737761Y-92456000D01*
X142439375Y-92655375D01*
X142111161Y-93146582D01*
X141995908Y-93726000D01*
X142111161Y-94305418D01*
X142439375Y-94796625D01*
X142930582Y-95124839D01*
X143363744Y-95211000D01*
X143656256Y-95211000D01*
X144089418Y-95124839D01*
X144580625Y-94796625D01*
X144908839Y-94305418D01*
X145024092Y-93726000D01*
X144908839Y-93146582D01*
X144580625Y-92655375D01*
X144282239Y-92456000D01*
X144580625Y-92256625D01*
X144908839Y-91765418D01*
X145024092Y-91186000D01*
X144908839Y-90606582D01*
X144580625Y-90115375D01*
X144562381Y-90103184D01*
X144607765Y-90094157D01*
X144817809Y-89953809D01*
X144958157Y-89743765D01*
X145007440Y-89496000D01*
X145007440Y-87796000D01*
X144958157Y-87548235D01*
X144817809Y-87338191D01*
X144607765Y-87197843D01*
X144360000Y-87148560D01*
X144158483Y-87148560D01*
X144057929Y-86998071D01*
X143994473Y-86955671D01*
X142914331Y-85875530D01*
X142871929Y-85812071D01*
X142620537Y-85644096D01*
X142398852Y-85600000D01*
X142398847Y-85600000D01*
X142324000Y-85585112D01*
X142249153Y-85600000D01*
X134186847Y-85600000D01*
X134112000Y-85585112D01*
X134037153Y-85600000D01*
X134037148Y-85600000D01*
X133815463Y-85644096D01*
X133564071Y-85812071D01*
X133521671Y-85875527D01*
X132611530Y-86785669D01*
X132548071Y-86828071D01*
X132380096Y-87079464D01*
X132336000Y-87301149D01*
X132336000Y-87301153D01*
X132321112Y-87376000D01*
X132336000Y-87450847D01*
X132336001Y-97340288D01*
X132218569Y-97457720D01*
X132061000Y-97838126D01*
X131516841Y-97838126D01*
X131516841Y-90157687D01*
X131531729Y-90082840D01*
X131516841Y-90007993D01*
X131516841Y-90007989D01*
X131472745Y-89786304D01*
X131415747Y-89701000D01*
X131347170Y-89598367D01*
X131347168Y-89598365D01*
X131304770Y-89534912D01*
X131241316Y-89492513D01*
X130672330Y-88923529D01*
X130629929Y-88860071D01*
X130479440Y-88759517D01*
X130479440Y-88608000D01*
X130430157Y-88360235D01*
X130289809Y-88150191D01*
X130079765Y-88009843D01*
X129832000Y-87960560D01*
X128232000Y-87960560D01*
X127984235Y-88009843D01*
X127774191Y-88150191D01*
X127633843Y-88360235D01*
X127584560Y-88608000D01*
X127584560Y-89425758D01*
X124683801Y-86525000D01*
X124745439Y-86525000D01*
X125272862Y-86306534D01*
X125676534Y-85902862D01*
X125895000Y-85375439D01*
X125895000Y-84804561D01*
X126835000Y-84804561D01*
X126835000Y-85375439D01*
X127053466Y-85902862D01*
X127457138Y-86306534D01*
X127984561Y-86525000D01*
X128555439Y-86525000D01*
X129082862Y-86306534D01*
X129486534Y-85902862D01*
X129705000Y-85375439D01*
X129705000Y-84804561D01*
X129486534Y-84277138D01*
X129082862Y-83873466D01*
X129017701Y-83846475D01*
X129024005Y-83843864D01*
X129098139Y-83597745D01*
X128270000Y-82769605D01*
X127441861Y-83597745D01*
X127515995Y-83843864D01*
X127522746Y-83846290D01*
X127457138Y-83873466D01*
X127053466Y-84277138D01*
X126835000Y-84804561D01*
X125895000Y-84804561D01*
X125676534Y-84277138D01*
X125272862Y-83873466D01*
X125207701Y-83846475D01*
X125214005Y-83843864D01*
X125288139Y-83597745D01*
X124460000Y-82769605D01*
X123631861Y-83597745D01*
X123705995Y-83843864D01*
X123712746Y-83846290D01*
X123647138Y-83873466D01*
X123243466Y-84277138D01*
X123025000Y-84804561D01*
X123025000Y-84913142D01*
X122978537Y-84882096D01*
X122756852Y-84838000D01*
X122756847Y-84838000D01*
X122682000Y-84823112D01*
X122607153Y-84838000D01*
X110541002Y-84838000D01*
X110556139Y-84787745D01*
X109728000Y-83959605D01*
X108899861Y-84787745D01*
X108914998Y-84838000D01*
X102944846Y-84838000D01*
X102869999Y-84823112D01*
X102795152Y-84838000D01*
X102795148Y-84838000D01*
X102573463Y-84882096D01*
X102573461Y-84882097D01*
X102573462Y-84882097D01*
X102385526Y-85007671D01*
X102385524Y-85007673D01*
X102322071Y-85050071D01*
X102308087Y-85071000D01*
X102156126Y-85071000D01*
X101775720Y-85228569D01*
X101484569Y-85519720D01*
X101327000Y-85900126D01*
X101327000Y-86311874D01*
X101484569Y-86692280D01*
X101775720Y-86983431D01*
X102156126Y-87141000D01*
X102567874Y-87141000D01*
X102948280Y-86983431D01*
X103239431Y-86692280D01*
X103377894Y-86358000D01*
X109049045Y-86358000D01*
X108915138Y-86413466D01*
X108511466Y-86817138D01*
X108293000Y-87344561D01*
X108293000Y-87915439D01*
X108511466Y-88442862D01*
X108915138Y-88846534D01*
X109442561Y-89065000D01*
X110013439Y-89065000D01*
X110540862Y-88846534D01*
X110944534Y-88442862D01*
X111163000Y-87915439D01*
X111163000Y-87344561D01*
X110944534Y-86817138D01*
X110540862Y-86413466D01*
X110406955Y-86358000D01*
X122367199Y-86358000D01*
X122879198Y-86870000D01*
X117930846Y-86870000D01*
X117855999Y-86855112D01*
X117781152Y-86870000D01*
X117781148Y-86870000D01*
X117559463Y-86914096D01*
X117559461Y-86914097D01*
X117559462Y-86914097D01*
X117371526Y-87039671D01*
X117371524Y-87039673D01*
X117308071Y-87082071D01*
X117265672Y-87145525D01*
X116863527Y-87547672D01*
X116800072Y-87590071D01*
X116757672Y-87653527D01*
X116757671Y-87653528D01*
X116632097Y-87841463D01*
X116599333Y-88006177D01*
X116370000Y-87960560D01*
X114770000Y-87960560D01*
X114522235Y-88009843D01*
X114312191Y-88150191D01*
X114171843Y-88360235D01*
X114122560Y-88608000D01*
X114122560Y-90208000D01*
X114171843Y-90455765D01*
X114312191Y-90665809D01*
X114522235Y-90806157D01*
X114656106Y-90832785D01*
X114535423Y-90913423D01*
X114218260Y-91388091D01*
X114106887Y-91948000D01*
X114171312Y-92271886D01*
X113307528Y-93135671D01*
X113244072Y-93178071D01*
X113201672Y-93241527D01*
X113201671Y-93241528D01*
X113076097Y-93429463D01*
X113017112Y-93726000D01*
X113032001Y-93800852D01*
X113032000Y-100269198D01*
X110488000Y-102813198D01*
X110488000Y-96468043D01*
X110762577Y-96284577D01*
X111079740Y-95809909D01*
X111191113Y-95250000D01*
X111079740Y-94690091D01*
X110762577Y-94215423D01*
X110287909Y-93898260D01*
X109869333Y-93815000D01*
X109586667Y-93815000D01*
X109168091Y-93898260D01*
X108693423Y-94215423D01*
X108376260Y-94690091D01*
X108264887Y-95250000D01*
X108376260Y-95809909D01*
X108693423Y-96284577D01*
X108968000Y-96468044D01*
X108968001Y-102809197D01*
X107538814Y-104238385D01*
X107403041Y-103910577D01*
X107027134Y-103495611D01*
X106521041Y-103256086D01*
X106299000Y-103377371D01*
X106299000Y-104521000D01*
X106319000Y-104521000D01*
X106319000Y-104775000D01*
X106299000Y-104775000D01*
X106299000Y-104795000D01*
X106045000Y-104795000D01*
X106045000Y-104775000D01*
X104902085Y-104775000D01*
X104780096Y-104997039D01*
X104940959Y-105385423D01*
X105316866Y-105800389D01*
X105764807Y-106012391D01*
X100621224Y-111155974D01*
X100590250Y-111125000D01*
X99441000Y-111125000D01*
X99441000Y-111145000D01*
X99187000Y-111145000D01*
X99187000Y-111125000D01*
X98037750Y-111125000D01*
X97879000Y-111283750D01*
X97879000Y-111924310D01*
X97975673Y-112157699D01*
X98154302Y-112336327D01*
X98385918Y-112432265D01*
X98279423Y-112503423D01*
X97962260Y-112978091D01*
X97850887Y-113538000D01*
X97962260Y-114097909D01*
X98279423Y-114572577D01*
X98631758Y-114808000D01*
X98279423Y-115043423D01*
X97962260Y-115518091D01*
X97850887Y-116078000D01*
X97962260Y-116637909D01*
X98279423Y-117112577D01*
X98631758Y-117348000D01*
X98279423Y-117583423D01*
X97962260Y-118058091D01*
X97850887Y-118618000D01*
X97962260Y-119177909D01*
X98279423Y-119652577D01*
X98754091Y-119969740D01*
X99172667Y-120053000D01*
X99455333Y-120053000D01*
X99873909Y-119969740D01*
X100348577Y-119652577D01*
X100360990Y-119634000D01*
X101245937Y-119634000D01*
X101346000Y-119653904D01*
X101446063Y-119634000D01*
X101446065Y-119634000D01*
X101742423Y-119575051D01*
X102078495Y-119350495D01*
X102135180Y-119265660D01*
X105041664Y-116359177D01*
X105126495Y-116302495D01*
X105351051Y-115966423D01*
X105410000Y-115670065D01*
X105410000Y-115670064D01*
X105429904Y-115570000D01*
X105410000Y-115469937D01*
X105410000Y-112434840D01*
X105830841Y-112014000D01*
X105887010Y-112014000D01*
X105899423Y-112032577D01*
X106251758Y-112268000D01*
X105899423Y-112503423D01*
X105582260Y-112978091D01*
X105470887Y-113538000D01*
X105582260Y-114097909D01*
X105899423Y-114572577D01*
X106251758Y-114808000D01*
X105899423Y-115043423D01*
X105582260Y-115518091D01*
X105470887Y-116078000D01*
X105582260Y-116637909D01*
X105899423Y-117112577D01*
X106251758Y-117348000D01*
X105899423Y-117583423D01*
X105582260Y-118058091D01*
X105470887Y-118618000D01*
X105535312Y-118941886D01*
X103825199Y-120652000D01*
X91754802Y-120652000D01*
X90948600Y-119845799D01*
X91134091Y-119969740D01*
X91552667Y-120053000D01*
X91835333Y-120053000D01*
X92253909Y-119969740D01*
X92728577Y-119652577D01*
X93045740Y-119177909D01*
X93157113Y-118618000D01*
X93100336Y-118332561D01*
X94069000Y-118332561D01*
X94069000Y-118903439D01*
X94287466Y-119430862D01*
X94691138Y-119834534D01*
X95218561Y-120053000D01*
X95789439Y-120053000D01*
X96316862Y-119834534D01*
X96720534Y-119430862D01*
X96939000Y-118903439D01*
X96939000Y-118332561D01*
X96720534Y-117805138D01*
X96316862Y-117401466D01*
X95789439Y-117183000D01*
X95218561Y-117183000D01*
X94691138Y-117401466D01*
X94287466Y-117805138D01*
X94069000Y-118332561D01*
X93100336Y-118332561D01*
X93045740Y-118058091D01*
X92728577Y-117583423D01*
X92253909Y-117266260D01*
X91835333Y-117183000D01*
X91552667Y-117183000D01*
X91134091Y-117266260D01*
X90930000Y-117402629D01*
X90930000Y-112234773D01*
X91408561Y-112433000D01*
X91979439Y-112433000D01*
X92506862Y-112214534D01*
X92910534Y-111810862D01*
X93129000Y-111283439D01*
X93129000Y-110998000D01*
X94040887Y-110998000D01*
X94152260Y-111557909D01*
X94469423Y-112032577D01*
X94944091Y-112349740D01*
X95362667Y-112433000D01*
X95645333Y-112433000D01*
X96063909Y-112349740D01*
X96538577Y-112032577D01*
X96855740Y-111557909D01*
X96967113Y-110998000D01*
X96855740Y-110438091D01*
X96610919Y-110071690D01*
X97879000Y-110071690D01*
X97879000Y-110712250D01*
X98037750Y-110871000D01*
X99187000Y-110871000D01*
X99187000Y-109721750D01*
X99441000Y-109721750D01*
X99441000Y-110871000D01*
X100590250Y-110871000D01*
X100749000Y-110712250D01*
X100749000Y-110071690D01*
X100652327Y-109838301D01*
X100473698Y-109659673D01*
X100240309Y-109563000D01*
X99599750Y-109563000D01*
X99441000Y-109721750D01*
X99187000Y-109721750D01*
X99028250Y-109563000D01*
X98387691Y-109563000D01*
X98154302Y-109659673D01*
X97975673Y-109838301D01*
X97879000Y-110071690D01*
X96610919Y-110071690D01*
X96538577Y-109963423D01*
X96063909Y-109646260D01*
X95645333Y-109563000D01*
X95362667Y-109563000D01*
X94944091Y-109646260D01*
X94469423Y-109963423D01*
X94152260Y-110438091D01*
X94040887Y-110998000D01*
X93129000Y-110998000D01*
X93129000Y-110712561D01*
X92910534Y-110185138D01*
X92506862Y-109781466D01*
X92454000Y-109759570D01*
X92454000Y-102930801D01*
X97089405Y-98295397D01*
X97088887Y-98298000D01*
X97200260Y-98857909D01*
X97517423Y-99332577D01*
X97869758Y-99568000D01*
X97517423Y-99803423D01*
X97200260Y-100278091D01*
X97088887Y-100838000D01*
X97153312Y-101161886D01*
X95527528Y-102787671D01*
X95464072Y-102830071D01*
X95421672Y-102893527D01*
X95421671Y-102893528D01*
X95296097Y-103081463D01*
X95237112Y-103378000D01*
X95252001Y-103452852D01*
X95252000Y-105468289D01*
X95134569Y-105585720D01*
X94977000Y-105966126D01*
X94977000Y-106377874D01*
X95134569Y-106758280D01*
X95425720Y-107049431D01*
X95806126Y-107207000D01*
X96217874Y-107207000D01*
X96598280Y-107049431D01*
X96889431Y-106758280D01*
X97047000Y-106377874D01*
X97047000Y-105966126D01*
X96889431Y-105585720D01*
X96772000Y-105468289D01*
X96772000Y-104362561D01*
X97117000Y-104362561D01*
X97117000Y-104933439D01*
X97335466Y-105460862D01*
X97739138Y-105864534D01*
X98266561Y-106083000D01*
X98837439Y-106083000D01*
X99364862Y-105864534D01*
X99768534Y-105460862D01*
X99987000Y-104933439D01*
X99987000Y-104362561D01*
X99960656Y-104298961D01*
X104780096Y-104298961D01*
X104902085Y-104521000D01*
X106045000Y-104521000D01*
X106045000Y-103377371D01*
X105822959Y-103256086D01*
X105316866Y-103495611D01*
X104940959Y-103910577D01*
X104780096Y-104298961D01*
X99960656Y-104298961D01*
X99768534Y-103835138D01*
X99364862Y-103431466D01*
X98837439Y-103213000D01*
X98266561Y-103213000D01*
X97739138Y-103431466D01*
X97335466Y-103835138D01*
X97117000Y-104362561D01*
X96772000Y-104362561D01*
X96772000Y-103692801D01*
X98228114Y-102236688D01*
X98410667Y-102273000D01*
X98693333Y-102273000D01*
X99111909Y-102189740D01*
X99586577Y-101872577D01*
X99903740Y-101397909D01*
X100015113Y-100838000D01*
X104708887Y-100838000D01*
X104820260Y-101397909D01*
X105137423Y-101872577D01*
X105612091Y-102189740D01*
X106030667Y-102273000D01*
X106313333Y-102273000D01*
X106731909Y-102189740D01*
X107206577Y-101872577D01*
X107523740Y-101397909D01*
X107635113Y-100838000D01*
X107523740Y-100278091D01*
X107206577Y-99803423D01*
X106822892Y-99547053D01*
X107027134Y-99450389D01*
X107403041Y-99035423D01*
X107563904Y-98647039D01*
X107441915Y-98425000D01*
X106299000Y-98425000D01*
X106299000Y-98445000D01*
X106045000Y-98445000D01*
X106045000Y-98425000D01*
X104902085Y-98425000D01*
X104780096Y-98647039D01*
X104940959Y-99035423D01*
X105316866Y-99450389D01*
X105521108Y-99547053D01*
X105137423Y-99803423D01*
X104820260Y-100278091D01*
X104708887Y-100838000D01*
X100015113Y-100838000D01*
X99903740Y-100278091D01*
X99586577Y-99803423D01*
X99234242Y-99568000D01*
X99586577Y-99332577D01*
X99903740Y-98857909D01*
X100015113Y-98298000D01*
X99903740Y-97738091D01*
X99586577Y-97263423D01*
X99234242Y-97028000D01*
X99586577Y-96792577D01*
X99903740Y-96317909D01*
X100015113Y-95758000D01*
X99903740Y-95198091D01*
X99586577Y-94723423D01*
X99480082Y-94652265D01*
X99711698Y-94556327D01*
X99890327Y-94377699D01*
X99987000Y-94144310D01*
X99987000Y-93503750D01*
X99828250Y-93345000D01*
X98679000Y-93345000D01*
X98679000Y-93365000D01*
X98425000Y-93365000D01*
X98425000Y-93345000D01*
X97275750Y-93345000D01*
X97117000Y-93503750D01*
X97117000Y-94144310D01*
X97213673Y-94377699D01*
X97392302Y-94556327D01*
X97623918Y-94652265D01*
X97517423Y-94723423D01*
X97200260Y-95198091D01*
X97088887Y-95758000D01*
X97153312Y-96081886D01*
X91209530Y-102025669D01*
X91146071Y-102068071D01*
X90978096Y-102319464D01*
X90934000Y-102541149D01*
X90934000Y-102541153D01*
X90919112Y-102616000D01*
X90934000Y-102690847D01*
X90934000Y-105726289D01*
X90756280Y-105548569D01*
X90375874Y-105391000D01*
X89964126Y-105391000D01*
X89583720Y-105548569D01*
X89292569Y-105839720D01*
X89135000Y-106220126D01*
X88848000Y-106220126D01*
X88848000Y-95409061D01*
X93434000Y-95409061D01*
X93434000Y-95979939D01*
X93652466Y-96507362D01*
X94056138Y-96911034D01*
X94583561Y-97129500D01*
X95154439Y-97129500D01*
X95681862Y-96911034D01*
X96085534Y-96507362D01*
X96304000Y-95979939D01*
X96304000Y-95409061D01*
X96085534Y-94881638D01*
X95681862Y-94477966D01*
X95616701Y-94450975D01*
X95623005Y-94448364D01*
X95697139Y-94202245D01*
X94869000Y-93374105D01*
X94040861Y-94202245D01*
X94114995Y-94448364D01*
X94121746Y-94450790D01*
X94056138Y-94477966D01*
X93652466Y-94881638D01*
X93434000Y-95409061D01*
X88848000Y-95409061D01*
X88848000Y-92977723D01*
X93422035Y-92977723D01*
X93449222Y-93547954D01*
X93615136Y-93948505D01*
X93861255Y-94022639D01*
X94689395Y-93194500D01*
X95048605Y-93194500D01*
X95876745Y-94022639D01*
X96122864Y-93948505D01*
X96315965Y-93411277D01*
X96306751Y-93218000D01*
X104708887Y-93218000D01*
X104820260Y-93777909D01*
X105137423Y-94252577D01*
X105489758Y-94488000D01*
X105137423Y-94723423D01*
X104820260Y-95198091D01*
X104708887Y-95758000D01*
X104820260Y-96317909D01*
X105137423Y-96792577D01*
X105521108Y-97048947D01*
X105316866Y-97145611D01*
X104940959Y-97560577D01*
X104780096Y-97948961D01*
X104902085Y-98171000D01*
X106045000Y-98171000D01*
X106045000Y-98151000D01*
X106299000Y-98151000D01*
X106299000Y-98171000D01*
X107441915Y-98171000D01*
X107563904Y-97948961D01*
X107403041Y-97560577D01*
X107027134Y-97145611D01*
X106822892Y-97048947D01*
X107206577Y-96792577D01*
X107523740Y-96317909D01*
X107635113Y-95758000D01*
X107523740Y-95198091D01*
X107206577Y-94723423D01*
X106854242Y-94488000D01*
X107206577Y-94252577D01*
X107523740Y-93777909D01*
X107635113Y-93218000D01*
X107523740Y-92658091D01*
X107206577Y-92183423D01*
X106731909Y-91866260D01*
X106313333Y-91783000D01*
X106030667Y-91783000D01*
X105612091Y-91866260D01*
X105137423Y-92183423D01*
X104820260Y-92658091D01*
X104708887Y-93218000D01*
X96306751Y-93218000D01*
X96288778Y-92841046D01*
X96122864Y-92440495D01*
X95876745Y-92366361D01*
X95048605Y-93194500D01*
X94689395Y-93194500D01*
X93861255Y-92366361D01*
X93615136Y-92440495D01*
X93422035Y-92977723D01*
X88848000Y-92977723D01*
X88848000Y-92186755D01*
X94040861Y-92186755D01*
X94869000Y-93014895D01*
X95592204Y-92291690D01*
X97117000Y-92291690D01*
X97117000Y-92932250D01*
X97275750Y-93091000D01*
X98425000Y-93091000D01*
X98425000Y-91941750D01*
X98679000Y-91941750D01*
X98679000Y-93091000D01*
X99828250Y-93091000D01*
X99987000Y-92932250D01*
X99987000Y-92291690D01*
X99890327Y-92058301D01*
X99711698Y-91879673D01*
X99478309Y-91783000D01*
X98837750Y-91783000D01*
X98679000Y-91941750D01*
X98425000Y-91941750D01*
X98266250Y-91783000D01*
X97625691Y-91783000D01*
X97392302Y-91879673D01*
X97213673Y-92058301D01*
X97117000Y-92291690D01*
X95592204Y-92291690D01*
X95697139Y-92186755D01*
X95623005Y-91940636D01*
X95085777Y-91747535D01*
X94515546Y-91774722D01*
X94114995Y-91940636D01*
X94040861Y-92186755D01*
X88848000Y-92186755D01*
X88848000Y-88608000D01*
X91770560Y-88608000D01*
X91770560Y-90208000D01*
X91819843Y-90455765D01*
X91960191Y-90665809D01*
X92170235Y-90806157D01*
X92418000Y-90855440D01*
X94018000Y-90855440D01*
X94265765Y-90806157D01*
X94475809Y-90665809D01*
X94616157Y-90455765D01*
X94665440Y-90208000D01*
X94665440Y-88608000D01*
X94616157Y-88360235D01*
X94475809Y-88150191D01*
X94265765Y-88009843D01*
X94031813Y-87963307D01*
X94046139Y-87915745D01*
X93218000Y-87087605D01*
X92389861Y-87915745D01*
X92404187Y-87963307D01*
X92170235Y-88009843D01*
X91960191Y-88150191D01*
X91819843Y-88360235D01*
X91770560Y-88608000D01*
X88848000Y-88608000D01*
X88848000Y-86691223D01*
X91771035Y-86691223D01*
X91798222Y-87261454D01*
X91964136Y-87662005D01*
X92210255Y-87736139D01*
X93038395Y-86908000D01*
X93397605Y-86908000D01*
X94225745Y-87736139D01*
X94471864Y-87662005D01*
X94491951Y-87606119D01*
X98425000Y-87606119D01*
X98425000Y-88161881D01*
X98637680Y-88675337D01*
X99030663Y-89068320D01*
X99544119Y-89281000D01*
X100099881Y-89281000D01*
X100613337Y-89068320D01*
X101006320Y-88675337D01*
X101219000Y-88161881D01*
X101219000Y-87606119D01*
X103505000Y-87606119D01*
X103505000Y-88161881D01*
X103717680Y-88675337D01*
X104110663Y-89068320D01*
X104624119Y-89281000D01*
X105179881Y-89281000D01*
X105693337Y-89068320D01*
X106086320Y-88675337D01*
X106299000Y-88161881D01*
X106299000Y-87606119D01*
X106086320Y-87092663D01*
X105693337Y-86699680D01*
X105179881Y-86487000D01*
X104624119Y-86487000D01*
X104110663Y-86699680D01*
X103717680Y-87092663D01*
X103505000Y-87606119D01*
X101219000Y-87606119D01*
X101006320Y-87092663D01*
X100613337Y-86699680D01*
X100099881Y-86487000D01*
X99544119Y-86487000D01*
X99030663Y-86699680D01*
X98637680Y-87092663D01*
X98425000Y-87606119D01*
X94491951Y-87606119D01*
X94664965Y-87124777D01*
X94637778Y-86554546D01*
X94471864Y-86153995D01*
X94225745Y-86079861D01*
X93397605Y-86908000D01*
X93038395Y-86908000D01*
X92210255Y-86079861D01*
X91964136Y-86153995D01*
X91771035Y-86691223D01*
X88848000Y-86691223D01*
X88848000Y-85900255D01*
X92389861Y-85900255D01*
X93218000Y-86728395D01*
X94046139Y-85900255D01*
X93972005Y-85654136D01*
X93434777Y-85461035D01*
X92864546Y-85488222D01*
X92463995Y-85654136D01*
X92389861Y-85900255D01*
X88848000Y-85900255D01*
X88848000Y-82526119D01*
X100965000Y-82526119D01*
X100965000Y-83081881D01*
X101177680Y-83595337D01*
X101570663Y-83988320D01*
X102084119Y-84201000D01*
X102639881Y-84201000D01*
X103153337Y-83988320D01*
X103546320Y-83595337D01*
X103559622Y-83563223D01*
X108281035Y-83563223D01*
X108308222Y-84133454D01*
X108474136Y-84534005D01*
X108720255Y-84608139D01*
X109548395Y-83780000D01*
X109907605Y-83780000D01*
X110735745Y-84608139D01*
X110981864Y-84534005D01*
X111174965Y-83996777D01*
X111147778Y-83426546D01*
X110981864Y-83025995D01*
X110735745Y-82951861D01*
X109907605Y-83780000D01*
X109548395Y-83780000D01*
X108720255Y-82951861D01*
X108474136Y-83025995D01*
X108281035Y-83563223D01*
X103559622Y-83563223D01*
X103759000Y-83081881D01*
X103759000Y-82526119D01*
X103546320Y-82012663D01*
X103153337Y-81619680D01*
X103122000Y-81606700D01*
X103122000Y-81594801D01*
X103722240Y-80994561D01*
X108293000Y-80994561D01*
X108293000Y-81565439D01*
X108511466Y-82092862D01*
X108915138Y-82496534D01*
X108980299Y-82523525D01*
X108973995Y-82526136D01*
X108899861Y-82772255D01*
X109728000Y-83600395D01*
X110556139Y-82772255D01*
X110482005Y-82526136D01*
X110475254Y-82523710D01*
X110540862Y-82496534D01*
X110944534Y-82092862D01*
X111107262Y-81700000D01*
X116104560Y-81700000D01*
X116104560Y-83400000D01*
X116153843Y-83647765D01*
X116294191Y-83857809D01*
X116504235Y-83998157D01*
X116752000Y-84047440D01*
X118452000Y-84047440D01*
X118699765Y-83998157D01*
X118909809Y-83857809D01*
X119050157Y-83647765D01*
X119070739Y-83544292D01*
X119375076Y-83821645D01*
X119785110Y-83991476D01*
X120015000Y-83870155D01*
X120015000Y-82677000D01*
X120269000Y-82677000D01*
X120269000Y-83870155D01*
X120498890Y-83991476D01*
X120908924Y-83821645D01*
X121337183Y-83431358D01*
X121583486Y-82906892D01*
X121462819Y-82677000D01*
X120269000Y-82677000D01*
X120015000Y-82677000D01*
X119995000Y-82677000D01*
X119995000Y-82423000D01*
X120015000Y-82423000D01*
X120015000Y-81229845D01*
X120269000Y-81229845D01*
X120269000Y-82423000D01*
X121462819Y-82423000D01*
X121488946Y-82373223D01*
X123013035Y-82373223D01*
X123040222Y-82943454D01*
X123206136Y-83344005D01*
X123452255Y-83418139D01*
X124280395Y-82590000D01*
X124639605Y-82590000D01*
X125467745Y-83418139D01*
X125713864Y-83344005D01*
X125906965Y-82806777D01*
X125886295Y-82373223D01*
X126823035Y-82373223D01*
X126850222Y-82943454D01*
X127016136Y-83344005D01*
X127262255Y-83418139D01*
X128090395Y-82590000D01*
X128449605Y-82590000D01*
X129277745Y-83418139D01*
X129523864Y-83344005D01*
X129716965Y-82806777D01*
X129689778Y-82236546D01*
X129523864Y-81835995D01*
X129277745Y-81761861D01*
X128449605Y-82590000D01*
X128090395Y-82590000D01*
X127262255Y-81761861D01*
X127016136Y-81835995D01*
X126823035Y-82373223D01*
X125886295Y-82373223D01*
X125879778Y-82236546D01*
X125713864Y-81835995D01*
X125467745Y-81761861D01*
X124639605Y-82590000D01*
X124280395Y-82590000D01*
X123452255Y-81761861D01*
X123206136Y-81835995D01*
X123013035Y-82373223D01*
X121488946Y-82373223D01*
X121583486Y-82193108D01*
X121337183Y-81668642D01*
X121242392Y-81582255D01*
X123631861Y-81582255D01*
X124460000Y-82410395D01*
X125288139Y-81582255D01*
X127441861Y-81582255D01*
X128270000Y-82410395D01*
X129098139Y-81582255D01*
X129024005Y-81336136D01*
X128486777Y-81143035D01*
X127916546Y-81170222D01*
X127515995Y-81336136D01*
X127441861Y-81582255D01*
X125288139Y-81582255D01*
X125214005Y-81336136D01*
X124676777Y-81143035D01*
X124106546Y-81170222D01*
X123705995Y-81336136D01*
X123631861Y-81582255D01*
X121242392Y-81582255D01*
X120908924Y-81278355D01*
X120498890Y-81108524D01*
X120269000Y-81229845D01*
X120015000Y-81229845D01*
X119785110Y-81108524D01*
X119375076Y-81278355D01*
X119070739Y-81555708D01*
X119050157Y-81452235D01*
X118909809Y-81242191D01*
X118699765Y-81101843D01*
X118452000Y-81052560D01*
X116752000Y-81052560D01*
X116504235Y-81101843D01*
X116294191Y-81242191D01*
X116153843Y-81452235D01*
X116104560Y-81700000D01*
X111107262Y-81700000D01*
X111163000Y-81565439D01*
X111163000Y-80994561D01*
X110944534Y-80467138D01*
X110540862Y-80063466D01*
X110013439Y-79845000D01*
X109442561Y-79845000D01*
X108915138Y-80063466D01*
X108511466Y-80467138D01*
X108293000Y-80994561D01*
X103722240Y-80994561D01*
X104585029Y-80131772D01*
X104950126Y-80283000D01*
X105361874Y-80283000D01*
X105742280Y-80125431D01*
X106033431Y-79834280D01*
X106191000Y-79453874D01*
X106191000Y-79042126D01*
X106033431Y-78661720D01*
X105742280Y-78370569D01*
X105361874Y-78213000D01*
X104950126Y-78213000D01*
X104569720Y-78370569D01*
X104455036Y-78485253D01*
X104394000Y-78473112D01*
X104319153Y-78488000D01*
X104319148Y-78488000D01*
X104097463Y-78532096D01*
X103846071Y-78700071D01*
X103803671Y-78763527D01*
X101877528Y-80689671D01*
X101814072Y-80732071D01*
X101771672Y-80795527D01*
X101771671Y-80795528D01*
X101646097Y-80983463D01*
X101587112Y-81280000D01*
X101602001Y-81354851D01*
X101602001Y-81606700D01*
X101570663Y-81619680D01*
X101177680Y-82012663D01*
X100965000Y-82526119D01*
X88848000Y-82526119D01*
X88848000Y-78555931D01*
X88884144Y-78374223D01*
X88947461Y-78279461D01*
X89042223Y-78216144D01*
X89223930Y-78180000D01*
X148647069Y-78180000D01*
X148780179Y-78206477D01*
G36*
X127937720Y-108065431D02*
X128318126Y-108223000D01*
X128647040Y-108223000D01*
X124737528Y-112132513D01*
X124674072Y-112174913D01*
X124631672Y-112238369D01*
X124631671Y-112238370D01*
X124506097Y-112426305D01*
X124447112Y-112722842D01*
X124462001Y-112797693D01*
X124462000Y-113731198D01*
X121965894Y-116227305D01*
X121938577Y-116186423D01*
X121586242Y-115951000D01*
X121938577Y-115715577D01*
X122255740Y-115240909D01*
X122367113Y-114681000D01*
X122255740Y-114121091D01*
X121938577Y-113646423D01*
X121832082Y-113575265D01*
X122063698Y-113479327D01*
X122242327Y-113300699D01*
X122339000Y-113067310D01*
X122339000Y-112426750D01*
X122180250Y-112268000D01*
X121031000Y-112268000D01*
X121031000Y-112288000D01*
X120777000Y-112288000D01*
X120777000Y-112268000D01*
X119627750Y-112268000D01*
X119469000Y-112426750D01*
X119469000Y-113067310D01*
X119565673Y-113300699D01*
X119744302Y-113479327D01*
X119975918Y-113575265D01*
X119869423Y-113646423D01*
X119552260Y-114121091D01*
X119440887Y-114681000D01*
X119552260Y-115240909D01*
X119869423Y-115715577D01*
X120221758Y-115951000D01*
X119869423Y-116186423D01*
X119552260Y-116661091D01*
X119440887Y-117221000D01*
X119552260Y-117780909D01*
X119869423Y-118255577D01*
X120221758Y-118491000D01*
X119869423Y-118726423D01*
X119552260Y-119201091D01*
X119440887Y-119761000D01*
X119552260Y-120320909D01*
X119773488Y-120652000D01*
X118932802Y-120652000D01*
X117621000Y-119340199D01*
X117621000Y-119174126D01*
X117463431Y-118793720D01*
X117172280Y-118502569D01*
X116791874Y-118345000D01*
X116380126Y-118345000D01*
X115999720Y-118502569D01*
X115949000Y-118553289D01*
X115949000Y-111707848D01*
X115963888Y-111633000D01*
X115949000Y-111558152D01*
X115949000Y-111558148D01*
X115904904Y-111336463D01*
X115823538Y-111214690D01*
X119469000Y-111214690D01*
X119469000Y-111855250D01*
X119627750Y-112014000D01*
X120777000Y-112014000D01*
X120777000Y-110864750D01*
X121031000Y-110864750D01*
X121031000Y-112014000D01*
X122180250Y-112014000D01*
X122339000Y-111855250D01*
X122339000Y-111214690D01*
X122242327Y-110981301D01*
X122063698Y-110802673D01*
X121830309Y-110706000D01*
X121189750Y-110706000D01*
X121031000Y-110864750D01*
X120777000Y-110864750D01*
X120618250Y-110706000D01*
X119977691Y-110706000D01*
X119744302Y-110802673D01*
X119565673Y-110981301D01*
X119469000Y-111214690D01*
X115823538Y-111214690D01*
X115736929Y-111085071D01*
X115673473Y-111042671D01*
X112578801Y-107948000D01*
X127820289Y-107948000D01*
X127937720Y-108065431D01*
X127937720Y-108065431D01*
G37*
X127937720Y-108065431D02*
X128318126Y-108223000D01*
X128647040Y-108223000D01*
X124737528Y-112132513D01*
X124674072Y-112174913D01*
X124631672Y-112238369D01*
X124631671Y-112238370D01*
X124506097Y-112426305D01*
X124447112Y-112722842D01*
X124462001Y-112797693D01*
X124462000Y-113731198D01*
X121965894Y-116227305D01*
X121938577Y-116186423D01*
X121586242Y-115951000D01*
X121938577Y-115715577D01*
X122255740Y-115240909D01*
X122367113Y-114681000D01*
X122255740Y-114121091D01*
X121938577Y-113646423D01*
X121832082Y-113575265D01*
X122063698Y-113479327D01*
X122242327Y-113300699D01*
X122339000Y-113067310D01*
X122339000Y-112426750D01*
X122180250Y-112268000D01*
X121031000Y-112268000D01*
X121031000Y-112288000D01*
X120777000Y-112288000D01*
X120777000Y-112268000D01*
X119627750Y-112268000D01*
X119469000Y-112426750D01*
X119469000Y-113067310D01*
X119565673Y-113300699D01*
X119744302Y-113479327D01*
X119975918Y-113575265D01*
X119869423Y-113646423D01*
X119552260Y-114121091D01*
X119440887Y-114681000D01*
X119552260Y-115240909D01*
X119869423Y-115715577D01*
X120221758Y-115951000D01*
X119869423Y-116186423D01*
X119552260Y-116661091D01*
X119440887Y-117221000D01*
X119552260Y-117780909D01*
X119869423Y-118255577D01*
X120221758Y-118491000D01*
X119869423Y-118726423D01*
X119552260Y-119201091D01*
X119440887Y-119761000D01*
X119552260Y-120320909D01*
X119773488Y-120652000D01*
X118932802Y-120652000D01*
X117621000Y-119340199D01*
X117621000Y-119174126D01*
X117463431Y-118793720D01*
X117172280Y-118502569D01*
X116791874Y-118345000D01*
X116380126Y-118345000D01*
X115999720Y-118502569D01*
X115949000Y-118553289D01*
X115949000Y-111707848D01*
X115963888Y-111633000D01*
X115949000Y-111558152D01*
X115949000Y-111558148D01*
X115904904Y-111336463D01*
X115823538Y-111214690D01*
X119469000Y-111214690D01*
X119469000Y-111855250D01*
X119627750Y-112014000D01*
X120777000Y-112014000D01*
X120777000Y-110864750D01*
X121031000Y-110864750D01*
X121031000Y-112014000D01*
X122180250Y-112014000D01*
X122339000Y-111855250D01*
X122339000Y-111214690D01*
X122242327Y-110981301D01*
X122063698Y-110802673D01*
X121830309Y-110706000D01*
X121189750Y-110706000D01*
X121031000Y-110864750D01*
X120777000Y-110864750D01*
X120618250Y-110706000D01*
X119977691Y-110706000D01*
X119744302Y-110802673D01*
X119565673Y-110981301D01*
X119469000Y-111214690D01*
X115823538Y-111214690D01*
X115736929Y-111085071D01*
X115673473Y-111042671D01*
X112578801Y-107948000D01*
X127820289Y-107948000D01*
X127937720Y-108065431D01*
G36*
X127997423Y-103142577D02*
X128381108Y-103398947D01*
X128176866Y-103495611D01*
X127800959Y-103910577D01*
X127640096Y-104298961D01*
X127762085Y-104521000D01*
X128905000Y-104521000D01*
X128905000Y-104501000D01*
X129159000Y-104501000D01*
X129159000Y-104521000D01*
X129179000Y-104521000D01*
X129179000Y-104775000D01*
X129159000Y-104775000D01*
X129159000Y-105918629D01*
X129381041Y-106039914D01*
X129887134Y-105800389D01*
X129996841Y-105679283D01*
X129996841Y-106873199D01*
X129559000Y-107311040D01*
X129559000Y-106982126D01*
X129401431Y-106601720D01*
X129110280Y-106310569D01*
X128729874Y-106153000D01*
X128318126Y-106153000D01*
X127937720Y-106310569D01*
X127820289Y-106428000D01*
X125278802Y-106428000D01*
X125452475Y-106254327D01*
X125515929Y-106211929D01*
X125558327Y-106148476D01*
X125558329Y-106148474D01*
X125672938Y-105976949D01*
X125683904Y-105960537D01*
X125728000Y-105738852D01*
X125728000Y-105738848D01*
X125742888Y-105664001D01*
X125728000Y-105589154D01*
X125728000Y-104997039D01*
X127640096Y-104997039D01*
X127800959Y-105385423D01*
X128176866Y-105800389D01*
X128682959Y-106039914D01*
X128905000Y-105918629D01*
X128905000Y-104775000D01*
X127762085Y-104775000D01*
X127640096Y-104997039D01*
X125728000Y-104997039D01*
X125728000Y-103184801D01*
X126044802Y-102868000D01*
X127813957Y-102868000D01*
X127997423Y-103142577D01*
X127997423Y-103142577D01*
G37*
X127997423Y-103142577D02*
X128381108Y-103398947D01*
X128176866Y-103495611D01*
X127800959Y-103910577D01*
X127640096Y-104298961D01*
X127762085Y-104521000D01*
X128905000Y-104521000D01*
X128905000Y-104501000D01*
X129159000Y-104501000D01*
X129159000Y-104521000D01*
X129179000Y-104521000D01*
X129179000Y-104775000D01*
X129159000Y-104775000D01*
X129159000Y-105918629D01*
X129381041Y-106039914D01*
X129887134Y-105800389D01*
X129996841Y-105679283D01*
X129996841Y-106873199D01*
X129559000Y-107311040D01*
X129559000Y-106982126D01*
X129401431Y-106601720D01*
X129110280Y-106310569D01*
X128729874Y-106153000D01*
X128318126Y-106153000D01*
X127937720Y-106310569D01*
X127820289Y-106428000D01*
X125278802Y-106428000D01*
X125452475Y-106254327D01*
X125515929Y-106211929D01*
X125558327Y-106148476D01*
X125558329Y-106148474D01*
X125672938Y-105976949D01*
X125683904Y-105960537D01*
X125728000Y-105738852D01*
X125728000Y-105738848D01*
X125742888Y-105664001D01*
X125728000Y-105589154D01*
X125728000Y-104997039D01*
X127640096Y-104997039D01*
X127800959Y-105385423D01*
X128176866Y-105800389D01*
X128682959Y-106039914D01*
X128905000Y-105918629D01*
X128905000Y-104775000D01*
X127762085Y-104775000D01*
X127640096Y-104997039D01*
X125728000Y-104997039D01*
X125728000Y-103184801D01*
X126044802Y-102868000D01*
X127813957Y-102868000D01*
X127997423Y-103142577D01*
G36*
X121726887Y-97028000D02*
X121838260Y-97587909D01*
X122155423Y-98062577D01*
X122507758Y-98298000D01*
X122155423Y-98533423D01*
X121838260Y-99008091D01*
X121726887Y-99568000D01*
X121838260Y-100127909D01*
X122155423Y-100602577D01*
X122507758Y-100838000D01*
X122155423Y-101073423D01*
X121838260Y-101548091D01*
X121726887Y-102108000D01*
X121838260Y-102667909D01*
X122155423Y-103142577D01*
X122507758Y-103378000D01*
X122155423Y-103613423D01*
X121838260Y-104088091D01*
X121726887Y-104648000D01*
X121838260Y-105207909D01*
X121974629Y-105412000D01*
X116776966Y-105412000D01*
X116801041Y-105385423D01*
X116961904Y-104997039D01*
X116839915Y-104775000D01*
X115697000Y-104775000D01*
X115697000Y-104795000D01*
X115443000Y-104795000D01*
X115443000Y-104775000D01*
X114300085Y-104775000D01*
X114178096Y-104997039D01*
X114338959Y-105385423D01*
X114363034Y-105412000D01*
X113598802Y-105412000D01*
X113303000Y-105116199D01*
X113303000Y-104950126D01*
X113145431Y-104569720D01*
X112854280Y-104278569D01*
X112473874Y-104121000D01*
X112062126Y-104121000D01*
X111681720Y-104278569D01*
X111390569Y-104569720D01*
X111233000Y-104950126D01*
X111233000Y-105361874D01*
X111372901Y-105699626D01*
X111203854Y-105666000D01*
X111203849Y-105666000D01*
X111129002Y-105651112D01*
X111054155Y-105666000D01*
X110685711Y-105666000D01*
X110568280Y-105548569D01*
X110187874Y-105391000D01*
X110059802Y-105391000D01*
X114276473Y-101174329D01*
X114339929Y-101131929D01*
X114507904Y-100880537D01*
X114552000Y-100658852D01*
X114552000Y-100658848D01*
X114559935Y-100618955D01*
X114887758Y-100838000D01*
X114535423Y-101073423D01*
X114218260Y-101548091D01*
X114106887Y-102108000D01*
X114218260Y-102667909D01*
X114535423Y-103142577D01*
X114919108Y-103398947D01*
X114714866Y-103495611D01*
X114338959Y-103910577D01*
X114178096Y-104298961D01*
X114300085Y-104521000D01*
X115443000Y-104521000D01*
X115443000Y-104501000D01*
X115697000Y-104501000D01*
X115697000Y-104521000D01*
X116839915Y-104521000D01*
X116961904Y-104298961D01*
X116801041Y-103910577D01*
X116425134Y-103495611D01*
X116220892Y-103398947D01*
X116604577Y-103142577D01*
X116921740Y-102667909D01*
X117033113Y-102108000D01*
X116968688Y-101784113D01*
X120986329Y-97766473D01*
X120986331Y-97766470D01*
X121727405Y-97025396D01*
X121726887Y-97028000D01*
X121726887Y-97028000D01*
G37*
X121726887Y-97028000D02*
X121838260Y-97587909D01*
X122155423Y-98062577D01*
X122507758Y-98298000D01*
X122155423Y-98533423D01*
X121838260Y-99008091D01*
X121726887Y-99568000D01*
X121838260Y-100127909D01*
X122155423Y-100602577D01*
X122507758Y-100838000D01*
X122155423Y-101073423D01*
X121838260Y-101548091D01*
X121726887Y-102108000D01*
X121838260Y-102667909D01*
X122155423Y-103142577D01*
X122507758Y-103378000D01*
X122155423Y-103613423D01*
X121838260Y-104088091D01*
X121726887Y-104648000D01*
X121838260Y-105207909D01*
X121974629Y-105412000D01*
X116776966Y-105412000D01*
X116801041Y-105385423D01*
X116961904Y-104997039D01*
X116839915Y-104775000D01*
X115697000Y-104775000D01*
X115697000Y-104795000D01*
X115443000Y-104795000D01*
X115443000Y-104775000D01*
X114300085Y-104775000D01*
X114178096Y-104997039D01*
X114338959Y-105385423D01*
X114363034Y-105412000D01*
X113598802Y-105412000D01*
X113303000Y-105116199D01*
X113303000Y-104950126D01*
X113145431Y-104569720D01*
X112854280Y-104278569D01*
X112473874Y-104121000D01*
X112062126Y-104121000D01*
X111681720Y-104278569D01*
X111390569Y-104569720D01*
X111233000Y-104950126D01*
X111233000Y-105361874D01*
X111372901Y-105699626D01*
X111203854Y-105666000D01*
X111203849Y-105666000D01*
X111129002Y-105651112D01*
X111054155Y-105666000D01*
X110685711Y-105666000D01*
X110568280Y-105548569D01*
X110187874Y-105391000D01*
X110059802Y-105391000D01*
X114276473Y-101174329D01*
X114339929Y-101131929D01*
X114507904Y-100880537D01*
X114552000Y-100658852D01*
X114552000Y-100658848D01*
X114559935Y-100618955D01*
X114887758Y-100838000D01*
X114535423Y-101073423D01*
X114218260Y-101548091D01*
X114106887Y-102108000D01*
X114218260Y-102667909D01*
X114535423Y-103142577D01*
X114919108Y-103398947D01*
X114714866Y-103495611D01*
X114338959Y-103910577D01*
X114178096Y-104298961D01*
X114300085Y-104521000D01*
X115443000Y-104521000D01*
X115443000Y-104501000D01*
X115697000Y-104501000D01*
X115697000Y-104521000D01*
X116839915Y-104521000D01*
X116961904Y-104298961D01*
X116801041Y-103910577D01*
X116425134Y-103495611D01*
X116220892Y-103398947D01*
X116604577Y-103142577D01*
X116921740Y-102667909D01*
X117033113Y-102108000D01*
X116968688Y-101784113D01*
X120986329Y-97766473D01*
X120986331Y-97766470D01*
X121727405Y-97025396D01*
X121726887Y-97028000D01*
G04 #@! TD*
M02*
